<svg id="a23628b6-9097-498b-8bb4-092615bd17bc" viewBox="0 0 64 64" xmlns="http://www.w3.org/2000/svg" xmlns:xlink="http://www.w3.org/1999/xlink" data-name="line gradient flaticon"><linearGradient id="b55bc6a3-ddbf-4848-a6f0-55351aa26ad4" gradientUnits="userSpaceOnUse" x1="10.608" x2="53.392" y1="32" y2="32"><stop offset="0" stop-color="#00c0ff"/><stop offset="1" stop-color="#5558ff"/></linearGradient><path d="m20.94067 31.26532a1.00087 1.00087 0 0 1 -.00006-2.00153 1.00087 1.00087 0 0 1 .00006 2.00153zm15.853-2.00153a1.00087 1.00087 0 0 0 .00006 2.00153 1.00087 1.00087 0 0 0 -.00003-2.00153zm-.7702 29.7555h-19.50284a5.91931 5.91931 0 0 1 -5.91266-5.9126v-43.19409a5.9193 5.9193 0 0 1 5.91266-5.9126h24.69427a5.91929 5.91929 0 0 1 5.91266 5.9126v3.397a1.00087 1.00087 0 0 1 -2.00152.00006v-3.39706a3.91552 3.91552 0 0 0 -3.91114-3.91114h-3.149l-1.2097 2.99738a3.93256 3.93256 0 0 1 -3.66 2.46918h-8.66568a3.92833 3.92833 0 0 1 -3.659-2.46869l-1.21045-2.99787h-3.14044a3.91552 3.91552 0 0 0 -3.91113 3.91114v43.19409a3.91551 3.91551 0 0 0 3.91113 3.91113h19.50287a1.00081 1.00081 0 0 1 0 2.00147zm-14.20297-53.01441.90692 2.24536a1.93537 1.93537 0 0 0 1.8031 1.21625h8.66571a1.93883 1.93883 0 0 0 1.80408-1.21722l.90594-2.24439zm3.66 45.632a1.00084 1.00084 0 0 0 .00006 2.00147h6.76575a1.00074 1.00074 0 0 0 0-2.00147zm15.48718-26.453-.87568 1.07289a8.07087 8.07087 0 0 1 1.42493 3.51551l.0039 7.09662a1.65551 1.65551 0 0 1 -1.65358 1.6541h-3.788a1.65571 1.65571 0 0 1 -1.65454-1.65405v-1.55639h-11.11483v1.55634a1.65572 1.65572 0 0 1 -1.65455 1.6541h-3.788a1.65571 1.65571 0 0 1 -1.65454-1.65405v-7.01214a8.18717 8.18717 0 0 1 1.43076-3.59881l-.87664-1.07416h-1.64576a1.00084 1.00084 0 0 1 -.00006-2.00147l2.12079.00006c.5885-.05694 1.03113.70307 1.35083 1.07361l1.27906-3.29852a3.638 3.638 0 0 1 3.51723-2.30884l.56592-1.92529a2.10179 2.10179 0 0 1 2.00543-1.50061h5.8139a2.10212 2.10212 0 0 1 2.00543 1.49963l.56592 1.92627a3.64 3.64 0 0 1 3.51915 2.31132l1.27777 3.29523.57519-.7049a.99957.99957 0 0 1 .775-.36792h2.11969a1.00085 1.00085 0 0 1 .00006 2.00147zm-15.49319-6.5352h6.7846l-.39984-1.3609a.08768.08768 0 0 0 -.085-.06354h-5.8139a.08929.08929 0 0 0 -.086.065zm-4.16608 16.66388h-3.09418v1.20892h3.09418zm18.21088 0h-3.09314v1.20892h3.09314zm0-5.45575a6.56178 6.56178 0 0 0 -1.191-2.63483h-10.57554a1.00083 1.00083 0 0 1 -.00006-2.00146h9.61755l-1.37311-3.53979a1.61561 1.61561 0 0 0 -1.49921-1.03058c-.36584.00415-10.8.0039-11.26135 0a1.61433 1.61433 0 0 0 -1.49719 1.02813l-1.37408 3.54224h3.52795a1.00083 1.00083 0 0 1 .00006 2.00146h-4.48657a6.56533 6.56533 0 0 0 -1.19641 2.71937l.00293 3.36969c5.21484-.00092 16.09179.00128 21.306 0zm-7.84668-.59281h-5.61061a1.00086 1.00086 0 0 0 .00006 2.00152h5.6106a1.00086 1.00086 0 0 0 -.00005-2.00152zm7.97473 12.93744a1.00048 1.00048 0 0 0 -1.00073-1.00074h-21.43311a1.00077 1.00077 0 0 0 0 2.00153h21.43311a1.00049 1.00049 0 0 0 1.00073-1.00075zm-3.529 4.67932a1.00049 1.00049 0 0 0 -1.0008-1.00073h-17.90404a1.00073 1.00073 0 0 0 0 2.00146h17.90405a1.00049 1.00049 0 0 0 1.0008-1.00069zm16.98047-.2453a1.00034 1.00034 0 0 0 -1.4151 0l-5.82371 5.82426-2.14613-2.14572a1.00084 1.00084 0 0 0 -1.415 1.41522l2.85364 2.85315a1.00034 1.00034 0 0 0 1.4151 0l6.53125-6.5318a1.00034 1.00034 0 0 0 -.00004-1.41507zm-1.06916 5.19433a.99586.99586 0 0 0 -1.08966.90253 5.86992 5.86992 0 0 1 -11.71289-.5639 5.91057 5.91057 0 0 1 8.784-5.10382 1.001 1.001 0 0 0 .98694-1.74164 7.9282 7.9282 0 0 0 -1.87049-.76184v-27.39156a1.00088 1.00088 0 0 0 -2.00152.00006c-.02735-.00061.05249 27.18444-.02729 27.12524a7.88229 7.88229 0 0 0 -7.87316 7.8736c.30786 9.951 14.47979 10.65582 15.70611.75146a.99973.99973 0 0 0 -.90203-1.09009z" fill="url(#b55bc6a3-ddbf-4848-a6f0-55351aa26ad4)"/></svg>