<svg id="Layer_1" enable-background="new 0 0 512 512" height="512" viewBox="0 0 512 512" width="512" xmlns="http://www.w3.org/2000/svg"><g clip-rule="evenodd" fill-rule="evenodd"><g><path d="m372.699 50.35c12.248 0 22.238 9.99 22.238 22.237v409.175c0 12.248-9.99 22.238-22.238 22.238h-342.461c-12.248 0-22.237-9.99-22.237-22.238v-409.174c0-12.248 9.99-22.237 22.237-22.237h342.461z" fill="#837683"/><path d="m344 504h28.698c12.248 0 22.238-9.99 22.238-22.238v-409.174c0-12.248-9.99-22.237-22.238-22.237h-28.698z" fill="#685e68"/><path d="m354.001 81.286h-305.065c-5.508 0-10 4.492-10 10v371.78c0 5.508 4.492 10 10 10h305.065c5.508 0 10-4.492 10-10v-371.781c0-5.507-4.492-9.999-10-9.999z" fill="#eceff1"/><path d="m344 473.065h10.001c.315 0 .626-.015.934-.043 5.073-.473 9.066-4.763 9.066-9.956v-371.781c0-5.193-3.993-9.483-9.066-9.956-.308-.029-.619-.043-.934-.043h-10.001z" fill="#d1d1d6"/><path d="m125.853 36.909h31.697c4.082 0 7.57-2.296 9.184-6.045 5.791-13.448 19.163-22.864 34.735-22.864s28.943 9.416 34.734 22.864c1.614 3.749 5.102 6.045 9.184 6.045h31.697c5.508 0 10 4.492 10 10v37.819c0 5.507-4.492 9.999-10 9.999h-151.231c-5.508 0-10-4.492-10-9.999v-37.82c0-5.507 4.493-9.999 10-9.999z" fill="#e3a76f"/><path d="m267.083 84.727-151.23.001c0 5.507 4.492 9.999 10 9.999h151.231c5.508 0 10-4.492 10-9.999v-3.442-30.936-3.442c0-5.507-4.492-10-10-10v13.442 24.377c0 2.505-.93 4.801-2.462 6.559-1.836 2.106-4.536 3.441-7.539 3.441z" fill="#c48958"/><ellipse cx="201.468" cy="38.991" fill="#eceff1" rx="11.5" ry="11.5" transform="matrix(.973 -.23 .23 .973 -3.569 47.331)"/></g><g><path d="m103.659 147.59h37.501c6.806 0 12.375 5.568 12.375 12.375v37.501c0 6.806-5.568 12.375-12.375 12.375h-37.501c-6.806 0-12.375-5.568-12.375-12.375v-37.501c0-6.807 5.569-12.375 12.375-12.375z" fill="#ffe177"/><path d="m110.17 175.539c-3.124-3.124-3.124-8.189 0-11.313s8.189-3.124 11.313 0l12.829 12.828 38.571-35.004c3.262-2.968 8.313-2.731 11.281.531s2.731 8.313-.531 11.281l-43.898 39.838-.044.045c-3.124 3.124-8.189 3.124-11.313 0z" fill="#a79ba7"/><path d="m103.659 252.771h37.501c6.806 0 12.375 5.568 12.375 12.375v37.501c0 6.806-5.568 12.375-12.375 12.375h-37.501c-6.806 0-12.375-5.568-12.375-12.375v-37.501c0-6.807 5.569-12.375 12.375-12.375z" fill="#6cf5c2"/><path d="m110.17 280.72c-3.124-3.124-3.124-8.189 0-11.313s8.189-3.124 11.313 0l12.829 12.828 38.571-35.004c3.262-2.968 8.313-2.731 11.281.531s2.731 8.313-.531 11.281l-43.898 39.838-.044.045c-3.124 3.124-8.189 3.124-11.313 0z" fill="#a79ba7"/><path d="m103.659 357.952h37.501c6.806 0 12.375 5.568 12.375 12.375v37.501c0 6.806-5.568 12.375-12.375 12.375h-37.501c-6.806 0-12.375-5.568-12.375-12.375v-37.501c0-6.807 5.569-12.375 12.375-12.375z" fill="#8ac9fe"/><g fill="#a79ba7"><path d="m110.17 385.901c-3.124-3.124-3.124-8.189 0-11.313s8.189-3.124 11.313 0l12.829 12.828 38.571-35.004c3.262-2.968 8.313-2.731 11.281.531s2.731 8.313-.531 11.281l-43.898 39.838-.044.045c-3.124 3.124-8.189 3.124-11.313 0z"/><path d="m210.726 374.842c-4.418 0-8-3.582-8-8s3.582-8 8-8h102.86c4.418 0 8 3.582 8 8s-3.582 8-8 8zm0-210.362c-4.418 0-8-3.582-8-8s3.582-8 8-8h102.86c4.418 0 8 3.582 8 8s-3.582 8-8 8zm0 44.469c-4.418 0-8-3.582-8-8s3.582-8 8-8h102.86c4.418 0 8 3.582 8 8s-3.582 8-8 8zm0 60.712c-4.418 0-8-3.582-8-8s3.582-8 8-8h102.86c4.418 0 8 3.582 8 8s-3.582 8-8 8zm0 44.469c-4.418 0-8-3.582-8-8s3.582-8 8-8h102.86c4.418 0 8 3.582 8 8s-3.582 8-8 8zm0 105.182c-4.418 0-8-3.582-8-8s3.582-8 8-8h102.86c4.418 0 8 3.582 8 8s-3.582 8-8 8z"/></g></g><g><path d="m390.401 373.916c-5.012 7.149-10.907 13.634-17.528 19.296l47.659 46.718 18.144-18.699z" fill="#a79ba7"/><path d="m390.723 373.594c-.937 3.074-2.684 5.41-5.188 6.957l47.343 47.033 5.798-6.353z" fill="#837683"/><path d="m480.883 500.569 20.477-21.103c3.597-3.706 3.505-9.679-.2-13.276l-56.716-55.035c-3.705-3.597-9.681-3.506-13.277.199l-20.477 21.103c-3.596 3.705-3.506 9.681.2 13.277l56.716 55.034c3.707 3.596 9.681 3.507 13.277-.199z" fill="#f1ba84"/><path d="m436.054 411.155 56.716 55.035c3.705 3.597 3.796 9.57.2 13.276l-20.477 21.103c-.757.78-1.619 1.4-2.543 1.859 3.561 1.77 8.025 1.139 10.934-1.858l20.477-21.103c3.596-3.706 3.505-9.679-.2-13.276l-56.716-55.035c-2.925-2.84-7.266-3.381-10.733-1.66.842.418 1.633.971 2.342 1.659z" fill="#e3a76f"/><ellipse cx="313.007" cy="321.924" fill="#8ac9fe" rx="103.278" ry="103.278" transform="matrix(.707 -.707 .707 .707 -135.957 315.619)"/><ellipse cx="313.007" cy="321.924" fill="#eceff1" rx="74.16" ry="74.159" transform="matrix(.251 -.968 .968 .251 -77.14 544.172)"/><path d="m313.007 269.765c4.418 0 8 3.582 8 8s-3.582 8-8 8c-9.99 0-19.031 4.045-25.573 10.587-6.541 6.542-10.587 15.582-10.587 25.573 0 4.418-3.582 8-8 8s-8-3.582-8-8c0-14.407 5.836-27.447 15.274-36.885 9.439-9.439 22.479-15.275 36.886-15.275z" fill="#a79ba7"/></g></g></svg>