<svg xmlns="http://www.w3.org/2000/svg" version="1.1" xmlns:xlink="http://www.w3.org/1999/xlink" width="512" height="512" x="0" y="0" viewBox="0 0 32 32" style="enable-background:new 0 0 512 512" xml:space="preserve" class=""><g><path fill="#eceff1" d="M25.5 30.5h-22v-23l6-6h16z" opacity="1" data-original="#eceff1" class=""></path><g fill="#455a64"><path d="M17.5 31h-14a.5.5 0 0 1-.5-.5v-23a.5.5 0 0 1 1 0V30h13.5a.5.5 0 0 1 0 1zM25.5 17a.5.5 0 0 1-.5-.5V2H11.5a.5.5 0 0 1 0-1h14a.5.5 0 0 1 .5.5v15a.5.5 0 0 1-.5.5z" fill="#455a64" opacity="1" data-original="#455a64" class=""></path></g><path fill="#cd7a7a" d="M8.521 7.5a.981.981 0 0 0 .979-1v-5l-5.979 6z" opacity="1" data-original="#65f0cd" class=""></path><path fill="#455a64" d="M9.5 8H3.521a.5.5 0 0 1-.354-.853l5.979-6A.5.5 0 0 1 10 1.5v6a.5.5 0 0 1-.5.5zM4.726 7H9V2.71zM22.5 17a.5.5 0 1 0 0-1 .5.5 0 0 0 0 1zM22.5 11a.5.5 0 1 0 0-1 .5.5 0 0 0 0 1zM22.5 14a.5.5 0 1 0 0-1 .5.5 0 0 0 0 1zM6.5 14h13a.5.5 0 0 0 0-1h-13a.5.5 0 0 0 0 1zM6.5 17h13a.5.5 0 0 0 0-1h-13a.5.5 0 0 0 0 1zM6.5 23h9a.5.5 0 0 0 0-1h-9a.5.5 0 0 0 0 1zM6.5 20h10a.5.5 0 0 0 0-1h-10a.5.5 0 0 0 0 1zM6.5 11h13a.5.5 0 0 0 0-1h-13a.5.5 0 0 0 0 1z" opacity="1" data-original="#455a64" class=""></path><circle cx="23.5" cy="24.5" r="6" fill="#cd7a7a" opacity="1" data-original="#65f0cd" class=""></circle><path fill="#ffffff" d="M18.5 25.5a6 6 0 0 1 6-6c1.402 0 2.688.484 3.709 1.291A5.98 5.98 0 0 0 23.5 18.5c-3.313 0-6 2.688-6 6a5.98 5.98 0 0 0 2.291 4.709A5.964 5.964 0 0 1 18.5 25.5z" opacity="1" data-original="#ffffff" class=""></path><path fill="#455a64" d="M23.5 31c-3.584 0-6.5-2.916-6.5-6.5s2.916-6.5 6.5-6.5c1.13 0 2.244.295 3.22.853a.5.5 0 1 1-.496.868A5.506 5.506 0 0 0 23.5 19c-3.033 0-5.5 2.467-5.5 5.5s2.467 5.5 5.5 5.5a5.506 5.506 0 0 0 5.326-6.879.499.499 0 1 1 .968-.25A6.508 6.508 0 0 1 23.5 31z" opacity="1" data-original="#455a64" class=""></path><path fill="#455a64" d="M23.5 26.699h-.012a.503.503 0 0 1-.373-.18l-2.5-3a.503.503 0 0 1 .064-.705.503.503 0 0 1 .705.064l2.133 2.561 5.548-6.115a.5.5 0 0 1 .737.676l-5.934 6.537a.495.495 0 0 1-.368.162z" opacity="1" data-original="#455a64" class=""></path></g></svg>
