<svg viewBox="0 0 32 32" xmlns="http://www.w3.org/2000/svg"><g id="Layer_14" data-name="Layer 14"><path d="m29.75 9.41v18.59a1.7584 1.7584 0 0 1 -1.75 1.75h-19a1.7584 1.7584 0 0 1 -1.75-1.75v-24a1.7584 1.7584 0 0 1 1.75-1.75h13.59009a1.75792 1.75792 0 0 1 1.23.51l5.41991 5.42a1.73275 1.73275 0 0 1 .51 1.23z" fill="#02c0fc"/><path d="m29.75 9.41v.34h-5.75a1.7584 1.7584 0 0 1 -1.75-1.75v-5.75h.34009a1.75792 1.75792 0 0 1 1.23.51l5.41991 5.42a1.73275 1.73275 0 0 1 .51 1.23z" fill="#0b78af"/><path d="m25 15.75h-13a.75.75 0 0 1 0-1.5h13a.75.75 0 0 1 0 1.5z" fill="#e8f8fc"/><path d="m25 19.75h-13a.75.75 0 0 1 0-1.5h13a.75.75 0 0 1 0 1.5z" fill="#e8f8fc"/><path d="m18 26.75a.74952.74952 0 0 1 -.624-.334l-1.4927-2.23875-1.353 1.353a.74992.74992 0 0 1 -1.06054-1.06054l2-2a.74949.74949 0 0 1 1.15424.11429l1.376 2.064 1.376-2.064a.751.751 0 0 1 .5498-.33056.73987.73987 0 0 1 .60449.21631l1.78026 1.78025h2.68945a.75.75 0 0 1 0 1.5h-3a.74942.74942 0 0 1 -.53027-.21973l-1.35352-1.353-1.49221 2.23873a.74952.74952 0 0 1 -.624.334z" fill="#2d3243"/><circle cx="8" cy="8" fill="#fe255f" r="5.75"/><g fill="#eaf4f4"><path d="m10 10.75a.74754.74754 0 0 1 -.53027-.21973l-4-4a.74992.74992 0 0 1 1.06054-1.06054l4 4a.75.75 0 0 1 -.53027 1.28027z"/><path d="m6 10.75a.75.75 0 0 1 -.53027-1.28027l4-4a.74992.74992 0 0 1 1.06054 1.06054l-4 4a.74754.74754 0 0 1 -.53027.21973z"/></g></g></svg>
