<svg id="Layer_1" height="512" viewBox="0 0 64 64" width="512" xmlns="http://www.w3.org/2000/svg" data-name="Layer 1"><circle cx="52" cy="54" fill="#d96d6d" r="8"/><circle cx="42" cy="37" fill="#d96d6d" r="8"/><g fill="#7bcc8f"><circle cx="12" cy="54" r="8"/><circle cx="32" cy="54" r="8"/><circle cx="22" cy="37" r="8"/></g><path d="m44.75381 12.49736h-.8442a1.253 1.253 0 0 1 -1.18207-.90356 11.17428 11.17428 0 0 0 -.73409-1.76721 1.254 1.254 0 0 1 .19655-1.47731l.60033-.60029a13.0688 13.0688 0 0 0 -3.53929-3.53932l-.60032.60033a1.254 1.254 0 0 1 -1.47724.1966 11.17242 11.17242 0 0 0 -1.76724-.73409 1.25312 1.25312 0 0 1 -.9036-1.18211v-.84418a12.84183 12.84183 0 0 0 -5.00528 0v.84417a1.25312 1.25312 0 0 1 -.9036 1.18211 11.17242 11.17242 0 0 0 -1.76724.73409 1.254 1.254 0 0 1 -1.47724-.19659l-.60036-.60032a13.0688 13.0688 0 0 0 -3.53929 3.53932l.60033.60029a1.254 1.254 0 0 1 .19659 1.47731 11.17428 11.17428 0 0 0 -.73409 1.76721 1.253 1.253 0 0 1 -1.18207.90356h-.8442a12.84337 12.84337 0 0 0 0 5.00528h.8442a1.253 1.253 0 0 1 1.18207.90356 11.17428 11.17428 0 0 0 .73409 1.76721 1.254 1.254 0 0 1 -.19655 1.4773l-.60033.60029a13.0688 13.0688 0 0 0 3.53929 3.53932l.60036-.60032a1.254 1.254 0 0 1 1.47724-.1966 11.17242 11.17242 0 0 0 1.76724.73409 1.25312 1.25312 0 0 1 .9036 1.18211v.84417a12.84183 12.84183 0 0 0 5.00528 0v-.84417a1.25312 1.25312 0 0 1 .9036-1.18211 11.17242 11.17242 0 0 0 1.76724-.73409 1.254 1.254 0 0 1 1.47724.1966l.60036.60032a13.0688 13.0688 0 0 0 3.53925-3.53933l-.60037-.60028a1.254 1.254 0 0 1 -.19659-1.47731 11.17428 11.17428 0 0 0 .73409-1.76721 1.253 1.253 0 0 1 1.18207-.90356h.8442a12.84337 12.84337 0 0 0 0-5.00528z" fill="#f2d891"/><circle cx="32" cy="15" fill="#f2d891" r="7"/><path d="m44.75381 12.49736h-.8442a1.253 1.253 0 0 1 -1.18207-.90356 11.17428 11.17428 0 0 0 -.73409-1.76721 1.254 1.254 0 0 1 .19655-1.47731l.60033-.60029a13.0688 13.0688 0 0 0 -3.53929-3.53932l-.60032.60033a1.254 1.254 0 0 1 -1.47724.1966 11.17242 11.17242 0 0 0 -1.76724-.73409 1.25312 1.25312 0 0 1 -.9036-1.18211v-.84418a12.84183 12.84183 0 0 0 -5.00528 0v.84417a1.25312 1.25312 0 0 1 -.9036 1.18211 11.17242 11.17242 0 0 0 -1.76724.73409 1.254 1.254 0 0 1 -1.47724-.19659l-.60036-.60032a13.0688 13.0688 0 0 0 -3.53929 3.53932l.60033.60029a1.254 1.254 0 0 1 .19659 1.47731 11.17428 11.17428 0 0 0 -.73409 1.76721 1.253 1.253 0 0 1 -1.18207.90356h-.8442a12.84337 12.84337 0 0 0 0 5.00528h.8442a1.253 1.253 0 0 1 1.18207.90356 11.17428 11.17428 0 0 0 .73409 1.76721 1.254 1.254 0 0 1 -.19655 1.4773l-.60033.60029a13.0688 13.0688 0 0 0 3.53929 3.53932l.60036-.60032a1.254 1.254 0 0 1 1.47724-.1966 11.17242 11.17242 0 0 0 1.76724.73409 1.25312 1.25312 0 0 1 .9036 1.18211v.84417a12.84183 12.84183 0 0 0 5.00528 0v-.84417a1.25312 1.25312 0 0 1 .9036-1.18211 11.17242 11.17242 0 0 0 1.76724-.73409 1.254 1.254 0 0 1 1.47724.1966l.60036.60032a13.0688 13.0688 0 0 0 3.53925-3.53933l-.60037-.60028a1.254 1.254 0 0 1 -.19659-1.47731 11.17428 11.17428 0 0 0 .73409-1.76721 1.253 1.253 0 0 1 1.18207-.90356h.8442a12.84337 12.84337 0 0 0 0-5.00528z" fill="#637399"/><circle cx="32" cy="15" fill="#dae6f2" r="7"/><path d="m3 54a9 9 0 1 0 9-9 9.01016 9.01016 0 0 0 -9 9zm16 0a7 7 0 1 1 -7-7 7.00818 7.00818 0 0 1 7 7z"/><path d="m9.34961 53.8252-1.19922 1.5996 2.5 1.875a.99906.99906 0 0 0 1.39941-.1997l3.75-5-1.5996-1.2002-3.1504 4.2002z"/><path d="m32 45a9 9 0 1 0 9 9 9.01016 9.01016 0 0 0 -9-9zm0 16a7 7 0 1 1 7-7 7.00818 7.00818 0 0 1 -7 7z"/><path d="m31.0498 55.1001-1.70019-1.2749-1.19922 1.5996 2.5 1.875a.99906.99906 0 0 0 1.39941-.1997l3.75-5-1.5996-1.2002z"/><path d="m52 45a9 9 0 1 0 9 9 9.01016 9.01016 0 0 0 -9-9zm0 16a7 7 0 1 1 7-7 7.00818 7.00818 0 0 1 -7 7z"/><path d="m54.293 50.293-2.293 2.293-2.293-2.293-1.414 1.414 2.293 2.293-2.293 2.293 1.414 1.414 2.293-2.293 2.293 2.293 1.414-1.414-2.293-2.293 2.293-2.293z"/><path d="m13 37a9 9 0 1 0 9-9 9.01016 9.01016 0 0 0 -9 9zm9-7a7 7 0 1 1 -7 7 7.00818 7.00818 0 0 1 7-7z"/><path d="m21.249 40.5a.99781.99781 0 0 0 .80078-.3999l3.75-5-1.5996-1.2002-3.1504 4.2002-1.70019-1.2749-1.19922 1.5996 2.5 1.875a.99094.99094 0 0 0 .59863.2002z"/><path d="m33 37a9 9 0 1 0 9-9 9.01016 9.01016 0 0 0 -9 9zm16 0a7 7 0 1 1 -7-7 7.00818 7.00818 0 0 1 7 7z"/><path d="m39.707 33.293-1.414 1.414 2.293 2.293-2.293 2.293 1.414 1.414 2.293-2.293 2.293 2.293 1.414-1.414-2.293-2.293 2.293-2.293-1.414-1.414-2.293 2.293z"/><path d="m31.499 18a.99781.99781 0 0 0 .80078-.3999l3.75-5-1.5996-1.2002-3.1504 4.2002-1.70019-1.2749-1.19922 1.5996 2.5 1.875a.99094.99094 0 0 0 .59863.2002z"/><path d="m20.31934 11.2915a.26567.26567 0 0 1 -.22852.20606h-.84473a1 1 0 0 0 -.98144.8081 13.84755 13.84755 0 0 0 0 5.38868 1 1 0 0 0 .98144.8081h.84473a.2655.2655 0 0 1 .22852.207 12.24077 12.24077 0 0 0 .7998 1.92432.26852.26852 0 0 1 -.0166.31006l-.59961.6001a1.00072 1.00072 0 0 0 -.123 1.26513 13.99183 13.99183 0 0 0 3.81055 3.811.99929.99929 0 0 0 1.26562-.12256l.60059-.60059a.266.266 0 0 1 .30859-.01562 12.33353 12.33353 0 0 0 1.92579.79931.26631.26631 0 0 1 .20605.229v.84424a1 1 0 0 0 .80859.98144 13.84755 13.84755 0 0 0 5.38868 0 1 1 0 0 0 .80859-.98144v-.84424a.26722.26722 0 0 1 .207-.22949 12.26887 12.26887 0 0 0 1.92481-.79932.26617.26617 0 0 1 .30859.01611l.60059.60059a1.00189 1.00189 0 0 0 1.26562.12256 13.99183 13.99183 0 0 0 3.81055-3.811 1.00072 1.00072 0 0 0 -.123-1.26513l-.59961-.6001a.2688.2688 0 0 1 -.01758-.30908 12.174 12.174 0 0 0 .80078-1.92627.26567.26567 0 0 1 .22852-.20606h.84473a1 1 0 0 0 .98144-.8081 13.84755 13.84755 0 0 0 0-5.38868 1 1 0 0 0 -.98144-.8081h-.84473a.2655.2655 0 0 1 -.22852-.207 12.24077 12.24077 0 0 0 -.7998-1.92432.26852.26852 0 0 1 .0166-.31006l.59961-.6001a1.00072 1.00072 0 0 0 .123-1.26513 13.99183 13.99183 0 0 0 -3.81055-3.811 1.00213 1.00213 0 0 0 -1.26562.12256l-.60059.60059a.266.266 0 0 1 -.30859.01562 12.33353 12.33353 0 0 0 -1.92579-.79934.26631.26631 0 0 1 -.206-.229v-.84425a1 1 0 0 0 -.80859-.98144 13.898 13.898 0 0 0 -5.38868 0 1 1 0 0 0 -.80859.98144v.84424a.26722.26722 0 0 1 -.207.22949 12.26887 12.26887 0 0 0 -1.92481.79932.26936.26936 0 0 1 -.30859-.01611l-.60059-.60059a1.00015 1.00015 0 0 0 -1.26562-.12256 13.99183 13.99183 0 0 0 -3.81055 3.811 1.00072 1.00072 0 0 0 .123 1.26513l.59961.6001a.2688.2688 0 0 1 .01758.30908 12.174 12.174 0 0 0 -.80083 1.92631zm1.90625.60547a10.1209 10.1209 0 0 1 .66894-1.60986 2.25366 2.25366 0 0 0 -.376-2.64307 11.99483 11.99483 0 0 1 2.125-2.12549 2.25291 2.25291 0 0 0 2.64356.37549 10.20429 10.20429 0 0 1 1.60937-.66845 2.2537 2.2537 0 0 0 1.60059-2.12842 11.72987 11.72987 0 0 1 3.00586 0 2.253 2.253 0 0 0 1.59963 2.12793 10.26938 10.26938 0 0 1 1.61035.66845 2.24928 2.24928 0 0 0 2.64356-.375 11.99483 11.99483 0 0 1 2.125 2.12549 2.25333 2.25333 0 0 0 -.375 2.64405 10.1869 10.1869 0 0 1 .668 1.60791 2.25171 2.25171 0 0 0 2.12891 1.60156 11.72255 11.72255 0 0 1 0 3.00488 2.252 2.252 0 0 0 -2.12895 1.60056 10.1209 10.1209 0 0 1 -.66894 1.60986 2.25366 2.25366 0 0 0 .376 2.64307 11.99483 11.99483 0 0 1 -2.125 2.12549 2.25215 2.25215 0 0 0 -2.64356-.37549 10.20429 10.20429 0 0 1 -1.60937.66845 2.2537 2.2537 0 0 0 -1.60059 2.12842 11.72987 11.72987 0 0 1 -3.00586 0 2.253 2.253 0 0 0 -1.59961-2.12793 10.26938 10.26938 0 0 1 -1.61035-.66845 2.25391 2.25391 0 0 0 -2.64356.375 11.99483 11.99483 0 0 1 -2.125-2.12549 2.25333 2.25333 0 0 0 .375-2.644 10.1869 10.1869 0 0 1 -.668-1.60791 2.25171 2.25171 0 0 0 -2.12891-1.60156 11.72255 11.72255 0 0 1 0-3.00488 2.252 2.252 0 0 0 2.12893-1.60058z"/><path d="m32 23a8 8 0 1 0 -8-8 8.00917 8.00917 0 0 0 8 8zm0-14a6 6 0 1 1 -6 6 6.00657 6.00657 0 0 1 6-6z"/><path d="m48 14h4v2h-4z"/><path d="m12 14h4v2h-4z"/><path d="m47.616 19.923h2v4h-2z" transform="matrix(.385 -.923 .923 .385 9.672 58.358)"/><path d="m14.384 6.077h2v4h-2z" transform="matrix(.385 -.923 .923 .385 2.011 19.171)"/><path d="m46.644 7.146h4v2h-4z" transform="matrix(.925 -.381 .381 .925 .563 19.137)"/><path d="m13.356 20.853h4v2h-4z" transform="matrix(.925 -.381 .381 .925 -7.166 7.496)"/></svg>