<svg id="Capa_1" enable-background="new 0 0 512 512" height="512" viewBox="0 0 512 512" width="512" xmlns="http://www.w3.org/2000/svg"><g><path d="m390.509 481.341h-243.738c-5.879 0-11.516-2.338-15.669-6.498l-53.681-53.768c-4.145-4.151-6.473-9.778-6.473-15.644v-351.903c0-2.446 1.983-4.428 4.428-4.428h315.132c2.446 0 4.428 1.983 4.428 4.428v423.385c.001 2.446-1.982 4.428-4.427 4.428z" fill="#aee0f4"/><path d="m225.14 22.856c0-12.9-10.687-23.304-23.69-22.842-12.386.44-22.023 10.996-22.023 23.389v14.707h45.713z" fill="#fbc96d"/><path d="m353.209 92.795 7.096 410.714c0 2.452-1.978 4.43-4.43 4.43l-33.02 4.06h-191.366c-2.977 0-5.882-.639-8.54-1.854l-4.432-69.659c0-2.277-1.844-4.121-4.121-4.121l-72.255-7.131c-1.216-2.647-1.854-5.563-1.854-8.53v-336.518c0-2.442 1.988-4.43 4.43-4.43h295.868l8.195 8.609c2.451.001 4.429 1.989 4.429 4.43z" fill="#dff8ff"/><path d="m273.875 96.937h-143.182c-2.276 0-4.121-1.845-4.121-4.121v-46.757c0-8.534 6.918-15.453 15.453-15.453h120.518c8.534 0 15.453 6.918 15.453 15.453v46.758c0 2.276-1.845 4.12-4.121 4.12z" fill="#ffda8f"/><path d="m359.849 79.757h-19.264v409.518c0 12.548-10.178 22.726-22.726 22.726h41.99c2.447 0 4.43-1.983 4.43-4.43v-55.815-242.773-124.797c0-2.441-1.978-4.429-4.43-4.429z" fill="#c0ecfc"/><path d="m143.876 457.449h-20.746c-5.69 0-10.302-4.612-10.302-10.302v-39.611c0-5.69 4.612-10.302 10.302-10.302h20.746c5.69 0 10.302 4.612 10.302 10.302v39.611c0 5.69-4.613 10.302-10.302 10.302z" fill="#8c7f8a"/><path d="m278.64 455.706-10.35 1.743h-7.603c-5.69 0-10.302-4.612-10.302-10.302v-39.611c0-5.69 4.612-10.302 10.302-10.302h17.188c5.69 0 10.302 4.612 10.302 10.302l.765 37.868c-.001 5.69-4.613 10.302-10.302 10.302z" fill="#8c7f8a"/><path d="m291.73 407.54v39.61c0 5.69-4.612 10.302-10.302 10.302h-14.157c2.09-.001 3.783-1.696 3.783-3.786v-56.428h10.374c5.69 0 10.302 4.612 10.302 10.302z" fill="#7a6e7a"/><path d="m250.437 284.616h-95.242c-7.122 0-13.32 5.236-14.999 12.672l-11.095 49.147 73.715 11.683 73.715-11.683-11.095-49.147c-1.679-7.436-7.877-12.672-14.999-12.672z" fill="#dff8ff"/><path d="m267.202 347.923-10.199 1.607-1.782-3.091-12.321-54.094 4.156-1.613c4.533 0 8.437 3.07 9.509 7.479l11.871 45.605z" fill="#c0ecfc"/><g><path d="m274.788 354.163c-3.483 0-6.645-2.372-7.503-5.907l-11.746-48.433c-1.068-4.404-4.979-7.48-9.511-7.48h-87.455c-4.532 0-8.443 3.076-9.511 7.48l-11.746 48.433c-1.006 4.146-5.183 6.692-9.329 5.688-4.147-1.006-5.367-3.357-4.361-7.504l10.42-50.259c2.755-11.358 12.841-19.291 24.528-19.291h79.381l6 2.114c11.687 0 21.774 7.933 24.528 19.291l11.15 48.145c1.006 4.147 1.129 6.498-3.018 7.504-.611.148-1.224.219-1.827.219z" fill="#fd8087"/></g><g><path d="m276.618 353.939c-.618.154-1.226.227-1.834.227-3.482 0-6.645-2.38-7.5-5.913l-.082-.33-11.662-48.099c-1.071-4.409-4.976-7.479-9.509-7.479h-3.131l-1.762-7.726-.319-1.391c-.536-2.369-1.525-4.512-2.864-6.336h8.077c11.682 0 21.768 7.932 24.529 19.285l11.445 50.263c1.009 4.151-1.247 6.5-5.388 7.499z" fill="#fe646f"/></g><g><g><path d="m287.679 198.925h-158.019c-4.267 0-7.726-3.459-7.726-7.726s3.459-7.726 7.726-7.726h158.019c4.267 0 7.726 3.459 7.726 7.726 0 4.266-3.459 7.726-7.726 7.726z" fill="#c0ecfc"/></g><g><path d="m287.679 250.434h-158.019c-4.267 0-7.726-3.459-7.726-7.726s3.459-7.726 7.726-7.726h158.019c4.267 0 7.726 3.459 7.726 7.726s-3.459 7.726-7.726 7.726z" fill="#c0ecfc"/></g><g><path d="m263.833 147.107h-113.418c-4.267 0-7.726-3.459-7.726-7.726s3.459-7.726 7.726-7.726h113.419c4.267 0 7.726 3.459 7.726 7.726s-3.46 7.726-7.727 7.726z" fill="#c0ecfc"/></g></g><g><g><path d="m86.143 250.434c-.023 0-.047 0-.07-.001-2.073-.019-4.052-.87-5.491-2.363l-10.833-11.235c-2.962-3.072-2.873-7.963.199-10.925s7.963-2.873 10.925.199l5.372 5.571 13.577-13.577c3.017-3.017 7.909-3.017 10.927 0s3.018 7.909 0 10.927l-19.141 19.141c-1.451 1.449-3.416 2.263-5.465 2.263z" fill="#52d8a4"/></g><g><path d="m86.143 198.925c-.023 0-.047 0-.07-.001-2.073-.019-4.052-.87-5.491-2.363l-10.833-11.235c-2.962-3.072-2.873-7.963.199-10.925 3.072-2.963 7.963-2.873 10.925.199l5.372 5.571 13.577-13.577c3.017-3.017 7.909-3.017 10.927 0s3.018 7.909 0 10.927l-19.141 19.141c-1.451 1.449-3.416 2.263-5.465 2.263z" fill="#52d8a4"/></g></g><g><path d="m377.47 362.913-13.699-2.823-22.464-14.376c-33.413-21.378-53.628-58.31-53.628-97.977v-76.262c0-2.014 1.456-3.733 3.443-4.065l12.977-2.163c22.596-3.766 44.256-11.847 63.798-23.801l9.648-5.902c1.32-.807 2.981-.807 4.301 0l9.648 5.902c18.929 11.579 39.847 19.524 61.677 23.434.706.126 12.862 3.979 12.862 3.979 1.987.331 3.443 2.05 3.443 4.065l-.073 73.973c0 39.566-18.384 71.335-51.66 92.74l-35.822 23.27c-1.356.872-3.094.874-4.451.006z" fill="#52d8a4"/><path d="m471.713 171.474v76.45c0 39.559-20.119 76.419-53.394 97.826l-36.149 23.251c-1.36.876-3.101.876-4.45.01l-13.949-8.921 44.524-29.937c28.093-18.08 44.875-48.82 44.875-82.229v-83.043c.7.134 1.411.258 2.122.371l12.98 2.163c1.979.329 3.441 2.05 3.441 4.059z" fill="#1fc091"/><path d="m358.859 318.279c-24.057-15.392-38.611-41.983-38.611-70.542v-49.168c0-1.92 1.33-3.569 3.199-4.01 18.993-4.489 37.159-11.559 54.236-21.108 1.253-.701 2.772-.701 4.025 0 17.076 9.55 35.243 16.619 54.236 21.108 1.868.442 3.199 2.091 3.199 4.01v49.353c0 28.619-14.37 54.948-38.439 70.431l-18.585 11.954c-1.355.871-3.093.874-4.45.005z" fill="#1fc091"/><g><path d="m373.592 278.201c-.023 0-.046 0-.07-.001-2.073-.019-4.052-.87-5.491-2.363l-21.725-22.531c-2.963-3.072-2.873-7.963.198-10.925 3.073-2.962 7.964-2.871 10.925.199l16.265 16.867 32.821-32.822c3.018-3.017 7.91-3.018 10.927 0 3.018 3.017 3.018 7.909.001 10.927l-38.385 38.386c-1.452 1.449-3.418 2.263-5.466 2.263z" fill="#dff8ff"/></g></g><path d="m122.948 433.356v76.79c-2.235-1.01-4.275-2.431-6.037-4.193l-70.598-70.681c-1.751-1.762-3.163-3.801-4.172-6.037h65.424l6.125-1.893 5.138 1.893c2.276 0 4.12 1.844 4.12 4.121z" fill="#aee0f4"/><path d="m302.976 393.158-.145 26.431c0 4.584-3.719 8.293-8.293 8.293l-22.467 1.353h-164.506c-4.574 0-8.283-3.709-8.283-8.293v-18.708l4.663-9.076z" fill="#fe646f"/><path d="m300.137 382.609.149 10.549h-197.913l-.9-10.25c0-1.926-1.955-3.828-1.499-5.668.903-3.644 2.672-7.044 5.191-9.898l18.461-20.902h131.595l24.743 3.091 14.62 17.915c3.585 4.233 5.553 9.611 5.553 15.163z" fill="#fd8087"/><path d="m300.286 393.158 5.002 9.076v18.708c0 4.584-3.719 8.293-8.293 8.293h-26.785c4.574 0 8.293-3.709 8.293-8.293v-27.784z" fill="#fb4754"/><path d="m302.249 382.609v10.549h-23.746v-10.549c0-5.553-1.968-10.93-5.553-15.164l-17.729-21.005h26.785l17.729 21.005c2.41 2.846 4.089 6.21 4.931 9.795.41 1.748-2.417 3.549-2.417 5.369z" fill="#fe646f"/><path d="m294.689 377.242h-23.758c-2.276 0-4.121 1.845-4.121 4.121v3.431c0 9.632 7.809 17.441 17.441 17.441h12.707c.967-8.246-.277-16.82-2.269-24.993z" fill="#ffda8f"/><path d="m305.288 382.609v19.625h-21.036c-2.019 0-3.956-.34-5.748-.979v-18.646c0-1.823-.216-3.626-.628-5.367h26.785c.034.567.473 1.41.627 5.367z" fill="#fbc96d"/><path d="m99.983 377.242h33.811c2.276 0 4.121 1.845 4.121 4.121v3.43c0 9.632-7.809 17.441-17.441 17.441h-21.192v-19.326c0-1.926.237-3.832.701-5.666z" fill="#ffda8f"/></g></svg>