<svg xmlns="http://www.w3.org/2000/svg" version="1.1" xmlns:xlink="http://www.w3.org/1999/xlink" width="512" height="512" x="0" y="0" viewBox="0 0 512 512" style="enable-background:new 0 0 512 512" xml:space="preserve" class=""><g><linearGradient id="a" x1="256" x2="256" y1="512" y2="0" gradientUnits="userSpaceOnUse"><stop stop-opacity="1" stop-color="#a93aff" offset="0"></stop><stop stop-opacity="1" stop-color="#fd4755" offset="1"></stop></linearGradient><path fill="url(#a)" d="M147.42 211h65.159a44.732 44.732 0 0 0 10.6 16.82c17.586 17.586 46.051 17.589 63.639 0 5.858-5.858 5.858-15.355 0-21.213-5.857-5.857-15.355-5.857-21.213 0-5.862 5.862-15.35 5.862-21.212 0-5.849-5.849-5.849-15.365 0-21.213 5.862-5.861 15.351-5.864 21.213 0 5.857 5.857 15.354 5.858 21.213 0 5.858-5.858 5.858-15.355 0-21.213-17.585-17.586-46.05-17.589-63.64 0a44.724 44.724 0 0 0-10.6 16.82H147.42a44.724 44.724 0 0 0-10.6-16.82c-17.545-17.545-46.095-17.545-63.64 0-5.858 5.858-5.858 15.355 0 21.213 5.857 5.858 15.354 5.858 21.213 0 5.85-5.849 15.366-5.849 21.213 0 5.849 5.849 5.849 15.365 0 21.213-5.849 5.849-15.365 5.849-21.214 0-5.857-5.857-15.355-5.857-21.213 0-5.858 5.858-5.858 15.355 0 21.213 17.544 17.545 46.094 17.546 63.64 0A44.722 44.722 0 0 0 147.42 211zM75 271c-8.284 0-15 6.716-15 15s6.716 15 15 15 15-6.716 15-15-6.716-15-15-15zm0 120c-8.284 0-15 6.716-15 15s6.716 15 15 15 15-6.716 15-15-6.716-15-15-15zm0-60c-8.284 0-15 6.716-15 15s6.716 15 15 15 15-6.716 15-15-6.716-15-15-15zm210 60H135c-8.284 0-15 6.716-15 15s6.716 15 15 15h150c8.284 0 15-6.716 15-15s-6.716-15-15-15zm212-210h-15v-75c0-8.284-6.716-15-15-15h-60c-8.284 0-15 6.716-15 15v227.574c0 29.227 10.61 56.82 30 78.392V436c0 8.284 6.716 15 15 15s15-6.716 15-15v-24.034c19.39-21.572 30-49.165 30-78.392V211h15c8.284 0 15-6.716 15-15s-6.716-15-15-15zm-45 152.574c0 17.734-5.245 34.663-15 49.013-9.755-14.35-15-31.279-15-49.013V211h30zM452 181h-30v-60h30zM315 30h-62.58C246.228 12.541 229.555 0 210 0h-60c-19.555 0-36.228 12.541-42.42 30H45C20.187 30 0 50.187 0 75v392c0 24.813 20.187 45 45 45h270c24.813 0 45-20.187 45-45V75c0-24.813-20.187-45-45-45zM135 45c0-8.271 6.729-15 15-15h60c8.271 0 15 6.729 15 15v15h-90zm195 422c0 8.271-6.729 15-15 15H45c-8.271 0-15-6.729-15-15V75c0-8.271 6.729-15 15-15h60v15c0 8.284 6.716 15 15 15h120c8.284 0 15-6.716 15-15V60h60c8.271 0 15 6.729 15 15zm-45-196H135c-8.284 0-15 6.716-15 15s6.716 15 15 15h150c8.284 0 15-6.716 15-15s-6.716-15-15-15zm0 60H135c-8.284 0-15 6.716-15 15s6.716 15 15 15h150c8.284 0 15-6.716 15-15s-6.716-15-15-15z" opacity="1" data-original="url(#a)" class=""></path></g></svg>
