<svg id="Layer_1" enable-background="new 0 0 512 512" height="512" viewBox="0 0 512 512" width="512" xmlns="http://www.w3.org/2000/svg"><g clip-rule="evenodd" fill-rule="evenodd"><path d="m157.02 435.75h-106.36c-8.94 0-16.64-3.44-22.59-10.11-5.96-6.67-8.52-14.7-7.52-23.58 4.07-36.24 34.97-64.56 72.26-64.56h22.05c37.3 0 68.19 28.33 72.26 64.56 1 8.88-1.56 16.91-7.52 23.58-5.95 6.66-13.64 10.11-22.58 10.11z" fill="#83dbf2"/><circle cx="103.84" cy="286.3" fill="#ededee" r="46.67"/><path d="m461.82 435.75h-106.35c-8.94 0-16.64-3.44-22.59-10.11-5.96-6.67-8.52-14.7-7.52-23.58 4.07-36.24 34.97-64.56 72.26-64.56h22.05c37.3 0 68.19 28.33 72.26 64.56 1 8.88-1.56 16.91-7.52 23.58-5.95 6.66-13.65 10.11-22.59 10.11z" fill="#83dbf2"/><ellipse cx="408.65" cy="286.3" fill="#ededee" rx="46.67" ry="46.67" transform="matrix(.707 -.707 .707 .707 -82.757 372.812)"/><path d="m323.58 499.51h-134.67c-11.32 0-21.06-4.36-28.61-12.8-7.54-8.44-10.79-18.61-9.52-29.86 5.16-45.89 44.28-81.75 91.5-81.75h27.93c47.23 0 86.34 35.87 91.5 81.75 1.27 11.25-1.98 21.42-9.52 29.86-7.55 8.44-17.29 12.8-28.61 12.8z" fill="#83dbf2"/><ellipse cx="256.24" cy="310.27" fill="#ededee" rx="59.09" ry="59.09" transform="matrix(.072 -.997 .997 .072 -71.62 543.583)"/><path d="m232.39 19.51h40.54l1.02 18.23c11.77 3.44 22.35 9.66 30.99 17.91l16.31-8.24 20.27 35.11-15.28 10c1.39 5.74 2.13 11.73 2.13 17.9s-.74 12.16-2.13 17.9l15.28 10-20.27 35.11-16.31-8.24c-8.63 8.25-19.22 14.47-30.99 17.91l-1.02 18.23h-40.54l-1.02-18.23c-11.77-3.44-22.35-9.66-30.99-17.91l-16.31 8.24-20.27-35.11 15.28-10c-1.39-5.74-2.13-11.73-2.13-17.9s.74-12.16 2.13-17.9l-15.28-10 20.27-35.11 16.31 8.24c8.63-8.25 19.22-14.47 30.99-17.91z" fill="#83dbf2"/><ellipse cx="252.66" cy="110.41" fill="#fff" rx="38.49" ry="38.49" transform="matrix(.707 -.707 .707 .707 -4.074 210.994)"/><path d="m314.57 92.35 13.12-22.73 14.01 7.07c4.79-4.32 10.4-7.52 16.4-9.46l.88-15.68h26.25l.88 15.67c2.97.97 5.88 2.25 8.7 3.88 2.81 1.62 5.38 3.5 7.7 5.59l14.01-7.07 13.12 22.73-13.14 8.6c1.32 6.17 1.36 12.62.01 18.94l13.13 8.59-13.12 22.73-14.01-7.07c-4.79 4.32-10.4 7.52-16.4 9.46l-.88 15.68h-26.25l-.88-15.67c-2.97-.97-5.88-2.25-8.7-3.88-2.81-1.62-5.38-3.51-7.7-5.59l-14.01 7.07-13.12-22.73 13.14-8.6c-1.32-6.17-1.36-12.62-.01-18.94z" fill="#ededee"/><ellipse cx="372.11" cy="110.41" fill="#fff" rx="22.7" ry="22.7" transform="matrix(1 -.003 .003 1 -.336 1.138)"/><path d="m363.77 95.96c7.98-4.61 18.2-1.87 22.78 6.11 2.25 3.86 2.82 8.36 1.68 12.67-1.15 4.31-3.93 7.91-7.77 10.14-3.89 2.23-8.38 2.83-12.68 1.67-4.29-1.15-7.89-3.91-10.14-7.78-4.58-7.98-1.84-18.21 6.13-22.81zm.9 42.18c2.49.66 4.99.99 7.48.99 4.95 0 9.86-1.3 14.31-3.86 6.63-3.83 11.37-10.02 13.33-17.42 2-7.4.98-15.14-2.82-21.78-7.93-13.71-25.52-18.41-39.22-10.5s-18.41 25.5-10.51 39.2c3.86 6.63 10.03 11.38 17.43 13.37zm-112.02-60.22c17.91 0 32.52 14.58 32.52 32.49s-14.6 32.49-32.52 32.49-32.47-14.58-32.47-32.49 14.56-32.49 32.47-32.49zm0 76.98c24.54 0 44.5-19.96 44.5-44.49s-19.96-44.49-44.5-44.49-44.5 19.96-44.5 44.49c0 24.54 19.96 44.49 44.5 44.49zm-70.27-21.57-10.55 6.89 14.6 25.28 11.25-5.68c2.25-1.15 4.99-.74 6.83 1.01 8.06 7.68 17.91 13.38 28.55 16.49 2.45.71 4.17 2.88 4.29 5.42l.7 12.56h29.2l.7-12.56c.16-2.54 1.88-4.71 4.34-5.42 10.59-3.11 20.49-8.81 28.51-16.49 1.84-1.75 4.58-2.16 6.87-1.01l11.25 5.68 5.4-9.37c-.74-.49-1.35-1.14-1.8-1.93l-13.13-22.73c-1.6-2.76-.74-6.28 1.92-8.02l9.82-6.44c-.53-4.4-.57-8.82 0-13.2l-9.82-6.44c-2.66-1.74-3.52-5.26-1.92-8.02l13.13-22.73c.45-.79 1.06-1.44 1.8-1.93l-5.4-9.37-11.26 5.68c-2.29 1.15-5.03.74-6.87-1.01-8.02-7.68-17.91-13.38-28.51-16.49-2.45-.72-4.17-2.89-4.34-5.43l-.7-12.56h-29.2l-.7 12.56c-.12 2.54-1.84 4.71-4.29 5.43-10.63 3.1-20.49 8.81-28.55 16.49-1.84 1.75-4.58 2.16-6.83 1.01l-11.25-5.68-14.6 25.28 10.55 6.9c2.09 1.39 3.11 3.97 2.54 6.43-1.31 5.38-1.96 10.92-1.96 16.49 0 5.56.65 11.11 1.96 16.49.58 2.46-.44 5.03-2.53 6.42zm177.59-60.39c-5.32 1.73-10.1 4.49-14.23 8.21-1.84 1.66-4.54 2.02-6.75.9l-8.92-4.52-7.48 12.9 8.43 5.48c2.04 1.36 3.07 3.85 2.58 6.27-1.19 5.44-1.19 10.97 0 16.43.53 2.42-.53 4.92-2.58 6.27l-8.38 5.49 7.44 12.9 8.92-4.52c2.21-1.12 4.87-.76 6.75.9 2.04 1.84 4.29 3.48 6.67 4.86 2.41 1.38 4.95 2.51 7.57 3.37 2.37.76 4.01 2.9 4.13 5.37l.57 10h14.89l.57-10.01c.12-2.47 1.76-4.61 4.13-5.37 5.32-1.72 10.1-4.49 14.23-8.21 1.84-1.66 4.5-2.02 6.71-.9l8.96 4.52 7.44-12.9-8.38-5.49c-2.09-1.35-3.07-3.85-2.58-6.27 1.15-5.44 1.15-10.96 0-16.43-.53-2.42.49-4.92 2.58-6.27l8.38-5.49-7.44-12.9-8.96 4.52c-2.21 1.12-4.87.76-6.71-.9-2.04-1.84-4.29-3.48-6.71-4.86-2.37-1.38-4.91-2.51-7.53-3.37-2.37-.76-4.01-2.9-4.13-5.37l-.57-10h-14.89l-.57 10.01c-.13 2.49-1.81 4.62-4.14 5.38zm-201.39 68.37 20.29 35.11c1.6 2.76 5.07 3.79 7.89 2.36l12.64-6.38c7.73 6.62 16.65 11.78 26.22 15.14l.78 14.12c.16 3.18 2.82 5.66 6.01 5.66h40.53c3.19 0 5.81-2.48 5.97-5.66l.82-14.12c9.53-3.36 18.49-8.52 26.18-15.14l12.64 6.38c2.86 1.44 6.3.4 7.89-2.36l14.52-25.13c1.76 1.32 3.56 2.54 5.48 3.63 1.88 1.1 3.89 2.08 5.89 2.93l.65 11.75c.2 3.17 2.82 5.66 6.01 5.66h26.26c3.15 0 5.81-2.49 5.97-5.66l.65-11.75c4.13-1.7 7.93-3.91 11.45-6.6l10.47 5.3c2.86 1.44 6.34.4 7.93-2.35l13.13-22.73c1.6-2.76.74-6.28-1.92-8.02l-9.86-6.44c.57-4.39.57-8.81 0-13.2l9.86-6.45c2.66-1.74 3.52-5.26 1.88-8.02l-13.09-22.73c-1.6-2.76-5.07-3.79-7.93-2.36l-10.47 5.31c-1.76-1.34-3.6-2.56-5.52-3.66s-3.89-2.09-5.93-2.93l-.65-11.75c-.16-3.18-2.82-5.67-5.97-5.67h-26.26c-3.19 0-5.81 2.49-6.01 5.67l-.65 11.75c-4.05 1.69-7.85 3.89-11.37 6.56l-14.52-25.12c-1.6-2.76-5.03-3.79-7.89-2.36l-12.64 6.38c-7.69-6.63-16.65-11.79-26.18-15.15l-.82-14.12c-.16-3.18-2.78-5.66-5.97-5.66h-40.54c-3.19 0-5.85 2.49-6.01 5.66l-.78 14.12c-9.57 3.36-18.49 8.52-26.22 15.15l-12.64-6.38c-2.82-1.44-6.3-.4-7.89 2.36l-20.29 35.11c-1.6 2.76-.74 6.28 1.92 8.02l11.86 7.75c-.94 4.98-1.43 10.05-1.43 15.13s.49 10.16 1.43 15.13l-11.86 7.75c-2.65 1.74-3.51 5.26-1.91 8.01zm321.35 280.33c-4.79 5.38-10.88 8.11-18.12 8.11h-100.98c-5.56-13.39-14.07-25.52-25.07-35.44-.78-.7-1.6-1.37-2.37-2.04 7.98-28.47 34.44-48.77 64.25-48.77h22.04c33.99 0 62.49 25.46 66.3 59.23.82 7.16-1.22 13.52-6.05 18.91zm-132.23 61.06c6.42-7.16 9.12-15.64 8.06-25.19-4.91-43.57-41.68-76.42-85.56-76.42h-27.9c-43.89 0-80.65 32.85-85.56 76.42-1.06 9.55 1.64 18.03 8.02 25.19 6.42 7.17 14.52 10.8 24.13 10.8h134.68c9.61.01 17.75-3.63 24.13-10.8zm-196.03-52.96h-101.02c-7.2 0-13.29-2.73-18.12-8.11-4.79-5.38-6.83-11.74-6.01-18.91 3.8-33.77 32.31-59.23 66.3-59.23h22.05c29.82 0 56.28 20.3 64.25 48.77-.78.67-1.6 1.34-2.37 2.04-11.01 9.93-19.56 22.06-25.08 35.44zm-88.51-143.44c0-22.43 18.24-40.67 40.7-40.67 22.41 0 40.65 18.25 40.65 40.67s-18.24 40.67-40.65 40.67c-22.46 0-40.7-18.25-40.7-40.67zm140 23.97c0-29.28 23.8-53.1 53.09-53.1 29.28 0 53.09 23.82 53.09 53.1s-23.8 53.09-53.09 53.09-53.09-23.81-53.09-53.09zm164.83-23.97c0-22.43 18.24-40.67 40.65-40.67s40.65 18.25 40.65 40.67-18.24 40.67-40.65 40.67-40.65-18.25-40.65-40.67zm129.94 115.09c-3.97-35.16-30.63-62.68-64.42-68.67 16.52-8.9 27.81-26.36 27.81-46.42 0-29.04-23.64-52.67-52.68-52.67s-52.68 23.63-52.68 52.67c0 20.07 11.29 37.55 27.85 46.43-27.81 5.04-51.37 25.04-60.65 51.98-12.31-7.94-26.22-13.02-40.78-14.84 22.9-10.09 38.94-33 38.94-59.6 0-35.89-29.2-65.1-65.07-65.1-35.91 0-65.11 29.2-65.11 65.1 0 26.6 16.07 49.51 38.98 59.6-14.56 1.82-28.47 6.9-40.82 14.84-9.28-26.94-32.8-46.93-60.61-51.98 16.52-8.88 27.85-26.36 27.85-46.43 0-29.04-23.64-52.67-52.68-52.67s-52.68 23.63-52.68 52.67c0 20.05 11.29 37.52 27.81 46.42-33.78 5.98-60.45 33.5-64.42 68.67-1.19 10.56 1.96 20.33 9.04 28.25s16.44 12.11 27.03 12.11h96.93c-1.27 4.71-2.21 9.53-2.78 14.43-1.43 12.91 2.37 24.85 11.04 34.53 8.63 9.68 20.08 14.8 33.05 14.8h134.68c13.01 0 24.42-5.12 33.09-14.8s12.47-21.62 11-34.53c-.53-4.9-1.47-9.72-2.74-14.43h96.89c10.63 0 20-4.19 27.08-12.11 7.08-7.93 10.19-17.7 9.05-28.25z" fill="#1865c1"/></g></svg>