<svg id="Capa_1" enable-background="new 0 0 512 512" height="512" viewBox="0 0 512 512" width="512" xmlns="http://www.w3.org/2000/svg"><g><path d="m443.146 458.788c-25.888 0-46.95-21.062-46.95-46.95s21.062-46.95 46.95-46.95c1.076 0 2.139.05 3.197.121v-44.332c-1.058.072-2.121.121-3.197.121-25.888 0-46.95-21.062-46.95-46.95s21.062-46.949 46.95-46.949c1.076 0 2.139.05 3.197.121v-44.332c-1.058.072-2.121.121-3.197.121-25.888 0-46.95-21.062-46.95-46.95s21.062-46.95 46.95-46.95c1.076 0 2.139.05 3.197.121v-36.219h-302.59v161.308c16.324-10.898 35.921-17.261 56.979-17.261 56.735 0 102.892 46.157 102.892 102.892s-46.157 102.892-102.892 102.892c-21.058 0-40.655-6.363-56.979-17.261v99.981c0 14.712 11.927 26.639 26.639 26.639h249.312c14.712 0 26.639-11.927 26.639-26.639v-26.694c-1.059.071-2.122.12-3.197.12z" fill="#f2fbff"/><path d="m443.146 458.788c-25.888 0-46.95-21.062-46.95-46.95s21.062-46.95 46.95-46.95c1.076 0 2.139.05 3.197.121v-44.332c-1.058.072-2.121.121-3.197.121-25.888 0-46.95-21.062-46.95-46.95s21.062-46.949 46.95-46.949c1.076 0 2.139.05 3.197.121v-44.332c-1.058.072-2.121.121-3.197.121-25.888 0-46.95-21.062-46.95-46.95s21.062-46.95 46.95-46.95c1.076 0 2.139.05 3.197.121v-36.219h-52.298v432.551c0 14.712-11.927 26.639-26.639 26.639h52.298c14.712 0 26.639-11.927 26.639-26.639v-26.694c-1.059.071-2.122.12-3.197.12z" fill="#dff6fd"/><g><path d="m419.703 0h-209.456v53.811h236.096v-27.172c-.001-14.712-11.928-26.639-26.64-26.639z" fill="#26a6fe"/></g><path d="m394.044 26.639v27.172h52.298v-27.172c0-14.712-11.927-26.639-26.639-26.639h-52.298c14.713 0 26.639 11.927 26.639 26.639z" fill="#0593fc"/><path d="m170.391 0c-14.712 0-26.639 11.927-26.639 26.639v27.172h67.494v-53.811z" fill="#60b7ff"/><g><ellipse cx="443.145" cy="135.859" fill="#6cf5c2" rx="47.95" ry="47.95" transform="matrix(.707 -.707 .707 .707 33.728 353.143)"/></g><g><path d="m443.145 87.908c-6.028 0-11.791 1.123-17.105 3.153 18.033 6.89 30.845 24.343 30.845 44.797s-12.812 37.906-30.845 44.797c5.314 2.03 11.077 3.153 17.105 3.153 26.482 0 47.95-21.468 47.95-47.95s-21.467-47.95-47.95-47.95z" fill="#00f2a6"/></g><g><path d="m438.814 159.6c-1.889 0-3.714-.713-5.105-2.007l-18.046-16.773c-3.034-2.819-3.208-7.565-.388-10.6 2.82-3.033 7.566-3.207 10.6-.387l12.298 11.431 20.909-24.643c2.68-3.157 7.413-3.546 10.571-.866s3.546 7.413.866 10.571l-25.986 30.626c-1.325 1.562-3.231 2.514-5.275 2.635-.148.009-.297.013-.444.013z" fill="#fff"/></g><g><path d="m365.111 122.467h-108.887c-4.142 0-7.5-3.357-7.5-7.5s3.358-7.5 7.5-7.5h108.887c4.142 0 7.5 3.357 7.5 7.5s-3.358 7.5-7.5 7.5z" fill="#60b7ff"/></g><g><path d="m231.658 122.467h-30.901c-4.142 0-7.5-3.357-7.5-7.5s3.358-7.5 7.5-7.5h30.901c4.142 0 7.5 3.357 7.5 7.5s-3.358 7.5-7.5 7.5z" fill="#60b7ff"/></g><g><path d="m365.111 164.25h-31.718c-4.142 0-7.5-3.357-7.5-7.5s3.358-7.5 7.5-7.5h31.718c4.142 0 7.5 3.357 7.5 7.5s-3.358 7.5-7.5 7.5z" fill="#60b7ff"/></g><g><path d="m307.308 164.25h-106.552c-4.142 0-7.5-3.357-7.5-7.5s3.358-7.5 7.5-7.5h106.552c4.142 0 7.5 3.357 7.5 7.5s-3.358 7.5-7.5 7.5z" fill="#60b7ff"/></g><g><g><g><circle cx="443.145" cy="411.838" fill="#c5d3dd" r="47.95"/></g></g></g><g><path d="m443.145 363.888c-6.028 0-11.791 1.123-17.105 3.153 18.033 6.89 30.845 24.343 30.845 44.797s-12.812 37.907-30.845 44.797c5.314 2.031 11.077 3.153 17.105 3.153 26.482 0 47.95-21.468 47.95-47.95s-21.467-47.95-47.95-47.95z" fill="#b6c4cf"/></g><path d="m365.111 383.446h-104.601c-9.216 6.601-19.563 11.715-30.688 15h135.29c4.142 0 7.5-3.357 7.5-7.5s-3.359-7.5-7.501-7.5z" fill="#60b7ff"/><g><path d="m365.111 440.229h-31.718c-4.142 0-7.5-3.357-7.5-7.5s3.358-7.5 7.5-7.5h31.718c4.142 0 7.5 3.357 7.5 7.5s-3.358 7.5-7.5 7.5z" fill="#60b7ff"/></g><g><path d="m307.308 440.229h-106.552c-4.142 0-7.5-3.357-7.5-7.5s3.358-7.5 7.5-7.5h106.552c4.142 0 7.5 3.357 7.5 7.5s-3.358 7.5-7.5 7.5z" fill="#60b7ff"/></g><g><g><g><ellipse cx="443.145" cy="273.848" fill="#fe646f" rx="47.95" ry="47.95" transform="matrix(.707 -.707 .707 .707 -63.846 393.559)"/></g></g></g><g><path d="m443.145 225.898c-6.028 0-11.791 1.123-17.105 3.153 18.033 6.89 30.845 24.343 30.845 44.797s-12.812 37.906-30.845 44.797c5.314 2.031 11.077 3.153 17.105 3.153 26.482 0 47.95-21.468 47.95-47.95s-21.467-47.95-47.95-47.95z" fill="#fd4755"/></g><path d="m365.111 245.456h-77.017c2.966 4.756 5.556 9.769 7.725 15h69.292c4.142 0 7.5-3.357 7.5-7.5s-3.358-7.5-7.5-7.5z" fill="#60b7ff"/><g><path d="m203.954 260.456h-29.329c-4.142 0-7.5-3.357-7.5-7.5s3.358-7.5 7.5-7.5h29.329c4.142 0 7.5 3.357 7.5 7.5s-3.358 7.5-7.5 7.5z"/></g><g><path d="m365.111 302.24h-15.734c-4.142 0-7.5-3.357-7.5-7.5s3.358-7.5 7.5-7.5h15.734c4.142 0 7.5 3.357 7.5 7.5s-3.358 7.5-7.5 7.5z" fill="#60b7ff"/></g><path d="m324.869 287.24h-22.008c.499 4.101.762 8.275.762 12.509 0 .833-.012 1.663-.032 2.491h21.277c4.142 0 7.5-3.357 7.5-7.5s-3.357-7.5-7.499-7.5z" fill="#60b7ff"/><g><path d="m114.532 355.81-88.946 88.946c-6.242 6.242-6.242 16.362 0 22.604l7.534 7.535c6.242 6.242 16.362 6.242 22.604 0l88.946-88.946c-12.015-7.841-22.297-18.123-30.138-30.139z" fill="#c5d3dd"/></g><g><path d="m55.724 449.113c-6.242 6.242-16.362 6.242-22.604 0l-5.946-5.946-1.589 1.589c-6.242 6.242-6.242 16.362 0 22.604l7.534 7.535c6.242 6.242 16.362 6.242 22.604 0l88.946-88.946c-5.144-3.357-9.947-7.185-14.4-11.382z" fill="#b6c4cf"/></g><g><ellipse cx="200.731" cy="299.749" fill="#7a8c98" rx="103.892" ry="103.892" transform="matrix(.707 -.707 .707 .707 -153.162 229.733)"/></g><path d="m200.731 195.857c-7.456 0-14.725.792-21.736 2.285 26.002 5.536 48.392 20.808 63.205 41.807 18.918 13.144 31.313 35.019 31.313 59.8s-12.395 46.656-31.313 59.8c-14.813 20.999-37.203 36.271-63.205 41.807 7.011 1.493 14.28 2.285 21.736 2.285 57.378 0 103.892-46.514 103.892-103.892s-46.514-103.892-103.892-103.892z" fill="#596c76"/><g><ellipse cx="200.731" cy="299.749" fill="#dff6fd" rx="72.782" ry="72.782" transform="matrix(.707 -.707 .707 .707 -153.162 229.733)"/></g><g><path d="m200.731 226.967c-6.039 0-11.902.749-17.513 2.135 31.734 7.842 55.269 36.49 55.269 70.646 0 34.157-23.534 62.805-55.269 70.647 5.611 1.386 11.474 2.135 17.513 2.135 40.196 0 72.782-32.586 72.782-72.782 0-40.195-32.585-72.781-72.782-72.781z" fill="#c8effe"/></g><g><path d="m200.731 380.031c-44.268 0-80.282-36.015-80.282-80.282s36.015-80.282 80.282-80.282 80.282 36.015 80.282 80.282-36.014 80.282-80.282 80.282zm0-145.564c-35.997 0-65.282 29.285-65.282 65.282s29.286 65.282 65.282 65.282 65.282-29.285 65.282-65.282-29.285-65.282-65.282-65.282z" fill="#b6c4cf"/></g><g><g><path d="m238.114 285.292h-38.981c-4.142 0-7.5-3.357-7.5-7.5s3.358-7.5 7.5-7.5h38.981c4.142 0 7.5 3.357 7.5 7.5s-3.358 7.5-7.5 7.5z" fill="#26a6fe"/></g><g><path d="m175.009 285.292h-11.484c-4.142 0-7.5-3.357-7.5-7.5s3.358-7.5 7.5-7.5h11.484c4.142 0 7.5 3.357 7.5 7.5s-3.358 7.5-7.5 7.5z" fill="#26a6fe"/></g><g><path d="m238.114 327.075h-15.539c-4.142 0-7.5-3.357-7.5-7.5s3.358-7.5 7.5-7.5h15.539c4.142 0 7.5 3.357 7.5 7.5s-3.358 7.5-7.5 7.5z" fill="#26a6fe"/></g><g><path d="m197.623 327.075h-34.098c-4.142 0-7.5-3.357-7.5-7.5s3.358-7.5 7.5-7.5h34.098c4.142 0 7.5 3.357 7.5 7.5s-3.358 7.5-7.5 7.5z" fill="#26a6fe"/></g></g><path d="m453.752 273.848 10.68-10.68c2.929-2.93 2.929-7.678 0-10.607-2.929-2.928-7.678-2.928-10.606 0l-10.68 10.68-10.68-10.68c-2.929-2.928-7.678-2.928-10.606 0-2.929 2.93-2.929 7.678 0 10.607l10.68 10.68-10.68 10.68c-2.929 2.93-2.929 7.678 0 10.607 1.464 1.464 3.384 2.196 5.303 2.196s3.839-.732 5.303-2.196l10.68-10.68 10.68 10.68c1.464 1.464 3.384 2.196 5.303 2.196s3.839-.732 5.303-2.196c2.929-2.93 2.929-7.678 0-10.607z" fill="#fff"/></g></svg>