<svg clip-rule="evenodd" fill-rule="evenodd" height="7.111in" image-rendering="optimizeQuality" shape-rendering="geometricPrecision" text-rendering="geometricPrecision" viewBox="0 0 7111 7111" width="7.111in" xmlns="http://www.w3.org/2000/svg"><g id="Layer_x0020_1"><path d="m1327 7089h-193c-238 0-431-193-431-430v-553c0-39 32-71 71-71s70 32 70 71c0 16 14 29 30 29h812c39 0 71 32 71 71v453c0 237-193 430-430 430z" fill="#384149"/><path d="m5958 7089h-193c-238 0-431-193-431-430v-453c0-39 32-71 71-71h813c15 0 28-11 30-25 11-87 140-78 140 9v540c0 237-193 430-430 430z" fill="#384149"/><path d="m5604 3994c-51 0-86-54-63-101l304-636c10-20 28-34 49-38l295-65c203-44 387 80 380 292-6 192-168 376-368 420l-582 126c-4 1-10 2-15 2z" fill="#019f74"/><path d="m1507 3994c-5 0-10-1-15-2l-582-126c-321-70-489-469-268-653 72-60 174-82 280-59l295 65c21 4 39 18 49 38l304 636c23 47-12 101-63 101z" fill="#019f74"/><path d="m6218 6277h-5344c-94 0-171-77-171-171 0-1495 265-2253 788-2253h4110c523 0 788 758 788 2253 0 94-77 171-171 171z" fill="#1fc091"/><path d="m1679 5150c-257 0-466-209-466-465 0-257 209-466 466-466s465 209 465 466-209 465-465 465z" fill="#019f74"/><path d="m5413 5150c-257 0-466-209-466-465 0-257 209-466 466-466s466 209 466 466-209 465-466 465z" fill="#019f74"/><path d="m5604 3994h-4117c-48 0-82-47-67-93l332-1012c58-175 145-441 376-441h2836c231 0 318 266 376 441l332 1012c14 46-19 93-68 93z" fill="#1fc091"/><path d="m1585 3853h3922l-302-920c-71-217-134-343-241-343h-2836c-108 0-170 126-241 343z" fill="#dff8ff"/><path d="m5292 6277h-3492v-511c0-269 219-488 488-488h2516c269 0 488 219 488 488z" fill="#019f74"/><g fill="#1fc091"><path d="m2415 6277h-141v-999h141z"/><path d="m3016 6277h-142v-999h142z"/><path d="m3617 6277h-142v-999h142z"/><path d="m4217 6277h-141v-999h141z"/><path d="m4818 6277h-141v-999h141z"/></g><path d="m1679 4360c-179 0-325 145-325 324s146 325 325 325 324-146 324-325-145-324-324-324z" fill="#f7cc3f"/><path d="m1475 4718c0-188 160-337 348-324-213-107-469 48-469 290 0 172 133 312 302 324-107-53-181-163-181-290z" fill="#f8b839"/><path d="m5413 4360c179 0 325 145 325 324s-146 325-325 325-324-146-324-325 145-324 324-324z" fill="#f7cc3f"/><path d="m5617 4718c0-188-160-337-348-324 213-107 469 48 469 290 0 172-133 312-302 324 107-53 181-163 181-290z" fill="#f8b839"/><g fill="#c1ecfb"><path d="m2451 3634c-54 0-88-58-61-106l395-685c20-34 63-45 97-26 34 20 45 63 26 97l-396 685c-13 23-37 35-61 35z"/><path d="m3348 3634c-54 0-88-58-61-106l396-685c19-34 62-45 96-26 34 20 45 63 26 97l-396 685c-13 23-36 35-61 35z"/><path d="m4245 3634c-54 0-88-58-61-106l396-685c19-34 62-45 96-26 34 20 45 63 26 97l-396 685c-13 23-36 35-61 35z"/><path d="m1953 3021c71-217 134-343 241-343h2836c33 0 61 11 87 34-43-79-90-122-153-122h-2836c-108 0-170 126-241 343l-302 920h95z"/></g><path d="m6048 2427c-420 0-809-219-1027-576h-2931c-218 357-607 576-1027 576-436 0-839-237-1052-619-31-55 10-123 73-123h636l343-461-343-460h-636c-64 0-104-69-73-124 212-382 616-619 1052-619 420 0 809 219 1027 576h2931c218-357 607-576 1027-576 437 0 840 237 1052 619 31 55-9 124-73 124h-636l-343 460 343 461h636c64 0 104 68 73 124-212 381-615 618-1052 618z" fill="#95afd1"/></g></svg>