<svg id="Layer_1" enable-background="new 0 0 512 512" height="512" viewBox="0 0 512 512" width="512" xmlns="http://www.w3.org/2000/svg"><g clip-rule="evenodd" fill-rule="evenodd"><g><path d="m390.163 52.32c8.133 1.935 15.9 5.16 23.018 9.543l14.958-6.643 17.629 17.629-6.641 14.953c4.385 7.119 7.609 14.89 9.545 23.025l15.261 5.874v24.931l-15.264 5.875c-1.936 8.133-5.16 15.9-9.543 23.018l6.643 14.958-17.629 17.63-14.953-6.642c-7.12 4.385-14.89 7.609-23.025 9.545l-5.874 15.26h-24.931l-5.875-15.264c-8.133-1.935-15.9-5.16-23.018-9.543l-14.958 6.643-17.629-17.629 6.642-14.953c-4.385-7.119-7.609-14.89-9.545-23.025l-15.26-5.874v-24.931l15.262-5.875c1.936-8.134 5.16-15.902 9.544-23.021l-6.642-14.956 17.629-17.629 14.958 6.643c7.118-4.383 14.886-7.607 23.019-9.543l5.876-15.264h24.931z" fill="#a79ba7"/><path d="m330.463 196.469-14.958 6.643-2.303-2.303 14.024-6.229c1.064.656 2.144 1.286 3.237 1.889zm59.7-144.149c8.133 1.935 15.9 5.16 23.018 9.543l-4.252 1.888c-7.118-4.383-18.123-9.496-26.256-11.431l-5.875-15.264h7.489zm23.023 144.151c-7.12 4.385-14.89 7.609-23.025 9.545l-5.874 15.26h-7.489l5.874-15.26c8.135-1.936 19.142-7.048 26.262-11.433zm-99.985-138.949 2.303-2.303 14.958 6.643c-1.093.604-2.172 1.233-3.237 1.888zm109.752 0 5.186-2.303 17.629 17.629-6.641 14.953c4.385 7.119 7.609 14.89 9.545 23.025l15.261 5.874v24.931l-15.264 5.875c-1.936 8.133-5.16 15.9-9.543 23.018l6.643 14.958-17.629 17.63-5.186-2.303 15.326-15.326-6.643-14.958c4.383-7.118 7.607-14.886 9.543-23.018l15.264-5.875v-24.932l-15.26-5.874c-1.936-8.134-5.16-15.905-9.545-23.025l6.642-14.953z" fill="#837683"/><ellipse cx="371.822" cy="129.166" fill="#eceff1" rx="43.477" ry="43.477" transform="matrix(.707 -.707 .707 .707 17.57 300.75)"/><path d="m371.822 85.689c-24.013 0-43.477 19.463-43.477 43.477 0 24.013 19.463 43.477 43.477 43.477 1.164 0 2.317-.047 3.458-.137-22.396-1.762-40.019-20.491-40.019-43.34 0-22.85 17.623-41.578 40.019-43.341-1.141-.089-2.294-.136-3.458-.136z" fill="#d1d1d6"/></g><g><path d="m166.168 85.088c8.133 1.935 15.9 5.16 23.018 9.543l14.958-6.643 17.629 17.629-6.641 14.953c4.385 7.119 7.609 14.89 9.545 23.025l15.261 5.874v24.931l-15.264 5.875c-1.936 8.133-5.16 15.9-9.543 23.019l6.643 14.958-17.629 17.63-14.953-6.641c-7.12 4.385-14.89 7.609-23.025 9.544l-5.874 15.261h-24.931l-5.875-15.264c-8.133-1.935-15.9-5.16-23.019-9.543l-14.958 6.641-17.629-17.629 6.642-14.953c-4.385-7.12-7.609-14.89-9.545-23.025l-15.26-5.874v-24.931l15.262-5.875c1.936-8.133 5.16-15.902 9.544-23.02l-6.643-14.956 17.629-17.63 14.958 6.643c7.118-4.383 14.886-7.607 23.019-9.543l5.876-15.264h24.931z" fill="#ffe177"/><path d="m106.468 229.237-14.958 6.643-2.303-2.303 14.024-6.229c1.065.656 2.144 1.286 3.237 1.889zm59.7-144.149c8.133 1.935 15.9 5.16 23.018 9.543l-4.252 1.888c-7.118-4.383-18.123-9.496-26.256-11.431l-5.875-15.264h7.489zm23.024 144.151c-7.12 4.385-14.89 7.609-23.025 9.544l-5.874 15.26h-7.489l5.874-15.26c8.135-1.936 19.142-7.048 26.262-11.433zm-99.985-138.949 2.303-2.303 14.958 6.643c-1.093.604-2.172 1.233-3.237 1.888zm109.752 0 5.186-2.303 17.629 17.629-6.641 14.953c4.385 7.119 7.609 14.89 9.545 23.025l15.261 5.874v24.931l-15.264 5.875c-1.936 8.133-5.16 15.9-9.543 23.019l6.643 14.958-17.629 17.63-5.186-2.303 15.326-15.326-6.643-14.958c4.383-7.118 7.607-14.886 9.543-23.019l15.264-5.875v-24.931l-15.26-5.874c-1.936-8.135-5.16-15.905-9.545-23.025l6.642-14.953z" fill="#ffd064"/><path d="m147.827 118.456c-24.013 0-43.477 19.464-43.477 43.478 0 24.013 19.464 43.477 43.477 43.477 24.014 0 43.478-19.464 43.478-43.477 0-24.014-19.464-43.478-43.478-43.478z" fill="#eceff1"/><path d="m147.827 118.457c-24.013 0-43.477 19.463-43.477 43.477 0 24.013 19.463 43.477 43.477 43.477 1.164 0 2.317-.047 3.458-.137-22.396-1.762-40.019-20.491-40.019-43.34 0-22.85 17.623-41.578 40.019-43.341-1.141-.089-2.294-.136-3.458-.136z" fill="#d1d1d6"/></g><g><path d="m247.401 255.361c9.498 1.669 19.166 2.129 28.758 1.381l-.735 73.704-28.772-.433z" fill="#a79ba7"/><path d="m266.91 257.089c3.085.009 6.171-.107 9.249-.347l-.735 73.705-9.244-.139z" fill="#837683"/><path d="m276.829 424.935-32.472-.489c-5.703-.086-10.296-4.822-10.212-10.524l1.312-87.273c.085-5.702 4.822-10.299 10.524-10.213l32.472.489c5.702.086 10.299 4.822 10.213 10.525l-1.313 87.272c-.086 5.702-4.821 10.299-10.524 10.213z" fill="#f1ba84"/><path d="m276.829 424.935-32.472-.489c-4.687-.07-8.624-3.282-9.831-7.589.711.167 1.45.261 2.208.273l32.472.489c5.703.086 10.438-4.511 10.524-10.213l1.313-87.273c.016-1.016-.119-2.002-.381-2.935 4.633 1.09 8.079 5.308 8.004 10.252l-1.313 87.272c-.086 5.702-4.821 10.299-10.524 10.213z" fill="#e3a76f"/><ellipse cx="261.406" cy="154.315" fill="#8ac9fe" rx="114.065" ry="114.065" transform="matrix(.707 -.707 .707 .707 -32.553 230.04)"/><path d="m261.406 40.25c62.996 0 114.065 51.069 114.065 114.065s-51.069 114.065-114.065 114.065c-1.857 0-3.702-.048-5.538-.136 60.424-2.889 108.528-52.79 108.528-113.929 0-61.14-48.104-111.041-108.528-113.929 1.836-.088 3.681-.136 5.538-.136z" fill="#60b7ff"/><circle cx="261.406" cy="154.315" fill="#eceff1" r="81.905"/><path d="m261.406 72.41c1.862 0 3.707.068 5.538.19-42.652 2.848-76.369 38.341-76.369 81.715 0 43.373 33.717 78.867 76.369 81.715-1.83.122-3.676.19-5.537.19-45.235 0-81.906-36.67-81.906-81.905-.001-45.235 36.67-81.905 81.905-81.905z" fill="#d1d1d6"/></g><g><path d="m203.385 96.506 11.838-5.258 17.629 17.629-6.641 14.953c4.385 7.12 7.609 14.89 9.545 23.025l15.261 5.874v24.931l-15.264 5.875c-1.936 8.133-5.16 15.9-9.543 23.018l6.643 14.958-6.734 6.735c-27.571-13.183-46.617-41.333-46.617-73.932-.002-22.562 9.124-42.994 23.883-57.808z" fill="#ffe177"/><path d="m226.117 228.247c-1.674-.8-3.314-1.658-4.923-2.566l4.168-4.169-6.643-14.958c4.383-7.119 7.607-14.886 9.543-23.018l15.264-5.875v-24.931l-15.261-5.874c-1.936-8.135-5.16-15.906-9.545-23.025l6.641-14.953-15.326-15.326 5.186-2.303 17.629 17.629-6.641 14.953c4.385 7.12 7.609 14.89 9.545 23.025l15.261 5.874v24.931l-15.264 5.875c-1.936 8.133-5.16 15.9-9.543 23.018l6.643 14.958z" fill="#ffd064"/><path d="m190.401 195.168c7.424-7.799 11.982-18.353 11.982-29.972 0-14.926-7.521-28.092-18.978-35.921-2.532 7.893-3.904 16.306-3.904 25.04-.001 14.877 3.967 28.828 10.9 40.853z" fill="#eceff1"/></g><g><path d="m203.385 96.506 11.838-5.258 2.324 2.324c-16.563 14.986-26.973 36.646-26.973 60.742 0 29.684 15.795 55.675 39.436 70.038l-3.893 3.893c-27.571-13.183-46.617-41.333-46.617-73.932 0-22.561 9.126-42.993 23.885-57.807z" fill="#ffd064"/><path d="m226.117 228.247c-1.674-.8-3.314-1.658-4.923-2.566l4.168-4.169-.131-.295c1.554 1.099 3.147 2.145 4.778 3.136zm-12.382-130.997-3.698-3.698 5.186-2.303 2.324 2.324c-1.309 1.185-2.581 2.411-3.812 3.677z" fill="#ffc338"/><path d="m190.401 195.168c2.567-2.696 4.79-5.721 6.601-9.006-4.136-9.79-6.428-20.55-6.428-31.846 0-5.802.609-11.461 1.756-16.922-2.582-3.1-5.586-5.837-8.926-8.118-2.532 7.893-3.904 16.306-3.904 25.04 0 14.876 3.968 28.827 10.901 40.852z" fill="#d1d1d6"/></g><g><path d="m328.98 200.604c-2.612-1.235-5.157-2.615-7.625-4.135l-14.958 6.644-17.629-17.629 6.641-14.953c-4.385-7.12-7.609-14.89-9.545-23.025l-15.26-5.874v-24.931l15.262-5.875c1.936-8.133 5.16-15.902 9.544-23.02l-4.384-9.871c30.594 11.873 52.285 41.592 52.285 76.381 0 17.178-5.293 33.119-14.331 46.288z" fill="#a79ba7"/><path d="m321.355 196.469-14.958 6.644-2.303-2.303 14.024-6.229c1.065.656 2.144 1.285 3.237 1.888z" fill="#837683"/><path d="m326.676 104.836c-4.697 6.943-7.439 15.316-7.439 24.33 0 16.612 9.316 31.044 23.007 38.364.698-4.303 1.067-8.716 1.067-13.216 0-18.59-6.198-35.731-16.635-49.478z" fill="#eceff1"/><path d="m326.676 104.836c-4.697 6.943-7.439 15.316-7.439 24.33 0 16.612 9.316 31.044 23.007 38.364.223-1.371.41-2.753.564-4.145-10.14-7.959-16.655-20.327-16.655-34.219 0-6.775 1.55-13.188 4.313-18.903-1.19-1.862-2.457-3.671-3.79-5.427z" fill="#d1d1d6"/></g><g><path d="m23.058 474.944h151.766c4.144 0 7.212-3.755 6.384-7.816-7.802-38.295-41.668-67.112-82.267-67.112-40.6 0-74.465 28.817-82.268 67.112-.827 4.061 2.241 7.816 6.385 7.816z" fill="#8ac9fe"/><path d="m159.985 474.944h14.839c4.144 0 7.212-3.755 6.385-7.816-7.803-38.295-41.669-67.112-82.267-67.112-2.5 0-4.975.11-7.419.324 37.251 3.262 67.526 30.851 74.848 66.788.826 4.061-2.242 7.816-6.386 7.816z" fill="#60b7ff"/><circle cx="98.941" cy="347.564" fill="#f6dccd" r="42.451"/><path d="m98.941 305.114c23.445 0 42.451 19.006 42.451 42.451s-19.006 42.451-42.451 42.451c-2.007 0-3.981-.143-5.914-.412 20.645-2.878 36.537-20.601 36.537-42.039 0-21.437-15.892-39.16-36.537-42.038 1.933-.27 3.907-.413 5.914-.413z" fill="#f1cbbc"/></g><g><path d="m49.153 351.762h99.577c3.67 0 6.673-3.003 6.673-6.673s-3.003-6.673-6.673-6.673h-1.346c.097-1.252.148-2.518.148-3.796 0-21.615-14.115-39.927-33.629-46.237.733-7.647-8.665-10.047-14.962-10.044-6.298-.003-15.696 2.397-14.962 10.044-19.514 6.31-33.629 24.622-33.629 46.237 0 1.278.051 2.543.148 3.796h-1.345c-3.67 0-6.673 3.003-6.673 6.673 0 3.671 3.003 6.673 6.673 6.673z" fill="#ffe177"/><path d="m141.705 351.762h7.026c3.67 0 6.673-3.003 6.673-6.673s-3.003-6.673-6.673-6.673h-1.346c.097-1.253.148-2.518.148-3.796 0-21.614-14.115-39.928-33.629-46.237.733-7.647-8.665-10.047-14.962-10.044-1.1-.001-2.295.073-3.515.234 5.758.762 12.053 3.499 11.448 9.81 19.514 6.31 33.629 24.623 33.629 46.237 0 1.278-.051 2.543-.148 3.796h1.345c3.67 0 6.673 3.003 6.673 6.673 0 3.669-3.001 6.671-6.669 6.673z" fill="#ffd064"/><path d="m94.466 314.279h8.952c4.102 0 7.52-3.002 8.048-7.07l2.404-18.508c1.027-7.91-8.558-9.927-14.928-10.36-6.369.434-15.954 2.451-14.927 10.36l2.404 18.508c.527 4.068 3.944 7.07 8.047 7.07z" fill="#ffd064"/><path d="m94.466 314.279h8.951c4.103 0 7.52-3.002 8.048-7.07l2.403-18.508c.485-3.735-1.397-6.155-4.188-7.716.221.872.28 1.841.139 2.922l-2.403 18.508c-.528 4.068-3.946 7.071-8.048 7.071-2.385 0-5.369 0-8.951 0-1.328 0-2.583-.315-3.693-.878 1.043 3.339 4.126 5.671 7.742 5.671z" fill="#ffc338"/><path d="m49.153 338.417c-3.67 0-6.673 3.003-6.673 6.673s3.003 6.673 6.673 6.673h99.577c3.67 0 6.673-3.003 6.673-6.673s-3.003-6.673-6.673-6.673c-33.192 0-66.384 0-99.577 0z" fill="#ffc338"/><path d="m42.48 345.09c0 3.67 3.003 6.673 6.673 6.673h99.577c3.67 0 6.673-3.003 6.673-6.673z" fill="#ffd064"/></g><g><path d="m371.912 426.672-22.318-12.886 94.726-164.07 1.958-21.08 26.865-28.844 22.319 12.886-11.546 37.688-17.278 12.236z" fill="#d8ecfe"/><path d="m371.912 426.672-8.673-5.008 94.726-164.069 17.278-12.237 11.546-37.688 8.673 5.008-11.546 37.688-17.278 12.236z" fill="#c4e2ff"/><path d="m354.934 472.956-36.934-21.324c-1.908-1.102-2.568-3.564-1.466-5.472l51.074-88.463c2.164-3.748 7.001-5.044 10.749-2.88l30.243 17.46c3.748 2.164 5.044 7.002 2.88 10.75l-51.074 88.463c-1.102 1.908-3.564 2.568-5.472 1.466z" fill="#f1ba84"/><path d="m354.934 472.956-36.934-21.324c-1.908-1.102-2.568-3.564-1.466-5.472l3.005-5.204 31.731 18.319c1.908 1.102 4.37.442 5.472-1.466l50.001-86.605 1.858 1.073c3.748 2.164 5.045 7.001 2.881 10.75l-51.074 88.463c-1.104 1.908-3.566 2.568-5.474 1.466z" fill="#e3a76f"/></g></g></svg>