<svg id="Layer_1" enable-background="new 0 0 512 512" viewBox="0 0 512 512" xmlns="http://www.w3.org/2000/svg"><g clip-rule="evenodd" fill-rule="evenodd"><g><path d="m41.215 502.999h304.15c9.131 0 16.583-7.449 16.583-16.583v-355.292c0-4.567-1.628-8.497-4.857-11.726l-76.266-76.267c-3.229-3.229-7.159-4.857-11.726-4.857h-227.884c-9.133 0-16.583 7.452-16.583 16.583v431.56c0 9.13 7.454 16.582 16.583 16.582z" fill="#42a5f5"/><path d="m361.623 489.676c.212-1.055.324-2.145.324-3.26v-355.292c0-4.567-1.628-8.497-4.857-11.726l-76.266-76.267c-3.229-3.229-7.159-4.857-11.726-4.857h-158.627l-68.161 68.162c-3.229 3.229-4.857 7.16-4.857 11.726v355.292c0 9.133 7.452 16.583 16.583 16.583h304.15c1.178 0 2.327-.125 3.437-.361z" fill="#2d90f1"/><path d="m374.639 473.724h-304.149c-9.131 0-16.583-7.449-16.583-16.583v-355.292c0-4.567 1.628-8.497 4.857-11.726l76.266-76.267c3.229-3.229 7.159-4.857 11.726-4.857h227.884c9.134 0 16.583 7.452 16.583 16.583v431.559c-.001 9.131-7.456 16.583-16.584 16.583z" fill="#64b5f6"/><path d="m135.029 13.856-76.265 76.267c-1.475 1.475-2.616 3.096-3.42 4.857h69.57c8.245 0 14.972-6.726 14.972-14.973v-69.57c-1.761.804-3.382 1.945-4.857 3.419z" fill="#2d90f1"/><path d="m374.639 473.724h-304.149c-9.131 0-16.583-7.449-16.583-16.583v-3.417h300.732c9.128 0 16.583-7.452 16.583-16.583v-428.142h3.417c9.134 0 16.583 7.452 16.583 16.583v431.559c0 9.131-7.455 16.583-16.583 16.583z" fill="#42a5f5"/><path d="m102.85 305.66c-4.418 0-8-3.582-8-8s3.582-8 8-8h239.428c4.418 0 8 3.582 8 8s-3.582 8-8 8zm93.156-225.191c-4.418 0-8-3.582-8-8s3.582-8 8-8h146.272c4.418 0 8 3.582 8 8s-3.582 8-8 8zm-93.156 56.298c-4.418 0-8-3.582-8-8s3.582-8 8-8h239.428c4.418 0 8 3.582 8 8s-3.582 8-8 8zm0 56.297c-4.418 0-8-3.582-8-8s3.582-8 8-8h239.428c4.418 0 8 3.582 8 8s-3.582 8-8 8zm0 56.298c-4.418 0-8-3.582-8-8s3.582-8 8-8h239.428c4.418 0 8 3.582 8 8s-3.582 8-8 8zm0 168.893c-4.418 0-8-3.582-8-8s3.582-8 8-8h239.428c4.418 0 8 3.582 8 8s-3.582 8-8 8zm0-56.297c-4.418 0-8-3.582-8-8s3.582-8 8-8h239.428c4.418 0 8 3.582 8 8s-3.582 8-8 8z" fill="#eff4f7"/></g><g><path d="m396.22 428.485 16.081-17.184-32.496-32.496-17.232 16.033z" fill="#b4d2d7"/><path d="m396.22 428.485 16.081-17.184-.175-.174-8.998 9.614-32.965-32.965-7.59 7.062z" fill="#9bb9c3"/><path d="m410.783 399.684-26.731 26.731c-.74.74-.739 1.947-.001 2.686l67.832 67.832c8.09 8.09 21.328 8.089 29.418 0 8.09-8.089 8.09-21.328 0-29.417l-67.832-67.832c-.739-.739-1.946-.739-2.686 0z" fill="#8d9ca8"/><path d="m389.09 421.378-5.038 5.038c-.74.74-.739 1.947-.001 2.686l67.832 67.832c8.089 8.089 21.327 8.09 29.417 0 .861-.861 1.629-1.779 2.306-2.744-8.105 5.693-19.445 4.924-26.674-2.305l-67.832-67.832c-.734-.736-.738-1.935-.01-2.675z" fill="#7a8c98"/><path d="m384.052 426.415c-.74.74-.739 1.947-.001 2.686l17.603 17.602 29.418-29.418-17.602-17.603c-.739-.739-1.947-.739-2.686.001-8.911 8.911-17.822 17.822-26.732 26.732z" fill="#7a8c98"/><path d="m384.052 426.415c-.74.74-.739 1.947-.001 2.686l17.603 17.602 5.049-5.049-17.603-17.603c-.735-.735-.739-1.934-.011-2.674z" fill="#596c76"/><circle cx="308.776" cy="324.407" fill="#ffda2d" r="98.506"/><path d="m367.278 245.153c24.266 17.942 40.004 46.759 40.004 79.254 0 54.404-44.103 98.506-98.507 98.506-27.788 0-52.885-11.511-70.794-30.019 16.36 12.097 36.595 19.253 58.503 19.253 54.404 0 98.507-44.103 98.507-98.506 0-26.616-10.56-50.762-27.713-68.488z" fill="#ffc700"/><ellipse cx="308.776" cy="324.407" fill="#e6f8ff" rx="66.815" ry="66.815" transform="matrix(.973 -.23 .23 .973 -66.273 79.62)"/><path d="m308.776 257.592c20.623 0 39.061 9.346 51.318 24.031-11.59-9.674-26.506-15.497-42.784-15.497-36.901 0-66.815 29.914-66.815 66.815 0 16.277 5.823 31.193 15.497 42.784-14.685-12.257-24.031-30.695-24.031-51.318 0-36.901 29.914-66.815 66.815-66.815z" fill="#dbf4ff"/></g><g><path d="m330.144 295.82c4.656-4.682 12.227-4.703 16.909-.047s4.703 12.227.047 16.909l-39.935 40.31c-4.625 4.651-12.125 4.702-16.814.139l-19.759-19.259c-4.734-4.604-4.838-12.175-.234-16.909s12.175-4.839 16.908-.234l11.274 10.99z" fill="#64b5f6"/><path d="m349.118 298.521c2.474 4.527 1.805 10.317-2.018 14.162l-39.935 40.31c-4.625 4.651-12.125 4.702-16.814.139l-19.759-19.259c-3.936-3.828-4.671-9.708-2.16-14.302.56 1.024 1.28 1.983 2.16 2.84l19.759 19.258c4.689 4.563 12.189 4.512 16.814-.139l39.935-40.31c.817-.821 1.489-1.731 2.018-2.699z" fill="#42a5f5"/></g></g></svg>