<svg id="svg8" height="512" viewBox="0 0 16.933333 16.933334" width="512" xmlns="http://www.w3.org/2000/svg" xmlns:svg="http://www.w3.org/2000/svg"><g id="layer1"><path id="path6491" d="m1.0583334 6.7034702c-.78052008.2091398-1.0583334.7938431-1.0583334 1.234033v2.1621428c0 .75029.78754877 2.337838.78754877 2.867008v.5271h3.51813163c.2404677-.617361.7214029-.79375.7214029-1.852084v-.264583h-2.9104166c-.439738 0-.79375-.35401-.79375-.79375v-3.8798668z" fill="#ffc6a0"/><path id="path6446" d="m13.760585 12.50988 2.636999 2.29611c.391858.3412.339219.96953-.03863 1.32617-.377885.35663-1.015673.37847-1.325538-.0387l-2.114805-2.84688z" fill="#e4eff8" paint-order="stroke markers fill"/><path id="path6448" d="m13.760401 12.509834-.841809.736906.217558.293006c.391643-.148313.752925-.366869 1.066084-.644922z" fill="#c4dcf0" paint-order="stroke markers fill"/><path id="path6450" d="m13.760401 12.509834-.398426.348816 2.248442 1.95802c.391858.3412.339092.969378-.03876 1.326018-.07884.07441-.170522.130353-.266651.174666.329475.161933.766795.08624 1.054199-.185002.37785-.35664.430099-.985334.03824-1.326534z" fill="#c4dcf0" paint-order="stroke markers fill"/><path id="rect6459" d="m.52916044 13.493753h4.23333266v1.058333h-4.23333266z" fill="#e4eff8"/><path id="path6652" d="m4.1025913 13.493752c-.8264927.592187-2.6738781.739793-3.57342514.77773v.280603h4.23333324v-1.058333z" fill="#c4dcf0"/><path id="path6463" d="m1.0583333 11.64167v-10.84791998c0-.43973002.354012-.79375002.79375-.79375002h14.2875007c.439737 0 .793749.35402.793749.79375002v10.05416998c0 .43974-.354012.79375-.793749.79375h-1.587485z" fill="#549ad4" paint-order="stroke markers fill"/><path id="path6471" d="m16.378328.04031096c.697993 10.90299604-12.0277338 11.57639304-14.5691356 11.60135904h12.4783076 1.852083c.439738 0 .79375-.35401.79375-.79375v-10.05416668c0-.355844-.233523-.65204033-.555005-.75344236z" fill="#3588cb"/><path id="path6475" d="m2.1166666 10.583336v-8.7312494c0-.43973.354012-.79375.7937499-.79375h12.1708345c.439738 0 .793749.35402.793749.79375v7.9374989c0 .4397405-.354011.7937505-.793749.7937505h-1.852069z" fill="#e4eff8" paint-order="stroke markers fill"/><path id="rect6477" d="m3.9687436 6.3499999h1.5874997v2.1166673h-1.5874997z" fill="#ff5151"/><path id="path6485" d="m2.9104166 1.0583366c-.4397381 0-.79375.35402-.79375.79375v8.7312504h.2294433c-.4144967-2.8678779.5963611-9.3721224 13.5288901-8.8883467-.072606-.3638632-.392405-.6366537-.778247-.6366537z" fill="#c4dcf0"/><path id="rect6487" d="m5.5562449 5.2916656h1.5875003v3.1750006h-1.5875003z" fill="#b4d305"/><path id="path6489" d="m15.875001 4.3025831c-1.189508 3.4859428-4.462319 5.3181487-7.4114346 6.2807539h4.7656006 1.852084c.439738 0 .79375-.35401.79375-.7937505z" fill="#c4dcf0" paint-order="stroke markers fill"/><path id="path6499" d="m3.4162046 12.16532c-.003-1.32018-1.05833-1.58751-1.05833-2.11666v-1.13498c-.04-1.32291-1.32292-1.5875-1.32292-.79375v4.050906z" fill="#ffc6a0"/><path id="path6511" d="m1.2023789 7.7483676c.3087156.1512623.6073445.5377868.6263183 1.1653036v1.1348148c0 .52915 1.0583328 1.064016 1.0583328 2.119517.2645834 0 .499376-.286576.4590084-.526334-.2212773-.901986-.9881745-1.138531-.9881745-1.593183v-1.134814c-.0249999-.8268186-.5353017-1.240233-.9146728-1.2402349-.091377-.0000008-.1732694.026962-.2408122.07493z" fill="#ffaf7a"/><path id="path6515" d="m4.3842284 11.64167c-.7608425 1.127513-2.4172276 1.568829-3.59667963 1.740979v.111105h3.51813163c.2404677-.617361.7214029-.79375.7214029-1.852084z" fill="#ffaf7a"/><path id="rect6535" d="m6.3500004 5.2916698h.7937426v3.1749971h-.7937426z" fill="#94ac04"/><path id="rect6539" d="m4.7625003 6.3500028h.793743v2.1166637h-.793743z" fill="#ff2929"/><path id="path6550" d="m8.2020905 8.46666h-1.058348v-4.7625h1.5875v4.23334z" fill="#549ad4"/><path id="path6552" d="m7.9375004 3.7041699v4.7625h.2645833l.5291667-.5291667v-4.2333333z" fill="#3588cb"/><path id="ellipse6570" d="m4.4439687 15.13148c.0000002 1.90054-1.5406917 3.441232-3.4412315 3.441232-1.90053979 0-3.4412317-1.540692-3.4412315-3.441232-.0000002-1.90054 1.54069171-3.441232 3.4412315-3.441232 1.9005398 0 3.4412317 1.540692 3.4412315 3.441232z" fill="#ff5151" transform="matrix(.727 -.686 .686 .727 0 0)" paint-order="stroke markers fill"/><path id="path6572" d="m13.268441 7.6413972c1.119024 1.3984059.978332 3.4213558-.323494 4.6513958-1.250833 1.177812-3.1787412 1.252582-4.5170372.175184.057562.07322.1180734.144077.1813841.21239 1.304239 1.382586 3.4823741 1.445981 4.8648191.141593 1.382226-1.304189 1.445617-3.4819203.141594-4.864303-.108417-.1132059-.224443-.2188719-.347266-.3162598z" fill="#ff2929" paint-order="stroke markers fill"/><path id="ellipse6588" d="m3.3840665 15.13148c.0000003 1.315172-1.0661572 2.38133-2.3813293 2.38133-1.31517205 0-2.3813296-1.066158-2.3813293-2.38133s1.06615764-2.381329 2.3813293-2.381329c1.3151717 0 2.381329 1.066157 2.3813293 2.381329z" fill="#e4eff8" transform="matrix(.727 -.686 .686 .727 0 0)" paint-order="stroke markers fill"/><path id="path6596" d="m11.216887 7.9395701c-.643093-.0281599-1.2701927.2052316-1.7383953.6469891-.9566294.9024521-1.0005877 2.4095268-.0981853 3.3662028.1028381.108365.2156455.206812.3369302.294039-.7040101-.968313-.5796768-2.3087686.2904214-3.1310752.8319-.7838262 2.103368-.8660312 3.029273-.1958535-.059011-.0823865-.12322-.1609221-.192237-.2351278-.425025-.4506633-1.008936-.7179647-1.627807-.7451744z" fill="#c4dcf0" paint-order="stroke markers fill"/><path id="rect6452" d="m.26457685 14.287503h4.76249985v2.64583h-4.76249985z" fill="#38668c"/><path id="path6457" d="m4.455542 14.287502c-.8431627 1.242577-2.9159482 1.915558-4.19095867 2.049489v.596342h4.76249997v-2.64583z" fill="#2c5170"/><path id="path6695" d="m10.054394 3.7041685c-.3530812-.000217-.3530812.5290798 0 .5292968h1.851855c.353081.000217.353081-.5290798 0-.5292968z" fill="#549ad4" font-variant-ligatures="normal" font-variant-position="normal" font-variant-caps="normal" font-variant-numeric="normal" font-variant-alternates="normal" font-feature-settings="normal" text-indent="0" text-align="start" text-decoration-line="none" text-decoration-style="solid" text-decoration-color="#000000" text-transform="none" text-orientation="mixed" white-space="normal" shape-padding="0" isolation="auto" mix-blend-mode="normal" solid-color="#000000" solid-opacity="1" vector-effect="none"/><path id="path6697" d="m10.054394 4.7626321c-.3530812-.000217-.3530812.5290798 0 .5292968h3.703938c.353081.000217.353081-.5290798 0-.5292968z" fill="#b4d305" font-variant-ligatures="normal" font-variant-position="normal" font-variant-caps="normal" font-variant-numeric="normal" font-variant-alternates="normal" font-feature-settings="normal" text-indent="0" text-align="start" text-decoration-line="none" text-decoration-style="solid" text-decoration-color="#000000" text-transform="none" text-orientation="mixed" white-space="normal" shape-padding="0" isolation="auto" mix-blend-mode="normal" solid-color="#000000" solid-opacity="1" vector-effect="none"/><path id="path6699" d="m10.054394 5.8209654c-.3530812-.000217-.3530812.5290798 0 .5292968h3.703938c.353081.000217.353081-.5290798 0-.5292968z" fill="#ff5151" font-variant-ligatures="normal" font-variant-position="normal" font-variant-caps="normal" font-variant-numeric="normal" font-variant-alternates="normal" font-feature-settings="normal" text-indent="0" text-align="start" text-decoration-line="none" text-decoration-style="solid" text-decoration-color="#000000" text-transform="none" text-orientation="mixed" white-space="normal" shape-padding="0" isolation="auto" mix-blend-mode="normal" solid-color="#000000" solid-opacity="1" vector-effect="none"/></g></svg>