<svg id="Layer_1" enable-background="new 0 0 512 512" height="512" viewBox="0 0 512 512" width="512" xmlns="http://www.w3.org/2000/svg"><g clip-rule="evenodd" fill-rule="evenodd"><circle cx="256" cy="256" fill="#24b9cc" r="256"/><g fill="#fffffe"><path d="m359.1 112.4h-206.2c-22.3 0-40.4 18.2-40.4 40.4v206.2c0 22.3 18.2 40.4 40.4 40.4h206.1c22.3 0 40.4-18.2 40.4-40.4v-206.1c.1-22.3-18-40.5-40.3-40.5zm-201.5 272.4c-7 0-12.7-5.7-12.7-12.7s5.7-12.7 12.7-12.7 12.7 5.7 12.7 12.7c-.1 7-5.7 12.7-12.7 12.7zm0-34.6c-7 0-12.7-5.7-12.7-12.7s5.7-12.7 12.7-12.7 12.7 5.7 12.7 12.7c-.1 7-5.7 12.7-12.7 12.7zm0-34.6c-7 0-12.7-5.7-12.7-12.6 0-7 5.7-12.7 12.7-12.7s12.7 5.7 12.7 12.7c-.1 7-5.7 12.6-12.7 12.6zm1-71.2v-36.5c0-8.7 7.2-15.9 15.9-15.9h8.7l13-37.5c2.4-6.9 8.5-11.3 15.4-11.3h23v-7.6c0-4.6 4-8.3 8.8-8.3h7.6c4.8 0 8.8 3.8 8.8 8.3v7.6h23c7 0 13 4.4 15.4 11.3l13 37.5h12.4c16.2 0 29.4 13.2 29.4 29.4v23.1c0 8.8-7.2 15.9-15.9 15.9h-9c-1.6 11.1-11.2 19.7-22.7 19.7s-21.1-8.5-22.7-19.7h-53.9c-1.6 11.1-11.2 19.7-22.7 19.7s-21.1-8.5-22.7-19.7h-9c-8.5 0-15.8-7.3-15.8-16zm205.2 131.1h-178.6c-1.8 0-3.3-1.4-3.3-3.3 0-1.8 1.4-3.3 3.3-3.3h178.5c1.8 0 3.3 1.4 3.3 3.3 0 1.8-1.4 3.3-3.2 3.3zm0-34.6h-178.6c-1.8 0-3.3-1.4-3.3-3.3 0-1.8 1.4-3.3 3.3-3.3h178.5c1.8 0 3.3 1.5 3.3 3.3s-1.4 3.3-3.2 3.3zm0-34.7h-178.6c-1.8 0-3.3-1.4-3.3-3.3 0-1.8 1.4-3.3 3.3-3.3h178.5c1.8 0 3.3 1.5 3.3 3.3 0 2-1.4 3.3-3.2 3.3z"/><path d="m206.4 234.1c11.5 0 21.1 8.5 22.7 19.7h53.9c1.6-11.1 11.2-19.7 22.7-19.7s21.1 8.5 22.7 19.7h9c5.2 0 9.4-4.2 9.4-9.4v-23.1c0-12.6-10.2-22.8-22.8-22.8h-149.4c-5.2 0-9.4 4.2-9.4 9.4v36.5c0 5.2 4.2 9.4 9.4 9.4h9c1.6-11.2 11.2-19.7 22.8-19.7zm41-22.7h10.2c1.8 0 3.3 1.5 3.3 3.3s-1.4 3.3-3.3 3.3h-10.2c-1.8 0-3.3-1.4-3.3-3.3 0-1.8 1.5-3.3 3.3-3.3z"/><path d="m244.1 149.6h-32.4c-4.2 0-7.8 2.7-9.3 7l-12.2 35.4h53.9z"/><path d="m250.8 192.1h53.9l-12.4-35.4c-1.5-4.3-5.1-7-9.3-7h-32.3z"/><path d="m253.6 135.6c0-1-1-1.8-2.3-1.8h-7.6c-1.2 0-2.3.8-2.3 1.8v7.6h12.2z"/><path d="m305.6 240.6c-9 0-16.4 7.4-16.4 16.4s7.4 16.4 16.4 16.4 16.4-7.4 16.4-16.4c0-9.1-7.2-16.4-16.4-16.4z"/><path d="m206.4 240.6c-9 0-16.4 7.4-16.4 16.4s7.4 16.4 16.4 16.4 16.4-7.4 16.4-16.4c0-9.1-7.4-16.4-16.4-16.4z"/><path d="m157.6 366c-3.3 0-6.1 2.7-6.1 6.1 0 3.3 2.7 6.1 6.1 6.1 3.3 0 6.1-2.7 6.1-6.1s-2.6-6.1-6.1-6.1z"/><path d="m157.6 331.5c-3.3 0-6.1 2.7-6.1 6.1 0 3.3 2.7 6.1 6.1 6.1 3.3 0 6.1-2.7 6.1-6.1.1-3.5-2.6-6.1-6.1-6.1z"/><path d="m157.6 297c-3.3 0-6.1 2.7-6.1 6.1 0 3.3 2.7 6.1 6.1 6.1s6.1-2.7 6.1-6.1c.1-3.5-2.6-6.1-6.1-6.1z"/></g></g></svg>