<svg xmlns="http://www.w3.org/2000/svg" version="1.1" xmlns:xlink="http://www.w3.org/1999/xlink" width="512" height="512" x="0" y="0" viewBox="0 0 593.84 593.84" style="enable-background:new 0 0 512 512" xml:space="preserve" class=""><g><path d="M429.556 470.953c7.086-16.221 18.279-29.81 31.879-40.204-4.547.553-9.032.901-13.436.901-22.98 0-43.983-7.588-61.904-22.621-26.421 23.451-60.378 38.453-97.787 40.901a76.741 76.741 0 0 0 5.325 21.024zM420.913 286.623c0-79.057-64.311-143.368-143.368-143.368s-143.368 64.311-143.368 143.368 64.311 143.368 143.368 143.368 143.368-64.311 143.368-143.368zm-256.014 0c0-62.211 50.435-112.646 112.646-112.646s112.646 50.435 112.646 112.646-50.435 112.646-112.646 112.646-112.646-50.434-112.646-112.646zM271.933 470.953a99.76 99.76 0 0 1-4.106-20.973c-37.47-2.212-71.53-16.989-98.084-40.276-14.06 17.429-19.242 37.982-15.596 61.249zM546.78 154.755l-16.221 16.221-14.48-14.48 21.679-21.679a247.937 247.937 0 0 0-11.797-20.696l-26.124 26.124-14.48-14.48 28.725-28.735a243.87 243.87 0 0 0-14.808-17.675l-30.158 30.169-14.48-14.48 30.158-30.169a249.653 249.653 0 0 0-17.675-14.808l-28.725 28.735-14.48-14.48 26.124-26.124a246.158 246.158 0 0 0-20.686-11.797L407.673 48.08l-14.48-14.48 16.221-16.221C382.552 6.656 353.376.533 322.849 0l241.319 241.309c-.532-30.517-6.656-59.693-17.388-86.554zM114.239 297.417c-40.338 4.403-60.655 36.006-70.803 64.045 8.008 25.1 20.092 48.817 36.047 70.517 22.417 4.834 42.212 18.863 53.876 38.976h.02c-3.656-28.459 3.861-54.244 21.853-75.688-23.492-26.422-38.525-60.4-40.993-97.85zM557.983 264.084 300.084 6.185c-6.421 4.854-10.947 12.074-12.033 20.44l249.491 249.501c8.367-1.085 15.587-5.621 20.441-12.042z" fill="#3a7c3f" opacity="1" data-original="#000000" class=""></path><path d="M287.325 123.276c82.201 4.895 148.14 70.506 153.527 152.584 17.839-1.915 33.128-9.227 45.611-21.843L273.408 40.952a245.165 245.165 0 0 0-38.853 3.738c31.531 18.115 49.82 45.161 52.77 78.586zM481.148 511.916l25.96-51.93 85.673 9.513c-14.767-24.536-40.798-39.508-69.462-39.508-34.582 0-65.581 21.956-77.152 54.613l-2.407 6.83H120.721l-2.775-5.837c-10.148-21.331-31.91-35.125-55.442-35.125-33.886 0-61.443 27.557-61.443 61.443s27.557 61.443 61.443 61.443c23.533 0 45.294-13.784 55.442-35.125l2.775-5.837h323.028l2.407 6.831c11.572 32.667 42.57 54.613 77.152 54.613 28.663 0 54.695-14.972 69.462-39.508l-85.673 9.513zM62.493 542.637c-16.969 0-30.722-13.753-30.722-30.722s13.753-30.722 30.722-30.722 30.722 13.753 30.722 30.722-13.753 30.722-30.722 30.722zM168.985 164.228c26.369-23.41 60.245-38.402 97.582-40.901-3.492-32.872-24.915-56.651-63.983-70.752-51.633 16.59-95.852 49.81-126.369 93.343 35.054-9.432 67.086-3.226 92.77 18.31zM114.187 276.843c2.222-37.378 16.948-71.377 40.164-97.9-25.683-20.768-57.624-22.458-95.186-4.854-17.46 33.743-27.394 71.991-27.394 112.534 0 14.583 1.362 28.94 3.83 43.01 18.106-31.54 45.161-49.84 78.586-52.79zM523.175 290.719l-22.222-22.222c-16.344 16.579-36.487 25.878-60.051 27.885-2.222 37.388-16.948 71.397-40.164 97.92 25.704 20.788 57.644 22.478 95.217 4.854 17.256-33.455 26.585-70.434 27.22-108.437zM290.714 314.273l30.773 30.773 14.48-14.48-30.773-30.773c1.915-4.004 3.072-8.438 3.072-13.169s-1.157-9.165-3.072-13.169l30.793-30.793-14.48-14.48-30.793 30.793c-4.004-1.915-8.438-3.072-13.169-3.072s-9.165 1.157-13.169 3.072l-30.814-30.804-14.48 14.48 30.814 30.814c-1.915 4.004-3.072 8.438-3.072 13.169s1.157 9.165 3.072 13.169l-30.793 30.793 14.48 14.48 30.793-30.793c4.004 1.915 8.438 3.072 13.169 3.072 4.731-.01 9.165-1.167 13.169-3.082z" fill="#3a7c3f" opacity="1" data-original="#000000" class=""></path></g></svg>