<svg id="Layer_1" enable-background="new 0 0 68 68" height="512" viewBox="0 0 68 68" width="512" xmlns="http://www.w3.org/2000/svg"><g><g><g><g><path d="m53.278141 8.1246872v55.6669197c0 1.2184944-.9877853 2.2062798-2.2062798 2.2062798h-45.0447707c-1.2184949 0-2.20628-.9877853-2.20628-2.2062798v-55.6669197c0-1.2184944.9877851-2.2062798 2.20628-2.2062798h45.0447693c1.2184959 0 2.2062812.9877854 2.2062812 2.2062798z" fill="#fdc72e"/></g><g><path d="m48.8655815 12.4193983v37.5633278h-10.0708618c-.8459587 0-1.5317421.6857834-1.5317421 1.5317383v10.0708618h-26.9411764c-1.1534081 0-2.0884304-.9350243-2.0884304-2.0884323v-47.0774956c0-1.1534081.9350224-2.0884304 2.0884304-2.0884304h36.455349c1.1534071 0 2.0884313.9350224 2.0884313 2.0884304z" fill="#e9e9ff"/></g><g><path d="m25.5625172 55.6105385v1.2009659c0 .1586647-.1314487.2901154-.2901173.2901154h-13.1520748c-.1586685 0-.2901173-.1314507-.2901173-.2901154v-1.2009659c0-.1633148.1314487-.2901154.2901173-.2901154h13.1520748c.1586685 0 .2901173.1268006.2901173.2901154z" fill="#7bd681"/></g><g><g><path d="m37.3044434 26.4178753v.0282135.0282135c0 .0837307 0 .1583614-.0093307.2420921-.1397018 5.1535702-4.3615341 9.2823429-9.5433178 9.2823429-5.2748451 0-9.5526485-4.2775764-9.5526485-9.5526485s4.2778034-9.5526485 9.5526485-9.5526485v9.5526485s5.1444683-.0559731 9.5433178 0c-.0000001-.0186577-.0000001-.0282135.0093307-.0282135z" fill="#70c1f9"/></g><g><path d="m38.8965492 24.853981c0 .0932865 0-.0932884-.0093269 0-4.3988533-.0559731-9.5433197 0-9.5433197 0v-9.5526485c5.2750702 0 9.5526466 4.2775764 9.5526466 9.5526485z" fill="#ed524e"/></g></g><g><path d="m48.8655815 49.9827271h-10.0708618c-.8459587 0-1.5317421.6857834-1.5317421 1.5317383v10.0708618z" fill="#cfcfff"/></g><g><g><path d="m25.0315857 44.7667885v1.2009659c0 .1586647-.1314487.2901154-.2901154.2901154h-8.1523952c-.1586685 0-.2901173-.1314507-.2901173-.2901154v-1.2009659c0-.1633148.1314487-.2901154.2901173-.2901154h8.1523952c.1586666 0 .2901154.1268006.2901154.2901154z" fill="#cfcfff"/></g><g><path d="m41.531002 39.8090477v1.2009621c0 .1633148-.1314507.2901192-.2901154.2901192h-24.6518115c-.1586685 0-.2901173-.1268044-.2901173-.2901192v-1.2009621c0-.1586685.1314487-.2901154.2901173-.2901154h24.6518116c.1586647 0 .2901153.1314469.2901153.2901154z" fill="#cfcfff"/></g><g><path d="m41.531002 44.7667885v1.2009659c0 .1586647-.1314507.2901154-.2901154.2901154h-13.5490111c-.1632042 0-.2900066-.1314507-.2900066-.2901154v-1.2009659c0-.1633148.1268024-.2901154.2900066-.2901154h13.5490112c.1586647 0 .2901153.1268006.2901153.2901154z" fill="#cfcfff"/></g></g></g><g><path d="m38.775856 5.3620877v5.6600757c0 .3237677-.2715073.5950193-.5952759.5950193h-19.2552681c-.3342209 0-.6054726-.2712517-.6054726-.5950193v-5.6600757c0-.3339653.2712517-.5950189.6054726-.5950189h3.2476215l1.2216511-2.0884309c.2506009-.4175841.6890908-.6786379 1.1798401-.6786379h7.9570427c.4907532 0 .9294968.2610538 1.1798439.678638l1.2219048 2.0884309h3.247364c.3237687 0 .5952759.2610535.5952759.5950188z" fill="#4f5d99"/></g><g><path d="m29.7225914 4.7487636c0 .6475363-.5221081 1.1696439-1.1696453 1.1696439-.657732 0-1.1798401-.5221076-1.1798401-1.1696439 0-.657733.5221081-1.1798408 1.1798401-1.1798408.6475372 0 1.1696453.5221078 1.1696453 1.1798408z" fill="#fff"/></g><g opacity=".2"><g><path d="m38.775856 66h-16.8744278l-15.7154927-60.0841923h12.1339035v-.55372c0-.3339653.2712517-.5950189.6054726-.5950189h3.2476215l.3966789-.6684408z" fill="#fff"/></g><g><path d="m31.1397724 2h-4.7915802l16.7562122 63.9978867h4.7803917z" fill="#fff"/></g></g></g><g><g><g><path d="m56.378 22.983h2.598v34.259h-2.598z" fill="#7bd681"/></g><g><path d="m58.977 22.982h2.598v34.259h-2.598z" fill="#74c579"/></g><g><path d="m61.575 22.98h2.598v34.259h-2.598z" fill="#7bd681"/></g><g><path d="m56.372 16.841h7.795v6.138h-7.795z" fill="#e9e9ff"/></g><g><path d="m64.1662292 16.8383026-.0008163-2.1849499c-.0003815-1.0245686-.8304443-1.8546267-1.8539886-1.8539858l-4.0888329.0025606c-1.0235443.0006409-1.8529816.8317385-1.8526001 1.856307l.0008163 2.1849508z" fill="#ed524e"/></g><g><g><path d="m56.372 18.236h7.795v1.115h-7.795z" fill="#cfcfff"/></g><g><path d="m56.372 20.472h7.795v1.115h-7.795z" fill="#cfcfff"/></g></g></g><g><path d="m61.1403008 64.3834076 3.0388908-7.145298-7.7954216.0048828 3.0389786 7.1413155c.0483742.1136703.1599045.1874084.2833443.1873322l1.1510811-.0007248c.123371-.0000764.2347984-.0738679.2831268-.1875077z" fill="#ffcbba"/></g><g><path d="m60.7686157 64.5683975.0003548.9433517c.0000992.270546-.2173233.488083-.4874344.4882508-.2636757.0001678-.481102-.2171021-.4812012-.4876404l-.0003548-.9433517z" fill="#4f5d99"/></g></g></g></svg>