<svg height="512" viewBox="0 0 64 64" width="512" xmlns="http://www.w3.org/2000/svg"><g id="_27._Car_Repair" data-name="27. Car Repair"><path d="m27.41 53 3.3-3.29a1 1 0 0 0 -1.42-1.42l-3.29 3.3-3.29-3.3a1 1 0 0 0 -1.42 1.42l3.3 3.29-3.3 3.29a1 1 0 0 0 1.42 1.42l3.29-3.3 3.29 3.3a1 1 0 0 0 1.42-1.42z" fill="#f8cf6d"/><path d="m20 56h12v2h-12z" fill="#ee7231"/><path d="m4.48 37.85 3.6-10.58a4 4 0 0 1 3.63-2.71l16.85-.67a4 4 0 0 1 3.6 2l6.3 10.66z" fill="#fffeff"/><path d="m33.5 38.7a1 1 0 0 1 -.88-.51l-2.15-3.92a1 1 0 0 1 1.75-1l2.16 3.92a1 1 0 0 1 -.88 1.51z" fill="#0c3798"/><path d="m33 47.73a5.61 5.61 0 0 0 .07 2l-32.07 1.27a1 1 0 1 1 -.08-2z" fill="#2f79f0"/><path d="m49.92 48.06a1 1 0 0 1 -1 1l-4.08.16a5.87 5.87 0 0 0 -.08-2l4.08-.16a1 1 0 0 1 1.08 1z" fill="#2f79f0"/><path d="m48.72 43.1a2.49 2.49 0 0 1 -.15-4 4 4 0 0 0 -4.16-3.84l-3.74.15 4.09-4.77a1 1 0 1 0 -1.52-1.3l-4.65 5.42-5.59-9.42a5 5 0 0 0 -4.5-2.45l-16.85.67a5 5 0 0 0 -4.54 3.38l-3.38 10.06a4 4 0 0 0 -3.13 4s2.22 2.81.16 4l.16 4 32.08-1.27a6 6 0 0 1 11.81-.47l4.08-.16zm-42.82-6.31 3.1-9.2a3 3 0 0 1 2.72-2l4.28-.2.43 11zm12.53-.49-.43-11c14.7-.58 9.64-.43 10.72-.43a3 3 0 0 1 2.58 1.48l5.44 9.21z" fill="#88b8f9"/><circle cx="11" cy="50" fill="#0c3798" r="6"/><circle cx="11" cy="50" fill="#2f79f0" r="2"/><circle cx="39" cy="48" fill="#2f79f0" r="2"/><path d="m2.18 40.95h1.5a0 0 0 0 1 0 0v4a0 0 0 0 1 0 0h-1.5a1.5 1.5 0 0 1 -1.5-1.5v-1a1.5 1.5 0 0 1 1.5-1.5z" fill="#ee7231" transform="matrix(-1 .04 -.04 -1 6.06 85.77)"/><path d="m23.67 42.1-4 .15a1 1 0 1 1 -.08-2l4-.16a1 1 0 0 1 1 1 1 1 0 0 1 -.92 1.01z" fill="#fffeff"/><g fill="#f8cf6d"><path d="m29.21 10.42a2 2 0 1 0 .79 1.58 1 1 0 0 0 1-1 1 1 0 0 0 -1.79-.58z"/><path d="m57.58 20.21a2 2 0 1 0 -1.58.79 1 1 0 0 0 1 1 1 1 0 0 0 .58-1.79z"/><circle cx="48" cy="6" r="1"/><path d="m46.65 16.62a3 3 0 0 1 -2.65 4.38h-.19a3 3 0 0 1 -2.81 4 2 2 0 0 1 -1 1.75 1 1 0 1 1 -1.92 0 2 2 0 0 1 .19-3.6 2.91 2.91 0 0 1 0-2.23 4 4 0 0 1 -1.59-7.12 3 3 0 1 1 5.25-2.62 4 4 0 0 1 4.72 5.44z"/><path d="m46.15 39.19h2.5a0 0 0 0 1 0 0v4a0 0 0 0 1 0 0h-2.5a1.5 1.5 0 0 1 -1.5-1.5v-1a1.5 1.5 0 0 1 1.5-1.5z" transform="matrix(.999 -.04 .04 .999 -1.59 1.88)"/></g><circle cx="53.05" cy="34" fill="#88b8f9" r="3"/><path d="m63.75 56.29-4-4.63c1.5-4.54 1.25-3.66 1.25-4.4-.16-3.13-1.19-5-2.59-8.12a2.8 2.8 0 0 0 -2-1.6 1.46 1.46 0 0 0 -.69 0 2.7 2.7 0 0 0 -2.5 3l.14 1.29-5.45 1.17a1 1 0 0 0 .28 2l5.48-.4.3 2.68c-2.34 3.11-2.47 3.12-2.42 3.72l.5 6a1 1 0 0 0 .91.92 1 1 0 0 0 1.09-.92l.45-5.44 2.67-3.56h.63c0 .13-1.16 3.48-1.21 3.62a1.35 1.35 0 0 0 .4 1.44l5.35 4.65a1 1 0 0 0 1.41-1.42z" fill="#2f79f0"/><circle cx="43" cy="53" fill="#0c3798" r="6"/><circle cx="43" cy="53" fill="#fffeff" r="2"/></g></svg>