<svg id="Flat" height="512" viewBox="0 0 512 512" width="512" xmlns="http://www.w3.org/2000/svg"><path d="m168 168a88 88 0 0 1 176 0h72v-22a10 10 0 0 0 -10-10h-26.05a127.237 127.237 0 0 0 -13.714-32.981l18.457-18.458a10 10 0 0 0 0-14.142l-31.112-31.113a10 10 0 0 0 -14.143 0l-18.457 18.458a127.2 127.2 0 0 0 -32.981-13.714v-26.05a10 10 0 0 0 -10-10h-44a10 10 0 0 0 -10 10v26.05a127.2 127.2 0 0 0 -32.981 13.714l-18.458-18.458a10 10 0 0 0 -14.142 0l-31.113 31.113a10 10 0 0 0 0 14.142l18.458 18.458a127.2 127.2 0 0 0 -13.714 32.981h-26.05a10 10 0 0 0 -10 10v22z" fill="#84cbf0"/><path d="m64 448v36a20 20 0 0 0 20 20h40a20 20 0 0 0 20-20v-36z" fill="#54a8f1"/><path d="m448 448v36a20 20 0 0 1 -20 20h-40a20 20 0 0 1 -20-20v-36z" fill="#54a8f1"/><path d="m440.889 288-.889-8h-368l-.889 8-31.111 48v100a20 20 0 0 0 20 20h392a20 20 0 0 0 20-20v-100z" fill="#84cbf0"/><path d="m120 400 24-48-88-40-16 24v4a60 60 0 0 0 60 60z" fill="#fedc7f"/><path d="m405.128 204.308a20 20 0 0 0 -18.461-12.308h-261.334a20 20 0 0 0 -18.461 12.308l-34.872 83.692h368z" fill="#eff8fc"/><path d="m392 400-24-48 88-40 16 24v4a60 60 0 0 1 -60 60z" fill="#fedc7f"/><g fill="#54a8f1"><path d="m368 352h-224a53.9 53.9 0 0 0 -24 44.844v3.156h272v-3.156a53.9 53.9 0 0 0 -24-44.844z"/><path d="m34 240h34a20 20 0 0 1 20 20v28a0 0 0 0 1 0 0h-54a10 10 0 0 1 -10-10v-28a10 10 0 0 1 10-10z"/><path d="m434 240h54a0 0 0 0 1 0 0v28a20 20 0 0 1 -20 20h-34a10 10 0 0 1 -10-10v-28a10 10 0 0 1 10-10z" transform="matrix(-1 0 0 -1 912 528)"/></g><circle cx="256" cy="328" fill="#fedc7f" r="96"/><path d="m236 288h-28v16h24v16h-12a12.013 12.013 0 0 0 -12 12v24a12.013 12.013 0 0 0 12 12h28v-16h-24v-16h12a12.013 12.013 0 0 0 12-12v-24a12.013 12.013 0 0 0 -12-12z" fill="#fff"/><path d="m296 288v32h-14a2 2 0 0 1 -2-2v-30h-16v30a18.021 18.021 0 0 0 18 18h14v32h16v-80z" fill="#fff"/><path d="m256 432a104 104 0 1 1 35.661-201.711l-3.37-12.151 15.418-4.276 8 28.843a8 8 0 0 1 -11.715 9.063 88.087 88.087 0 1 0 21.6 17.567l11.922-10.67a104 104 0 0 1 -77.516 173.335z" fill="#faa231"/><path d="m80 160v-70.438a47.98 47.98 0 0 0 2.511-81.562h-10.511v32l-16 16-16-16v-32h-10.511a47.98 47.98 0 0 0 2.511 81.562v70.438z" fill="#fff"/><path d="m480 160v-70.438a47.98 47.98 0 0 0 2.511-81.562h-10.511v32l-16 16-16-16v-32h-10.511a47.98 47.98 0 0 0 2.511 81.562v70.438z" fill="#84cbf0"/><path d="m80 160v-70.438a47.98 47.98 0 0 0 2.511-81.562h-10.511v32l-16 16-16-16v-32h-10.511a47.98 47.98 0 0 0 2.511 81.562v70.438z" fill="#84cbf0"/></svg>