<svg height="512" viewBox="0 0 64 64" width="512" xmlns="http://www.w3.org/2000/svg"><g id="tire-Wheel-car_parts" data-name="tire-Wheel-car parts"><path d="m59 3h-23.04a2 2 0 0 0 -1.56.74l-20.4 25.26v29h45a2.006 2.006 0 0 0 2-2v-51a2.006 2.006 0 0 0 -2-2zm-2 26h-33v-5l8.24-10 5.76-7h19z" fill="#d80027"/><path d="m44 58v-10a2 2 0 0 0 -2-2h-12v12z" fill="#ab2300"/><path d="m46 48h-12v-14h12a2 2 0 0 1 2 2v10a2 2 0 0 1 -2 2z" fill="#ab2300"/><path d="m55 33a2.006 2.006 0 0 1 2 2 2.015 2.015 0 0 1 -2 2h-3a2.006 2.006 0 0 1 -2-2 2.015 2.015 0 0 1 2-2z" fill="#c6c5ca"/><path d="m50.59 34.59a1.955 1.955 0 0 1 1.41-.59h3a2 2 0 0 1 1.929 1.5 1.974 1.974 0 0 0 .071-.5 2.006 2.006 0 0 0 -2-2h-3a1.974 1.974 0 0 0 -1.929 2.5 1.937 1.937 0 0 1 .519-.91z" fill="#57565c"/><path d="m3 50h40v4h-40z" fill="#3e3d42"/><path d="m43 49v1h-40v-1a2.006 2.006 0 0 1 2-2h36a2.006 2.006 0 0 1 2 2z" fill="#898890"/><path d="m43 58v1a2.006 2.006 0 0 1 -2 2h-36a2.006 2.006 0 0 1 -2-2v-1z" fill="#3e3d42"/><path d="m3 54h40v4h-40z" fill="#898890"/><path d="m7 36h40v4h-40z" fill="#3e3d42"/><path d="m47 35v1h-40v-1a2.006 2.006 0 0 1 2-2h36a2.006 2.006 0 0 1 2 2z" fill="#898890"/><path d="m47 44v1a2.006 2.006 0 0 1 -2 2h-36a2.006 2.006 0 0 1 -2-2v-1z" fill="#3e3d42"/><path d="m7 40h40v4h-40z" fill="#898890"/><path d="m57 14v15h-33v-5l8.24-10z" fill="#2488ff"/><path d="m57 14a15 15 0 0 1 -15 15h-18v-5l8.24-10z" fill="#57a4ff"/><g fill="#9bc9ff"><path d="m46 17h4v2h-4z"/><path d="m52 17h2v2h-2z"/></g></g></svg>