<svg id="Layer_1" enable-background="new 0 0 512 512" height="512" viewBox="0 0 512 512" width="512" xmlns="http://www.w3.org/2000/svg"><g id="_x33_4_Car_engine"><g><g fill="#f2f0f0"><g><path d="m284.1 331.3 100.6 100.6c4.7 4.7 4.7 12.2 0 16.9l-11.3 11.2c-4.7 4.7-12.2 4.7-16.9 0l-100.6-100.6z"/><path d="m323.6 291.8 100.6 100.6c4.7 4.7 4.7 12.2 0 16.9l-11.3 11.3c-4.7 4.7-12.2 4.7-16.9 0l-100.6-100.7z"/><path d="m363.1 252.2 100.6 100.6c4.7 4.7 4.7 12.2 0 16.9l-11.3 11.3c-4.7 4.7-12.2 4.7-16.9 0l-100.6-100.6z"/></g><g><path d="m208.2 331.3-100.6 100.6c-4.7 4.7-4.7 12.2 0 16.9l11.3 11.3c4.7 4.7 12.2 4.7 16.9 0l100.6-100.6z"/><path d="m168.7 291.8-100.6 100.6c-4.7 4.7-4.7 12.2 0 16.9l11.3 11.3c4.7 4.7 12.2 4.7 16.9 0l100.6-100.6z"/><path d="m129.2 252.2-100.6 100.7c-4.7 4.7-4.7 12.2 0 16.9l11.3 11.2c4.7 4.7 12.2 4.7 16.9 0l100.6-100.6z"/></g></g><path d="m352 37.8v153.8h-211.7v-153.8c0-15.8 12.8-28.6 28.6-28.6h154.4c15.9-.1 28.7 12.7 28.7 28.6z" fill="#5b5b5b"/><path d="m452.2 85.6-144 206.1-81-56.5 144-206.1c6.8-9.7 20.2-12.1 29.9-5.3l45.8 32c9.7 6.7 12 20.1 5.3 29.8z" fill="#e5e3e5"/><path d="m40.1 85.6 143.9 206.1 81-56.5-143.9-206.1c-6.8-9.7-20.2-12.1-29.9-5.3l-45.8 32c-9.7 6.7-12 20.1-5.3 29.8z" fill="#e5e3e5"/><path d="m458.1 160.7v114.8c0 16.3-13.2 29.5-29.5 29.5h-22.3c-40.2 0-74.5 29.2-80.8 69l-16.6 104c-2.3 14.3-14.6 24.9-29.2 24.9h-67.2c-14.5 0-26.9-10.5-29.2-24.9l-16.6-103.9c-6.3-39.8-40.5-69-80.8-69h-22.1c-16.3 0-29.5-13.2-29.5-29.5v-114.9c0-16.3 13.2-29.5 29.5-29.5h64.4c11.3 0 21.6-6.5 26.6-16.6l16.7-34.6c4.9-10.2 15.3-16.6 26.6-16.6h96.2c11.3 0 21.6 6.5 26.6 16.6l16.7 34.5c4.9 10.2 15.3 16.6 26.6 16.6h64.4c16.2.1 29.5 13.3 29.5 29.6z" fill="#6d6d6d"/><path d="m260.1 63.4h34.1c11.3 0 21.6 6.5 26.6 16.7l16.7 34.5c4.9 10.1 15.2 16.7 26.6 16.7h-34.1c-11.3 0-21.6-6.5-26.6-16.7l-16.7-34.6c-4.9-10.2-15.2-16.6-26.6-16.6z" opacity=".08"/><path d="m458.1 160.7v114.8c0 16.3-13.2 29.5-29.5 29.5h-22.3c-40.2 0-74.5 29.3-80.7 69l-16.6 104c-2.3 14.3-14.6 24.9-29.2 24.9h-34.1c14.5 0 26.9-10.6 29.2-24.9l16.5-104c6.3-39.8 40.6-69 80.8-69h22.3c16.3 0 29.5-13.2 29.5-29.5v-114.8c0-16.3-13.2-29.5-29.5-29.5h34.1c16.2 0 29.5 13.2 29.5 29.5z" opacity=".08"/><path d="m104.1 155.8c0 26.6-21.5 48.1-48.1 48.1s-48.1-21.5-48.1-48.1 21.6-48.1 48.1-48.1 48.1 21.6 48.1 48.1z" fill="#f2f0f0"/><path d="m56 174.4c-10.3 0-18.6-8.3-18.6-18.5s8.3-18.5 18.6-18.5c10.2 0 18.5 8.3 18.5 18.5 0 10.1-8.3 18.5-18.5 18.5z" fill="#5b5b5b"/><path d="m504.1 218c0 26.6-21.5 48.1-48.1 48.1s-48.1-21.5-48.1-48.1 21.6-48.1 48.1-48.1c26.6 0 48.1 21.5 48.1 48.1z" fill="#f2f0f0"/><path d="m323.8 291.7c0 42.9-34.7 77.6-77.6 77.6s-77.7-34.7-77.7-77.6 34.8-77.6 77.7-77.6 77.6 34.7 77.6 77.6z" fill="#f2f0f0"/><path d="m264.3 291.7c0 10-8.1 18.2-18.2 18.2-10 0-18.2-8.1-18.2-18.2s8.1-18.2 18.2-18.2c10.1.1 18.2 8.2 18.2 18.2z" fill="#6d6d6d"/><path d="m456.1 236.5c-10.3 0-18.6-8.3-18.6-18.5s8.3-18.5 18.6-18.5c10.2 0 18.5 8.3 18.5 18.5s-8.3 18.5-18.5 18.5z" fill="#5b5b5b"/><g><g><g fill="#e5e3e5"><path d="m197.9 300.5c-4.8 0-8.7-3.9-8.7-8.7s3.9-8.7 8.7-8.7 8.7 3.9 8.7 8.7c0 4.7-3.9 8.7-8.7 8.7z"/><path d="m218.2 319.7c3.4 3.4 3.4 8.9 0 12.3-1.7 1.6-3.8 2.6-6.2 2.6-2.3 0-4.5-1-6.1-2.6-3.4-3.4-3.4-8.9 0-12.3s8.9-3.4 12.3 0z"/><path d="m218.2 251.4c3.4 3.4 3.4 8.9 0 12.3-1.7 1.7-4 2.6-6.2 2.6s-4.4-.9-6.1-2.6c-3.4-3.4-3.4-8.9 0-12.3s8.9-3.4 12.3 0z"/><path d="m274.1 263.8c-3.4-3.4-3.4-8.9 0-12.3s8.9-3.4 12.3 0 3.4 8.9 0 12.3c-1.7 1.7-3.9 2.6-6.1 2.6-2.2-.1-4.5-.9-6.2-2.6z"/><path d="m303.1 291.7c0 4.8-3.8 8.7-8.7 8.7-4.8 0-8.7-3.9-8.7-8.7s3.9-8.7 8.7-8.7c4.9 0 8.7 3.9 8.7 8.7z"/><path d="m254.9 340c0 4.8-3.9 8.7-8.8 8.7-4.8 0-8.6-3.9-8.6-8.7s3.8-8.7 8.6-8.7c4.9 0 8.8 3.9 8.8 8.7z"/><path d="m286.4 319.7c3.4 3.4 3.4 8.9 0 12.3-1.7 1.7-3.9 2.5-6.1 2.5s-4.4-.8-6.2-2.5c-3.4-3.4-3.4-8.9 0-12.3 3.5-3.4 8.9-3.4 12.3 0z"/><path d="m254.9 243.5c0 4.8-3.9 8.7-8.8 8.7-4.8 0-8.6-3.9-8.6-8.7s3.8-8.7 8.6-8.7c4.9-.1 8.8 3.9 8.8 8.7z"/></g></g></g><path d="m512 218c0-30.8-25.1-55.9-55.9-55.9-8 0-15.7 1.7-22.6 4.8l-174.3 35.1c-234.5-126.4-169-91.6-180.9-97.5-6.8-3-14.3-4.6-22.3-4.6-30.9 0-56 25.1-56 55.9 0 19.5 10 36.6 25.2 46.7l163 152c15.3 14.1 35.6 22.8 58 22.8 13.5 0 26.2-3.2 37.6-8.8 108.7-55.6 82.2-42 185.4-94.8l-.6-1.2c24.8-5.8 43.4-28 43.4-54.5zm-103.1-30.2c-5.6 8.7-8.9 19-8.9 30.1 0 25 16.5 46.2 39.2 53.3l-117.3 60c6.2-11.8 9.8-25.3 9.8-39.5 0-34.8-20.9-64.7-50.8-78zm-182.5 20.8c-37.7 9-65.8 42.8-65.8 83.1 0 5.9.6 11.6 1.7 17.1l-104.2-97.1c29.9-1.2 53.9-25.7 53.9-55.9 0-5.8-.9-11.4-2.5-16.6l125.6 67.7c-.6.1-9.2 1.8-8.7 1.7zm-170.4-93c13.1 0 19.8 5.8 22.5 6.9 10.7 7.2 17.7 19.5 17.7 33.3 0 31.5-34.7 50.7-61.4 34.1-3.2-4.3-19.1-11.7-19.1-34.1.1-22.1 18.1-40.2 40.3-40.2zm141 225.6-.2-.2c-12.6-12.6-20.4-30-20.4-49.2 0-39.2 32.2-69.7 69.8-69.7 38.4 0 69.7 31.3 69.7 69.7 0 39.1-32 69.7-69.7 69.7-19.2 0-36.5-7.8-49.2-20.3zm259.1-83.1c-22.2 0-40.3-18-40.3-40.2s18.1-40.2 40.3-40.2 40.2 18 40.2 40.2-18.1 40.2-40.2 40.2z" fill="#5b5b5b"/><path d="m276.3 444.1c0 16.6-13.5 30.1-30.1 30.1s-30.2-13.5-30.2-30.1 13.5-30.1 30.1-30.1 30.2 13.4 30.2 30.1z" fill="#f2f0f0"/><path d="m286 100.6v17.3c0 5.9-4.8 10.7-10.7 10.7h-58.3c-5.9 0-10.7-4.8-10.7-10.7v-17.3c0-5.9 4.8-10.7 10.7-10.7h58.3c5.9 0 10.7 4.8 10.7 10.7z" fill="#f96464"/><path d="m64.6 256.6v16.1c0 4.3-3.4 7.7-7.7 7.7-4.3 0-7.7-3.4-7.7-7.7v-16.1c0-4.3 3.4-7.7 7.7-7.7 4.2 0 7.7 3.5 7.7 7.7z" fill="#fff" opacity=".4"/></g></g></svg>