<svg id="Capa_1" enable-background="new 0 0 512 512" height="512" viewBox="0 0 512 512" width="512" xmlns="http://www.w3.org/2000/svg"><g><g><path d="m225 261h-170c-4.53 0-8.817-2.047-11.665-5.569-2.848-3.523-3.951-8.145-3.002-12.573l19.837-92.572c3.584-16.725 12.883-31.857 26.185-42.61 13.3-10.754 30.045-16.676 47.15-16.676h91.495c8.284 0 15 6.716 15 15v140c0 8.284-6.716 15-15 15z" fill="#ff7c48"/></g><path d="m73.555 231h136.445v-110h-76.495c-21.079 0-39.584 14.96-44.001 35.57z" fill="#fff5f5"/><path d="m95 481h-40c-13.807 0-25-11.193-25-25v-45h90v45c0 13.807-11.193 25-25 25z" fill="#7873d5"/><g><g><path d="m140 421h-125c-8.284 0-15-6.716-15-15v-40l16-28-16-42v-10c0-30.327 24.673-55 55-55h162c8.284 0 15 6.716 15 15v143z" fill="#ff7c48"/></g></g><g><g><g><g><path d="m60 366h-60v-70h20c30.376 0 55 24.624 55 55 0 8.284-6.716 15-15 15z" fill="#ffe278"/></g></g></g><g><path d="m217 421h-77v-50c0-24.853 20.147-45 45-45h32c8.284 0 15 6.716 15 15v65c0 8.284-6.716 15-15 15z" fill="#fff5f5"/></g></g><g><path d="m497 481h-280c-8.284 0-15-6.716-15-15v-390c0-8.284 6.716-15 15-15h280c8.284 0 15 6.716 15 15v390c0 8.284-6.716 15-15 15z" fill="#8cbcff"/></g><g><path d="m497 61h-140v420h140c8.284 0 15-6.716 15-15v-390c0-8.284-6.716-15-15-15z" fill="#7c84e8"/></g><path d="m232 91h250v360h-250z" fill="#fff5f5"/><g><path d="m357 91h125v360h-125z" fill="#e2dff4"/></g><g><path d="m427 111h-140c-8.284 0-15-6.716-15-15v-50c0-8.284 6.716-15 15-15h140c8.284 0 15 6.716 15 15v50c0 8.284-6.716 15-15 15z" fill="#ffe278"/></g><g><path d="m427 31h-70v80h70c8.284 0 15-6.716 15-15v-50c0-8.284-6.716-15-15-15z" fill="#ffc178"/></g><g><g><path d="m399.573 231c-3.979 0-7.794-1.58-10.606-4.394l-24.748-24.749c-5.858-5.858-5.858-15.355 0-21.213s15.356-5.858 21.213 0l14.142 14.142 31.82-31.819c5.857-5.857 15.355-5.857 21.213 0s5.858 15.355 0 21.213l-42.427 42.427c-2.813 2.813-6.628 4.393-10.607 4.393z" fill="#453d81"/></g><g><path d="m322 209.787h-50c-8.284 0-15-6.716-15-15s6.716-15 15-15h50c8.284 0 15 6.716 15 15s-6.716 15-15 15z" fill="#7873d5"/></g></g><g><g><path d="m399.573 321c-3.979 0-7.794-1.58-10.606-4.394l-24.748-24.749c-5.858-5.858-5.858-15.355 0-21.213s15.356-5.859 21.213 0l14.142 14.142 31.82-31.819c5.857-5.857 15.355-5.857 21.213 0s5.858 15.355 0 21.213l-42.427 42.427c-2.813 2.813-6.628 4.393-10.607 4.393z" fill="#453d81"/></g><g><path d="m322 299.787h-50c-8.284 0-15-6.716-15-15s6.716-15 15-15h50c8.284 0 15 6.716 15 15s-6.716 15-15 15z" fill="#7873d5"/></g></g><g><g><path d="m399.573 411c-3.979 0-7.794-1.58-10.606-4.394l-24.748-24.749c-5.858-5.858-5.858-15.355 0-21.213s15.356-5.858 21.213 0l14.142 14.142 31.82-31.819c5.857-5.857 15.355-5.857 21.213 0s5.858 15.355 0 21.213l-42.427 42.427c-2.813 2.813-6.628 4.393-10.607 4.393z" fill="#453d81"/></g><g><path d="m322 389.787h-50c-8.284 0-15-6.716-15-15s6.716-15 15-15h50c8.284 0 15 6.716 15 15s-6.716 15-15 15z" fill="#7873d5"/></g></g></g></svg>