<?xml version="1.0"?>
<svg xmlns="http://www.w3.org/2000/svg" id="Layer_1" data-name="Layer 1" viewBox="0 0 512 512" width="512" height="512"><title>Check list</title><path d="M486,224.32V428.94a23.375,23.375,0,0,1-23.37,23.38H323.89a23.375,23.375,0,0,1-23.37-23.38V224.32a23.366,23.366,0,0,1,23.37-23.37h31.55v.28a17.163,17.163,0,0,0,17.16,17.16h41.31a17.156,17.156,0,0,0,17.16-17.16v-.28h31.56A23.366,23.366,0,0,1,486,224.32ZM365.44,353.86V320.47H332.05v33.39Z" style="fill:#6fe3ff"/><path d="M355.44,200.95v-1.28a17.163,17.163,0,0,1,17.16-17.16h41.31a17.156,17.156,0,0,1,17.16,17.16v1.56a17.156,17.156,0,0,1-17.16,17.16H372.6a17.163,17.163,0,0,1-17.16-17.16Z" style="fill:#f8ec7d"/><path d="M396.97,141.84l-41.49.02-13.56-24.99.01-.01s21.12.09,31.39.09,18.67,4.97,21.16,12.44A51.815,51.815,0,0,1,396.97,141.84Z" style="fill:#6fe3ff"/><path d="M385.76,177.34l-.67,5.08v.09H372.6a17.163,17.163,0,0,0-17.16,17.16v1.28H323.89a23.366,23.366,0,0,0-23.37,23.37v40.74H61.9A15.6,15.6,0,0,1,46.34,249.5L37.2,177.34c0-16.07,11.21-30.61,27.26-30.64l-.07.12H358.12v.01C374.21,146.83,385.76,161.25,385.76,177.34Zm-99.58,34.22-5.16-15.15c-2.75-8.1-12.01-14.73-20.57-14.73H162.11c-8.56,0-17.74,6.66-20.39,14.79l-4.93,15.09Zm-184.85-6.29A16.125,16.125,0,1,0,85.2,221.4,16.126,16.126,0,0,0,101.33,205.27Z" style="fill:#e48e66"/><rect x="332.05" y="320.47" width="33.39" height="33.39" style="fill:#f8ec7d"/><path d="M64.46,146.7l2.76-4.9,13.99-24.79L96.07,90.67c8.15-16.8,21.16-30.99,38.62-30.99h154.9c17.46,0,28.75,14.19,38.17,31.09l14.16,26.1,13.56,24.99,2.69,4.96H315.52v-1.06a32.26,32.26,0,0,0-64.52,0v1.06H64.39Z" style="fill:#f8ec7d"/><path d="M315.52,145.76v1.06H251v-1.06a32.26,32.26,0,0,1,64.52,0Z" style="fill:#6fe3ff"/><path d="M281.02,196.41l5.16,15.15H136.79l4.93-15.09c2.65-8.13,11.83-14.79,20.39-14.79h98.34C269.01,181.68,278.27,188.31,281.02,196.41Z" style="fill:#f8ec7d"/><path d="M103.15,266.33V293.4a7.776,7.776,0,0,1-7.78,7.78H71.75a7.776,7.776,0,0,1-7.78-7.78V265.06h39.18Z" style="fill:#f8ec7d"/><path d="M85.2,189.15a16.125,16.125,0,1,1-16.12,16.12A16.126,16.126,0,0,1,85.2,189.15Z" style="fill:#6fe3ff"/><path d="M81.21,117.01,67.22,141.8l-.02-.01-41.2.05a51.815,51.815,0,0,1,2.49-12.45c2.49-7.47,10.89-12.44,21.16-12.44s31.52.04,31.52.04Z" style="fill:#6fe3ff"/><path d="M269.15,244.74H153.01a7,7,0,0,1,0-14H269.15a7,7,0,0,1,0,14Z" style="fill:#f8ec7d"/><path d="M339.47,295.94h-7.42a7,7,0,0,1-7-7V255.55a7,7,0,0,1,7-7h33.39a7,7,0,0,1,7,7v4.77a7,7,0,0,1-13.638,2.23H339.05v19.39h.42a7,7,0,0,1,0,14Z" style="fill:#f8ec7d"/><path d="M339.47,425.78h-7.42a7,7,0,0,1-7-7V385.39a7,7,0,0,1,7-7h33.39a7,7,0,0,1,7,7v6.83a7,7,0,0,1-14,.17H339.05v19.39h.42a7,7,0,0,1,0,14Z" style="fill:#f8ec7d"/><path d="M361,294.92a7,7,0,0,1-4.951-2.05l-11.33-11.33a7,7,0,0,1,9.9-9.9L361,278.02l20.82-20.83a7,7,0,1,1,9.9,9.9l-25.77,25.78A7,7,0,0,1,361,294.92Z" style="fill:#2561a1"/><path d="M361,425.78a7,7,0,0,1-4.95-2.05L344.72,412.4a7,7,0,0,1,9.9-9.9l6.38,6.381,20.82-20.82a7,7,0,1,1,9.9,9.9l-25.77,25.77A7,7,0,0,1,361,425.78Z" style="fill:#2561a1"/><path d="M454.47,279.25H409.95a7,7,0,0,1,0-14h44.52a7,7,0,0,1,0,14Z" style="fill:#2561a1"/><path d="M454.47,344.17H409.95a7,7,0,0,1,0-14h44.52a7,7,0,0,1,0,14Z" style="fill:#2561a1"/><path d="M454.47,409.09H409.95a7,7,0,0,1,0-14h44.52a7,7,0,0,1,0,14Z" style="fill:#2561a1"/></svg>
