<svg id="Layer_1" enable-background="new 0 0 512 512" viewBox="0 0 512 512" xmlns="http://www.w3.org/2000/svg"><g clip-rule="evenodd" fill-rule="evenodd"><g><path d="m342.761 45.476c9.288 0 16.862 7.574 16.862 16.862v338.536c0 9.288-7.574 16.862-16.862 16.862h-283.336c-9.288 0-16.862-7.574-16.862-16.862v-338.537c0-9.288 7.574-16.862 16.862-16.862h283.336z" fill="#b4d2d7"/><path d="m342.761 45.476c9.288 0 16.862 7.575 16.862 16.862v338.536c0 9.287-7.576 16.862-16.862 16.862h-16.548c9.288 0 16.862-7.574 16.862-16.862v-338.537c0-9.288-7.574-16.862-16.862-16.862h16.548z" fill="#9bb9c3"/><path d="m70.039 76.261v310.689c0 1.823 1.487 3.309 3.31 3.309h218.443l40.356-40.356v-273.642c0-1.823-1.487-3.31-3.31-3.31h-255.49c-1.823 0-3.309 1.487-3.309 3.31z" fill="#eff4f7"/><path d="m70.039 76.261v310.689c0 1.823 1.487 3.31 3.31 3.31h14.36c-1.823 0-3.31-1.487-3.31-3.31v-310.689c0-1.823 1.487-3.31 3.31-3.31h-14.36c-1.824 0-3.31 1.487-3.31 3.31z" fill="#e2e3e3"/><path d="m291.791 349.904v40.355l40.356-40.355z" fill="#e2e3e3"/><path d="m259.451 45.476h-42.272l16.819-23.78c3.781-5.346-.026-12.701-6.573-12.701h-52.663c-6.547 0-10.354 7.355-6.574 12.701l16.819 23.78h-42.272c-2.121 0-3.683 1.935-3.235 4.008l5.716 26.452c.998 4.621 4.977 7.832 9.705 7.832h92.346c4.728 0 8.706-3.211 9.705-7.832l5.716-26.452c.446-2.073-1.116-4.008-3.237-4.008z" fill="#da8c36"/><path d="m185.885 8.995h-11.124c-6.547 0-10.354 7.355-6.573 12.701l16.818 23.78h11.124l-16.818-23.78c-3.78-5.346.026-12.701 6.573-12.701zm-32.026 36.481c-2.121 0-3.683 1.936-3.235 4.008l5.716 26.452c.999 4.622 4.977 7.832 9.705 7.832h-11.125c-4.727 0-8.706-3.21-9.705-7.832l-5.716-26.452c-.448-2.073 1.114-4.008 3.235-4.008z" fill="#c97629"/></g><g><path d="m236.159 352.211c4.418 0 8 3.582 8 8s-3.582 8-8 8h-51.387c-4.418 0-8-3.582-8-8s3.582-8 8-8zm-91.252-223.57c3.106-3.124 8.158-3.138 11.281-.031 3.124 3.107 3.138 8.158.031 11.281l-27.326 27.582c-3.085 3.103-8.089 3.137-11.218.093l-15.243-14.858c-3.158-3.072-3.228-8.123-.156-11.281s8.123-3.228 11.281-.156l9.583 9.341zm0 197.705c3.106-3.124 8.158-3.138 11.281-.031 3.124 3.107 3.138 8.158.031 11.281l-27.326 27.582c-3.085 3.103-8.089 3.137-11.218.093l-15.243-14.857c-3.158-3.072-3.228-8.123-.156-11.281s8.123-3.228 11.281-.156l9.583 9.341zm0-131.804c3.106-3.124 8.158-3.138 11.281-.031 3.124 3.107 3.138 8.158.031 11.281l-27.326 27.582c-3.085 3.103-8.089 3.137-11.218.093l-15.243-14.857c-3.158-3.072-3.228-8.123-.156-11.281s8.123-3.228 11.281-.156l9.583 9.341zm0 65.902c3.106-3.124 8.158-3.138 11.281-.031 3.124 3.107 3.138 8.158.031 11.281l-27.326 27.582c-3.085 3.103-8.089 3.137-11.218.093l-15.243-14.858c-3.158-3.072-3.228-8.123-.156-11.281s8.123-3.228 11.281-.156l9.583 9.341zm108.263-105.937c4.418 0 8 3.582 8 8s-3.582 8-8 8h-68.398c-4.418 0-8-3.582-8-8s3.582-8 8-8zm34.376-28.899c4.418 0 8 3.582 8 8s-3.582 8-8 8h-102.775c-4.418 0-8-3.582-8-8s3.582-8 8-8zm-34.376 94.8c4.418 0 8 3.582 8 8s-3.582 8-8 8h-68.398c-4.418 0-8-3.582-8-8s3.582-8 8-8zm34.376-28.898c4.418 0 8 3.582 8 8s-3.582 8-8 8h-102.775c-4.418 0-8-3.582-8-8s3.582-8 8-8zm-34.376 94.8c4.418 0 8 3.582 8 8s-3.582 8-8 8h-68.398c-4.418 0-8-3.582-8-8s3.582-8 8-8zm34.376-28.898c4.418 0 8 3.582 8 8s-3.582 8-8 8h-102.775c-4.418 0-8-3.582-8-8s3.582-8 8-8zm0 65.901c4.418 0 8 3.582 8 8s-3.582 8-8 8h-102.775c-4.418 0-8-3.582-8-8s3.582-8 8-8z" fill="#e2e3e3"/><path d="m239.481 344.634c4.418 0 8 3.582 8 8s-3.582 8-8 8h-51.387c-4.418 0-8-3.582-8-8s3.582-8 8-8zm17.011-197.705c4.418 0 8 3.582 8 8s-3.582 8-8 8h-68.398c-4.418 0-8-3.582-8-8s3.582-8 8-8zm34.377-28.898c4.418 0 8 3.582 8 8s-3.582 8-8 8h-102.775c-4.418 0-8-3.582-8-8s3.582-8 8-8zm-34.377 94.799c4.418 0 8 3.582 8 8s-3.582 8-8 8h-68.398c-4.418 0-8-3.582-8-8s3.582-8 8-8zm34.377-28.898c4.418 0 8 3.582 8 8s-3.582 8-8 8h-102.775c-4.418 0-8-3.582-8-8s3.582-8 8-8zm-34.377 94.8c4.418 0 8 3.582 8 8s-3.582 8-8 8h-68.398c-4.418 0-8-3.582-8-8s3.582-8 8-8zm34.377-28.898c4.418 0 8 3.582 8 8s-3.582 8-8 8h-102.775c-4.418 0-8-3.582-8-8s3.582-8 8-8zm0 65.901c4.418 0 8 3.582 8 8s-3.582 8-8 8h-102.775c-4.418 0-8-3.582-8-8s3.582-8 8-8z" fill="#8d9ca8"/><path d="m148.229 121.063c3.107-3.124 8.158-3.138 11.281-.031 3.124 3.106 3.138 8.158.031 11.281l-27.326 27.582c-3.086 3.103-8.09 3.137-11.218.093l-15.244-14.857c-3.158-3.072-3.228-8.123-.156-11.281s8.123-3.228 11.281-.156l9.583 9.341zm0 197.705c3.107-3.124 8.158-3.138 11.281-.031 3.124 3.107 3.138 8.158.031 11.281l-27.326 27.582c-3.086 3.103-8.09 3.137-11.218.093l-15.244-14.857c-3.158-3.072-3.228-8.123-.156-11.281s8.123-3.228 11.281-.156l9.583 9.341zm0-131.803c3.107-3.124 8.158-3.138 11.281-.031 3.124 3.107 3.138 8.158.031 11.281l-27.326 27.583c-3.086 3.103-8.09 3.137-11.218.093l-15.244-14.857c-3.158-3.072-3.228-8.123-.156-11.281s8.123-3.228 11.281-.156l9.583 9.341zm0 65.901c3.107-3.124 8.158-3.138 11.281-.031 3.124 3.106 3.138 8.158.031 11.281l-27.326 27.582c-3.086 3.103-8.09 3.137-11.218.093l-15.244-14.857c-3.158-3.072-3.228-8.123-.156-11.281s8.123-3.228 11.281-.156l9.583 9.341z" fill="#64b5f6"/></g><g><path d="m385.901 434.711 14.737-15.748-29.782-29.783-15.793 14.694z" fill="#b4d2d7"/><path d="m385.901 434.712 14.737-15.749-.16-.16-8.246 8.812-30.213-30.213-6.956 6.472z" fill="#9bb9c3"/><path d="m399.248 408.316-24.499 24.499c-.678.678-.678 1.784-.001 2.462l62.168 62.168c7.414 7.414 19.547 7.414 26.961 0 7.414-7.414 7.414-19.547 0-26.961l-62.168-62.168c-.677-.678-1.784-.678-2.461 0z" fill="#8d9ca8"/><path d="m379.366 428.198-4.617 4.617c-.678.678-.678 1.784-.001 2.462l62.168 62.168c7.414 7.414 19.546 7.415 26.961 0 .789-.789 1.492-1.631 2.113-2.515-7.428 5.217-17.821 4.513-24.447-2.113l-62.168-62.168c-.673-.674-.677-1.773-.009-2.451z" fill="#7a8c98"/><path d="m374.749 432.815c-.678.678-.678 1.784-.001 2.462l16.133 16.132 26.961-26.961-16.132-16.133c-.677-.677-1.784-.677-2.462.001-8.167 8.166-16.333 16.333-24.499 24.499z" fill="#7a8c98"/><path d="m374.749 432.815c-.678.678-.678 1.784-.001 2.462l16.133 16.132 4.628-4.628-16.133-16.133c-.673-.673-.677-1.772-.01-2.451z" fill="#596c76"/><ellipse cx="305.758" cy="339.325" fill="#64b5f6" rx="90.28" ry="90.28" transform="matrix(.998 -.071 .071 .998 -23.285 22.529)"/><path d="m359.375 266.689c22.24 16.444 36.664 42.854 36.664 72.636 0 49.861-40.42 90.28-90.281 90.28-25.468 0-48.469-10.549-64.882-27.512 14.994 11.087 33.539 17.645 53.618 17.645 49.861 0 90.281-40.419 90.281-90.28-.001-24.393-9.679-46.523-25.4-62.769z" fill="#42a5f5"/><ellipse cx="305.758" cy="339.325" fill="#e6f8ff" rx="66.762" ry="66.762" transform="matrix(.447 -.894 .894 .447 -134.482 461.053)"/><path d="m305.758 272.563c20.607 0 39.031 9.339 51.278 24.012-11.581-9.666-26.485-15.485-42.75-15.485-36.872 0-66.762 29.891-66.762 66.762 0 16.265 5.819 31.169 15.485 42.75-14.674-12.247-24.012-30.671-24.012-51.278 0-36.871 29.89-66.761 66.761-66.761z" fill="#d0f1ff"/></g><g><path d="m327.037 310.855c4.637-4.663 12.176-4.684 16.839-.047s4.684 12.176.046 16.839l-39.771 40.144c-4.606 4.632-12.075 4.682-16.744.138l-19.678-19.179c-4.714-4.585-4.819-12.125-.233-16.839 4.585-4.714 12.125-4.819 16.839-.233l11.227 10.945z" fill="#64b5f6"/><path d="m345.846 313.388c2.566 4.53 1.929 10.387-1.923 14.26l-39.771 40.144c-4.606 4.632-12.075 4.682-16.744.138l-19.678-19.179c-3.965-3.856-4.668-9.802-2.064-14.399.544.961 1.232 1.863 2.064 2.672l19.678 19.179c4.669 4.544 12.138 4.493 16.744-.138l39.771-40.144c.77-.774 1.41-1.628 1.923-2.533z" fill="#42a5f5"/></g></g></svg>