<svg enable-background="new 0 0 64 64" height="512" viewBox="0 0 64 64" width="512" xmlns="http://www.w3.org/2000/svg"><g id="Icons"><g><g><path d="m30.882 38.054c.259-.036.517-.054.775-.054h1.515l14.828-14.828v-11.172h-32v11.172z" fill="#f0f0f0"/></g><g><path d="m48 12h-32v-4c0-1.105.895-2 2-2h28c1.105 0 2 .895 2 2z" fill="#64c8f0"/></g><g><path d="m20 6h-2c-1.105 0-2 .895-2 2v4h2v-4c0-1.105.895-2 2-2z" fill="#46aad2"/></g><g><path d="m4 14 22 22-10 10-12-12z" fill="#fa6450"/></g><g><path d="m4 34 12 12 2-2-14-14z" fill="#dc4632"/></g><g><path d="m60 14-22 22 10 10 12-12z" fill="#3cc8b4"/></g><g><path d="m60 14-22 22 2 2 20-20z" fill="#1eaa96"/></g><g><path d="m41.707 51.707-15.707-15.707-8 8 15.707 15.707c.391.391 1.024.391 1.414 0l.586-.586c.391-.391.391-1.024 0-1.414.391.391 1.024.391 1.414 0l.586-.586c.391-.391.391-1.024 0-1.414.391.391 1.024.391 1.414 0l.586-.586c.391-.391.391-1.024 0-1.414.391.391 1.024.391 1.414 0l.586-.586c.391-.39.391-1.023 0-1.414z" fill="#f0c8a0"/></g><g><path d="m38 36-4 4h-2.343c-1.061 0-2.078.421-2.828 1.172l-3.121 3.121c-.631.63-.185 1.707.706 1.707h1.172c.265 0 .52-.105.707-.293l.879-.879c1.562-1.562 4.095-1.562 5.657 0l5.171 5.172 6-6z" fill="#d2aa82"/></g><g><path d="m18 25.172v-13.172h-2v11.172z" fill="#d2d2d2"/></g><g><path d="m32.879 55.707-.586-.586c-.391-.391-1.024-.391-1.414 0 .391-.391.391-1.024 0-1.414l-.586-.586c-.391-.391-1.024-.391-1.414 0 .391-.391.391-1.024 0-1.414l-.586-.586c-.391-.391-1.024-.391-1.414 0 .391-.391.391-1.024 0-1.414l-.586-.586c-.391-.391-1.024-.391-1.414 0l-2.586 2.586c-.391.391-.391 1.024 0 1.414l.586.586c.391.391 1.024.391 1.414 0-.391.391-.391 1.024 0 1.414l.586.586c.391.391 1.024.391 1.414 0-.391.391-.391 1.024 0 1.414l.586.586c.391.391 1.024.391 1.414 0-.391.391-.391 1.024 0 1.414l.586.586c.391.391 1.024.391 1.414 0l2.586-2.586c.39-.39.39-1.023 0-1.414z" fill="#d2aa82"/></g><g><path d="m25 8c-.552 0-1-.448-1-1v-2c0-.552.448-1 1-1 .552 0 1 .448 1 1v2c0 .552-.448 1-1 1z" fill="#fa6450"/></g><g><path d="m32 8c-.552 0-1-.448-1-1v-2c0-.552.448-1 1-1 .552 0 1 .448 1 1v2c0 .552-.448 1-1 1z" fill="#fa6450"/></g><g><path d="m39 8c-.552 0-1-.448-1-1v-2c0-.552.448-1 1-1 .552 0 1 .448 1 1v2c0 .552-.448 1-1 1z" fill="#fa6450"/></g><g><path d="m28 16h2v2h-2z" fill="#505050"/></g><g><path d="m34 16h2v2h-2z" fill="#505050"/></g><g><path d="m40 16h2v2h-2z" fill="#505050"/></g><g><path d="m22 20h2v2h-2z" fill="#505050"/></g><g><path d="m28 20h2v2h-2z" fill="#505050"/></g><g><path d="m34 20h2v2h-2z" fill="#505050"/></g><g><path d="m40 20h2v2h-2z" fill="#505050"/></g><g><path d="m28 24h2v2h-2z" fill="#505050"/></g><g><path d="m22 24h2v2h-2z" fill="#505050"/></g><g><path d="m34 24h2v2h-2z" fill="#505050"/></g><g><path d="m28 28h2v2h-2z" fill="#505050"/></g><g><path d="m34 28h2v2h-2z" fill="#505050"/></g><g><path d="m40 24h2v2h-2z" fill="#505050"/></g><g><path d="m24 28h-2v1.172l.828.828h1.172z" fill="#505050"/></g><g><path d="m40 28v2h1.172l.828-.828v-1.172z" fill="#fa6450"/></g></g></g></svg>