<svg id="color" enable-background="new 0 0 256 256" height="512" viewBox="0 0 256 256" width="512" xmlns="http://www.w3.org/2000/svg"><g><g><path d="m46.5482 186.0193v13.0458c0 6.0513 4.9055 10.9569 10.9569 10.9569h22.0813c6.0513 0 10.9569-4.9056 10.9569-10.9569v-11.0869h-36.6912c-2.6616.0001-5.1547-.7152-7.3039-1.9589z" fill="#434343"/><path d="m150.984 58.9964c-.1724-.0009-.3437-.0044-.5159-.0044-10.2158-.0124-45.7479 1.2886-53.4576 2.753-8.7924 1.3246-16.0221 4.2684-19.3578 11.9407l-10.3967 28.2221s10.3236 6.4295 42.297 8.2679v-.4937c-2.1412-7.3256-9.3838-10.5768-9.458-10.609l.1126-.2569-20.446-3.1565.839-5.4355 47.3755 7.3138-.839 5.4355-16.5304-2.5519c1.8164 2.1314 3.4625 4.834 4.3533 8.176.0618.231.0929.4694.0929.7085v1.1315c.5879.0222 1.182.0429 1.783.062 5.7335.5068 27.1509.682 43.5175.5234v-51.8668c-3.5623-.1081-6.6496-.1667-8.8539-.164-.1721 0-.3433.0034-.5155.0043z" fill="#cbd0ca"/><path d="m114.96 108.5975c-.8909-3.342-2.5369-6.0446-4.3533-8.176l16.5304 2.5519.839-5.4355-47.3755-7.3138-.839 5.4355 20.446 3.1565-.1126.2569c.0741.0322 7.3168 3.2833 9.458 10.609v.4937c1.7677.1016 3.598.19 5.5.2618v-1.1315c0-.239-.0312-.4775-.093-.7085z" fill="#5b5b5b"/><path d="m79.1324 171.073v-5.5h81.2211v-54.5502c-16.3666.1586-37.784-.0167-43.5175-.5234-.601-.0191-1.1951-.0398-1.783-.062-1.902-.0718-3.7323-.1601-5.5-.2618-31.9734-1.8385-42.297-8.2679-42.297-8.2679l10.3968-28.2219c3.3357-7.6723 10.5654-10.6161 19.3578-11.9407 7.7097-1.4644 43.2418-2.7654 53.4576-2.753.1722 0 .3434.0035.5159.0044.1722-.0009.3434-.0044.5156-.0044 2.2043-.0027 5.2916.0559 8.8539.164v-15.1512c-18.175-.2036-39.9381.0266-46.9161.5824-18.8955 1.505-41.8773 6.6943-48.0721 22.5678l-13.8564 37.2595-13.2875-.1473s-11.37-.3721-15.8485 10.6124c0 0-5.5124 9.6819 4.8236 11.1717 4.7351.6823 10.8273.7388 16.0425.6005l-3.9961 10.7454v35.9719c0 5.4068 2.9395 10.1241 7.3053 12.6503 2.1492 1.2437 4.6423 1.959 7.304 1.959h36.6911 58.1896 1.3747 10.2459v-16.9055zm-14.3961-37.3394 36.1509 2.064c4.4632.2548 8.5497 2.5844 11.0428 6.2952l2.083 3.1004c1.5938 2.3723-.1062 5.5626-2.9643 5.5626h-39.6451c-2.7795 0-5.3066-1.6125-6.4775-4.1333l-3.6321-7.8191c-1.137-2.4478.7478-5.2236 3.4423-5.0698z" fill="#c41a00"/><g fill="#ffbc27"><path d="m64.9261 146.6225c1.1709 2.5208 3.698 4.1333 6.4775 4.1333h39.6451c2.858 0 4.5581-3.1903 2.9643-5.5626l-2.083-3.1004c-2.493-3.7108-6.5796-6.0404-11.0428-6.2952l-36.1509-2.064c-2.6945-.1538-4.5793 2.622-3.4423 5.0698z"/><path d="m79.132 165.573h81.221v5.5h-81.221z"/></g></g><g><g><path d="m169.274 190.573h46.438v44.155h-46.438z" fill="#227cb1"/></g><g><path d="m169.274 111.893h46.438v44.155h-46.438z" fill="#227cb1"/></g><g><path d="m169.274 33.213h46.438v44.155h-46.438z" fill="#227cb1"/></g><g><g><g><path d="m228.1004 176.5859-35.5281 35.5285-11.8307-11.8309-7.764 7.764 15.7127 15.7127c1.0296 1.0293 2.4259 1.6078 3.882 1.6078s2.8524-.5785 3.882-1.6078l39.4101-39.4103z" fill="#ffbc27"/></g></g><g><g><path d="m228.1004 97.9062-35.5281 35.5285-11.8307-11.8309-7.764 7.764 15.7127 15.7127c1.0296 1.0293 2.4259 1.6078 3.882 1.6078s2.8524-.5785 3.882-1.6078l39.4101-39.4103z" fill="#ffbc27"/></g></g><g><g><path d="m228.1004 19.2264-35.5281 35.5285-11.8307-11.8309-7.764 7.764 15.7127 15.7127c1.0296 1.0293 2.4259 1.6078 3.882 1.6078s2.8524-.5785 3.882-1.6078l39.4101-39.4103z" fill="#ffbc27"/></g></g></g></g></g></svg>