<svg id="Layer_1" enable-background="new 0 0 512 512" viewBox="0 0 512 512" xmlns="http://www.w3.org/2000/svg"><g clip-rule="evenodd" fill-rule="evenodd"><g><path d="m31.989 69.618h299.115c8.806 0 15.989 7.183 15.989 15.989v394.404c0 8.806-7.183 15.989-15.989 15.989h-299.115c-8.806 0-15.989-7.183-15.989-15.989v-394.404c0-8.806 7.183-15.989 15.989-15.989z" fill="#d5a889"/><path d="m47.979 101.596h267.136v362.425h-267.136z" fill="#f4f6f8"/><path d="m110.304 50.145h37.097c0-18.858 15.288-34.145 34.145-34.145 18.858 0 34.145 15.287 34.145 34.145h37.097c2.754 0 5 2.246 5 5v51.452c0 2.754-2.246 5-5 5h-142.484c-2.754 0-5-2.246-5-5v-51.452c.001-2.754 2.246-5 5-5zm71.243-9c-4.971 0-9 4.029-9 9 0 4.97 4.029 9 9 9 4.97 0 9-4.03 9-9 0-4.971-4.03-9-9-9z" fill="#e4e8eb"/><path d="m90.77 343.939c-3.866 0-7-3.134-7-7s3.134-7 7-7h181.553c3.866 0 7 3.134 7 7s-3.134 7-7 7zm0 86.87c-3.866 0-7-3.134-7-7s3.134-7 7-7h90.776c3.866 0 7 3.134 7 7s-3.134 7-7 7zm0-45.248c-3.866 0-7-3.134-7-7s3.134-7 7-7h181.553c3.866 0 7 3.134 7 7s-3.134 7-7 7z" fill="#c7e0ec"/><g><path d="m260.046 176.031h-6.11c-3.905 0-7.1 3.195-7.1 7.1v2.903c0 3.905 3.195 7.1 7.1 7.1h6.11c3.905 0 7.1-3.195 7.1-7.1v-2.903c0-3.905-3.195-7.1-7.1-7.1zm-156.998 0h6.109c3.905 0 7.1 3.195 7.1 7.1v2.903c0 3.905-3.195 7.1-7.1 7.1h-6.109c-3.905 0-7.1-3.195-7.1-7.1v-2.903c0-3.905 3.195-7.1 7.1-7.1z" fill="#eb5463"/><path d="m144.734 133.318h36.813 36.813c4.765 0 8.82 2.866 10.41 7.359l15.329 43.314c1.234 3.488.743 7.037-1.393 10.058-2.135 3.021-5.318 4.668-9.017 4.668h-104.284c-3.699 0-6.882-1.647-9.017-4.668s-2.627-6.57-1.393-10.058l15.328-43.315c1.59-4.492 5.645-7.358 10.411-7.358z" fill="#eb5463"/><path d="m144.733 140.037c-1.918 0-3.435 1.073-4.075 2.881l-15.328 43.315c-.505 1.426-.328 2.702.545 3.938.875 1.238 2.013 1.827 3.53 1.827h104.283c1.517 0 2.655-.589 3.53-1.827.873-1.236 1.05-2.511.545-3.938l-15.329-43.314c-.64-1.809-2.157-2.881-4.075-2.881z" fill="#a4d4ff"/><path d="m119.138 218.464h14.447c2.949 0 5.354 2.405 5.354 5.354v54.447c0 2.949-2.405 5.354-5.354 5.354h-14.447c-2.949 0-5.354-2.405-5.354-5.354v-54.447c0-2.949 2.405-5.354 5.354-5.354zm110.371.279h14.447c2.949 0 5.354 2.405 5.354 5.354v54.446c0 2.949-2.405 5.354-5.354 5.354h-14.447c-2.949 0-5.354-2.405-5.354-5.354v-54.446c0-2.949 2.405-5.354 5.354-5.354z" fill="#636c77"/><path d="m114.987 188.678h133.12c7.509 0 13.652 6.143 13.652 13.652v38.894c0 7.509-6.143 13.652-13.652 13.652h-133.12c-7.509 0-13.652-6.143-13.652-13.652v-38.894c-.001-7.508 6.143-13.652 13.652-13.652z" fill="#f76c82"/><path d="m212.16 246.998h-61.226v-35.374c0-4.873 3.987-8.86 8.86-8.86h43.506c4.873 0 8.86 3.987 8.86 8.86z" fill="#636c77"/><path d="m126.361 198.718c7.276 0 13.175 5.899 13.175 13.175 0 7.277-5.899 13.175-13.175 13.175s-13.175-5.899-13.175-13.175 5.899-13.175 13.175-13.175zm110.371 0c7.277 0 13.175 5.899 13.175 13.175 0 7.277-5.899 13.175-13.175 13.175s-13.175-5.899-13.175-13.175 5.899-13.175 13.175-13.175z" fill="#f4f6f8"/><path d="m101.301 242.198h160.491c2.949 0 5.354 2.405 5.354 5.354v3.693c0 2.949-2.405 5.354-5.354 5.354h-160.491c-2.949 0-5.354-2.405-5.354-5.354v-3.693c.001-2.949 2.406-5.354 5.354-5.354z" fill="#eb5463"/></g></g><g><g><path d="m381.52 369.618h25.589v49.392h-25.589z" fill="#a9b0bb" transform="matrix(.707 -.707 .707 .707 -163.33 394.32)"/><ellipse cx="319.742" cy="319.742" fill="#a9b0bb" rx="91.558" ry="91.558" transform="matrix(.253 -.968 .968 .253 -70.485 548.2)"/><ellipse cx="319.742" cy="319.742" fill="#a4d4ff" rx="67.772" ry="67.771" transform="matrix(.442 -.897 .897 .442 -108.454 465.065)"/><path d="m398.606 412.432 13.826-13.826c4.567-4.567 12.04-4.567 16.607 0l63.535 63.535c4.567 4.567 4.567 12.04 0 16.607l-13.826 13.826c-4.567 4.567-12.04 4.567-16.607 0l-63.535-63.535c-4.567-4.567-4.567-12.04 0-16.607z" fill="#937661"/></g><path d="m355.081 292.985c2.99-2.431 7.385-1.978 9.816 1.012s1.978 7.385-1.012 9.816l-58.728 47.689c-2.99 2.431-7.385 1.978-9.816-1.012-.16-.198-.308-.401-.444-.61l-20.693-30.819c-2.144-3.201-1.287-7.535 1.914-9.679s7.535-1.287 9.679 1.914l16.489 24.559z" fill="#c6ea94"/></g></g></svg>