<svg id="Layer_1" height="512" viewBox="0 0 64 64" width="512" xmlns="http://www.w3.org/2000/svg" data-name="Layer 1"><path d="m16.21 33.09 9.52-11.64a6 6 0 0 0 8.1-7.54l-3.83 3.85-3.54-3.53 3.86-3.86a6 6 0 0 0 -7.55 8.1l-11.65 9.53a3.62 3.62 0 1 0 5.09 5.1z" fill="#e65c62"/><rect fill="#f2f2f2" height="3" rx="1.5" transform="matrix(.707 -.707 .707 .707 -17.58 18.61)" width="3" x="12.18" y="29.03"/><path d="m63 32a31 31 0 0 0 -47.53-26.23l1.06 1.7a29 29 0 0 1 38.84 41.69l-2.52-2.23-.85 7.72 7.57-1.8-2.67-2.37a31.05 31.05 0 0 0 6.1-18.48z" fill="#8e9fb3"/><path d="m32 61a29 29 0 0 1 -23.36-46.16l2.51 2.23.9-7.72-7.57 1.8 2.66 2.36a31 31 0 0 0 41.39 44.72l-1.06-1.69a28.93 28.93 0 0 1 -15.47 4.46z" fill="#8e9fb3"/><path d="m53 21a7 7 0 1 1 -7-7 7 7 0 0 1 7 7z" fill="#fc6"/><path d="m45.81 25.08-1.62-1.16 1.37-1.92h-1.06a1 1 0 0 1 -.81-1.58l2.5-3.5 1.62 1.16-1.37 1.92h1.06a1 1 0 0 1 .81 1.58z" fill="#997a3d"/><path d="m14 43.58v3.42h34v-7l-3-1-.78-3.52a7 7 0 0 0 -6.84-5.48h-6.76a7 7 0 0 0 -6.84 5.48l-.78 3.52-5.44.6a4 4 0 0 0 -2.56 1.4 3.86 3.86 0 0 0 -.9 2 2.78 2.78 0 0 0 -.1.58z" fill="#2988cc"/><circle cx="41" cy="46" fill="#475666" r="4"/><circle cx="23" cy="46" fill="#475666" r="4"/><path d="m35 32h2.29a4 4 0 0 1 3.71 2.51l1 2.49h-7z" fill="#f2f2f2"/><path d="m33 37h-7l1-2.49a4 4 0 0 1 3.71-2.51h2.29z" fill="#f2f2f2"/><path d="m14.05 43h3.95v-2h-3a3.86 3.86 0 0 0 -.95 2z" fill="#ffe666"/><g fill="#f2f2f2"><circle cx="23" cy="46" r="2"/><circle cx="41" cy="46" r="2"/></g></svg>