<svg id="Layer_1" enable-background="new 0 0 512 512" height="512" viewBox="0 0 512 512" width="512" xmlns="http://www.w3.org/2000/svg"><g clip-rule="evenodd" fill-rule="evenodd"><circle cx="256" cy="256" fill="#25b7d3" r="256"/><path d="m196.183 348.314c4.483 4.479 4.483 11.731 0 16.203-4.45 4.469-11.705 4.469-16.188 0-4.482-4.473-4.482-11.725 0-16.203 4.483-4.47 11.738-4.47 16.188 0zm119.633 0c-4.482 4.479-4.482 11.731 0 16.203 4.45 4.469 11.706 4.469 16.188 0 4.482-4.473 4.482-11.725 0-16.203-4.482-4.47-11.737-4.47-16.188 0zm-6.771-6.759c8.191-8.204 21.508-8.204 29.731 0 8.19 8.21 8.19 21.517 0 29.721-8.223 8.21-21.54 8.21-29.731 0-8.223-8.203-8.223-21.511 0-29.721zm-145.269-145.252c4.482-4.473 4.482-11.725 0-16.198-4.45-4.473-11.706-4.473-16.188 0-4.482 4.472-4.482 11.725 0 16.198 4.483 4.475 11.738 4.475 16.188 0zm.87-77.179-78.036 78.032-.194-.203c-7.223-7.216-7.223-18.983 0-26.2l51.82-51.832c7.223-7.217 18.993-7.217 26.216 0zm47.532 152.889-42.113-42.117c-.065 7.149 2.612 14.324 8.094 19.78l-19.509 19.505-55.528-55.528 78.003-78.032 55.56 55.528-19.509 19.509c-5.482-5.456-12.641-8.145-19.799-8.078l42.114 42.12zm111.732 42.329c23.217 0 42.081 18.838 42.081 42.075 0 23.24-18.864 42.074-42.081 42.074-23.249 0-42.081-18.835-42.081-42.074 0-4.457.677-8.752 1.967-12.786l-11.286-11.305 27.312-27.316 11.286 11.312c4.031-1.283 8.32-1.98 12.802-1.98zm-120.955 27.213c-8.223-8.204-21.508-8.204-29.731 0-8.191 8.21-8.191 21.517 0 29.721 8.223 8.21 21.508 8.21 29.731 0 8.223-8.203 8.223-21.511 0-29.721zm145.269-145.252c-4.482-4.473-4.482-11.725 0-16.198 4.45-4.473 11.706-4.473 16.188 0 4.482 4.472 4.482 11.725 0 16.198-4.483 4.475-11.738 4.475-16.188 0zm-.871-77.179 78.036 78.032.194-.203c7.223-7.216 7.223-18.983 0-26.2l-51.82-51.832c-7.223-7.217-18.993-7.217-26.216 0zm-159.264 195.218c-23.249 0-42.081 18.838-42.081 42.075 0 23.24 18.832 42.074 42.081 42.074 23.25 0 42.081-18.835 42.081-42.074 0-4.457-.709-8.752-1.967-12.786l113.732-113.735c.065 7.149-2.611 14.324-8.093 19.78l19.509 19.505 55.528-55.528-78.035-78.032-55.528 55.528 19.509 19.509c5.45-5.456 12.64-8.145 19.799-8.078l-113.733 113.742c-4.031-1.283-8.352-1.98-12.802-1.98z" fill="#fff"/></g></svg>