<svg id="Capa_1" enable-background="new 0 0 512 512" height="512" viewBox="0 0 512 512" width="512" xmlns="http://www.w3.org/2000/svg"><g><g><g><path d="m512 224.864c0-8.798-3.645-16.741-9.501-22.416 5.856-5.675 9.501-13.617 9.501-22.416 0-13.556-8.642-25.089-20.715-29.403.035-.602.056-1.206.056-1.816 0-17.242-13.977-31.22-31.22-31.22-4.045 0-7.907.778-11.454 2.178-7.561-7.76-18.119-12.585-29.808-12.585-11.953 0-22.722 5.046-30.314 13.115-2.706-5.536-8.375-9.359-14.951-9.359-6.06 0-11.348 3.248-14.26 8.087-5.719-7.212-14.55-11.843-24.47-11.843-17.242 0-31.22 13.977-31.22 31.22 0 3.489.581 6.839 1.636 9.972-14.427 2.754-25.333 15.429-25.333 30.658 0 17.242 13.977 31.22 31.22 31.22 2.524 0 4.974-.307 7.324-.873 3.023 4.197 7.939 6.94 13.507 6.94 4.146 0 7.929-1.525 10.844-4.032 2 1.508 4.144 2.833 6.401 3.966-.204 1.44-.315 2.909-.315 4.405 0 16.536 12.858 30.061 29.121 31.141-.869 3.35-1.334 6.863-1.334 10.485 0 18.833 12.51 34.736 29.67 39.875-2.592 2.935-4.177 6.78-4.177 11.004 0 9.177 7.424 16.617 16.594 16.648-.297 1.73-.461 3.505-.461 5.319 0 17.242 13.977 31.22 31.22 31.22.593 0 1.181-.02 1.766-.053 1.776 5.053 4.813 9.509 8.736 12.993-8.848 5.986-14.665 16.114-14.665 27.601-10.874 0-20.12 6.951-23.549 16.651h-31.605v33.301h57.23v-.093c10.444-.86 19.062-8.141 21.901-17.891 2.96.862 6.086 1.333 9.325 1.333 18.392 0 33.301-14.909 33.301-33.301 0-5.837-1.506-11.32-4.144-16.09 2.572-2.931 4.144-6.761 4.144-10.967 0-3.723-1.237-7.148-3.301-9.921 2.108-4.204 3.301-8.946 3.301-13.97 0-12.823-7.734-23.835-18.789-28.64 11.054-4.805 18.788-15.817 18.788-28.64 0-10.748-5.432-20.225-13.699-25.841 3.082-4.839 4.875-10.58 4.875-16.742 0-2.897-.403-5.698-1.141-8.36 6.127-5.701 9.965-13.831 9.965-22.86z" fill="#9c9c9c"/></g><g><path d="m512 224.864c0-5.594-1.478-10.84-4.057-15.379-10.411 49.366-40.66 98.771-87.803 136.101 4.299 12.101 15.846 20.768 29.421 20.768.593 0 1.181-.02 1.766-.053 1.776 5.053 4.813 9.509 8.736 12.993-8.848 5.986-14.665 16.114-14.665 27.601-10.874 0-20.12 6.951-23.549 16.651h-31.605v33.301h57.23v-.093c10.444-.86 19.062-8.141 21.901-17.891 2.96.862 6.086 1.333 9.325 1.333 18.392 0 33.301-14.909 33.301-33.301 0-5.837-1.506-11.32-4.144-16.09 2.572-2.931 4.144-6.761 4.144-10.967 0-3.723-1.237-7.148-3.301-9.921 2.108-4.204 3.301-8.946 3.301-13.97 0-12.823-7.734-23.835-18.789-28.64 11.054-4.805 18.788-15.817 18.788-28.64 0-10.748-5.432-20.225-13.699-25.841 3.082-4.839 4.875-10.58 4.875-16.742 0-2.897-.403-5.698-1.141-8.36 6.127-5.701 9.965-13.831 9.965-22.86z" fill="#838383"/></g><g><g><g><path d="m348.916 339.344-16.114-64.457c-2.316-9.265-10.641-15.765-20.192-15.765h-139.847c-6.551 0-12.72 3.084-16.65 8.325l-56.195 74.927h-.029l-66.016 8.151c-10.429 1.288-18.262 10.148-18.262 20.656v52.363h67.642v33.301h239.35v-33.301h67.642v-66.602c0-8.046-6.523-14.569-14.569-14.569h-22.878c-1.837.001-3.437-1.248-3.882-3.029z" fill="#fea95c"/></g><g><path d="m390.244 403.419c-13.073-23.948-38.491-40.231-67.642-40.231-42.462 0-77.008 34.546-77.008 77.008 0 5.718.646 11.285 1.833 16.65h75.175v-33.301h67.642z" fill="#fe9738"/></g><g><path d="m158.427 456.846c1.188-5.366 1.833-10.933 1.833-16.65 0-42.462-34.546-77.008-77.008-77.008-29.152 0-54.57 16.284-67.642 40.231v20.126h67.642v33.301z" fill="#fe9738"/></g><g><g><path d="m263.138 342.374h44.525c3.903 0 6.768-3.668 5.821-7.455l-9.048-36.191c-.928-3.712-4.249-6.305-8.076-6.305h-33.221c-4.418 0-8 3.582-8 8v33.951c-.001 4.418 3.581 8 7.999 8z" fill="#c8effe"/></g><g><path d="m304.435 298.728c-.928-3.712-4.249-6.305-8.076-6.305h-24.976c3.827 0 7.148 2.592 8.076 6.305l10.912 43.646h17.291c3.903 0 6.768-3.668 5.821-7.455z" fill="#99e6fc"/></g><g><path d="m221.837 300.423c0-4.418-3.582-8-8-8h-30.668c-2.607 0-5.097 1.244-6.661 3.33l-27.766 37.021c-2.967 3.955-.144 9.6 4.8 9.6h60.294c4.418 0 8-3.582 8-8v-33.951z" fill="#c8effe"/></g><g><path d="m196.862 292.423v49.951h16.976c4.418 0 8-3.582 8-8v-33.951c0-4.418-3.582-8-8-8z" fill="#99e6fc"/></g></g></g><g><path d="m397.529 456.846h-74.927v-33.301h74.927c4.598 0 8.325 3.727 8.325 8.325v16.65c0 4.598-3.728 8.326-8.325 8.326z" fill="#99e6fc"/></g><g><path d="m8.325 456.846h74.927v-33.301h-74.927c-4.598 0-8.325 3.727-8.325 8.325v16.65c0 4.598 3.727 8.326 8.325 8.326z" fill="#c8effe"/></g><g><circle cx="322.602" cy="440.195" fill="#528fd8" r="49.951"/></g><g><path d="m348.605 397.541c4.628 7.575 7.297 16.477 7.297 26.004 0 27.587-22.364 49.951-49.951 49.951-9.527 0-18.429-2.669-26.004-7.297 8.774 14.361 24.594 23.948 42.654 23.948 27.587 0 49.951-22.364 49.951-49.951.001-18.061-9.586-33.881-23.947-42.655z" fill="#0573ce"/></g><g><circle cx="322.602" cy="440.195" fill="#bfbfbf" r="16.65"/></g><g><circle cx="83.252" cy="440.195" fill="#528fd8" r="49.951"/></g><g><path d="m109.256 397.541c4.628 7.575 7.297 16.477 7.297 26.004 0 27.587-22.364 49.951-49.951 49.951-9.527 0-18.429-2.669-26.004-7.297 8.774 14.361 24.593 23.948 42.654 23.948 27.587 0 49.951-22.364 49.951-49.951 0-18.061-9.587-33.881-23.947-42.655z" fill="#0573ce"/></g><g><circle cx="83.252" cy="440.195" fill="#bfbfbf" r="16.65"/></g></g></g><g><path d="m292.568 62.746c0-10.278-8.057-18.672-18.2-19.214.101-.798.159-1.609.159-2.435 0-10.628-8.616-19.244-19.244-19.244s-19.244 8.616-19.244 19.244c0 .874.064 1.733.177 2.576-.725-.112-1.467-.171-2.223-.171-7.718 0-14.021 6.059-14.413 13.679-2.561-1.261-5.442-1.973-8.489-1.973-10.628 0-19.244 8.616-19.244 19.244 0 7.34 4.111 13.719 10.155 16.964-1.215 2.115-1.914 4.564-1.914 7.178 0 7.971 6.462 14.433 14.433 14.433 7.648 0 13.903-5.95 14.397-13.473 1.579.593 3.288.92 5.074.92 4.009 0 7.635-1.636 10.251-4.275 3.504 3.671 8.442 5.962 13.918 5.962 10.628 0 19.244-8.616 19.244-19.244 0-.456-.022-.907-.053-1.355 8.695-1.85 15.216-9.57 15.216-18.816z" fill="#9c9c9c"/></g><g><path d="m433.655 251.872c-4.143 0-7.5-3.358-7.5-7.5s3.357-7.5 7.5-7.5c5.046 0 9.15-4.105 9.15-9.15 0-4.142 3.357-7.5 7.5-7.5 5.046 0 9.15-4.105 9.15-9.15 0-4.142 3.357-7.5 7.5-7.5s7.5 3.358 7.5 7.5c0 11.034-7.438 20.364-17.563 23.237-2.873 10.126-12.203 17.563-23.237 17.563z" fill="#838383"/></g><g><path d="m362.541 189.252c-13.316 0-24.15-10.834-24.15-24.15 0-4.142 3.357-7.5 7.5-7.5s7.5 3.358 7.5 7.5c0 5.045 4.104 9.15 9.15 9.15 4.143 0 7.5 3.358 7.5 7.5s-3.357 7.5-7.5 7.5z" fill="#838383"/></g><g><path d="m404.299 229.267c-13.316 0-24.15-10.834-24.15-24.15 0-4.142 3.357-7.5 7.5-7.5s7.5 3.358 7.5 7.5c0 5.045 4.104 9.15 9.15 9.15 4.143 0 7.5 3.358 7.5 7.5s-3.358 7.5-7.5 7.5z" fill="#838383"/></g><g><path d="m435.756 180.927c-4.143 0-7.5-3.358-7.5-7.5s3.357-7.5 7.5-7.5c5.046 0 9.15-4.105 9.15-9.15 0-4.142 3.357-7.5 7.5-7.5s7.5 3.358 7.5 7.5c0 13.316-10.834 24.15-24.15 24.15z" fill="#838383"/></g><g><path d="m444.081 308.248c-4.143 0-7.5-3.358-7.5-7.5s3.357-7.5 7.5-7.5c5.046 0 9.15-4.105 9.15-9.15 0-4.142 3.357-7.5 7.5-7.5s7.5 3.358 7.5 7.5c0 13.316-10.834 24.15-24.15 24.15z" fill="#838383"/></g></g></svg>