<svg id="Capa_1" enable-background="new 0 0 512 512" height="512" viewBox="0 0 512 512" width="512" xmlns="http://www.w3.org/2000/svg"><g><g><g><path d="m501.849 491.205h-179.508c-5.606 0-10.151-4.545-10.151-10.151v-45.921c0-5.606 4.545-10.151 10.151-10.151h179.509c5.606 0 10.151 4.545 10.151 10.151v45.921c-.001 5.607-4.546 10.151-10.152 10.151z" fill="#ffd15b"/></g><g><path d="m501.849 356.476h-179.508c-5.606 0-10.151-4.545-10.151-10.151v-45.921c0-5.606 4.545-10.151 10.151-10.151h179.509c5.606 0 10.151 4.545 10.151 10.151v45.921c-.001 5.606-4.546 10.151-10.152 10.151z" fill="#05e39c"/></g><g><g><g><g><path d="m501.849 87.018h-179.508c-5.606 0-10.151-4.545-10.151-10.151v-45.921c0-5.606 4.545-10.151 10.151-10.151h179.509c5.606 0 10.151 4.545 10.151 10.151v45.921c-.001 5.606-4.546 10.151-10.152 10.151z" fill="#fd8087"/></g><g><path d="m501.849 20.795h-42.289c5.606 0 10.151 4.545 10.151 10.151v45.921c0 5.606-4.545 10.151-10.151 10.151h42.289c5.606 0 10.151-4.545 10.151-10.151v-45.921c0-5.607-4.545-10.151-10.151-10.151z" fill="#fe646f"/></g><g><path d="m469.184 61.406h-114.178c-4.143 0-7.5-3.357-7.5-7.5s3.357-7.5 7.5-7.5h114.178c4.143 0 7.5 3.357 7.5 7.5s-3.358 7.5-7.5 7.5z" fill="#fff"/></g></g><g><g><path d="m501.849 221.747h-179.508c-5.606 0-10.151-4.545-10.151-10.151v-45.921c0-5.606 4.545-10.151 10.151-10.151h179.509c5.606 0 10.151 4.545 10.151 10.151v45.921c-.001 5.606-4.546 10.151-10.152 10.151z" fill="#978ecb"/></g><g><path d="m501.849 155.524h-42.289c5.606 0 10.151 4.545 10.151 10.151v45.921c0 5.606-4.545 10.151-10.151 10.151h42.289c5.606 0 10.151-4.545 10.151-10.151v-45.921c0-5.606-4.545-10.151-10.151-10.151z" fill="#8379c1"/></g><g><path d="m501.849 290.253h-42.289c5.606 0 10.151 4.545 10.151 10.151v45.921c0 5.606-4.545 10.151-10.151 10.151h42.289c5.606 0 10.151-4.545 10.151-10.151v-45.921c0-5.606-4.545-10.151-10.151-10.151z" fill="#0ed290"/></g><g><path d="m501.849 424.983h-42.289c5.606 0 10.151 4.545 10.151 10.151v45.921c0 5.606-4.545 10.151-10.151 10.151h42.289c5.606 0 10.151-4.545 10.151-10.151v-45.921c0-5.607-4.545-10.151-10.151-10.151z" fill="#ffc344"/></g><g><path d="m469.184 196.136h-114.178c-4.143 0-7.5-3.357-7.5-7.5s3.357-7.5 7.5-7.5h114.178c4.143 0 7.5 3.357 7.5 7.5s-3.358 7.5-7.5 7.5z" fill="#fff"/></g></g><g><g><path d="m469.184 330.864h-114.178c-4.143 0-7.5-3.357-7.5-7.5s3.357-7.5 7.5-7.5h114.178c4.143 0 7.5 3.357 7.5 7.5s-3.358 7.5-7.5 7.5z" fill="#fff"/></g></g><g><g><path d="m469.184 465.594h-114.178c-4.143 0-7.5-3.357-7.5-7.5s3.357-7.5 7.5-7.5h114.178c4.143 0 7.5 3.357 7.5 7.5s-3.358 7.5-7.5 7.5z" fill="#fff"/></g></g><g fill="#c2bce0"><path d="m245.967 167.941c2.647 0 5.171.518 7.5 1.428v-96.198c-2.329.91-4.853 1.428-7.5 1.428s-5.171-.518-7.5-1.428v96.198c2.329-.91 4.853-1.428 7.5-1.428z"/><path d="m245.967 344.059c-2.647 0-5.171-.518-7.5-1.428v96.198c2.329-.91 4.853-1.428 7.5-1.428s5.171.518 7.5 1.428v-96.199c-2.329.911-4.853 1.429-7.5 1.429z"/><path d="m238.467 207.901v96.198c2.329-.91 4.853-1.428 7.5-1.428s5.171.518 7.5 1.428v-96.198c-2.329.91-4.853 1.428-7.5 1.428s-5.171-.518-7.5-1.428z"/></g><g><circle cx="245.967" cy="53.906" fill="#fd8087" r="21.694"/></g><g><path d="m245.967 32.212c-3.479 0-6.755.839-9.669 2.295 7.122 3.557 12.025 10.897 12.025 19.399s-4.903 15.842-12.025 19.399c2.914 1.455 6.19 2.295 9.669 2.295 11.981 0 21.694-9.713 21.694-21.694s-9.713-21.694-21.694-21.694z" fill="#fe646f"/></g><g><circle cx="245.967" cy="188.635" fill="#978ecb" r="21.694"/></g><g><path d="m245.967 166.942c-3.479 0-6.755.839-9.669 2.295 7.122 3.557 12.025 10.897 12.025 19.399s-4.903 15.842-12.025 19.399c2.914 1.455 6.19 2.295 9.669 2.295 11.981 0 21.694-9.713 21.694-21.694-.001-11.982-9.713-21.694-21.694-21.694z" fill="#8379c1"/></g><g><circle cx="245.967" cy="323.365" fill="#05e39c" r="21.694"/></g><g><path d="m245.967 301.671c-3.479 0-6.755.839-9.669 2.295 7.122 3.557 12.025 10.897 12.025 19.399s-4.903 15.842-12.025 19.399c2.914 1.455 6.19 2.295 9.669 2.295 11.981 0 21.694-9.713 21.694-21.694-.001-11.982-9.713-21.694-21.694-21.694z" fill="#0ed290"/></g><g><circle cx="245.967" cy="458.094" fill="#ffd15b" r="21.694"/></g><g><path d="m245.967 436.4c-3.479 0-6.755.839-9.669 2.295 7.122 3.557 12.025 10.897 12.025 19.399s-4.903 15.842-12.025 19.399c2.914 1.455 6.19 2.295 9.669 2.295 11.981 0 21.694-9.713 21.694-21.694-.001-11.981-9.713-21.694-21.694-21.694z" fill="#ffc344"/></g></g><g><path d="m30.868 208.543v95.985c7.677-4.017 16.398-6.303 25.646-6.303 30.61 0 55.514 24.903 55.514 55.514 0 6.386-1.097 12.517-3.091 18.232h75.288c6.43 0 11.642-5.212 11.642-11.643v-151.785z" fill="#f3f0f3"/><g><g><path d="m161.316 208.543v151.785c0 6.43-5.213 11.642-11.642 11.642h34.552c6.43 0 11.642-5.212 11.642-11.642v-151.785z" fill="#e2dee2"/></g></g><g><g><path d="m102.101 277.708 14.71-17.898c1.842-2.24 2.227-5.343.987-7.966s-3.88-4.296-6.781-4.296h-32.148c-4.143 0-7.5 3.357-7.5 7.5s3.357 7.5 7.5 7.5h16.275l-14.412 17.535c-1.842 2.24-2.227 5.343-.987 7.966s3.88 4.296 6.781 4.296h11.487c4.414 0 8.005 3.592 8.005 8.006s-3.591 8.005-8.005 8.005h-9.587c5.578 3.934 10.408 8.86 14.215 14.532 10.475-2.148 18.377-11.437 18.377-22.537.001-11.291-8.175-20.708-18.917-22.643z" fill="#a79ba7"/></g><g><path d="m147.867 323.355c-4.143 0-7.5-3.357-7.5-7.5v-53.308h-3.996c-4.143 0-7.5-3.357-7.5-7.5s3.357-7.5 7.5-7.5h11.496c4.143 0 7.5 3.357 7.5 7.5v60.808c0 4.143-3.357 7.5-7.5 7.5z" fill="#a79ba7"/></g></g><g><path d="m184.226 155.899h-141.715c-6.43 0-11.642 5.212-11.642 11.642v42.048h165v-42.048c-.001-6.429-5.213-11.642-11.643-11.642z" fill="#fd8087"/></g><g><path d="m184.226 155.899h-18.922v19.165c0 2.873-1.616 5.365-3.987 6.625v27.9h34.552v-42.048c-.001-6.429-5.213-11.642-11.643-11.642z" fill="#fe646f"/></g><g><g><path d="m157.804 182.564c-4.143 0-7.5-3.357-7.5-7.5v-31.739c0-4.143 3.357-7.5 7.5-7.5s7.5 3.357 7.5 7.5v31.739c0 4.143-3.358 7.5-7.5 7.5z" fill="#8379c1"/></g><g><path d="m68.933 182.564c-4.143 0-7.5-3.357-7.5-7.5v-31.739c0-4.143 3.357-7.5 7.5-7.5s7.5 3.357 7.5 7.5v31.739c0 4.143-3.358 7.5-7.5 7.5z" fill="#8379c1"/></g></g></g><g><g><circle cx="56.514" cy="353.739" fill="#eaf6ff" r="49.014"/></g><path d="m56.514 304.724c-3.8 0-7.499.435-11.05 1.254 21.771 4.994 38.016 24.473 38.016 47.76 0 23.286-16.244 42.765-38.015 47.76 3.552.819 7.25 1.254 11.05 1.254 27.07 0 49.014-21.944 49.014-49.014 0-27.069-21.945-49.014-49.015-49.014z" fill="#d8ecfe"/><g><path d="m56.515 410.253c-31.162 0-56.515-25.353-56.515-56.515s25.353-56.514 56.515-56.514 56.514 25.352 56.514 56.514-25.352 56.515-56.514 56.515zm0-98.028c-22.892 0-41.515 18.623-41.515 41.513 0 22.892 18.623 41.515 41.515 41.515 22.891 0 41.514-18.623 41.514-41.515-.001-22.89-18.624-41.513-41.514-41.513z" fill="#8ac9fe"/></g><g><path d="m75.843 361.238h-19.328c-4.143 0-7.5-3.357-7.5-7.5v-27.32c0-4.143 3.357-7.5 7.5-7.5s7.5 3.357 7.5 7.5v19.82h11.828c4.143 0 7.5 3.357 7.5 7.5s-3.358 7.5-7.5 7.5z" fill="#60b7ff"/></g></g></g></g></g></svg>