<svg id="Flat" height="512" viewBox="0 0 64 64" width="512" xmlns="http://www.w3.org/2000/svg"><path d="m3 59h58v4h-58z" fill="#d8bfb3"/><path d="m5 59h56v4h-56z" fill="#c8a695"/><path d="m3 27h58v32h-58z" fill="#88747c"/><path d="m61 27h-58v5.639a5.157 5.157 0 0 0 1.875.361 5.556 5.556 0 0 0 3.875-1.664 5.556 5.556 0 0 0 3.875 1.664 5.556 5.556 0 0 0 3.875-1.664 5.344 5.344 0 0 0 7.75 0 5.344 5.344 0 0 0 7.75 0 5.344 5.344 0 0 0 7.75 0 5.344 5.344 0 0 0 7.75 0 5.344 5.344 0 0 0 7.75 0 5.556 5.556 0 0 0 3.875 1.664 5.157 5.157 0 0 0 1.875-.361z" fill="#7b636b"/><path d="m5 27h56v32h-56z" fill="#7b636b"/><path d="m61 27h-56v5.995a5.565 5.565 0 0 0 3.75-1.659 5.556 5.556 0 0 0 3.875 1.664 5.556 5.556 0 0 0 3.875-1.664 5.344 5.344 0 0 0 7.75 0 5.344 5.344 0 0 0 7.75 0 5.344 5.344 0 0 0 7.75 0 5.344 5.344 0 0 0 7.75 0 5.344 5.344 0 0 0 7.75 0 5.556 5.556 0 0 0 3.875 1.664 5.157 5.157 0 0 0 1.875-.361z" fill="#6d555c"/><path d="m7 40v19h14v-19a3 3 0 0 0 -3-3h-8a3 3 0 0 0 -3 3z" fill="#a2e3f9"/><path d="m10 40h4v19h-4z" fill="#c2ecff"/><path d="m17 40h4v19h-4z" fill="#c2ecff"/><path d="m25 35h32v24h-32z" fill="#a2e3f9"/><g fill="#c2ecff"><path d="m49.333 42h7.667v17h-7.667z"/><path d="m28 42h8.667v17h-8.667z"/><path d="m38.667 42h8.667v17h-8.667z"/></g><path d="m25 35h32v4h-32z" fill="#f8d270"/><path d="m63 64h-62a1 1 0 0 1 0-2h62a1 1 0 0 1 0 2z" fill="#7b636b"/><path d="m3 19v4h58v-4a4 4 0 0 0 -4-4h-50a4 4 0 0 0 -4 4z" fill="#88747c"/><path d="m61 23v-4a3.961 3.961 0 0 0 -.36-1.64 3.961 3.961 0 0 0 -1.64-.36h-51a3 3 0 0 0 -3 3v3z" fill="#7b636b"/><path d="m18 36h-8a4 4 0 0 0 -4 4v19h2v-19a2 2 0 0 1 2-2h3v21h2v-21h3a2 2 0 0 1 2 2v19h2v-19a4 4 0 0 0 -4-4z" fill="#6d555c"/><path d="m14 1h36a4 4 0 0 1 4 4v18a0 0 0 0 1 0 0h-44a0 0 0 0 1 0 0v-18a4 4 0 0 1 4-4z" fill="#f5c550"/><path d="m54 23v-18a3.977 3.977 0 0 0 -.141-1h-39.859a1 1 0 0 0 -1 1v18z" fill="#f8d270"/><path d="m50 0h-36a5 5 0 0 0 -5 5v18h2v-18a3 3 0 0 1 3-3h36a3 3 0 0 1 3 3v18h2v-18a5 5 0 0 0 -5-5z" fill="#eef6f6"/><path d="m43 5a6.992 6.992 0 0 1 6.317 4h-5.317l-2 3 2 3h5.317a6.988 6.988 0 0 1 -12.634 0h-19.683a3 3 0 0 1 -3-3 3 3 0 0 1 3-3h19.683a6.992 6.992 0 0 1 6.317-4z" fill="#fafcfc"/><path d="m42 12 2-3h3.867a6.962 6.962 0 0 0 -11.184 2h-19.683a2.99 2.99 0 0 0 -2.816 2 2.99 2.99 0 0 0 2.816 2h19.683a6.988 6.988 0 0 0 12.634 0h-5.317z" fill="#eef6f6"/><path d="m57 34h-32a1 1 0 0 0 -1 1v24h2v-19h8.667v19h2v-19h8.666v19h2v-19h8.667v19h2v-24a1 1 0 0 0 -1-1zm-22.333 4h-8.667v-2h8.667zm10.666 0h-8.666v-2h8.666zm10.667 0h-8.667v-2h8.667z" fill="#6d555c"/><path d="m63 28c-2.14 4-5.61 4-7.75 0-2.14 4-5.61 4-7.75 0-2.14 4-5.61 4-7.75 0-2.14 4-5.61 4-7.75 0-2.14 4-5.61 4-7.75 0-2.14 4-5.61 4-7.75 0-2.14 4-5.61 4-7.75 0-2.14 4-5.61 4-7.75 0v-3a2 2 0 0 1 2-2h58a2 2 0 0 1 2 2z" fill="#d8bfb3"/><path d="m3 26v4.372c1.939 1.318 4.2.535 5.75-2.372 2.14 4 5.61 4 7.75 0 2.14 4 5.61 4 7.75 0 2.14 4 5.61 4 7.75 0 2.14 4 5.61 4 7.75 0 2.14 4 5.61 4 7.75 0 2.14 4 5.61 4 7.75 0 2.14 4 5.61 4 7.75 0v-3h-59a1 1 0 0 0 -1 1z" fill="#c8a695"/></svg>