<svg clip-rule="evenodd" fill-rule="evenodd" height="512" image-rendering="optimizeQuality" shape-rendering="geometricPrecision" text-rendering="geometricPrecision" viewBox="0 0 2000 2000" width="512" xmlns="http://www.w3.org/2000/svg"><g id="Layer_x0020_1"><g id="_296856176"><g><path d="m1363 1190c-8 0-16-4-21-12-35-53-47-101-35-143 12-39 41-61 56-70 23-45 73-73 131-73 57 0 107 28 130 73 15 9 45 31 57 71 13 42 1 90-34 142-8 12-23 15-35 7-10-6-171-10-224-17-1 7-5 13-11 17-4 3-9 5-14 5z" fill="#595353"/><path d="m1573 1427c-27 0-51 96-77 96s-55-96-81-96c-3 0-6-1-9-3-9-7-12-23-7-35l31-74c6-12 17-16 26-9 5 4 9 11 10 18 24-7 60-13 66-17 9-8 21-3 26 9l31 73c5 12 2 28-7 35-3 2-6 3-9 3z" fill="#fc8c4e"/><path d="m1495 1371c-87 0-157-71-157-158v-49-1c1-78 87-133 166-135h5c81 0 136 52 142 134 1 0 1 1 1 2v49c0 87-71 158-157 158z" fill="#fc9c57"/><path d="m1827 1804h-665c-14 0-26-11-26-25v-189c0-118 96-214 213-214 25 0 49-4 60 10l85 114 85-114c11-14 35-10 60-10 117 0 213 96 213 214v189c0 14-11 25-25 25z" fill="#35495e"/><path d="m1723 1804h-51v-174c0-14 11-25 25-25s26 11 26 25zm-407 0h-51v-174c0-14 12-25 26-25s25 11 25 25z" fill="#2b3b4d"/></g><g><path d="m381 1191c-9 0-17-4-21-11-35-53-47-101-35-143 12-38 41-60 56-69 22-44 72-72 129-72s107 28 129 72c16 9 46 31 57 70 13 42 1 89-33 141-8 12-24 15-35 7-10-6-170-9-222-17-2 7-5 13-11 17-5 3-10 5-14 5z" fill="#595353"/><path d="m589 1427c-27 0-51 95-77 95s-54-95-80-95c-3 0-6-2-9-4-9-7-12-22-7-34l31-73c6-12 17-17 26-10 5 4 8 11 9 19 24-8 60-14 66-18 9-7 21-3 26 9l31 73c5 12 2 27-7 34-3 2-6 4-9 4z" fill="#fc8c4e"/><path d="m511 1370c-86 0-156-70-156-156v-48-1c2-78 87-133 165-135h6c80 0 135 52 141 133v3 48c0 86-70 156-156 156z" fill="#fc9c57"/><path d="m840 1801h-659c-14 0-26-12-26-26v-187c0-117 95-212 212-212 25 0 48-5 59 10l85 113 84-113c11-15 34-10 59-10 117 0 212 95 212 212v187c0 14-12 26-26 26z" fill="#2083e2"/><path d="m737 1801h-50v-173c0-14 11-25 25-25s25 11 25 25zm-403 0h-50v-173c0-14 11-25 25-25s25 11 25 25z" fill="#2070be"/></g><path d="m1316 758c-5 0-10-2-15-5-7-6-10-15-8-24l20-77h-54c-13 0-24-10-24-23v-409c0-13 11-24 24-24h565c13 0 23 11 23 24v409c0 13-10 23-23 23h-317l-180 103c-4 2-7 3-11 3z" fill="#fa9626"/><path d="m679 764c-4 0-8-1-11-3l-181-102h-316c-13 0-24-11-24-24v-409c0-13 11-23 24-23h565c13 0 24 10 24 23v409c0 13-11 24-24 24h-54l19 73c1 2 2 6 2 9 0 13-10 23-23 23z" fill="#fa2916"/><path d="m1002 1463c-5 0-11-2-15-6l-174-151c-5-4-8-11-8-18 0-6 3-13 8-17l174-151c7-6 17-7 25-4 8 4 14 12 14 22v52h150c13 0 23 10 23 23v151c0 13-10 23-23 23h-150v52c0 9-6 18-14 22-3 1-6 2-10 2z" fill="#fa9626"/><path d="m1002 1083c-3 0-6-1-9-2-9-4-14-12-14-21v-53h-150c-13 0-24-10-24-23v-151c0-13 11-23 24-23h150v-52c0-9 5-18 14-21 8-4 18-3 25 3l173 151c5 5 8 11 8 18 0 6-3 13-8 17l-173 151c-5 4-10 6-16 6z" fill="#fa2916"/><g fill="#fff"><path d="m1720 357h-357c-13 0-23-10-23-23s10-23 23-23h357c13 0 23 10 23 23s-10 23-23 23z"/><path d="m1720 448h-357c-13 0-23-11-23-24 0-12 10-23 23-23h357c13 0 23 11 23 23 0 13-10 24-23 24z"/><path d="m1720 538h-357c-13 0-23-10-23-23s10-24 23-24h357c13 0 23 11 23 24s-10 23-23 23z"/><path d="m632 357h-357c-13 0-23-10-23-23s10-23 23-23h357c13 0 23 10 23 23s-10 23-23 23z"/><path d="m632 448h-357c-13 0-23-11-23-24 0-12 10-23 23-23h357c13 0 23 11 23 23 0 13-10 24-23 24z"/><path d="m632 538h-357c-13 0-23-10-23-23s10-24 23-24h357c13 0 23 11 23 24s-10 23-23 23z"/></g></g></g></svg>