<svg clip-rule="evenodd" fill-rule="evenodd" stroke-linejoin="round" stroke-miterlimit="2" viewBox="0 0 64 64" xmlns="http://www.w3.org/2000/svg"><g transform="translate(-1848 -88)"><g transform="translate(160 80)"><g><path d="m1751 22h-62v45c0 1.326.53 2.598 1.46 3.536.94.937 2.21 1.464 3.54 1.464h52c1.33 0 2.6-.527 3.54-1.464.93-.938 1.46-2.21 1.46-3.536 0-11.528 0-45 0-45z" fill="#f3efee"/></g><g><path d="m1720 22v50h26c1.33 0 2.6-.527 3.54-1.464.93-.938 1.46-2.21 1.46-3.536 0-11.528 0-44 0-44 0-.552-.45-1-1-1z" fill="#ece6e4"/></g><g><path d="m1751 24s0-3 0-5c0-1.326-.53-2.598-1.46-3.536-.94-.937-2.21-1.464-3.54-1.464-10.91 0-41.09 0-52 0-1.33 0-2.6.527-3.54 1.464-.93.938-1.46 2.21-1.46 3.536v5z" fill="#e73e49"/></g><g><path d="m1701 20c.8 0 1.56-.316 2.12-.879.56-.562.88-1.325.88-2.121 0-1.743 0-4.257 0-6 0-.796-.32-1.559-.88-2.121-.56-.563-1.32-.879-2.12-.879s-1.56.316-2.12.879c-.56.562-.88 1.325-.88 2.121v6c0 .796.32 1.559.88 2.121.56.563 1.32.879 2.12.879z" fill="#e2c070"/></g><g><path d="m1746 14h-26v10h31s0-3 0-5c0-1.326-.53-2.598-1.46-3.536-.94-.937-2.21-1.464-3.54-1.464z" fill="#e31c26"/></g><g><path d="m1739 20c.8 0 1.56-.316 2.12-.879.56-.562.88-1.325.88-2.121 0-1.743 0-4.257 0-6 0-.796-.32-1.559-.88-2.121-.56-.563-1.32-.879-2.12-.879s-1.56.316-2.12.879c-.56.562-.88 1.325-.88 2.121v6c0 .796.32 1.559.88 2.121.56.563 1.32.879 2.12.879z" fill="#ddb65d"/></g></g><path d="m1862 133c-.55 0-1 .448-1 1v1.566c0 1.344 1.09 2.434 2.43 2.434h4.14c1.34 0 2.43-1.09 2.43-2.434 0-.771 0-1.566 0-1.566 0-.552-.45-1-1-1z" fill="#515151"/><g transform="translate(29)"><path d="m1862 133c-.55 0-1 .448-1 1v1.566c0 1.344 1.09 2.434 2.43 2.434h4.14c1.34 0 2.43-1.09 2.43-2.434 0-.771 0-1.566 0-1.566 0-.552-.45-1-1-1z" fill="#515151"/></g><path d="m1897.04 135c2.19 0 3.96-1.771 3.96-3.957 0-.979 0-2.086 0-3.126 0-2.77-1.77-5.228-4.4-6.104 0 0-1.89-.631-1.89-.631-.45-.9-1.63-3.265-2.57-5.123-.96-1.912-2.79-3.237-4.91-3.544 0 0 0 0 0-.001-2.41-.34-4.82-.514-7.23-.514s-4.82.172-7.22.503c-.01.001-.01.001-.01.001-2.12.309-3.96 1.635-4.92 3.553 0-.001-2.56 5.125-2.56 5.125s-1.89.631-1.89.631c-2.63.876-4.4 3.334-4.4 6.104v3.126c0 2.185 1.77 3.957 3.96 3.957 3.26 0 30.11.001 34.08 0z" fill="#a6a6a6"/><path d="m1880 112v23h17.04c2.19 0 3.96-1.771 3.96-3.957 0-.979 0-2.086 0-3.126 0-2.77-1.77-5.228-4.4-6.104 0 0-1.89-.631-1.89-.631-.45-.9-1.63-3.265-2.57-5.123-.96-1.912-2.79-3.237-4.91-3.544 0 0 0 0 0-.001-2.41-.34-4.82-.514-7.23-.514z" fill="#8e8e8e"/><g transform="translate(1680 -6)"><path d="m217.044 141c2.185 0 3.956-1.771 3.956-3.957 0-.979 0-2.086 0-3.126 0-2.77-1.772-5.228-4.4-6.104 0 0-1.891-.631-1.891-.631-.45-.9-1.634-3.265-2.571-5.123-.956-1.912-2.79-3.237-4.909-3.544-.001 0-.002 0-.003-.001-2.409-.34-4.817-.514-7.226-.514-2.407 0-4.815.172-7.224.503-.002.001-.005.001-.007.001-2.121.309-3.957 1.635-4.915 3.553 0-.001-2.563 5.125-2.563 5.125s-1.891.631-1.891.631c-2.628.876-4.4 3.334-4.4 6.104v3.126c0 2.185 1.772 3.957 3.957 3.957 3.258 0 30.113.001 34.087 0zm-.001-2c-3.973.001-30.828 0-34.086 0-1.081 0-1.957-.876-1.957-1.957v-3.126c0-1.909 1.221-3.603 3.032-4.207 0 0 2.284-.761 2.284-.761.252-.084.46-.265.578-.502l2.749-5.496c.665-1.331 1.938-2.252 3.41-2.467 2.317-.318 4.632-.484 6.947-.484 2.314 0 4.629.167 6.943.494 1.471.214 2.743 1.133 3.408 2.462 0 .001.001.002.001.003 1.18 2.341 2.754 5.488 2.754 5.488.118.237.326.418.578.502l2.284.761c1.811.604 3.032 2.298 3.032 4.207v3.126c0 1.081-.876 1.957-1.957 1.957z" fill="#e73e49"/></g><path d="m1880 112c2.41 0 4.82.174 7.23.514v.001c2.12.307 3.95 1.632 4.91 3.544.94 1.858 2.12 4.223 2.57 5.123 0 0 1.89.631 1.89.631 2.63.876 4.4 3.334 4.4 6.104v3.126c0 2.186-1.77 3.957-3.96 3.957h-17.04v-2h17.04c1.08 0 1.96-.876 1.96-1.957v-3.126c0-1.909-1.22-3.603-3.03-4.207l-2.29-.761c-.25-.084-.46-.265-.57-.502 0 0-1.58-3.147-2.76-5.488 0-.001 0-.002 0-.003-.66-1.329-1.94-2.248-3.41-2.462-2.31-.327-4.63-.494-6.94-.494z" fill="#e31c26"/><path d="m1897.04 135c2.19 0 3.96-1.771 3.96-3.957 0-.979 0-2.086 0-3.126 0-2.77-1.77-5.228-4.4-6.104-1.23-.409-2.28-.762-2.28-.762-.06-.019-.12-.034-.19-.042-4.71-.635-9.42-1.009-14.13-1.009s-9.42.374-14.13 1.009c-.07.008-.13.023-.19.042 0 0-1.05.353-2.28.762-2.63.876-4.4 3.334-4.4 6.104v3.126c0 2.185 1.77 3.957 3.96 3.957 3.26 0 30.11.001 34.08 0z" fill="#e73e49"/><path d="m1880 120v15c7.53 0 15.08.001 17.04 0 2.19 0 3.96-1.771 3.96-3.957 0-.979 0-2.086 0-3.126 0-2.77-1.77-5.228-4.4-6.104-1.23-.409-2.28-.762-2.28-.762-.06-.019-.12-.034-.19-.042-4.71-.635-9.42-1.009-14.13-1.009z" fill="#e31c26"/><g transform="matrix(.866 .5 -.5 .866 1773.48 -82.132)"><path d="m197 137.501c-2.348-.98-4-3.299-4-6.001s1.652-5.021 4-6.001v4.501l2.5 1 2.5-1v-4.501c2.348.98 4 3.299 4 6.001s-1.652 5.021-4 6.001v4.68l-5.021 2.899z" fill="#c7d7ea"/></g><path d="m1880.75 131.067 2.66.384 2.26-3.898c1.54 2.023 1.81 4.857.46 7.197s-3.94 3.522-6.47 3.197l-2.33 4.053h-2.93z" fill="#a9c5e2"/><g transform="matrix(-1 0 0 1 2080 -1)"><path d="m185.894 126.553c.373.746 1.204 1.447 2.038 1.447h3.068c.552 0 1 .448 1 1s-.448 1-1 1c0 0-1.66 0-3.068 0-1.534 0-3.14-1.18-3.826-2.553-.247-.493-.047-1.095.447-1.341.493-.247 1.095-.047 1.341.447z" fill="#e5dcda"/></g><g transform="translate(1680 -1)"><path d="m184.106 127.447c.686 1.373 2.292 2.553 3.826 2.553h3.068c.552 0 1-.448 1-1s-.448-1-1-1h-3.068c-.834 0-1.665-.701-2.038-1.447-.246-.494-.848-.694-1.341-.447-.494.246-.694.848-.447 1.341z" fill="#ebe4e2"/></g><path d="m1894.14 114.495c-.19.311-.19.696 0 1.008l1.75 2.999c.18.307.5.496.86.496h3.5c.36 0 .68-.189.86-.496l1.75-2.999c.19-.312.19-.697 0-1.008l-1.75-2.999c-.18-.307-.5-.496-.86-.496h-3.5c-.36 0-.68.189-.86.496z" fill="#a9c5e2"/><path d="m1862.54 111.854c-.08-.412-.41-.731-.83-.797-.47-.076-.95-.076-1.42 0-.42.066-.75.385-.83.797l-.05.253c-.19.091-.38.199-.56.323 0 0-.24-.084-.24-.084-.4-.137-.84-.011-1.1.315-.3.371-.54.788-.71 1.235-.15.393-.04.837.27 1.112l.2.168c-.02.216-.02.432 0 .648 0 0-.2.168-.2.168-.31.275-.42.719-.27 1.112.17.447.41.864.71 1.235.26.326.7.452 1.1.315l.24-.084c.18.124.37.232.56.324 0-.001.05.252.05.252.08.412.41.731.83.797.47.076.95.076 1.42 0 .42-.066.75-.385.83-.797l.05-.253c.19-.091.38-.199.56-.323 0 0 .24.084.24.084.4.137.84.011 1.1-.315.3-.371.54-.788.71-1.235.15-.393.04-.837-.27-1.112l-.2-.168c.02-.216.02-.432 0-.648 0 0 .2-.168.2-.168.31-.275.42-.719.27-1.112-.17-.447-.41-.864-.71-1.235-.26-.326-.7-.452-1.1-.315l-.24.084c-.18-.124-.37-.232-.56-.324 0 .001-.05-.252-.05-.252zm-1.54 2.146c.83 0 1.5.672 1.5 1.5s-.67 1.5-1.5 1.5-1.5-.672-1.5-1.5.67-1.5 1.5-1.5z" fill="#c7d7ea"/></g></svg>