<svg height="512" viewBox="0 0 512 512" width="512" xmlns="http://www.w3.org/2000/svg"><g id="FLAT"><path d="m376 248h112v192h-112z" fill="#31c292"/><path d="m416 440h32v48h-32z" fill="#00a16c"/><path d="m416 200h32v48h-32z" fill="#00a16c"/><path d="m376 288h112v16h-112z" fill="#00b378"/><path d="m376 336h112v16h-112z" fill="#00b378"/><path d="m376 384h112v16h-112z" fill="#00b378"/><path d="m381.46631 338.73291a27.46635 27.46635 0 0 1 -17.01514-41.06055l10.0232-16.35644-23.78956-23.79-16.35717 10.02344a27.46628 27.46628 0 0 1 -24.86573 1.95483h-.00024a27.46648 27.46648 0 0 1 -16.19458-18.97l-4.44385-18.53419h-33.64624l-4.44385 18.53369a27.46647 27.46647 0 0 1 -41.06054 17.01514l-16.35669-10.0232-23.79 23.78956 10.02344 16.35717a27.46681 27.46681 0 0 1 -17.01514 41.06055l-18.53422 4.44385v33.64624l18.53369 4.44385a27.46647 27.46647 0 0 1 17.01514 41.06054l-10.0232 16.35669 23.78956 23.79 16.35717-10.02344a27.46628 27.46628 0 0 1 24.86573-1.95483h.00024a27.46648 27.46648 0 0 1 16.19458 18.97l4.44385 18.53419h33.64624l4.44385-18.53369a27.46647 27.46647 0 0 1 41.06054-17.01514l16.35669 10.0232 23.79-23.78956-10.02344-16.35717a27.46634 27.46634 0 0 1 -1.95483-24.86573v-.00024a27.46648 27.46648 0 0 1 18.97-16.19458l18.53419-4.44385v-33.64624zm-109.46631 69.26709a48 48 0 1 1 48-48 47.99987 47.99987 0 0 1 -48 48z" fill="#4484d1"/><path d="m24 280v178.28564c0 16.41089 32.23535 29.71436 72 29.71436s72-13.30347 72-29.71436v-178.28564z" fill="#6a7477"/><path d="m96 448c-39.76465 0-72-14.3269-72-32v42.28564c0 16.41089 32.23535 29.71436 72 29.71436s72-13.30347 72-29.71436v-42.28564c0 17.6731-32.23535 32-72 32z" fill="#465257"/><ellipse cx="96" cy="280" fill="#465257" rx="72" ry="32"/><g fill="#596468"><path d="m48 328h16v88h-16z"/><path d="m88 336h16v88h-16z"/><path d="m128 328h16v88h-16z"/><path d="m96 200a16 16 0 0 0 -16 16v64h32v-64a16 16 0 0 0 -16-16z"/></g><path d="m400 168h-120l-24 32-24-32h-120a16 16 0 0 1 -16-16v-112a16 16 0 0 1 16-16h288a16 16 0 0 1 16 16v112a16 16 0 0 1 -16 16z" fill="#00b378"/><path d="m176 56h32a40 40 0 0 1 40 40 40 40 0 0 1 -40 40h-32" fill="#59cea7"/><path d="m384 48h-40v16h20.68579l-28.68579 28.68652-10.34277-10.34375a8.003 8.003 0 0 0 -11.31446 0l-48 48 11.31446 11.31446 42.34277-42.34375 10.34277 10.34375a8.003 8.003 0 0 0 11.31446 0l34.34277-34.34278v20.68555h16v-40a8.00039 8.00039 0 0 0 -8-8z" fill="#f4d1bd"/><path d="m128 484.90381a110.41982 110.41982 0 0 0 16-4.47608v-40.58252a104.38071 104.38071 0 0 1 -16 4.82056z" fill="#596468"/><path d="m88 487.81323c2.62793.11988 5.29443.18677 8 .18677s5.37207-.06689 8-.18677v-40.0144c-2.62793.1289-5.29443.20117-8 .20117s-5.37207-.07227-8-.20117z" fill="#596468"/><path d="m48 480.42773a110.41982 110.41982 0 0 0 16 4.47608v-40.238a104.38071 104.38071 0 0 1 -16-4.82056z" fill="#596468"/><path d="m200 104h47.19824a40.16766 40.16766 0 0 0 .80176-8 40.16766 40.16766 0 0 0 -.80176-8h-47.19824z" fill="#31c292"/><circle cx="176" cy="96" fill="#bdecdc" r="40"/></g></svg>