<svg id="Layer_1" enable-background="new 0 0 256 256" height="512" viewBox="0 0 256 256" width="512" xmlns="http://www.w3.org/2000/svg"><g><g><g><g><path d="m205.64 248h-155.28c-5.523 0-10-4.477-10-10v-197.079c0-5.523 4.477-10 10-10h155.28c5.523 0 10 4.477 10 10v197.079c0 5.523-4.477 10-10 10z" fill="#8c3f0a"/></g><g><path d="m205.64 30.921v197.079c0 5.523-4.477 10-10 10h-155.28c0 5.523 4.477 10 10 10h155.28c5.523 0 10-4.477 10-10v-197.079c0-5.523-4.477-10-10-10z" fill="#7c3108"/></g><g><path d="m209.75 31.812c.567 1.255.89 2.643.89 4.11v197.078c0 5.523-4.477 10-10 10h-155.28c-1.467 0-2.855-.323-4.11-.89 1.568 3.471 5.053 5.89 9.11 5.89h155.28c5.523 0 10-4.477 10-10v-197.079c0-4.056-2.419-7.541-5.89-9.109z" fill="#6d2e03"/></g><g><path d="m46.359 114.667c-1.104 0-2-.896-2-2v-57c0-1.104.896-2 2-2s2 .896 2 2v57c0 1.104-.895 2-2 2zm0-65c-1.104 0-2-.896-2-2v-.667c0-1.104.896-2 2-2s2 .896 2 2v.667c0 1.104-.895 2-2 2z" fill="#995222"/></g><g><path d="m191.483 233.843h-126.966c-5.523 0-10-4.477-10-10v-168.764c0-5.523 4.477-10 10-10h126.966c5.523 0 10 4.477 10 10v168.764c0 5.523-4.477 10-10 10z" fill="#f1f2f2"/></g><g><g><g><path d="m90.75 165.594h-15c-2.761 0-5-2.239-5-5v-15c0-2.761 2.239-5 5-5h15c2.761 0 5 2.239 5 5v15c0 2.762-2.239 5-5 5z" fill="#76a34f"/></g><g><path d="m81.932 160.906c-.496 0-.978-.185-1.348-.522l-6.182-5.634c-.816-.744-.875-2.009-.131-2.825s2.01-.875 2.826-.131l4.563 4.16 7.495-9.879c.668-.879 1.924-1.053 2.803-.384.88.667 1.052 1.922.385 2.802l-8.818 11.623c-.34.447-.852.731-1.411.783-.061.004-.122.007-.182.007z" fill="#fff"/></g></g><g><g><path d="m185.25 150.094h-77.191c-1.104 0-2-.896-2-2s.896-2 2-2h77.191c1.104 0 2 .896 2 2s-.896 2-2 2z" fill="#939598"/></g><g><path d="m185.25 160.094h-77.191c-1.104 0-2-.896-2-2s.896-2 2-2h77.191c1.104 0 2 .896 2 2s-.896 2-2 2z" fill="#939598"/></g></g></g><g><g><g><path d="m90.75 195.594h-15c-2.761 0-5-2.239-5-5v-15c0-2.761 2.239-5 5-5h15c2.761 0 5 2.239 5 5v15c0 2.762-2.239 5-5 5z" fill="#76a34f"/></g><g><path d="m81.932 190.906c-.496 0-.978-.185-1.348-.522l-6.182-5.634c-.816-.744-.875-2.009-.131-2.825s2.01-.875 2.826-.131l4.563 4.16 7.495-9.879c.668-.879 1.924-1.052 2.803-.384.88.667 1.052 1.922.385 2.802l-8.818 11.623c-.34.447-.852.731-1.411.783-.061.004-.122.007-.182.007z" fill="#fff"/></g></g><g><g><path d="m185.25 180.094h-77.191c-1.104 0-2-.896-2-2s.896-2 2-2h77.191c1.104 0 2 .896 2 2s-.896 2-2 2z" fill="#939598"/></g><g><path d="m185.25 190.094h-77.191c-1.104 0-2-.896-2-2s.896-2 2-2h77.191c1.104 0 2 .896 2 2s-.896 2-2 2z" fill="#939598"/></g></g></g><g><g><g><path d="m90.75 225.594h-15c-2.761 0-5-2.239-5-5v-15c0-2.761 2.239-5 5-5h15c2.761 0 5 2.239 5 5v15c0 2.762-2.239 5-5 5z" fill="#76a34f"/></g><g><path d="m81.932 220.906c-.496 0-.978-.185-1.348-.522l-6.182-5.634c-.816-.744-.875-2.009-.131-2.825s2.01-.875 2.826-.131l4.563 4.16 7.495-9.879c.668-.879 1.924-1.052 2.803-.384.88.667 1.052 1.922.385 2.802l-8.818 11.623c-.34.447-.852.731-1.411.783-.061.004-.122.007-.182.007z" fill="#fff"/></g></g><g><g><path d="m185.25 210.094h-77.191c-1.104 0-2-.896-2-2s.896-2 2-2h77.191c1.104 0 2 .896 2 2s-.896 2-2 2z" fill="#939598"/></g><g><path d="m185.25 220.094h-77.191c-1.104 0-2-.896-2-2s.896-2 2-2h77.191c1.104 0 2 .896 2 2s-.896 2-2 2z" fill="#939598"/></g></g></g><g><path d="m195.593 45.969c.567 1.255.89 2.643.89 4.109v168.764c0 5.523-4.477 10-10 10h-126.966c-1.466 0-2.855-.323-4.11-.891 1.569 3.471 5.053 5.891 9.11 5.891h126.966c5.523 0 10-4.477 10-10v-168.763c0-4.057-2.419-7.541-5.89-9.11z" fill="#e6e7e8"/></g><g><path d="m169.461 23.674h-23.454c-1.234-8.853-8.814-15.674-18.007-15.674s-16.773 6.821-18.006 15.674h-23.455c-4.468 0-8.09 3.622-8.09 8.09v17.191c0 2.234 1.811 4.045 4.045 4.045h91.011c2.234 0 4.045-1.811 4.045-4.045v-17.191c0-4.468-3.621-8.09-8.089-8.09zm-41.461 6.573c-3.351 0-6.067-2.716-6.067-6.067s2.717-6.067 6.067-6.067c3.351 0 6.067 2.717 6.067 6.067 0 3.351-2.716 6.067-6.067 6.067z" fill="#ffc91d"/></g><g><g><path d="m172.101 24.124c.286.829.45 1.714.45 2.64v17.191c0 2.234-1.811 4.045-4.045 4.045h-90.057v.955c0 2.234 1.811 4.045 4.045 4.045h91.011c2.234 0 4.045-1.811 4.045-4.045v-17.191c0-3.542-2.279-6.545-5.449-7.64z" fill="#ffa91a"/></g></g><g><g><g><g><path d="m87.81 83.699-1.063-.683c-.029.104-.037.208-.075.312l-.159.432c-.291.79-.826 1.414-1.481 1.841l1.683 1.081z" fill="#2266d3"/><g><path d="m81.68 85.992-3.717-1.369c-1.62-.597-2.627-2.22-2.441-3.936l.108-.999c.134-1.242 1.252-2.139 2.493-2.001l5.43.601c2.43.269 3.962 2.747 3.118 5.041l-.159.432c-.718 1.95-2.881 2.949-4.832 2.231z" fill="#377de2"/></g></g><g><path d="m169.286 86.682 1.683-1.081c-.655-.427-1.19-1.05-1.481-1.841l-.159-.432c-.038-.103-.047-.208-.075-.312l-1.063.683z" fill="#2266d3"/><g><path d="m174.32 85.992 3.717-1.369c1.62-.597 2.627-2.22 2.441-3.936l-.108-.999c-.134-1.242-1.252-2.139-2.493-2.001l-5.43.601c-2.43.269-3.962 2.747-3.118 5.041l.159.432c.718 1.95 2.881 2.949 4.832 2.231z" fill="#377de2"/></g></g></g><g fill="#414042"><path d="m89.355 128.139c-3.009 0-5.7-1.335-7.533-3.437v8.572c0 1.876 1.521 3.397 3.397 3.397h10.19c1.876 0 3.397-1.521 3.397-3.397v-5.134z"/><path d="m166.645 128.138h-9.451v5.135c0 1.876 1.521 3.397 3.397 3.397h10.19c1.876 0 3.397-1.521 3.397-3.397v-8.572c-1.833 2.102-4.524 3.437-7.533 3.437z"/></g><g><path d="m89.355 128.139 77.29-.001c5.523 0 10-4.477 10-10v-16.017c0-2.403-.703-4.754-2.023-6.763l-4.871-7.413h-83.501l-4.871 7.413c-1.32 2.009-2.023 4.36-2.023 6.763v16.018c-.001 5.523 4.476 10 9.999 10z" fill="#377de2"/></g><g><path d="m176.645 102.121c0-2.404-.703-4.754-2.023-6.763l-4.871-7.413h-1.714l1.586 2.413c1.32 2.009 2.023 4.36 2.023 6.763v16.017c0 5.523-4.477 10-10 10l-77.29.001c-1.466 0-2.855-.323-4.11-.89 1.569 3.471 5.053 5.891 9.11 5.89l77.29-.001c5.523 0 10-4.477 10-10z" fill="#2266d3"/></g><g><path d="m141.535 114.639h-27.07c-1.398 0-2.621-.942-2.977-2.294l-1.455-5.519c-.515-1.953.958-3.864 2.977-3.864h29.98c2.019 0 3.492 1.911 2.977 3.864l-1.455 5.519c-.356 1.352-1.579 2.294-2.977 2.294z" fill="#414042"/></g><g><path d="m168.702 91.563-1.678-2.989c-.218-.388-.629-.629-1.074-.629h-75.901c-.445 0-.856.24-1.074.629l-1.678 2.989c-.933 1.663-.146 3.765 1.649 4.407l12.803 4.572c.665.237 1.365.359 2.071.359h48.359c.706 0 1.406-.121 2.071-.359l12.803-4.572c1.796-.642 2.583-2.745 1.649-4.407z" fill="#2266d3"/></g><g><g><path d="m153.052 105.538c2.427-2.396 7.967-6.224 18.702-6.412.519-.009.99.317 1.172.803.673 1.798 1.763 6.054-2.423 7.217-3.968 1.102-12.513.733-16.666.469-1.047-.068-1.532-1.339-.785-2.077z" fill="#fff"/></g><g><path d="m172.927 99.928c-.182-.486-.653-.812-1.172-.803-.356.006-.691.027-1.036.041.327 1.97.046 4.398-2.961 5.233-3.277.91-9.669.817-14.137.608-.204.182-.396.361-.568.531-.747.738-.263 2.01.785 2.076 4.153.264 12.698.633 16.666-.469 4.186-1.163 3.096-5.419 2.423-7.217z" fill="#f1f2f2"/></g><g><path d="m102.948 105.538c-2.427-2.396-7.967-6.224-18.702-6.412-.519-.009-.99.317-1.172.803-.673 1.798-1.763 6.054 2.423 7.217 3.968 1.102 12.513.733 16.666.469 1.047-.068 1.532-1.339.785-2.077z" fill="#fff"/></g><g><path d="m102.948 105.538c-.599-.591-1.389-1.27-2.398-1.959.034.623-.409 1.243-1.133 1.289-4.153.264-12.698.633-16.666-.469-.068-.019-.123-.045-.188-.065.294 1.217 1.115 2.306 2.934 2.811 3.968 1.102 12.513.733 16.666.469 1.047-.066 1.532-1.338.785-2.076z" fill="#f1f2f2"/></g></g><g><path d="m152.436 59.815h-48.871c-4.193 0-7.941 2.616-9.387 6.551l-7.928 21.579h83.501l-7.928-21.578c-1.447-3.936-5.194-6.552-9.387-6.552z" fill="#377de2"/></g><g><path d="m91.37 81.603 5.108-13.665c.73-1.954 2.597-3.249 4.684-3.249h53.678c2.086 0 3.953 1.295 4.684 3.25l5.107 13.665c.489 1.307-.478 2.7-1.873 2.7h-69.515c-1.395 0-2.362-1.393-1.873-2.701z" fill="#e6e7e8"/></g><g><path d="m164.63 81.603-5.107-13.665c-.689-1.844-2.393-3.087-4.336-3.223l4.443 11.888c.489 1.307-.478 2.7-1.873 2.7h-65.528l-.86 2.3c-.489 1.307.478 2.7 1.873 2.7h69.513c1.397.001 2.364-1.392 1.875-2.7z" fill="#d1d3d4"/></g></g><g><path d="m157.957 123.209h-59.914c-1.042 0-1.613-1.213-.949-2.016l1.721-2.084c.585-.708 1.455-1.118 2.374-1.118h53.624c.918 0 1.789.41 2.374 1.118l1.721 2.084c.662.803.091 2.016-.951 2.016z" fill="#414042"/></g><g><g><g><circle cx="165.811" cy="120.6" fill="#d1d3d4" r="3.57"/></g><g><circle cx="165.811" cy="120.6" fill="#fff" r="2.173"/></g></g><g><g><circle cx="90.189" cy="120.6" fill="#d1d3d4" r="3.57"/></g><g><circle cx="90.189" cy="120.6" fill="#fff" r="2.173"/></g></g></g></g></g></g></g></svg>