<svg clip-rule="evenodd" fill-rule="evenodd" height="512" image-rendering="optimizeQuality" shape-rendering="geometricPrecision" text-rendering="geometricPrecision" viewBox="0 0 1706.66 1706.66" width="512" xmlns="http://www.w3.org/2000/svg" xmlns:xodm="http://www.corel.com/coreldraw/odm/2003"><g id="Layer_x0020_1"><path d="m1505.38 800.52c-77.5 0-150.18-39.63-192.41-104.15l-919.26-.01c-93.52 142.83-304.95 137.32-390.97-9.91-7.77-13.3 1.86-30.08 17.28-30.08h101.29c102.82.01 102.82-171.3 0-171.29h-101.31c-15.41 0-25.04-16.78-17.28-30.08 85.67-146.95 297.3-152.96 390.97-9.91h919.27c93.35-142.57 304.61-137.56 390.95 9.91 7.8 13.32-1.87 30.08-17.27 30.08h-114.15c-102.82 0-102.82 171.3 0 171.3l114.15-.01c15.39 0 25.06 16.76 17.26 30.09-41.09 70.35-117.15 114.06-198.54 114.06z" fill="#a0a0a0"/><path d="m506.55 1365.72h-477.11c-27.67 0-20-40.1-20-76.68 0-97.75 69.9-181.12 166.21-198.25 29.15-5.17 25.51 51.53 92.35 51.53 66.82 0 63.2-56.69 92.34-51.53 96.32 17.12 166.21 100.5 166.21 198.25 0 36.58 7.67 76.68-20 76.68z" fill="#e15eac"/><path d="m267.42 1081.17c-67.28 0-122.02-54.74-122.02-122.03s54.74-122.02 122.02-122.02 122.02 54.74 122.02 122.02c0 67.29-54.73 122.03-122.02 122.03z" fill="#ffaa83"/><path d="m1091.88 1365.72h-477.09c-27.67 0-20-40.1-20-76.68 0-97.75 69.9-181.12 166.21-198.25 29.16-5.17 25.51 51.53 92.33 51.53 66.84 0 63.17-56.65 92.35-51.53 96.32 17.12 166.22 100.5 166.22 198.25 0 36.56 7.67 76.68-20.02 76.68z" fill="#fa3c48"/><path d="m852.76 1081.17c-67.28 0-122.02-54.74-122.02-122.03s54.73-122.02 122.02-122.02 122.02 54.74 122.02 122.02c0 67.29-54.73 122.03-122.02 122.03z" fill="#ffaa83"/><path d="m1677.21 1365.72h-477.11c-27.67 0-20-40.1-20-76.68 0-97.75 69.9-181.12 166.22-198.25 29.19-5.13 25.53 51.53 92.35 51.53 66.84 0 63.17-56.65 92.35-51.53 96.32 17.12 166.22 100.5 166.22 198.25 0 36.57 7.67 76.68-20.02 76.68z" fill="#4cc949"/><path d="m1438.1 1081.17c-67.29 0-122.02-54.74-122.02-122.03s54.73-122.02 122.02-122.02 122.02 54.74 122.02 122.02c0 67.29-54.74 122.03-122.02 122.03z" fill="#ffaa83"/></g></svg>