<svg id="Layer_3" height="512" viewBox="0 0 64 64" width="512" xmlns="http://www.w3.org/2000/svg" data-name="Layer 3"><path d="m4 57.983v2a2 2 0 0 0 2 2h2a2 2 0 0 0 2-2v-2" fill="#39474d"/><rect fill="#c33e37" height="4" rx="2" width="34" x="2" y="40.983"/><path d="m31.932 44.932-.517-7.949a5.433 5.433 0 0 0 -5.415-4.983h-14a5.433 5.433 0 0 0 -5.415 4.983l-.517 7.949z" fill="#419ade"/><path d="m9.517 36.983-.517 7.949h22.932l-.517-7.949a5.433 5.433 0 0 0 -5.415-4.983h-11.068a5.433 5.433 0 0 0 -5.415 4.983z" fill="#47a7ed"/><path d="m34 53.983v-5a5 5 0 0 0 -5-5h-20a5 5 0 0 0 -5 5v5z" fill="#c33e37"/><rect fill="#485a62" height="4" rx="2" width="34" x="2" y="53.983"/><path d="m34 53.983h-30a2 2 0 0 0 2 2h30a2 2 0 0 0 -2-2z" fill="#596e79"/><path d="m26 32h-14a5.432 5.432 0 0 0 -5.238 4h24.476a5.432 5.432 0 0 0 -5.238-4z" fill="#c33e37"/><path d="m9.693 36h21.545a5.432 5.432 0 0 0 -5.238-4h-11.068a5.434 5.434 0 0 0 -5.239 4z" fill="#e15240"/><path d="m25 46.983a4 4 0 1 1 4-4 4 4 0 0 1 -4 4zm0-6a2 2 0 1 0 2 2 2 2 0 0 0 -2-2z" fill="#3688cb"/><path d="m34 48.983a5 5 0 0 0 -5-5h-20a4.95 4.95 0 0 0 -2.375.625 4.947 4.947 0 0 0 -.625 2.375 5 5 0 0 0 5 5h23z" fill="#e15240"/><path d="m10 48.175a1.808 1.808 0 0 0 -1.1-1.662l-3.11-1.335a4.968 4.968 0 0 0 -1.79 3.805v1h4.192a1.808 1.808 0 0 0 1.808-1.808z" fill="#f2c14e"/><path d="m32.21 45.179-3.11 1.334a1.808 1.808 0 0 0 .712 3.47h4.188v-1a4.965 4.965 0 0 0 -1.79-3.804z" fill="#f8d858"/><path d="m8.9 46.513-2.615-1.122a4.768 4.768 0 0 0 -.285 1.592 4.956 4.956 0 0 0 1.023 3h1.169a1.808 1.808 0 0 0 .712-3.47z" fill="#f8d858"/><path d="m5 58.983a2 2 0 0 0 2 2h2a1.99 1.99 0 0 0 .82-.18 1.99 1.99 0 0 0 .18-.82v-2h-5z" fill="#283237"/><path d="m34 57.983v2a2 2 0 0 1 -2 2h-2a2 2 0 0 1 -2-2v-2" fill="#39474d"/><path d="m33 58.983a2 2 0 0 1 -2 2h-2a1.99 1.99 0 0 1 -.82-.18 1.99 1.99 0 0 1 -.18-.82v-2h5z" fill="#283237"/><path d="m26 53.983-1.106-2.211a3.234 3.234 0 0 0 -2.894-1.789h-6a3.234 3.234 0 0 0 -2.894 1.789l-1.106 2.211" fill="#39474d"/><path d="m26 53.983-1.106-2.211a2.982 2.982 0 0 0 -.171-.29 3.224 3.224 0 0 0 -1.723-.5h-6a3.234 3.234 0 0 0 -2.894 1.789l-.606 1.212z" fill="#485a62"/><path d="m36 36.484v2.516l-9.209 2.3a8.966 8.966 0 0 0 -6.791 8.7v12h42v-12a8.966 8.966 0 0 0 -6.791-8.7l-9.209-2.3v-2.516z" fill="#b3b3b3"/><path d="m55.209 41.3-9.209-2.3v-2.516h-7v2.516l-9.209 2.3a8.966 8.966 0 0 0 -6.791 8.7v12h39v-12a8.966 8.966 0 0 0 -6.791-8.7z" fill="#ccc"/><g fill="#f1ae78"><path d="m46 39-.03.119a5.123 5.123 0 0 1 -4.97 3.881 5.123 5.123 0 0 1 -4.97-3.881l-.03-.119v-4h10z"/><path d="m50 25h1a3 3 0 0 1 3 3 3 3 0 0 1 -3 3h-1.224"/><path d="m32 25h-1a3 3 0 0 0 -3 3 3 3 0 0 0 3 3h1.224"/><path d="m41 38a9 9 0 0 0 9-9v-11a5.55 5.55 0 0 0 -3.8-5.265 14.317 14.317 0 0 0 -4.525-.735h-1.35a14.317 14.317 0 0 0 -4.53.735 5.55 5.55 0 0 0 -3.795 5.265v11a9 9 0 0 0 9 9z"/></g><path d="m42 37.941a9 9 0 0 0 8-8.941v-11a5.55 5.55 0 0 0 -3.8-5.265 14.319 14.319 0 0 0 -4.2-.722 14.319 14.319 0 0 0 -4.2.722 5.55 5.55 0 0 0 -3.8 5.265v11a9 9 0 0 0 8 8.941z" fill="#f9c38c"/><path d="m50 24-1.149 1.723a2.867 2.867 0 0 1 -2.386 1.277 2.875 2.875 0 0 1 -.906-.147l-.662-.221a12.343 12.343 0 0 0 -3.897-.632 12.343 12.343 0 0 0 -3.9.632l-.662.221a2.875 2.875 0 0 1 -.906.147 2.867 2.867 0 0 1 -2.386-1.277l-1.146-1.723v-3h18z" fill="#2e77b8"/><path d="m46.205 12.735a14.317 14.317 0 0 0 -4.53-.735h-1.35a14.317 14.317 0 0 0 -4.53.735 5.55 5.55 0 0 0 -3.795 5.265v6a18.946 18.946 0 0 1 8.472-2h1.056a18.946 18.946 0 0 1 8.472 2v-6a5.55 5.55 0 0 0 -3.795-5.265z" fill="#2e77b8"/><path d="m50 18a5.55 5.55 0 0 0 -3.8-5.265 14.319 14.319 0 0 0 -4.2-.722 14.319 14.319 0 0 0 -4.2.722 5.55 5.55 0 0 0 -3.8 5.265v5.141a18.924 18.924 0 0 1 6.472-1.141h1.056a18.946 18.946 0 0 1 8.472 2z" fill="#3688cb"/><path d="m42.079 12.216-.8-.16c-.425.03-.849.075-1.269.142l-.088.018a4.876 4.876 0 0 0 -3.922 4.784v5.55a18.927 18.927 0 0 1 4.472-.55h1.056a18.923 18.923 0 0 1 4.472.539v-5.539a4.876 4.876 0 0 0 -3.921-4.784z" fill="#47a7ed"/><path d="m41 19a2 2 0 1 1 2-2 2 2 0 0 1 -2 2z" fill="#2e77b8"/><path d="m27 62v-7l1.774-14.194 4.226-1.056v11.25h16v-11.25l4.226 1.056 1.774 14.194v7z" fill="#2e77b8"/><path d="m53.226 40.806-4.226-1.056v11.25h-16v-11.25l-2.034.509-1.966 14.741v7h26v-7z" fill="#419ade"/><path d="m32 57h18v2h-18z" fill="#2e77b8"/><path d="m24 12h3a4 4 0 0 0 4-4v-2l-2.42 1.613a2.3 2.3 0 0 1 -1.28.387 2.3 2.3 0 0 1 -2.3-2.3 2.3 2.3 0 0 1 .387-1.277l1.613-2.423h-2a4 4 0 0 0 -4 4v3l-9 9h-3a4 4 0 0 0 -4 4v2l2.42-1.613a2.3 2.3 0 0 1 1.28-.387 2.3 2.3 0 0 1 2.3 2.3 2.3 2.3 0 0 1 -.387 1.277l-1.613 2.423h2a4 4 0 0 0 4-4v-3z" fill="#ccc"/><path d="m28.58 7.613a2.3 2.3 0 0 1 -2.906-.287l-15.348 15.348a2.3 2.3 0 0 1 .674 1.626 2.3 2.3 0 0 1 -.387 1.277l-1.613 2.423h2a4 4 0 0 0 4-4v-3l9-9h3a4 4 0 0 0 4-4v-2z" fill="#b3b3b3"/><path d="m45.97 39.119.03-.119v-1.518a8.947 8.947 0 0 1 -8 .995v.523l.03.119a5.117 5.117 0 0 0 3.97 3.773 5.117 5.117 0 0 0 3.97-3.773z" fill="#f9c38c"/></svg>