<svg id="Capa_1" enable-background="new 0 0 512 512" height="512" viewBox="0 0 512 512" width="512" xmlns="http://www.w3.org/2000/svg"><g><path d="m412.627 144.052h16.388c1.707 0 3.091 1.384 3.091 3.091v104.042c12.367 3.901 23.819 9.88 33.947 17.526v-121.569c0-1.707 1.384-3.091 3.091-3.091h15.721c2.522 0 3.982-2.858 2.504-4.901l-35.807-49.516c-1.228-1.697-3.752-1.708-4.994-.021l-36.43 49.516c-1.502 2.042-.045 4.923 2.489 4.923z" fill="#05e39c"/><path d="m459.182 100.171-7.62-10.538c-1.228-1.697-3.753-1.708-4.994-.021l-36.43 49.516c-1.502 2.041-.044 4.922 2.489 4.922h14.271z" fill="#0ed290"/><g><g><path d="m285.55 358.731c0-57.748 43.657-105.483 99.699-111.954v-128.696l-4.694-1.03h-375.733l-4.822 1.03v308.819c0 5.69 4.612 10.302 10.302 10.302h307.135c-19.722-20.308-31.887-47.994-31.887-78.471z" fill="#fae2c0"/></g><path d="m52.063 426.9v-22.696c-1.744.469-3.568.742-5.46.742-11.598 0-21-9.402-21-21s9.402-21 21-21c1.892 0 3.716.273 5.46.742v-19.188h-15.829c-7.256 0-13.159-5.903-13.159-13.159v-177.025c0-7.256 5.903-13.159 13.159-13.159h15.828v-23.075h-52.062v308.818c0 5.69 4.612 10.302 10.302 10.302h52.063c-5.69-.001-10.302-4.613-10.302-10.302z" fill="#fdd79b"/><g><g><path d="m385.249 118.081h-385.249v-49.014c0-5.69 4.612-10.302 10.302-10.302h364.645c5.69 0 10.302 4.612 10.302 10.302z" fill="#fd5426"/></g><g><path d="m47.864 87.057c-4.143 0-7.5-3.358-7.5-7.5v-20.792h-30.062c-5.69 0-10.302 4.612-10.302 10.302v49.014h52.063v-32.309c-1.198.811-2.643 1.285-4.199 1.285z" fill="#ef4424"/></g><g><path d="m354.674 254.793v-100.477c0-3.125-2.533-5.659-5.659-5.659h-312.781c-3.126 0-5.659 2.534-5.659 5.659v177.026c0 3.125 2.534 5.659 5.659 5.659h251.426c7.29-37.169 32.902-67.85 67.014-82.208z" fill="#fff"/></g><g><path d="m56.554 331.342v-177.026c0-3.125 2.534-5.659 5.659-5.659h-25.979c-3.126 0-5.659 2.534-5.659 5.659v177.026c0 3.125 2.534 5.659 5.659 5.659h25.978c-3.125 0-5.658-2.534-5.658-5.659z" fill="#eef5f6"/></g><path d="m289.37 329.5h-36.58v-30.251h37.666v26.465c4.757-15.503 12.775-29.59 23.248-41.465h-8.248v-33.92h41.718v7.917c4.812-2.456 9.822-4.579 15-6.333v-97.597c0-7.256-5.903-13.159-13.159-13.159h-312.781c-7.256 0-13.159 5.903-13.159 13.159v177.025c0 7.256 5.903 13.159 13.159 13.159h250.18c.648-5.114 1.645-10.12 2.956-15zm16.086-173.343h41.718v30.251h-41.718zm0 45.251h41.718v33.92h-41.718zm-52.666-45.251h37.666v30.251h-37.666zm0 45.251h37.666v33.92h-37.666zm0 48.921h37.666v33.92h-37.666zm-172.997 79.171h-41.718v-30.251h41.718zm0-45.251h-41.718v-33.92h41.718zm0-48.92h-41.718v-33.92h41.718zm0-48.921h-41.718v-30.251h41.718zm52.666 143.092h-37.666v-30.251h37.666zm0-45.251h-37.666v-33.92h37.666zm0-48.92h-37.666v-33.92h37.666zm0-48.921h-37.666v-30.251h37.666zm52.665 143.092h-37.665v-30.251h37.665zm0-45.251h-37.665v-33.92h37.665zm0-48.92h-37.665v-33.92h37.665zm0-48.921h-37.665v-30.251h37.665zm52.666 143.092h-37.666v-30.251h37.666zm0-45.251h-37.666v-33.92h37.666zm0-48.92h-37.666v-33.92h37.666zm0-48.921h-37.666v-30.251h37.666z" fill="#d8aa5e"/><g><g><path d="m47.864 87.057c-4.143 0-7.5-3.358-7.5-7.5v-32.528c0-4.142 3.357-7.5 7.5-7.5s7.5 3.358 7.5 7.5v32.528c0 4.142-3.357 7.5-7.5 7.5z" fill="#537983"/></g><g><path d="m89.225 87.057c-4.143 0-7.5-3.358-7.5-7.5v-32.528c0-4.142 3.357-7.5 7.5-7.5s7.5 3.358 7.5 7.5v32.528c0 4.142-3.358 7.5-7.5 7.5z" fill="#537983"/></g><g><path d="m130.585 87.057c-4.143 0-7.5-3.358-7.5-7.5v-32.528c0-4.142 3.357-7.5 7.5-7.5s7.5 3.358 7.5 7.5v32.528c0 4.142-3.357 7.5-7.5 7.5z" fill="#537983"/></g><g><path d="m171.944 87.057c-4.143 0-7.5-3.358-7.5-7.5v-32.528c0-4.142 3.357-7.5 7.5-7.5s7.5 3.358 7.5 7.5v32.528c0 4.142-3.357 7.5-7.5 7.5z" fill="#537983"/></g><g><path d="m213.305 87.057c-4.143 0-7.5-3.358-7.5-7.5v-32.528c0-4.142 3.357-7.5 7.5-7.5s7.5 3.358 7.5 7.5v32.528c0 4.142-3.358 7.5-7.5 7.5z" fill="#537983"/></g><g><path d="m254.664 87.057c-4.143 0-7.5-3.358-7.5-7.5v-32.528c0-4.142 3.357-7.5 7.5-7.5s7.5 3.358 7.5 7.5v32.528c0 4.142-3.357 7.5-7.5 7.5z" fill="#537983"/></g><g><path d="m296.024 87.057c-4.143 0-7.5-3.358-7.5-7.5v-32.528c0-4.142 3.357-7.5 7.5-7.5s7.5 3.358 7.5 7.5v32.528c0 4.142-3.357 7.5-7.5 7.5z" fill="#537983"/></g><g><path d="m337.385 87.057c-4.143 0-7.5-3.358-7.5-7.5v-32.528c0-4.142 3.357-7.5 7.5-7.5s7.5 3.358 7.5 7.5v32.528c0 4.142-3.358 7.5-7.5 7.5z" fill="#537983"/></g></g><g><g fill="#537983"><path d="m222.683 391.999c-1.09-2.467-1.707-5.187-1.707-8.053 0-2.445.463-4.779 1.27-6.947h-59.242c.807 2.168 1.27 4.502 1.27 6.947 0 2.866-.617 5.586-1.707 8.053z"/><path d="m260.976 383.946c0 2.866-.617 5.586-1.707 8.053h31.262c-1.506-4.868-2.685-9.877-3.524-15h-27.302c.808 2.168 1.271 4.502 1.271 6.947z"/><path d="m125.98 391.999c-1.09-2.467-1.707-5.187-1.707-8.053 0-2.445.463-4.779 1.27-6.947h-60.21c.807 2.168 1.27 4.502 1.27 6.947 0 2.866-.617 5.586-1.707 8.053z"/></g><g><circle cx="46.603" cy="383.946" fill="#01d0fb" r="21"/></g><path d="m42 383.946c0-8.689 5.278-16.144 12.801-19.338-2.519-1.069-5.289-1.662-8.199-1.662-11.598 0-21 9.402-21 21s9.402 21 21 21c2.909 0 5.679-.593 8.199-1.662-7.523-3.194-12.801-10.649-12.801-19.338z" fill="#01c0fa"/><g><g><circle cx="144.273" cy="383.946" fill="#05e39c" r="21"/></g><path d="m139.67 383.946c0-8.689 5.278-16.144 12.801-19.338-2.519-1.069-5.289-1.662-8.199-1.662-11.598 0-21 9.402-21 21s9.402 21 21 21c2.909 0 5.679-.593 8.199-1.662-7.523-3.194-12.801-10.649-12.801-19.338z" fill="#0ed290"/><g><circle cx="240.976" cy="383.946" fill="#01d0fb" r="21"/></g><path d="m236.373 383.946c0-8.689 5.278-16.144 12.801-19.338-2.519-1.069-5.289-1.662-8.199-1.662-11.598 0-21 9.402-21 21s9.402 21 21 21c2.909 0 5.679-.593 8.199-1.662-7.523-3.194-12.801-10.649-12.801-19.338z" fill="#01c0fa"/></g></g><g><g><circle cx="398.26" cy="358.731" fill="#fd5426" r="113.74"/></g><path d="m344.878 430.921c-22.092-16.379-36.438-42.639-36.438-72.19s14.347-55.811 36.439-72.19c17.404-21.165 42.301-35.936 70.637-40.249-5.627-.856-11.389-1.301-17.256-1.301-62.817 0-113.74 50.923-113.74 113.74s50.923 113.74 113.74 113.74c5.866 0 11.628-.445 17.256-1.301-28.337-4.313-53.234-19.084-70.638-40.249z" fill="#ef4424"/><g><circle cx="398.26" cy="358.731" fill="#fff" r="82.32"/></g><g><path d="m355.087 358.731c0-38.647 26.776-71.141 62.746-79.949-6.277-1.537-12.828-2.37-19.573-2.37-45.391 0-82.32 36.928-82.32 82.32 0 45.391 36.928 82.32 82.32 82.32 6.745 0 13.296-.833 19.573-2.37-35.97-8.81-62.746-41.304-62.746-79.951z" fill="#eef5f6"/></g><g><path d="m398.26 448.551c-49.527 0-89.82-40.293-89.82-89.82s40.293-89.82 89.82-89.82c49.526 0 89.819 40.293 89.819 89.82s-40.293 89.82-89.819 89.82zm0-164.64c-41.256 0-74.82 33.564-74.82 74.82s33.564 74.82 74.82 74.82 74.819-33.564 74.819-74.82-33.563-74.82-74.819-74.82z" fill="#d73d24"/></g><g><path d="m442.463 366.231h-44.203c-4.143 0-7.5-3.358-7.5-7.5v-55.959c0-4.142 3.357-7.5 7.5-7.5s7.5 3.358 7.5 7.5v48.459h36.703c4.143 0 7.5 3.358 7.5 7.5s-3.358 7.5-7.5 7.5z" fill="#537983"/></g></g></g></g></g></svg>