<svg id="Layer_1" enable-background="new 0 0 512 512" viewBox="0 0 512 512" xmlns="http://www.w3.org/2000/svg"><g clip-rule="evenodd" fill-rule="evenodd"><path d="m455.71 339.53h29.89v49.68h-29.89z" fill="#20517d"/><path d="m416.14 318.16h27.57v92.42h-27.57z" fill="#20517d"/><path d="m404.13 431.97v-135.2c0-21.17-17.23-38.39-38.39-38.39h-297.05v211.98h297.06c21.15 0 38.38-17.22 38.38-38.39zm-55.54-88.39c1.51 6.78 2.29 13.78 2.29 20.79 0 51.94-42.27 94.2-94.21 94.2-18.5 0-36.39-5.43-51.66-15.46l2.08 13.78c.49 3.28-1.76 6.34-5.02 6.83-.33.05-.61.07-.94.07-2.9 0-5.47-2.13-5.92-5.1l-4.33-28.65c-.49-3.27 1.76-6.33 5.06-6.83l28.63-4.33c3.27-.5 6.33 1.75 6.82 5.03s-1.76 6.34-5.02 6.83l-14.91 2.26c13.35 8.8 29 13.57 45.21 13.57 45.33 0 82.21-36.87 82.21-82.2 0-6.12-.65-12.23-2-18.15-.73-3.23 1.31-6.44 4.53-7.17s6.45 1.3 7.18 4.53zm-76.36-11.93c10.82 14.52 22.01 29.53 23.16 43.68v.48c0 21.35-17.36 38.72-38.71 38.72-21.32 0-38.71-17.37-38.71-38.72 0-.16 0-.32 0-.48 1.23-14.91 13.11-30.62 23.65-44.49 3.8-5 7.35-9.72 10.05-13.88 1.1-1.72 2.98-2.76 5.02-2.76s3.96 1.04 5.06 2.76c2.88 4.52 6.55 9.46 10.48 14.69zm-95.77 50.87c.74 3.23-1.27 6.44-4.49 7.17-.45.1-.9.15-1.35.15-2.74 0-5.23-1.89-5.84-4.68-1.51-6.78-2.29-13.78-2.29-20.79 0-51.94 42.23-94.2 94.17-94.2 18.54 0 36.43 5.43 51.7 15.46l-2.08-13.78c-.49-3.28 1.76-6.33 5.02-6.83 3.27-.49 6.33 1.76 6.82 5.04l4.37 28.65c.49 3.28-1.8 6.33-5.06 6.83l-28.63 4.34c-.33.05-.61.07-.9.07-2.94 0-5.47-2.13-5.92-5.1-.53-3.28 1.72-6.33 5.02-6.83l14.91-2.25c-13.35-8.81-29-13.57-45.25-13.57-45.33 0-82.17 36.88-82.17 82.2.01 6.09.66 12.2 1.97 18.12z" fill="#20517d"/><g fill="#2579bc"><path d="m283.42 376.06c-1.02-10.68-11.52-24.78-20.83-37.23-2.04-2.76-4.04-5.44-5.92-8.06-1.76 2.37-3.59 4.81-5.51 7.33-9.43 12.47-20.17 26.59-21.19 37.96.12 14.62 12.05 26.48 26.71 26.48 14.65-.01 26.57-11.86 26.74-26.48z"/><path d="m27.77 237.82h28.91v253.09h-28.91z"/><path d="m201.17 246.38h111.04c-3.84-16.66-18.74-28.95-36.39-28.95h-38.27c-17.68 0-32.54 12.29-36.38 28.95z"/><path d="m237.55 205.43h38.27c2.45 0 4.9.18 7.27.53v-3.74c0-14.55-11.84-26.39-26.42-26.39-14.54 0-26.38 11.84-26.38 26.39v3.74c2.36-.35 4.77-.53 7.26-.53z"/><path d="m236.29 66.65c1.02 9.85 9.43 17.29 19.6 17.29h1.55c10.17 0 18.62-7.43 19.64-17.29l3.39-33.25c0-.19 0-.2-.12-.34s-.16-.15-.33-.15h-46.68c-.2 0-.2 0-.33.15-.12.14-.12.15-.12.34z"/><path d="m250.66 95.62v68.58c1.96-.31 3.96-.47 6-.47s4.05.16 6 .47v-68.58c-1.71.28-3.45.42-5.23.42h-1.55c-1.77 0-3.51-.14-5.22-.42z"/></g></g></svg>