<svg id="Layer_1" enable-background="new 0 0 256 256" height="512" viewBox="0 0 256 256" width="512" xmlns="http://www.w3.org/2000/svg"><g><g><path d="m231.333 226.021h-206.666c-11.046 0-20-8.954-20-20v-156.042c0-11.046 8.954-20 20-20h206.667c11.046 0 20 8.954 20 20v156.042c-.001 11.046-8.955 20-20.001 20z" fill="#58595b"/></g><g><path d="m242.746 33.567c2.256 3.238 3.588 7.167 3.588 11.412v156.042c0 11.046-8.954 20-20 20h-206.667c-4.245 0-8.175-1.332-11.412-3.588 3.614 5.187 9.612 8.588 16.412 8.588h206.667c11.046 0 20-8.954 20-20v-156.042c-.001-6.801-3.402-12.799-8.588-16.412z" fill="#414042"/></g><g><path d="m221.333 206.021h-186.666c-5.523 0-10-4.477-10-10v-136.042c0-5.523 4.477-10 10-10h186.667c5.523 0 10 4.477 10 10v136.042c-.001 5.523-4.478 10-10.001 10z" fill="#f1f2f2"/></g><g><path d="m30.667 160c-1.104 0-2-.896-2-2v-54c0-1.104.896-2 2-2s2 .896 2 2v54c0 1.104-.896 2-2 2zm0-62c-1.104 0-2-.896-2-2v-.586c0-1.104.896-2 2-2s2 .896 2 2v.586c0 1.104-.896 2-2 2z" fill="#fff"/></g><g><path d="m221.333 49.979v136.042c0 5.523-4.477 10-10 10h-186.666c0 5.523 4.477 10 10 10h186.667c5.523 0 10-4.477 10-10v-136.042c-.001-5.523-4.478-10-10.001-10z" fill="#e6e7e8"/></g><g><path d="m225.443 50.869c.567 1.255.89 2.643.89 4.109v136.042c0 5.523-4.477 10-10 10h-186.666c-1.467 0-2.855-.323-4.11-.89 1.569 3.471 5.053 5.89 9.11 5.89h186.667c5.523 0 10-4.477 10-10v-136.041c-.001-4.057-2.42-7.541-5.891-9.11z" fill="#d1d3d4"/></g><g><g><g><g><path d="m209.605 81.599-5.162-3.176-8.092-11.639c-1.984-2.854-5.239-4.555-8.715-4.555h-39.425c-1.465 0-2.653 1.188-2.653 2.653v29.61c0 1.465 1.188 2.653 2.653 2.653h60.634c1.465 0 2.653-1.188 2.653-2.653v-9.503c.001-1.382-.716-2.665-1.893-3.39z" fill="#2266d3"/></g></g><g><g><g><g><path d="m149.884 76.513h48.076c.428 0 .68-.481.436-.833l-5.543-7.985c-.992-1.429-2.62-2.281-4.359-2.281h-38.609c-.733 0-1.327.594-1.327 1.327v8.445c0 .733.594 1.327 1.326 1.327z" fill="#414042"/></g></g></g><g><g><path d="m197.83 77.382c-.528 0-.955-.428-.955-.955v-2.133c0-.528.428-.955.955-.955.528 0 .955.428.955.955v2.133c0 .527-.428.955-.955.955z" fill="#58595b"/></g></g><g><g><g><path d="m151.211 75.186h44.071c.433 0 .684-.491.43-.842l-4.709-6.506c-.499-.689-1.298-1.098-2.149-1.098h-37.643c-.733 0-1.327.594-1.327 1.327v5.792c0 .733.594 1.327 1.327 1.327z" fill="#d1d3d4"/></g></g></g><g><g><path d="m178.219 66.741h1.327v8.445h-1.327z" fill="#414042"/></g></g><g><g><path d="m161.768 66.741h1.327v8.445h-1.327z" fill="#414042"/></g></g></g><g><g><path d="m145.558 94.492c0 1.465 1.188 2.653 2.653 2.653h60.634c1.465 0 2.653-1.188 2.653-2.653v-3.184h-65.941v3.184z" fill="#5e9cf7"/></g></g><g><g><path d="m178.617 76.513h.531v20.633h-.531z" fill="#377de2"/></g></g><g><g><path d="m189.674 96.097c0-3.765 2.215-7.219 5.643-8.799.578-.266.951-.838.951-1.457v-9.328h-.531v9.328c0 .412-.252.795-.642.975-3.616 1.667-5.952 5.31-5.952 9.281 0 .339.02.683.059 1.048h.533c-.041-.368-.061-.71-.061-1.048z" fill="#377de2"/></g></g><g><g><path d="m168.637 95.992c0-3.749-2.055-7.191-5.362-8.985-.356-.193-.578-.555-.578-.945v-9.55h-.531v9.55c0 .584.328 1.125.855 1.411 3.136 1.7 5.085 4.964 5.085 8.518 0 .37-.024.757-.072 1.151l.016.002h.517c.045-.392.07-.78.07-1.152z" fill="#377de2"/></g></g><g><g><path d="m166.381 95.774c0-4.389-3.571-7.96-7.96-7.96-4.39 0-7.961 3.571-7.961 7.96 0 .468.043.925.121 1.371h15.679c.078-.445.121-.903.121-1.371z" fill="#58595b"/></g></g><g><g><path d="m199.359 87.814c-4.39 0-7.961 3.571-7.961 7.96 0 .468.043.925.121 1.371h15.679c.078-.446.121-.904.121-1.371 0-4.389-3.571-7.96-7.96-7.96z" fill="#58595b"/></g></g><g><g><path d="m211.499 89.111v-3.276h-2.319c-.505 0-.914.409-.914.914v1.449c0 .505.409.914.914.914h2.319z" fill="#ffa91a"/></g></g><g><g><path d="m209.063 88.197v-1.449c0-.505.409-.914.914-.914h-.796c-.505 0-.914.409-.914.914v1.449c0 .505.409.914.914.914h.796c-.505 0-.914-.409-.914-.914z" fill="#ffc91d"/></g></g><g><g><path d="m145.558 89.111v-7.256h1.523c.505 0 .914.409.914.914v5.429c0 .505-.409.914-.914.914h-1.523z" fill="#d10028"/></g></g><g><g><path d="m147.081 81.855h-.531c.505 0 .914.409.914.914v5.429c0 .505-.409.914-.914.914h.531c.505 0 .914-.409.914-.914v-5.429c0-.505-.409-.914-.914-.914z" fill="#b7022d"/></g></g><g id="XMLID_14_"><g><path d="m182.724 79.226h-2.074c-.293 0-.531-.238-.531-.531s.238-.531.531-.531h2.074c.293 0 .531.238.531.531s-.238.531-.531.531z" fill="#414042"/></g></g><g id="XMLID_13_"><g><path d="m166.273 79.226h-2.074c-.293 0-.531-.238-.531-.531s.238-.531.531-.531h2.074c.293 0 .531.238.531.531-.001.293-.238.531-.531.531z" fill="#414042"/></g></g><g><g><g><path d="m199.359 102.228c3.559 0 6.454-2.895 6.454-6.454s-2.895-6.454-6.454-6.454-6.454 2.895-6.454 6.454 2.895 6.454 6.454 6.454z" fill="#414042"/></g></g><g><g><path d="m199.359 99.13c1.851 0 3.356-1.506 3.356-3.356s-1.505-3.356-3.356-3.356-3.356 1.506-3.356 3.356 1.505 3.356 3.356 3.356z" fill="#58595b"/></g></g><g><g><path d="m199.359 98.614c1.566 0 2.84-1.274 2.84-2.84s-1.274-2.84-2.84-2.84-2.84 1.274-2.84 2.84 1.274 2.84 2.84 2.84z" fill="#d1d3d4"/></g></g><g><g><path d="m199.359 97.323c.854 0 1.549-.695 1.549-1.549s-.695-1.549-1.549-1.549-1.549.695-1.549 1.549.694 1.549 1.549 1.549z" fill="#f1f2f2"/></g></g></g><g><g><g><path d="m158.421 102.228c3.559 0 6.454-2.895 6.454-6.454s-2.895-6.454-6.454-6.454-6.454 2.895-6.454 6.454 2.895 6.454 6.454 6.454z" fill="#414042"/></g></g><g><g><path d="m158.421 99.13c1.851 0 3.356-1.506 3.356-3.356s-1.505-3.356-3.356-3.356-3.356 1.506-3.356 3.356 1.505 3.356 3.356 3.356z" fill="#58595b"/></g></g><g><g><path d="m158.421 98.614c1.566 0 2.84-1.274 2.84-2.84s-1.274-2.84-2.84-2.84-2.84 1.274-2.84 2.84 1.274 2.84 2.84 2.84z" fill="#d1d3d4"/></g></g><g><g><path d="m158.421 97.323c.854 0 1.549-.695 1.549-1.549s-.695-1.549-1.549-1.549-1.549.695-1.549 1.549.695 1.549 1.549 1.549z" fill="#f1f2f2"/></g></g></g></g><g><g><path d="m214.509 111.771h-71.96c-1.104 0-2-.896-2-2s.896-2 2-2h71.96c1.104 0 2 .896 2 2s-.896 2-2 2z" fill="#939598"/></g><g><path d="m214.509 121.771h-71.96c-1.104 0-2-.896-2-2s.896-2 2-2h71.96c1.104 0 2 .896 2 2s-.896 2-2 2z" fill="#939598"/></g></g><g><g><g><g><path d="m214.942 169.623h-72.82c-1.866 0-3.379-1.513-3.379-3.379v-14.429c0-1.005.224-1.998.656-2.906l4.267-8.961c1.121-2.354 3.495-3.853 6.102-3.853h33.834c1.684 0 3.307.629 4.552 1.763l13.514 12.315c.061.074.146.124.24.143l12.357 2.522c2.36.482 4.055 2.558 4.055 4.966v8.438c.002 1.868-1.511 3.381-3.378 3.381z" fill="#995222"/></g></g><g><g><g><path d="m138.736 160.404v-7.551h1.939c.643 0 1.163.521 1.163 1.163v5.224c0 .643-.521 1.163-1.163 1.163h-1.939z" fill="#d10028"/></g></g><g><g><path d="m140.675 152.853h-.676c.643 0 1.163.521 1.163 1.163v5.224c0 .643-.521 1.163-1.163 1.163h.676c.643 0 1.163-.521 1.163-1.163v-5.224c.001-.642-.52-1.163-1.163-1.163z" fill="#b7022d"/></g></g></g><g><g><path d="m138.743 166.244c0 1.866 1.513 3.379 3.379 3.379h72.82c1.866 0 3.379-1.513 3.379-3.379v-1.69h-79.578z" fill="#8c3f0a"/></g></g><g><g><path d="m165.005 167.877c0-5.59-4.547-10.137-10.137-10.137s-10.138 4.547-10.138 10.137c0 .596.055 1.179.154 1.746h19.967c.1-.568.154-1.151.154-1.746z" fill="#58595b"/></g></g><g><g><g><path d="m154.868 176.096c4.532 0 8.219-3.687 8.219-8.219s-3.687-8.219-8.219-8.219-8.22 3.687-8.22 8.219c.001 4.532 3.688 8.219 8.22 8.219z" fill="#414042"/></g></g><g><g><path d="m154.868 172.151c2.357 0 4.274-1.917 4.274-4.274s-1.917-4.274-4.274-4.274-4.274 1.917-4.274 4.274c0 2.356 1.917 4.274 4.274 4.274z" fill="#58595b"/></g></g><g><g><path d="m154.868 171.493c1.994 0 3.616-1.622 3.616-3.617 0-1.994-1.622-3.617-3.616-3.617s-3.617 1.622-3.617 3.617c.001 1.995 1.623 3.617 3.617 3.617z" fill="#d1d3d4"/></g></g><g><g><path d="m154.868 169.849c1.088 0 1.973-.885 1.973-1.973s-.885-1.973-1.973-1.973-1.973.885-1.973 1.973.885 1.973 1.973 1.973z" fill="#f1f2f2"/></g></g></g><g><g><path d="m213.665 167.877c0-5.59-4.547-10.137-10.137-10.137s-10.138 4.547-10.138 10.137c0 .596.055 1.179.154 1.746h19.967c.099-.568.154-1.151.154-1.746z" fill="#58595b"/></g></g><g><g><g><path d="m203.528 176.096c4.532 0 8.219-3.687 8.219-8.219s-3.687-8.219-8.219-8.219-8.22 3.687-8.22 8.219 3.687 8.219 8.22 8.219z" fill="#414042"/></g></g><g><g><path d="m203.527 172.151c2.357 0 4.274-1.917 4.274-4.274s-1.917-4.274-4.274-4.274-4.274 1.917-4.274 4.274c0 2.356 1.918 4.274 4.274 4.274z" fill="#58595b"/></g></g><g><g><path d="m203.527 171.493c1.994 0 3.616-1.622 3.616-3.617 0-1.994-1.622-3.617-3.616-3.617s-3.617 1.622-3.617 3.617c.001 1.995 1.623 3.617 3.617 3.617z" fill="#d1d3d4"/></g></g><g><g><path d="m203.527 169.849c1.088 0 1.973-.885 1.973-1.973s-.885-1.973-1.973-1.973-1.973.885-1.973 1.973c.001 1.088.886 1.973 1.973 1.973z" fill="#f1f2f2"/></g></g></g><g id="XMLID_16_"><g><path d="m179.148 154.222h-2.641c-.373 0-.676-.303-.676-.676s.303-.676.676-.676h2.641c.373 0 .676.303.676.676s-.303.676-.676.676z" fill="#939598"/></g></g><g id="XMLID_15_"><g><path d="m157.184 154.222h-2.641c-.373 0-.676-.303-.676-.676s.303-.676.676-.676h2.641c.373 0 .676.303.676.676s-.303.676-.676.676z" fill="#939598"/></g></g><g><g><g><path d="m218.322 162.432v-4.172h-2.953c-.643 0-1.163.521-1.163 1.163v1.845c0 .643.521 1.163 1.163 1.163h2.953z" fill="#ffa91a"/></g></g><g><g><path d="m215.219 161.268v-1.845c0-.643.521-1.163 1.163-1.163h-1.014c-.643 0-1.163.521-1.163 1.163v1.845c0 .643.521 1.163 1.163 1.163h1.014c-.642.001-1.163-.52-1.163-1.163z" fill="#ffc91d"/></g></g></g><g><g><g><path d="m173.944 150.964h.676v18.659h-.676z" fill="#7c3108"/></g></g></g><path d="m154.868 156.387h-.152-.001c-.564 0-1.074-.356-1.268-.886l-1.667-4.538h-.72l1.753 4.771c.292.795 1.057 1.328 1.903 1.328h.001.152c5.962 0 10.813 4.851 10.813 10.813 0 .563-.045 1.185-.134 1.746h.667c.094-.596.142-1.148.142-1.746 0-6.333-5.154-11.488-11.489-11.488z" fill="#7c3108"/><g><g><g><path d="m195.951 149.023-10.294-9.283c-.31-.28-.714-.435-1.131-.435h-35.646c-.644 0-1.232.366-1.516.944l-4.368 8.876c-.111.225.053.487.303.487h52.425c.31 0 .457-.381.227-.589z" fill="#d1d3d4"/></g></g><g><g><path d="m184.526 139.306c.418 0 .821.155 1.132.435l10.294 9.283c.23.207.083.589-.226.589h-52.425c-.25 0-.414-.263-.303-.487l4.368-8.876c.284-.578.872-.944 1.516-.944zm0-1.352h-35.646c-1.168 0-2.213.651-2.729 1.698l-4.368 8.876c-.259.527-.229 1.14.082 1.639s.847.797 1.434.797h52.425c.705 0 1.324-.425 1.577-1.083s.078-1.389-.446-1.861l-10.294-9.283c-.558-.505-1.281-.783-2.035-.783z" fill="#6d2e03"/></g></g><g><g><path d="m192.589 148.396c0-.672.545-1.217 1.217-1.217h2.716c.672 0 1.217.545 1.217 1.217 0 .672-.545 1.217-1.217 1.217h-2.716c-.673-.001-1.217-.545-1.217-1.217z" fill="#939598"/></g></g><g><g><path d="m173.531 139.306h1.502v10.306h-1.502z" fill="#6d2e03"/></g></g><g><g><path d="m150.553 139.306h1.502v10.306h-1.502z" fill="#6d2e03"/></g></g></g><g><g><g><path d="m192.18 169.623c-.094-.596-.142-1.149-.142-1.746 0-2.565.832-4.993 2.406-7.023.172-.222.267-.509.267-.805v-9.084h.676v9.084c0 .446-.145.879-.409 1.219-1.481 1.911-2.264 4.196-2.264 6.609 0 .562.045 1.185.133 1.746z" fill="#7c3108"/></g></g></g></g><g><g><path d="m214.509 185.771h-71.96c-1.104 0-2-.896-2-2s.896-2 2-2h71.96c1.104 0 2 .896 2 2s-.896 2-2 2z" fill="#939598"/></g><g><path d="m214.509 195.771h-71.96c-1.104 0-2-.896-2-2s.896-2 2-2h71.96c1.104 0 2 .896 2 2s-.896 2-2 2z" fill="#939598"/></g></g></g></g><g><g><g><g><path d="m114.942 95.755h-72.82c-1.866 0-3.379-1.513-3.379-3.379v-12.576c0-1.866 1.513-3.379 3.379-3.379h4.417l8.265-11.999c.946-1.373 2.507-2.193 4.174-2.193h24.624c1.684 0 3.307.629 4.552 1.763l13.514 12.315c.061.074.146.124.24.143l12.357 2.522c2.36.482 4.055 2.558 4.055 4.966v8.438c.002 1.867-1.511 3.379-3.378 3.379z" fill="#d10028"/></g></g><g><g><path d="m38.743 92.376c0 1.866 1.513 3.379 3.379 3.379h72.82c1.866 0 3.379-1.513 3.379-3.379v-1.69h-79.578z" fill="#b7022d"/></g></g><g><g><path d="m65.005 94.009c0-5.59-4.547-10.137-10.137-10.137s-10.138 4.547-10.138 10.137c0 .596.055 1.179.154 1.746h19.967c.1-.567.154-1.15.154-1.746z" fill="#58595b"/></g></g><g><g><g><path d="m54.868 102.228c4.532 0 8.219-3.687 8.219-8.219s-3.687-8.219-8.219-8.219-8.22 3.687-8.22 8.219c.001 4.532 3.688 8.219 8.22 8.219z" fill="#414042"/></g></g><g><g><path d="m54.868 98.283c2.357 0 4.274-1.917 4.274-4.274s-1.917-4.274-4.274-4.274-4.274 1.917-4.274 4.274 1.917 4.274 4.274 4.274z" fill="#58595b"/></g></g><g><g><path d="m54.868 97.626c1.994 0 3.616-1.622 3.616-3.617 0-1.994-1.622-3.617-3.616-3.617s-3.617 1.622-3.617 3.617c.001 1.994 1.623 3.617 3.617 3.617z" fill="#d1d3d4"/></g></g><g><g><path d="m54.868 95.982c1.088 0 1.973-.885 1.973-1.973s-.885-1.973-1.973-1.973-1.973.885-1.973 1.973.885 1.973 1.973 1.973z" fill="#f1f2f2"/></g></g></g><g><g><path d="m113.665 94.009c0-5.59-4.547-10.137-10.137-10.137s-10.138 4.547-10.138 10.137c0 .596.055 1.179.154 1.746h19.967c.099-.567.154-1.15.154-1.746z" fill="#58595b"/></g></g><g><g><g><path d="m103.528 102.228c4.532 0 8.219-3.687 8.219-8.219s-3.687-8.219-8.219-8.219-8.22 3.687-8.22 8.219 3.687 8.219 8.22 8.219z" fill="#414042"/></g></g><g><g><path d="m103.527 98.283c2.357 0 4.274-1.917 4.274-4.274s-1.917-4.274-4.274-4.274-4.274 1.917-4.274 4.274 1.918 4.274 4.274 4.274z" fill="#58595b"/></g></g><g><g><path d="m103.527 97.626c1.994 0 3.616-1.622 3.616-3.617 0-1.994-1.622-3.617-3.616-3.617s-3.617 1.622-3.617 3.617c.001 1.994 1.623 3.617 3.617 3.617z" fill="#d1d3d4"/></g></g><g><g><path d="m103.527 95.982c1.088 0 1.973-.885 1.973-1.973s-.885-1.973-1.973-1.973-1.973.885-1.973 1.973c.001 1.088.886 1.973 1.973 1.973z" fill="#f1f2f2"/></g></g></g><g id="XMLID_19_"><g><path d="m79.148 80.354h-2.641c-.373 0-.676-.303-.676-.676s.303-.676.676-.676h2.641c.373 0 .676.303.676.676s-.303.676-.676.676z" fill="#414042"/></g></g><g id="XMLID_18_"><g><path d="m57.184 80.354h-2.641c-.373 0-.676-.303-.676-.676s.303-.676.676-.676h2.641c.373 0 .676.303.676.676s-.303.676-.676.676z" fill="#414042"/></g></g><g><g><path d="m44.497 79.876c.595-.348.348-1.259-.341-1.259h-5.196c-.138.369-.217.766-.217 1.183v3.444z" fill="#ffa91a"/></g></g><g><g><path d="m44.156 78.617h-1.014c.689 0 .936.911.341 1.259l-4.74 2.774v.593l5.754-3.368c.595-.347.348-1.258-.341-1.258z" fill="#ffc91d"/></g></g><g><g><g><path d="m118.322 88.564v-4.172h-2.953c-.643 0-1.163.521-1.163 1.163v1.845c0 .643.521 1.163 1.163 1.163h2.953z" fill="#ffa91a"/></g></g><g><g><path d="m115.219 87.401v-1.845c0-.643.521-1.163 1.163-1.163h-1.014c-.643 0-1.163.521-1.163 1.163v1.845c0 .643.521 1.163 1.163 1.163h1.014c-.642 0-1.163-.521-1.163-1.163z" fill="#ffc91d"/></g></g></g><g><path d="m73.944 77.096h.676v13.59h-.676z" fill="#e63950"/></g><path d="m54.868 82.52h-.152-.001c-.565 0-1.074-.356-1.269-.885l-1.667-4.538h-.27c-.164 0-.323-.026-.476-.071l1.779 4.842c.292.794 1.057 1.328 1.903 1.328h.001.152c4.803 0 8.883 3.149 10.289 7.491h.708c-1.428-4.72-5.817-8.167-10.997-8.167z" fill="#e63950"/><g><g><g><path d="m95.951 75.156-10.294-9.283c-.31-.28-.714-.435-1.131-.435h-25.673c-.556 0-1.076.273-1.391.731l-6.231 9.046c-.154.224.006.53.278.53h44.215c.31 0 .457-.382.227-.589z" fill="#d1d3d4"/></g></g><g><g><path d="m84.526 65.439c.418 0 .821.155 1.132.435l10.294 9.283c.23.207.083.589-.226.589h-44.217c-.272 0-.433-.305-.278-.53l6.231-9.046c.315-.458.836-.731 1.391-.731zm0-1.352h-25.673c-1.001 0-1.937.492-2.505 1.316l-6.231 9.046c-.357.519-.397 1.187-.104 1.744s.866.904 1.496.904h44.215c.705 0 1.324-.425 1.577-1.083s.078-1.389-.446-1.861l-10.292-9.283c-.56-.505-1.283-.783-2.037-.783z" fill="#414042"/></g></g><g><g><path d="m92.589 74.528c0-.672.545-1.217 1.217-1.217h2.716c.672 0 1.217.545 1.217 1.217 0 .672-.545 1.217-1.217 1.217h-2.716c-.673 0-1.217-.545-1.217-1.217z" fill="#58595b"/></g></g><g><g><path d="m73.531 65.439h1.502v10.306h-1.502z" fill="#414042"/></g></g></g><g><g><path d="m93.24 90.687c.38-1.175.96-2.283 1.738-3.287.264-.34.409-.773.409-1.219v-9.084h-.676v9.084c0 .297-.095.583-.267.805-.873 1.126-1.517 2.375-1.918 3.701z" fill="#e63950"/></g></g></g><g><g><path d="m114.509 111.771h-71.96c-1.104 0-2-.896-2-2s.896-2 2-2h71.96c1.104 0 2 .896 2 2s-.896 2-2 2z" fill="#939598"/></g><g><path d="m114.509 121.771h-71.96c-1.104 0-2-.896-2-2s.896-2 2-2h71.96c1.104 0 2 .896 2 2s-.896 2-2 2z" fill="#939598"/></g></g><g><g><g><g><path d="m99.923 150.38-3.744-2.07-5.952-7.958c-2.004-2.679-5.154-4.257-8.499-4.257h-24.798c-2.931 0-5.307 2.376-5.307 5.307v26.957c0 1.465 1.188 2.653 2.653 2.653h47.102c1.465 0 2.653-1.188 2.653-2.653v-11.013c.001-2.896-1.573-5.564-4.108-6.966z" fill="#76a34f"/></g></g><g><g><path d="m103.215 153.84h-3.734c-.516 0-.729.663-.308.963l4.858 3.467v-.923c.001-1.238-.289-2.433-.816-3.507z" fill="#ffc91d"/></g></g><g><g><path d="m100.5 154.803c-.42-.3-.208-.963.308-.963h-1.327c-.516 0-.729.663-.308.963l4.858 3.467v-.947z" fill="#ffa91a"/></g></g><g><g><g><g><path d="m58.072 150.38h34.013c.428 0 .68-.481.436-.833l-5.543-7.985c-.992-1.429-2.62-2.281-4.359-2.281h-24.547c-.733 0-1.327.594-1.327 1.327v8.445c0 .733.594 1.327 1.327 1.327z" fill="#414042"/></g></g></g><g><g><path d="m91.954 151.25c-.528 0-.955-.428-.955-.955v-2.133c0-.528.428-.955.955-.955.528 0 .955.428.955.955v2.133c0 .527-.428.955-.955.955z" fill="#58595b"/></g></g><g><g><g><path d="m59.398 149.054h30.008c.433 0 .684-.491.43-.842l-4.709-6.506c-.499-.689-1.298-1.098-2.149-1.098h-23.58c-.733 0-1.327.594-1.327 1.327v5.792c.001.733.595 1.327 1.327 1.327z" fill="#d1d3d4"/></g></g></g><g><g><path d="m65.71 140.608h1.327v8.445h-1.327z" fill="#414042"/></g></g></g><g><g><path d="m51.623 168.36c0 1.465 1.188 2.653 2.653 2.653h47.102c1.465 0 2.653-1.188 2.653-2.653v-3.184h-52.408z" fill="#648940"/></g></g><g><g><path d="m82.27 171.013c-.043-.388-.064-.721-.064-1.078 0-3.971 2.336-7.614 5.952-9.281.396-.183.642-.556.642-.975v-9.298h.531v9.298c0 .619-.373 1.191-.951 1.457-3.428 1.581-5.643 5.035-5.643 8.799 0 .338.02.71.061 1.078z" fill="#91b56b"/></g></g><g><g><path d="m73.081 171.013h-.528c.041-.368.061-.741.061-1.078 0-3.765-2.215-7.219-5.643-8.799-.578-.267-.951-.838-.951-1.457v-9.298h.531v9.298c0 .419.246.792.642.975 3.616 1.667 5.952 5.31 5.952 9.281 0 .357-.021.69-.064 1.078z" fill="#91b56b"/></g></g><g><g><path d="m70.854 169.642c0-4.389-3.571-7.96-7.96-7.96-4.39 0-7.961 3.571-7.961 7.96 0 .468.043.925.121 1.371h15.679c.078-.446.121-.904.121-1.371z" fill="#58595b"/></g></g><g><g><path d="m92.422 161.681c-4.39 0-7.961 3.571-7.961 7.96 0 .468.043.925.121 1.371h15.679c.078-.446.121-.904.121-1.371 0-4.389-3.571-7.96-7.96-7.96z" fill="#58595b"/></g></g><g><g><path d="m51.623 158.467v-7.256h1.523c.505 0 .914.409.914.914v5.429c0 .505-.409.914-.914.914h-1.523z" fill="#d10028"/></g></g><g><g><path d="m53.146 151.211h-.531c.505 0 .914.409.914.914v5.429c0 .505-.409.914-.914.914h.531c.505 0 .914-.409.914-.914v-5.429c-.001-.505-.41-.914-.914-.914z" fill="#b7022d"/></g></g><g id="XMLID_17_"><g><path d="m69.949 153.093h-2.074c-.293 0-.531-.238-.531-.531s.238-.531.531-.531h2.074c.293 0 .531.238.531.531s-.238.531-.531.531z" fill="#414042"/></g></g><g><g><g><path d="m92.422 176.096c3.559 0 6.454-2.895 6.454-6.454s-2.895-6.454-6.454-6.454-6.454 2.895-6.454 6.454c-.001 3.559 2.894 6.454 6.454 6.454z" fill="#414042"/></g></g><g><g><path d="m92.422 172.998c1.851 0 3.356-1.506 3.356-3.356s-1.505-3.356-3.356-3.356-3.356 1.506-3.356 3.356 1.505 3.356 3.356 3.356z" fill="#58595b"/></g></g><g><g><path d="m92.421 172.482c1.566 0 2.84-1.274 2.84-2.84s-1.274-2.84-2.84-2.84-2.84 1.274-2.84 2.84c.001 1.566 1.275 2.84 2.84 2.84z" fill="#d1d3d4"/></g></g><g><g><path d="m92.421 171.191c.854 0 1.549-.695 1.549-1.549s-.695-1.549-1.549-1.549-1.549.695-1.549 1.549.695 1.549 1.549 1.549z" fill="#f1f2f2"/></g></g></g><g><g><g><path d="m62.894 176.096c3.559 0 6.454-2.895 6.454-6.454s-2.895-6.454-6.454-6.454-6.454 2.895-6.454 6.454c-.001 3.559 2.894 6.454 6.454 6.454z" fill="#414042"/></g></g><g><g><path d="m62.894 172.998c1.851 0 3.356-1.506 3.356-3.356s-1.505-3.356-3.356-3.356-3.356 1.506-3.356 3.356 1.505 3.356 3.356 3.356z" fill="#58595b"/></g></g><g><g><path d="m62.893 172.482c1.566 0 2.84-1.274 2.84-2.84s-1.274-2.84-2.84-2.84-2.84 1.274-2.84 2.84c.001 1.566 1.275 2.84 2.84 2.84z" fill="#d1d3d4"/></g></g><g><g><path d="m62.893 171.191c.854 0 1.549-.695 1.549-1.549s-.695-1.549-1.549-1.549-1.549.695-1.549 1.549.695 1.549 1.549 1.549z" fill="#f1f2f2"/></g></g></g></g><g><g><path d="m114.509 185.771h-71.96c-1.104 0-2-.896-2-2s.896-2 2-2h71.96c1.104 0 2 .896 2 2s-.896 2-2 2z" fill="#939598"/></g><g><path d="m114.509 195.771h-71.96c-1.104 0-2-.896-2-2s.896-2 2-2h71.96c1.104 0 2 .896 2 2s-.896 2-2 2z" fill="#939598"/></g></g></g></g></g></svg>