<svg id="Layer_1" height="512" viewBox="0 0 512 512" width="512" xmlns="http://www.w3.org/2000/svg" data-name="Layer 1"><path d="m420.835 48.284-37.284-37.284h-167.535v273.233h204.819z" fill="#e9e9ff" fill-rule="evenodd"/><path d="m216.016 11h9.574v273.234h-9.574z" fill="#d3d3f2"/><g fill-rule="evenodd"><g><path d="m318.551 342.4c-.646-11.374-9.643-22.39-29.802-22.923-32.095-.848-43.453-1.828-75.712-5.774-20.601-2.52-37.605 10.265-53.234 23.921-26.404 23.071-41.901 32.972-72.054 50.864l67.525 77.279c33.304-34.892 53.346-38.013 87.068-37.364 31.696.608 35.49 2.949 66.392-10.316l136.556-63.978c34.545-16.184 10.942-49.903-17.061-37.434-33.812 15.05-90.218 32.468-111.323 35.9 1.269-2.941 1.865-6.314 1.645-10.177z" fill="#fdd7ad"/><path d="m318.551 342.4c-.513-9.039-6.301-17.85-18.772-21.356 3.636 4.275 5.529 9.856 5.807 14.736.255 4.394-.939 7.754-3.753 10.557-13.221 13.181-54.797 10.676-74.767 9.465-3.386-.206-6.305-.376-8.744-.477-4.339-.162-7.989 3.221-8.162 7.568-.162 4.339 3.224 8.003 7.568 8.162 2.252.089 5.104.259 8.392.458 33.182 2.007 70.006 2.745 86.83-14.028 1.518-1.519 2.842-3.146 3.955-4.908 1.269-2.941 1.865-6.314 1.645-10.177zm-180.111 104.965 9.64-9.574c31.062-28.962 58.609-28.142 88.437-27.553 26.032.462 37.783 4.792 63.894-6.398l141.364-65.236c10.108-4.735 14.657-11.48 11.857-17.605-.914-1.998-3.034-4.226-5.926-5.966 16.729 5.063 23.419 26.972-2.417 39.076l-136.556 63.978c-30.902 13.265-34.696 10.924-66.392 10.316-33.723-.649-53.764 2.472-87.068 37.364l-16.833-18.403z" fill="#e6b17c"/><path d="m52.612 420.382 66.672 76.303c4.582 5.244 12.623 5.786 17.868 1.203l20.335-17.769c5.244-4.583 5.785-12.623 1.203-17.867l-66.672-76.303c-4.582-5.245-12.623-5.785-17.867-1.204l-20.336 17.768c-5.244 4.582-5.786 12.624-1.204 17.868z" fill="#2a92fa"/><path d="m105.231 480.601 14.053 16.084c4.582 5.244 12.623 5.786 17.868 1.203l20.335-17.769c5.244-4.583 5.785-12.623 1.203-17.867l-16.372-18.737s-37.087 37.086-37.087 37.086z" fill="#0e82f5"/></g><path d="m420.835 48.283h-37.284v-37.283z" fill="#bcbee2"/><path d="m314.258 144.595c-2.761 0-5-2.239-5-5s2.239-5 5-5h81.22c2.761 0 5 2.239 5 5s-2.239 5-5 5zm0 62.021c-2.761 0-5-2.239-5-5s2.239-5 5-5h81.22c2.761 0 5 2.239 5 5s-2.239 5-5 5zm0-31.01c-2.761 0-5-2.239-5-5s2.239-5 5-5h81.22c2.761 0 5 2.239 5 5s-2.239 5-5 5zm0-62.021c-2.761 0-5-2.239-5-5s2.239-5 5-5h81.22c2.761 0 5 2.239 5 5s-2.239 5-5 5zm0-31.011c-2.761 0-5-2.239-5-5s2.239-5 5-5h81.22c2.761 0 5 2.239 5 5s-2.239 5-5 5z" fill="#5d689e"/><path d="m316.524 260.96c-2.448 1.251-5.448.28-6.699-2.168s-.28-5.448 2.168-6.699c17.205-8.791 21.319-7.832 42.296-2.938l.248.058c1.777.414 3.465.6 5.056.594 1.698-.008 3.36-.232 4.962-.63.751-.186 1.48-.411 2.186-.667-.157-.427-.301-.858-.433-1.292-.859-2.829-1.19-5.786-1.092-8.576.271-7.762 3.151-12.569 6.707-14.897.149-.111.306-.216.471-.312 2.006-1.172 4.191-1.607 6.326-1.39 2.116.215 4.122 1.065 5.793 2.465 3.262 2.733 5.327 7.599 4.15 13.742-.812 4.239-3.365 8.791-7.252 12.582 1.168.464 2.545.75 4.156.807 2.36.083 5.164-.31 8.468-1.313 2.632-.798 5.413.688 6.211 3.32s-.688 5.413-3.32 6.211c-4.417 1.341-8.292 1.861-11.671 1.743-5.346-.187-9.51-1.925-12.66-4.574l-.113-.096c-1.738.793-3.59 1.45-5.542 1.935-2.297.57-4.739.892-7.306.903-2.414.011-4.877-.249-7.361-.828l-.248-.058c-18.042-4.209-21.58-5.034-35.499 2.079zm58.912-18.307c1.85-2.074 3.041-4.292 3.421-6.278.41-2.143-.002-3.583-.751-4.211-.144-.121-.27-.189-.364-.199-.075-.007-.181.025-.311.101-.06.035-.121.069-.183.101-1.061.781-1.937 2.89-2.073 6.788-.042 1.222.038 2.476.26 3.699z" fill="#5d689e"/></g><g><circle cx="215.87" cy="147.617" fill="#3bd97d" r="73" transform="matrix(.999 -.045 .045 .999 -6.467 9.934)"/><path d="m224.569 75.135c36.215 4.301 64.301 35.109 64.301 72.482s-28.086 68.181-64.301 72.482c-36.215-4.301-64.301-35.11-64.301-72.482s28.086-68.181 64.301-72.482z" fill="#4fe88e" fill-rule="evenodd"/></g><path d="m242.641 132.26c0 2.761-2.239 5-5 5s-5-2.239-5-5c0-4.567-1.872-8.722-4.888-11.737-3.015-3.015-7.171-4.887-11.738-4.887-2.131 0-4.144.39-5.973 1.1-1.913.742-3.671 1.846-5.191 3.229-2.209 2.01-3.754 4.522-4.328 7.168-.502 2.312-.252 4.754.972 7.05 2.266 4.251 8.64 6.188 15.184 8.177 6.707 2.037 13.553 4.118 18.581 8.835 5.23 4.907 7.575 11.809 6.013 19.018-1.018 4.694-3.649 9.051-7.375 12.44-2.398 2.182-5.213 3.939-8.316 5.143-1.472.571-2.999 1.016-4.567 1.321v8.498c0 2.761-2.239 5-5 5s-5-2.239-5-5v-8.49c-5.331-1.022-10.109-3.645-13.808-7.343-4.823-4.823-7.817-11.481-7.817-18.807 0-2.761 2.239-5 5-5s5 2.239 5 5c0 4.567 1.872 8.722 4.888 11.737 3.015 3.015 7.171 4.887 11.738 4.887 2.13 0 4.144-.39 5.973-1.1 1.913-.742 3.67-1.846 5.191-3.229 2.21-2.01 3.755-4.522 4.328-7.167.498-2.298.254-4.724-.95-7.008-2.951-5.005-9.952-7.133-16.769-9.204-8.549-2.597-16.875-5.128-21.082-13.02-2.423-4.546-2.927-9.337-1.949-13.847 1.018-4.694 3.649-9.051 7.375-12.441 2.398-2.182 5.213-3.938 8.316-5.143 1.472-.571 2.999-1.016 4.568-1.321v-8.498c0-2.761 2.239-5 5-5s5 2.239 5 5v8.49c5.331 1.022 10.109 3.645 13.808 7.343 4.823 4.823 7.817 11.481 7.817 18.807z" fill="#fff" fill-rule="evenodd"/></svg>