<svg xmlns="http://www.w3.org/2000/svg" xmlns:xlink="http://www.w3.org/1999/xlink" width="300" zoomAndPan="magnify" viewBox="0 0 224.87999 225" height="300" preserveAspectRatio="xMidYMid meet" version="1.0"><defs><clipPath id="018d88dc57"><path d="M 0 0.0585938 L 224.761719 0.0585938 L 224.761719 224.9375 L 0 224.9375 Z M 0 0.0585938 " clip-rule="nonzero"/></clipPath><clipPath id="cf6557e6a7"><path d="M 92.046875 124.253906 L 146.433594 124.253906 L 146.433594 125.753906 L 92.046875 125.753906 Z M 92.046875 124.253906 " clip-rule="nonzero"/></clipPath><clipPath id="14d0697acc"><path d="M 157.78125 124 L 172.558594 124 L 172.558594 125.539062 L 157.78125 125.539062 Z M 157.78125 124 " clip-rule="nonzero"/></clipPath><clipPath id="af8fc0b4d7"><path d="M 49.585938 71.300781 L 191.261719 71.300781 L 191.261719 153.753906 L 49.585938 153.753906 Z M 49.585938 71.300781 " clip-rule="nonzero"/></clipPath></defs><g clip-path="url(#018d88dc57)"><path fill="#ffffff" d="M 0 0.0585938 L 224.878906 0.0585938 L 224.878906 224.941406 L 0 224.941406 Z M 0 0.0585938 " fill-opacity="1" fill-rule="nonzero"/><path fill="#ffffff" d="M 0 0.0585938 L 224.878906 0.0585938 L 224.878906 224.941406 L 0 224.941406 Z M 0 0.0585938 " fill-opacity="1" fill-rule="nonzero"/></g><path fill="#ffffff" d="M 80.1875 124.511719 C 80.1875 124.511719 81.765625 124.910156 87.21875 125.332031 C 92.671875 125.753906 95.679688 125.144531 95.679688 125.144531 L 149.375 124.859375 C 149.375 124.859375 150.644531 125.542969 153.464844 125.390625 C 156.289062 125.238281 158.921875 124.535156 158.921875 124.535156 L 160.996094 123.835938 C 160.996094 123.835938 166.601562 121.566406 167.578125 118.558594 C 168.558594 115.550781 167.996094 113.011719 167.996094 113.011719 C 167.996094 113.011719 165.269531 109.71875 165.171875 109.394531 C 165.078125 109.066406 163.574219 106.808594 163.574219 106.808594 L 152.289062 103.46875 C 152.289062 103.46875 125.605469 96.578125 121.210938 97.121094 C 116.816406 97.667969 116.296875 97.847656 116.296875 97.847656 L 109.035156 102.386719 L 105.742188 103.988281 C 105.742188 103.988281 87.121094 107.058594 84.457031 108.53125 C 81.796875 110.003906 76.085938 116.703125 76.433594 117.164062 C 76.78125 117.621094 80.070312 123.359375 80.070312 123.359375 L 80.1875 124.511719 " fill-opacity="1" fill-rule="evenodd"/><path fill="#ffbd59" d="M 105.160156 114.632812 C 105.160156 114.632812 133.300781 113.503906 136.261719 115.617188 C 139.117188 117.660156 110.257812 120.371094 103.324219 121.542969 C 105.070312 118.929688 105.269531 117.699219 105.160156 114.632812 " fill-opacity="1" fill-rule="evenodd"/><path fill="#ffbd59" d="M 110.070312 103.21875 C 109.671875 103.660156 109.28125 104.140625 109.28125 104.140625 C 109.28125 104.140625 109.859375 103.996094 110.679688 103.816406 C 110.410156 103.550781 110.191406 103.335938 110.070312 103.21875 Z M 117.117188 103.796875 C 118.777344 103.820312 128.167969 104.019531 137.222656 105.582031 C 147.199219 107.308594 147.503906 107.410156 147.503906 107.410156 L 150.851562 106.320312 L 151.421875 104.613281 C 141.898438 102.367188 118.1875 94.625 110.25 103.027344 C 111.589844 102.582031 117.390625 100.714844 117.835938 101.460938 C 118.210938 102.085938 117.507812 103.242188 117.117188 103.796875 " fill-opacity="1" fill-rule="evenodd"/><path fill="#191b2b" d="M 91.585938 111.550781 C 89.226562 112.910156 87.574219 115.378906 87.675781 118.230469 C 87.808594 121.878906 89.203125 123.5 91.175781 124.664062 C 89.300781 123.160156 88.097656 120.851562 88.097656 118.261719 C 88.097656 115.484375 89.476562 113.03125 91.585938 111.550781 Z M 95.539062 108.855469 C 100.453125 108.855469 104.730469 112.839844 104.730469 117.753906 C 104.730469 120.578125 103.703125 123.441406 101.21875 124.8125 C 100.785156 125.140625 100.316406 125.425781 99.824219 125.664062 L 92.765625 125.664062 C 92.644531 125.605469 92.523438 125.539062 92.402344 125.476562 C 92.359375 125.601562 91.890625 125.5625 91.660156 125.449219 C 88.761719 124.03125 86.636719 121.875 86.636719 117.753906 C 86.636719 113.511719 90.621094 108.855469 95.539062 108.855469 " fill-opacity="1" fill-rule="evenodd"/><path fill="#b3b3b3" d="M 101.054688 108.445312 C 104.273438 110.804688 103.214844 111.332031 103.214844 111.332031 C 99.753906 107.195312 91.207031 107.195312 87.742188 111.332031 C 87.742188 111.332031 86.683594 110.804688 89.902344 108.445312 C 93.085938 106.113281 97.871094 106.113281 101.054688 108.445312 " fill-opacity="1" fill-rule="evenodd"/><path fill="#191b2b" d="M 154.105469 107.496094 C 159.417969 107.496094 163.726562 111.804688 163.726562 117.121094 C 163.726562 120.464844 162.019531 123.410156 159.433594 125.136719 C 159.367188 125.074219 159.324219 125.003906 159.292969 124.921875 C 159.027344 125.09375 158.75 125.25 158.464844 125.390625 L 151.410156 125.390625 C 148.648438 124.035156 146.738281 121.136719 146.738281 117.785156 C 146.738281 113.128906 150.410156 109.359375 154.9375 109.359375 C 155.503906 109.359375 156.054688 109.417969 156.589844 109.527344 C 155.855469 109.316406 155.082031 109.203125 154.28125 109.203125 C 149.671875 109.203125 145.429688 112.945312 145.605469 117.636719 C 145.761719 122.046875 147.628906 123.714844 150.171875 125.019531 C 151.355469 125.628906 150.308594 125.632812 149.910156 125.4375 C 146.777344 123.902344 144.480469 121.574219 144.480469 117.121094 C 144.480469 112.53125 148.789062 107.496094 154.105469 107.496094 " fill-opacity="1" fill-rule="evenodd"/><g clip-path="url(#cf6557e6a7)"><path fill="#191b2b" d="M 92.953125 124.347656 C 92.953125 124.347656 146.347656 124.167969 146.347656 124.535156 C 146.347656 124.902344 92.828125 125.792969 92.363281 125.753906 C 91.898438 125.714844 92.953125 124.347656 92.953125 124.347656 " fill-opacity="1" fill-rule="evenodd"/></g><g clip-path="url(#14d0697acc)"><path fill="#191b2b" d="M 158.945312 124.03125 C 158.945312 124.03125 172.714844 124.261719 172.585938 124.625 C 172.453125 124.984375 158.191406 125.722656 157.988281 125.296875 C 157.78125 124.871094 158.945312 124.03125 158.945312 124.03125 " fill-opacity="1" fill-rule="evenodd"/></g><path fill="#ffffff" d="M 153.894531 117.0625 C 153.789062 117.140625 153.664062 117.1875 153.515625 117.207031 C 153.550781 117.324219 153.5625 117.453125 153.535156 117.589844 C 153.660156 117.589844 153.777344 117.625 153.894531 117.6875 C 153.9375 117.578125 154.007812 117.480469 154.101562 117.394531 C 154.011719 117.308594 153.941406 117.199219 153.894531 117.0625 Z M 148.804688 112.132812 C 148.742188 112.027344 148.777344 111.890625 148.882812 111.828125 C 148.988281 111.769531 149.125 111.800781 149.1875 111.910156 C 149.195312 111.917969 151.089844 115.167969 152.503906 116.34375 C 152.59375 116.382812 152.679688 116.417969 152.757812 116.460938 C 152.925781 116.546875 153.070312 116.640625 153.191406 116.746094 C 153.207031 116.746094 153.21875 116.75 153.234375 116.753906 C 153.636719 116.824219 153.570312 116.40625 153.652344 115.921875 C 153.914062 114.445312 152.542969 109.742188 153.21875 109.628906 C 153.34375 109.613281 153.457031 109.691406 153.476562 109.8125 C 153.742188 111.398438 154.417969 113.460938 154.441406 115.175781 C 155.542969 113.445312 157.761719 111.34375 157.773438 111.335938 C 157.859375 111.25 158 111.257812 158.085938 111.34375 C 158.171875 111.433594 158.167969 111.574219 158.078125 111.660156 C 158.066406 111.671875 154.207031 115.328125 154.28125 116.703125 C 154.292969 116.945312 154.433594 117.070312 154.660156 117.109375 C 154.835938 117.070312 155.046875 117.058594 155.28125 117.070312 C 157.132812 116.691406 160.9375 114.40625 161.214844 115.070312 C 161.261719 115.183594 161.207031 115.3125 161.09375 115.359375 C 160.894531 115.445312 160.578125 115.601562 160.1875 115.792969 C 159.257812 116.25 157.910156 116.910156 156.714844 117.3125 C 158.628906 117.800781 160.875 118.839844 160.886719 118.84375 C 160.996094 118.894531 161.042969 119.027344 160.996094 119.136719 C 160.945312 119.25 160.640625 119.449219 160.203125 119.246094 C 159.722656 119.027344 157.007812 117.722656 155.480469 117.632812 C 155.363281 117.648438 155.253906 117.660156 155.148438 117.667969 C 155.066406 117.671875 154.992188 117.671875 154.917969 117.667969 C 154.523438 117.773438 154.332031 117.894531 154.617188 118.507812 C 155.449219 120.300781 157.25 121.4375 158.621094 122.832031 C 158.871094 123.089844 158.6875 123.734375 158.378906 123.421875 C 158.226562 123.265625 157.96875 123.03125 157.644531 122.738281 C 156.832031 122.007812 155.648438 120.933594 154.820312 119.925781 C 155.035156 121.921875 154.792969 124.546875 154.792969 124.5625 C 154.78125 124.683594 154.671875 124.773438 154.550781 124.765625 C 153.597656 124.59375 154.238281 122.296875 154.109375 120.382812 C 154.058594 119.605469 154.09375 118.835938 153.722656 118.460938 C 153.507812 118.238281 153.324219 118.183594 153.097656 118.324219 C 153.03125 118.386719 152.953125 118.449219 152.867188 118.511719 C 151.945312 119.414062 151.023438 121.59375 150.445312 122.980469 C 150.277344 123.394531 150.136719 123.730469 150.042969 123.929688 C 149.984375 124.035156 149.851562 124.085938 149.742188 124.03125 C 149.632812 123.976562 149.585938 123.84375 149.640625 123.730469 C 149.734375 123.542969 149.867188 123.214844 150.035156 122.808594 C 150.464844 121.777344 151.097656 120.253906 151.789062 119.125 C 149.960938 119.976562 147.304688 120.597656 147.292969 120.597656 C 146.882812 120.695312 146.835938 119.917969 147.417969 119.742188 C 147.433594 119.738281 152.179688 118.816406 152.808594 117.59375 C 152.921875 117.375 152.964844 117.230469 152.886719 117.105469 C 152.710938 117.03125 152.523438 116.910156 152.332031 116.753906 C 151.109375 116.25 148.835938 116.082031 147.429688 115.976562 C 146.988281 115.945312 146.628906 115.917969 146.402344 115.890625 C 146.28125 115.871094 146.195312 115.757812 146.210938 115.636719 C 146.226562 115.515625 146.339844 115.429688 146.460938 115.445312 C 146.664062 115.472656 147.019531 115.5 147.460938 115.53125 C 148.597656 115.613281 150.300781 115.738281 151.601562 116.058594 C 150.222656 114.566406 148.808594 112.144531 148.804688 112.132812 " fill-opacity="1" fill-rule="nonzero"/><path fill="#ffffff" d="M 95.414062 117.523438 C 95.308594 117.601562 95.183594 117.648438 95.039062 117.667969 C 95.074219 117.78125 95.085938 117.90625 95.058594 118.042969 C 95.179688 118.046875 95.296875 118.078125 95.414062 118.140625 C 95.457031 118.03125 95.523438 117.933594 95.617188 117.847656 C 95.527344 117.761719 95.460938 117.65625 95.414062 117.523438 Z M 90.394531 112.664062 C 90.332031 112.558594 90.367188 112.421875 90.46875 112.363281 C 90.578125 112.300781 90.710938 112.335938 90.769531 112.441406 C 90.78125 112.453125 92.648438 115.652344 94.039062 116.8125 C 94.128906 116.851562 94.210938 116.886719 94.292969 116.929688 C 94.457031 117.015625 94.601562 117.105469 94.71875 117.207031 C 94.730469 117.210938 94.746094 117.214844 94.765625 117.214844 C 95.160156 117.289062 95.089844 116.875 95.175781 116.402344 C 95.429688 114.941406 94.082031 110.308594 94.746094 110.195312 C 94.867188 110.175781 94.980469 110.257812 95 110.375 C 95.261719 111.9375 95.929688 113.972656 95.949219 115.664062 C 97.035156 113.960938 99.226562 111.886719 99.234375 111.875 C 99.320312 111.792969 99.460938 111.796875 99.546875 111.886719 C 99.628906 111.972656 99.625 112.113281 99.539062 112.195312 C 99.527344 112.207031 95.71875 115.8125 95.792969 117.171875 C 95.804688 117.40625 95.941406 117.527344 96.167969 117.566406 C 96.34375 117.527344 96.546875 117.519531 96.777344 117.527344 C 98.605469 117.15625 102.359375 114.90625 102.628906 115.558594 C 102.675781 115.671875 102.621094 115.796875 102.511719 115.847656 C 102.308594 115.929688 102 116.082031 101.613281 116.269531 C 100.699219 116.71875 99.375 117.371094 98.191406 117.769531 C 100.078125 118.25 102.292969 119.273438 102.300781 119.277344 C 102.414062 119.328125 102.460938 119.457031 102.410156 119.566406 C 102.359375 119.679688 102.066406 119.875 101.628906 119.675781 C 101.160156 119.460938 98.484375 118.175781 96.976562 118.082031 C 96.863281 118.101562 96.753906 118.113281 96.644531 118.117188 C 96.570312 118.121094 96.496094 118.121094 96.421875 118.121094 C 96.035156 118.222656 95.84375 118.339844 96.125 118.941406 C 96.949219 120.714844 98.71875 121.835938 100.070312 123.207031 C 100.320312 123.464844 100.136719 124.097656 99.835938 123.789062 C 99.683594 123.636719 99.429688 123.40625 99.109375 123.117188 C 98.3125 122.398438 97.140625 121.339844 96.324219 120.34375 C 96.535156 122.316406 96.296875 124.902344 96.296875 124.914062 C 96.285156 125.035156 96.179688 125.125 96.058594 125.113281 C 95.121094 124.945312 95.753906 122.683594 95.625 120.796875 C 95.574219 120.03125 95.609375 119.269531 95.242188 118.898438 C 95.03125 118.679688 94.851562 118.628906 94.628906 118.765625 C 94.558594 118.828125 94.480469 118.890625 94.398438 118.953125 C 93.492188 119.84375 92.582031 121.988281 92.015625 123.359375 C 91.847656 123.765625 91.710938 124.097656 91.613281 124.292969 C 91.558594 124.398438 91.429688 124.445312 91.320312 124.390625 C 91.210938 124.339844 91.164062 124.207031 91.214844 124.097656 C 91.308594 123.90625 91.441406 123.585938 91.609375 123.1875 C 92.03125 122.171875 92.65625 120.664062 93.339844 119.554688 C 91.535156 120.394531 88.914062 121.003906 88.90625 121.007812 C 88.5 121.101562 88.453125 120.339844 89.027344 120.164062 C 89.042969 120.160156 93.726562 119.253906 94.34375 118.046875 C 94.457031 117.828125 94.496094 117.691406 94.417969 117.566406 C 94.246094 117.488281 94.0625 117.371094 93.875 117.21875 C 92.667969 116.71875 90.425781 116.554688 89.039062 116.449219 C 88.601562 116.417969 88.25 116.394531 88.027344 116.363281 C 87.90625 116.347656 87.820312 116.238281 87.835938 116.117188 C 87.855469 115.996094 87.964844 115.914062 88.085938 115.929688 C 88.285156 115.957031 88.636719 115.980469 89.070312 116.011719 C 90.191406 116.09375 91.871094 116.21875 93.152344 116.535156 C 91.792969 115.058594 90.398438 112.675781 90.394531 112.664062 " fill-opacity="1" fill-rule="nonzero"/><path fill="#191b2b" d="M 102.785156 122.300781 C 107.839844 122.390625 137.851562 119.453125 139.1875 117.132812 C 139.980469 119.210938 105.417969 125.21875 101.429688 125.210938 L 102.785156 122.300781 " fill-opacity="1" fill-rule="evenodd"/><path fill="#191b2b" d="M 110.621094 103.3125 C 112.625 103.261719 114.765625 103.277344 116.980469 103.339844 C 117.171875 102.996094 117.355469 102.621094 117.414062 102.316406 C 117.453125 102.09375 117.386719 101.90625 117.082031 101.851562 C 115.148438 101.496094 112.335938 102.546875 110.621094 103.3125 Z M 152.375 104.371094 C 145.152344 102.277344 125.53125 96.855469 120.113281 98.140625 C 117.023438 98.878906 114.300781 100.328125 112.261719 101.675781 C 113.890625 101.109375 115.769531 100.675781 117.25 100.945312 C 118.238281 101.125 118.453125 101.738281 118.316406 102.480469 C 118.261719 102.773438 118.144531 103.078125 118.003906 103.371094 C 127.628906 103.714844 138.496094 104.972656 146.101562 106.28125 C 148.460938 105.492188 150.964844 104.652344 152.375 104.371094 Z M 77.78125 118.675781 C 78.597656 118.632812 80.4375 118.542969 81.515625 118.597656 C 82.925781 118.667969 81.402344 125.269531 79.835938 124.449219 C 79.816406 124.457031 79.777344 124.433594 79.730469 124.382812 C 79.0625 123.945312 78.527344 122.78125 78.132812 121.617188 C 77.28125 119.914062 76.433594 117.929688 76.433594 117.164062 C 76.433594 115.613281 78.347656 113.484375 78.347656 113.484375 C 79.105469 112.40625 80.4375 110.804688 82.257812 109.710938 C 83.304688 109.078125 84 108.722656 84.457031 108.53125 C 84.457031 108.53125 87.53125 106.957031 96.046875 105.453125 C 100.320312 104.695312 102.828125 104.265625 104.269531 104.027344 C 106.996094 102.28125 114.480469 97.757812 120.203125 96.777344 C 126.320312 95.726562 147.953125 100.742188 154.808594 103.160156 C 155.011719 103.175781 156.121094 103.265625 157.527344 103.367188 L 159.5 101.335938 C 158.949219 101.296875 158.527344 101.246094 158.3125 101.195312 C 157.210938 100.953125 156.273438 99.609375 156.273438 99.609375 L 157.636719 99.710938 C 157.636719 99.710938 158.472656 100.445312 160.507812 100.523438 C 162.546875 100.609375 167.84375 100.261719 167.820312 100.015625 C 167.800781 99.773438 158.859375 99.792969 158.859375 99.792969 L 158.839844 99.507812 C 158.839844 99.507812 167.78125 98.9375 169.003906 99.222656 C 170.226562 99.507812 168.554688 101.078125 167.167969 101.378906 C 166.6875 101.488281 165.601562 101.527344 164.351562 101.523438 C 163.847656 102.125 162.949219 103.078125 162.34375 103.695312 C 163.300781 103.75 164.066406 103.777344 164.398438 103.761719 C 165.746094 103.703125 165.722656 103.824219 165.722656 103.824219 C 165.722656 103.824219 166.292969 107.410156 166.476562 107.773438 C 166.660156 108.140625 169.347656 114.292969 168.902344 116.167969 C 168.453125 118.042969 164.703125 121.992188 164.703125 121.992188 C 164.703125 121.992188 168.207031 116.738281 167.433594 114.78125 C 166.660156 112.824219 163.925781 109.3125 161.648438 107.628906 C 160.234375 107.167969 158.160156 106.683594 155.539062 106.574219 C 150.355469 106.363281 146.710938 108.957031 141.207031 109.652344 C 135.699219 110.34375 131.304688 108.328125 131.304688 108.328125 C 131.304688 108.328125 140.164062 108.183594 143.09375 107.265625 C 143.203125 107.234375 143.3125 107.199219 143.421875 107.164062 C 123.714844 104.492188 116.195312 104.617188 104.632812 105.378906 C 100.910156 105.882812 95.070312 106.707031 91.890625 107.328125 C 89.066406 107.875 86.792969 108.695312 85.375 109.296875 C 85.328125 110.457031 85.023438 112.464844 83.554688 113.910156 C 82.1875 115.253906 80.199219 115.199219 78.90625 114.96875 C 78.207031 115.761719 77.398438 116.738281 77.328125 117.082031 C 77.292969 117.257812 77.484375 117.875 77.78125 118.675781 " fill-opacity="1" fill-rule="evenodd"/><g clip-path="url(#af8fc0b4d7)"><path fill="#ffbd59" d="M 121.335938 134.136719 L 111.992188 134.136719 C 106.574219 139.375 99.199219 142.601562 91.070312 142.601562 C 74.445312 142.601562 60.96875 129.125 60.96875 112.5 C 60.96875 95.875 74.445312 82.398438 91.070312 82.398438 C 99.199219 82.398438 106.574219 85.621094 111.992188 90.859375 L 191.339844 90.859375 L 118.371094 87.226562 L 120.050781 82.828125 L 145.261719 79.28125 L 113.554688 77.636719 L 109.632812 80.253906 C 108.054688 79.347656 106.40625 78.550781 104.691406 77.875 L 104.53125 75.976562 L 113.554688 75.949219 L 104.296875 73.171875 L 104.296875 73.175781 L 104.296875 73.171875 C 101.703125 72.300781 98.996094 71.679688 96.199219 71.332031 L 93.808594 75.398438 C 92.902344 75.332031 91.992188 75.289062 91.070312 75.289062 C 90.148438 75.289062 89.234375 75.332031 88.332031 75.398438 L 85.9375 71.332031 C 83.144531 71.679688 80.4375 72.300781 77.84375 73.171875 L 77.445312 77.875 C 75.734375 78.550781 74.085938 79.347656 72.507812 80.253906 L 68.585938 77.636719 C 66.246094 79.148438 64.070312 80.890625 62.085938 82.828125 L 63.769531 87.226562 C 62.527344 88.566406 61.378906 90 60.34375 91.511719 L 55.679688 90.847656 C 54.242188 93.195312 53.03125 95.695312 52.078125 98.320312 L 55.5 101.554688 C 54.964844 103.289062 54.554688 105.074219 54.277344 106.90625 L 49.796875 108.335938 C 49.660156 109.707031 49.589844 111.09375 49.589844 112.5 C 49.589844 113.902344 49.660156 115.289062 49.796875 116.660156 L 54.277344 118.085938 C 54.554688 119.917969 54.964844 121.707031 55.5 123.441406 L 52.074219 126.675781 C 53.03125 129.300781 54.242188 131.800781 55.679688 134.148438 L 60.34375 133.484375 C 61.378906 134.996094 62.523438 136.429688 63.769531 137.769531 L 62.085938 142.167969 C 64.070312 144.105469 66.246094 145.847656 68.582031 147.359375 L 72.503906 144.742188 C 74.082031 145.652344 75.734375 146.449219 77.445312 147.121094 L 77.84375 151.824219 C 80.4375 152.695312 83.144531 153.316406 85.9375 153.664062 L 88.332031 149.597656 C 89.234375 149.660156 90.148438 149.707031 91.070312 149.707031 C 91.992188 149.707031 92.902344 149.660156 93.808594 149.597656 L 96.199219 153.664062 C 98.996094 153.316406 101.703125 152.695312 104.296875 151.824219 L 113.554688 149.050781 L 104.53125 149.019531 L 104.691406 147.121094 C 106.402344 146.449219 108.054688 145.652344 109.632812 144.742188 L 113.554688 147.359375 L 145.261719 145.714844 L 120.050781 142.167969 L 118.371094 137.769531 L 162.839844 134.136719 L 121.335938 134.136719 " fill-opacity="1" fill-rule="nonzero"/></g><path fill="#393536" d="M 102.199219 90.859375 L 107.769531 90.859375 C 103.152344 87.289062 97.359375 85.164062 91.070312 85.164062 C 75.972656 85.164062 63.734375 97.402344 63.734375 112.5 C 63.734375 127.59375 75.972656 139.832031 91.070312 139.832031 C 97.359375 139.832031 103.152344 137.707031 107.769531 134.136719 L 91.960938 134.136719 L 98.957031 135.519531 C 96.480469 136.367188 93.828125 136.828125 91.070312 136.828125 C 77.632812 136.828125 66.738281 125.933594 66.738281 112.5 C 66.738281 99.0625 77.632812 88.167969 91.070312 88.167969 C 93.828125 88.167969 96.480469 88.628906 98.957031 89.476562 L 91.960938 90.859375 L 102.199219 90.859375 " fill-opacity="1" fill-rule="nonzero"/></svg>