<svg xmlns="http://www.w3.org/2000/svg" version="1.1" xmlns:xlink="http://www.w3.org/1999/xlink" width="512" height="512" x="0" y="0" viewBox="0 0 64 64" style="enable-background:new 0 0 512 512" xml:space="preserve" class=""><g><path fill="#3648bb" d="M51 53h-4v-8a7 7 0 0 1 7-7 7 7 0 0 1 7 7v8z" opacity="1" data-original="#3648bb"></path><path fill="#6d91cb" d="M58 52h3v-7a7 7 0 0 0-7-7 6.968 6.968 0 0 0-4.423 1.576A6.968 6.968 0 0 0 48 44v4a4 4 0 0 0 4 4zM7.34 42.3l.7-3.494A12.2 12.2 0 0 1 20 29a12.2 12.2 0 0 1 11.961 9.806l.7 3.494z" opacity="1" data-original="#6d91cb" class=""></path><path fill="#5c84c1" d="M52 6H12v16h7.25l.75 3 1.5-3H47l3 3v-3h2z" opacity="1" data-original="#ef5735" class=""></path><path fill="#5c84c1" d="M30 20h22V6H14.138A15.993 15.993 0 0 0 30 20z" opacity="1" data-original="#f58b8e" class=""></path><path fill="#273993" d="M57 53h-6v-3a3 3 0 0 1 3-3 3 3 0 0 1 3 3z" opacity="1" data-original="#273993" class=""></path><path fill="#333333" d="M52 53v3a2 2 0 0 0 2 2 2 2 0 0 0 2-2v-3" opacity="1" data-original="#333333" class=""></path><path fill="#333333" d="M4 54v1a3 3 0 0 0 3 3 3 3 0 0 0 3-3v-1M30 54v1a3 3 0 0 0 3 3 3 3 0 0 0 3-3v-1" opacity="1" data-original="#333333" class=""></path><g fill="#fff"><path d="M18.041 11v3a1 1 0 0 0 1 1h2v1h-3v2h4a1 1 0 0 0 1-1v-3a1 1 0 0 0-1-1h-2v-1h3v-2h-4a1 1 0 0 0-1 1zM37.041 10h-2v7a1 1 0 0 0 1 1h3v-2h-2zM31.042 10h-4a1 1 0 0 0-1 1v7h2v-2h2v2h2v-7a1 1 0 0 0-1-1zm-3 4v-2h2v2zM46.041 12v-2h-3a1 1 0 0 0-1 1v6a1 1 0 0 0 1 1h3v-2h-2v-1h1v-2h-1v-1zM20 29c-.352 0-.7.016-1.046.046L7.75 40.25l-.41 2.05h5.86l12.088-12.088A12.154 12.154 0 0 0 20 29zM30.31 34.69c-.129-.2-.26-.405-.4-.6L21.7 42.3h1zM28 32 17.7 42.3h2.5l9.05-9.05A12.292 12.292 0 0 0 28 32z" fill="#ffffff" opacity="1" data-original="#ffffff" class=""></path></g><path fill="#5c84c1" d="M29.03 33H10.97a12.2 12.2 0 0 1 16.76-1.24 12.7 12.7 0 0 1 1.3 1.24z" opacity="1" data-original="#769b42" class=""></path><path fill="#5c84c1" d="M3 50a9 9 0 0 1 9-9h16a9 9 0 0 1 9 9" opacity="1" data-original="#afd485" class=""></path><path fill="#93bc62" d="M30.24 41.28C28.64 44.63 24.66 47 20 47s-8.64-2.37-10.24-5.72A9.225 9.225 0 0 1 12 41h16a9.225 9.225 0 0 1 2.24.28z" opacity="1" data-original="#93bc62" class=""></path><circle cx="8" cy="46" r="2" fill="#f6b94d" opacity="1" data-original="#f6b94d" class=""></circle><path fill="#5c84c1" d="M19 41h2v6h-2z" opacity="1" data-original="#769b42" class=""></path><circle cx="32" cy="46" r="2" fill="#f6b94d" opacity="1" data-original="#f6b94d" class=""></circle><rect width="4" height="3" x="32" y="40" fill="#93bc62" rx="1.5" opacity="1" data-original="#93bc62" class=""></rect><rect width="4" height="3" x="4" y="40" fill="#93bc62" rx="1.5" opacity="1" data-original="#93bc62" class=""></rect><path fill="#4d4d4d" d="M2 52h36v2H2z" opacity="1" data-original="#4d4d4d" class=""></path><path fill="#3648bb" d="M45 34h18v2H45z" opacity="1" data-original="#3648bb"></path><circle cx="54" cy="35" r="3" fill="#3648bb" opacity="1" data-original="#3648bb"></circle><circle cx="54" cy="35" r="2" fill="#6d91cb" opacity="1" data-original="#6d91cb" class=""></circle><path fill="#273993" d="M53 48h2v-9.92a7.026 7.026 0 0 0-1-.08 6.858 6.858 0 0 0-1 .088z" opacity="1" data-original="#273993" class=""></path></g></svg>