<svg id="Layer_1" enable-background="new 0 0 72 72" height="512" viewBox="0 0 72 72" width="512" xmlns="http://www.w3.org/2000/svg"><g id="_x31_90"><g><g><g><path d="m63.6642838 26.0058537v3.5274467c0 2.8311138-2.2955246 5.1342983-5.1343422 5.1342983-2.8311577 0-5.1266861-2.3031845-5.1266861-5.1342983v-3.5274467c0-1.415556.5738831-2.7009983 1.4997597-3.6345844.9335403-.9258308 2.2113686-1.4997139 3.6269264-1.4997139 2.8388176-.0000001 5.1343422 2.2955264 5.1343422 5.1342983z" fill="#21111b"/></g></g><g><g><path d="m65.1659546 53.4472466v2.9845505c0 2.9037094-2.3539352 5.2576065-5.2576485 5.2576065h-12.5694084v-8.242157z" fill="#34324c"/></g></g><g><g><path d="m6.8339629 53.7541656v2.9841194c0 2.9032936 2.3535981 5.2568512 5.2568917 5.2568512h12.5676041v-8.2409706z" fill="#34324c"/></g></g><g><g><path d="m49.9236069 33.6390915h-27.7763787l-7.6098699 27.5398064v2.4158172h42.9961576v-2.4158172z" fill="#a06167"/></g></g><g><g><path d="m56.2534409 40.8402939s-1.2237244 4.2463531-4.5004692 4.2463531c-3.2833977 0-14.2036018-.6954918-14.2036018-.6954918 0-.9094505.341053-1.7386551.9027557-2.3672943.5617409-.6352539 1.3508263-1.0698547 2.2468872-1.1702614l9.4155884-.809124s.9830399-1.8857536 1.0432014-2.1532593c.006691-.0601616.0200806-.1203232.0267715-.1738739z" fill="#fdc7b4"/></g></g><g><g><path d="m56.2534409 40.8402939s-1.2237244 4.2463531-4.5004692 4.2463531c-3.2833977 0-14.2036018-.6954918-14.2036018-.6954918 0-.4079094.0668564-.802433.2006073-1.1635666 3.443924.2073402 9.3018761.5350075 11.5554962.5350075 3.2767029 0 4.500473-4.2464371 4.500473-4.2464371l-2.6481438-1.6316338c.006691-.0601654.0200806-.1136322.0267715-.1671829z" fill="#efb5a3"/></g></g><g><g><path d="m14.537 61.179h42.996v2.416h-42.996z" fill="#894e57"/></g></g><g><g><g><path d="m29.8295288 34.0250969c0 .3024635-.1643963.5983887-.4471531.7430763l-1.7689114.9271812s1.9333076 1.4335327.5392265 3.2945137l-.7562008 1.0850334-.0065823.0262909-3.0512104 3.853447c-1.1441956 1.4532814-3.2681866 1.6571312-4.6688499.4537354l-2.518568-2.1634445 3.6890526-3.643055.8153992.6773338c.4669018.3879929 1.1705246.2959213 1.5256062-.1906853l1.1639423-1.5913887.0591602-.4405746c.1709785-1.0784492.8483124-2.0122108 1.8149452-2.5185661l2.3936253-1.2493896c.4076996-.210434.9140549-.0526199 1.1244869.3550797.0657425.1249465.0920315.2564696.0920315.3814124z" fill="#fdc7b4"/></g></g></g><g><g><g><path d="m28.1510067 38.9910774-.7562447 1.0856056-.0061054.0243835-3.0494003 3.8544426c-1.1465759 1.451519-3.2689476 1.6588593-4.6716633.4513054l-2.5188065-2.1589584.0548668-.0549088 2.024807 1.7442513c1.4027538 1.2014809 3.5251236 1.0002098 4.6717014-.4574127l3.0494003-3.8483391.0061035-.0304871.7562447-1.0856056c.8660202-1.1526451.4513054-2.1406479.0121727-2.7261467.3842278.3354302 1.6223031 1.6161996.4269238 3.20187z" fill="#efb5a3"/></g></g></g><g><g><path d="m19.2749805 24.4857216c0 1.5457096-.97645 2.7987537-2.1809635 2.7987537-1.2045116 0-2.3708353-.9527683-2.3708353-2.498476 0-1.5457096 1.1663237-3.0990314 2.3708353-3.0990314 1.2045136-.0000001 2.1809635 1.253046 2.1809635 2.7987537z" fill="#21111b"/></g></g><g><g><path d="m13.2760258 25.9091473c0 .21348-.0182772.4330273-.0487642.65868-.1158781.7440357-.4147139 1.5308037-.8355322 2.1650658-.3781223.5793934-.8538465 1.0306988-1.3966494 1.2319698-.1890612.0670776-.3842268.1036701-.5854607.1036701-1.6161966 0-2.9884267-2.3968239-2.9884267-4.1593857 0-.9757938.4025416-1.8479176 1.0429082-2.4273109l.0670776-.0670776c.1585751-.1402988.3293219-.2622452.518383-.3537407.3537407-.2012711.7562828-.3171501 1.1831694-.3293228.0365906-.0061035.0792866-.0061035.1158781-.0061035 1.6161967-.0000001 2.9274169 1.4270972 2.9274169 3.1835555z" fill="#21111b"/></g></g><g opacity=".15"><g><path d="m14.5018902 26.5434456c-.6647482.7684174-1.3661251 1.5063858-2.1101608 2.1894474-.4513054.4330292-.9148197.8416386-1.3966494 1.2319698-.1890612.0670776-.3842268.1036701-.5854607.1036701-1.6161966 0-2.9884267-2.3968239-2.9884267-4.1593857 0-.9757938.4025416-1.8479176 1.0429082-2.4273109-.4391327.4513054-.7318635 1.0550804-.7318635 1.6588554 0 1.2014828 1.2441421 2.9213486 2.4456248 2.9213486.7989416 0 1.4636898-.8538475 1.8174305-1.7808762.3964367.1524696.8111506.2439671 1.2319689.2866631.4208193.0488014.8538104.042696 1.2746287-.0243816z"/></g></g><g><g><path d="m17.3067284 34.6696205c.6674004.3239594 2.4522038 2.3310852 4.0371876 4.0372162l-3.8635998 4.0671463z" fill="#4c4ee1"/></g></g><g><g><path d="m18.595335 37.4248238v11.3331413l-1.8863087 5.0012932h-9.8748026v-17.5446854c0-1.3372459 1.0765157-2.420414 2.413763-2.420414h5.7167253c2.005871 0 3.630623 1.624794 3.630623 3.6306649z" fill="#7b94f2"/></g></g><g><g><path d="m18.595335 46.5514717v2.2064934l-1.8863087 5.0012932h-9.8748026v-16.548439c.3209672-.1336937.661972-.2273941 1.0096288-.2941551l1.3372474 1.2235489c1.150054 3.1558876 4.9745626 5.8972282 7.8630228 7.6156349.5014687.3008498 1.0163212.5616226 1.5512123.7956237z" fill="#4c4ee1"/></g></g><g><g><path d="m9.7970457 44.3106041s1.2200823 4.2499962 4.4995804 4.2499962c3.2793608 0 14.2004461-.700386 14.2004461-.700386v-.0000038c0-1.8077126-1.3557434-3.3279991-3.1516628-3.5341682l-9.4095392-.8131218s-.9838705-1.8836288-1.0422144-2.1526489c-.0123529-.0570183-.0230761-.1151123-.0321712-.1741638z" fill="#fdc7b4"/></g></g><g><g><path d="m11.9168596 35.4995346 3.0338068 5.757515c.3449411.4402847-5.011137 4.6371155-5.3560781 4.1968307-1.0246572-1.1798096-2.5999718-4.2249298-3.1590257-6.505867-.4742579-1.7194901-.0566959-3.9042664 1.6537471-4.8320618.7002974-.3798637 1.5061159-.3518829 2.1988039-.1037407.6853504.2516633 1.2884254.7669831 1.628746 1.4873238z" fill="#7b94f2"/></g></g><g><g><g><path d="m14.8297138 41.7087708c-.0655146.0097961-.1338091-.0176735-.1729822-.0767021-.054244-.0804977-.0323181-.1905251.0485735-.2444763l.395752-.2649803-1.9971142-3.5562363c-.0475883-.0849838-.0173044-.1927719.0676785-.2403603.083993-.04953.1927176-.017643.2406464.0672874l2.0769854 3.6984901c.0451689.0804596.0205517.1818161-.0558691.2330093l-.5314922.3557358c-.0224926.0152245-.0469276.0244599-.0721781.0282327z" fill="#4c4ee1"/></g></g></g><g><g><path d="m10.41 28.648h4.056v5.147h-4.056z" fill="#fdc7b4"/></g></g><g><g><path d="m14.4652987 28.647501v3.7812634s-1.7930479.9270287-4.0556793.5793953v-4.3606587z" fill="#efb5a3"/></g></g><g><g><path d="m17.5065536 26.4724674v2.4459095c0 1.9554367-1.5875416 3.5431366-3.5494366 3.5431366-1.9553976 0-3.5429773-1.5876999-3.5429773-3.5431366v-2.4459095c0-1.9552784 1.5875797-3.54282 3.5429773-3.54282.9809475 0 1.865077.4000359 2.5104294 1.038929.6453515.6388932 1.0390072 1.5295601 1.0390072 2.503891z" fill="#fdc7b4"/></g></g><g><g><path d="m12.2819557 24.9028664c0 .4086094-.1037064.9026108-.2866631 1.3782978-.3537407.9270287-1.0184889 1.7808762-1.8174305 1.7808762-1.2014828 0-2.4456248-1.7198658-2.4456248-2.9213486 0-.603775.2927308-1.20755.7318635-1.6588554l.0670776-.0670776c.1524706-.1464024.3232174-.2805595.5123158-.3842278.3232174-.1890621.6891298-.3049393 1.0550804-.3049393.042696 0 .0914593 0 .1341562.0061035 1.1465769.0670776 2.0492249 1.0123844 2.0492249 2.1711712z" fill="#21111b"/></g></g><g><g><path d="m19.0160236 23.3932438c.3416328 2.8538837-8.7771273 2.6851654-9.085928-.0561028-.1885138-1.6734638 2.1199818-3.0456295 4.7351055-3.0456295s4.1506272 1.4293995 4.3508225 3.1017323z" fill="#21111b"/></g></g><g><g><circle cx="13.789" cy="27.542" fill="#062557" r=".331"/></g></g><g><g><circle cx="16.144" cy="27.542" fill="#062557" r=".331"/></g></g><g><g><path d="m13.6980486 29.6504631c-.0008354.019558-.0058231.0379162-.0058231.0576687 0 .7431583.6024399 1.3455982 1.3455706 1.3455982.7431583 0 1.3455982-.6024399 1.3455982-1.3455982 0-.0197525-.0049877-.0381107-.0058231-.0576687z" fill="#fff"/></g></g><g opacity=".15"><g><path d="m11.9952927 26.2811642c-.3537407.9270287-1.0184889 1.7808762-1.8174305 1.7808762-1.2014828 0-2.4456248-1.7198658-2.4456248-2.9213486 0-.603775.2927308-1.20755.7318635-1.6588554l.0670776-.0670776c.1524706-.1464024.3232174-.2805595.5123158-.3842278 0 .0121727 0 .0182762.0060673.0304871.1158791.6708527.4818296 1.2807331.9209251 1.7991524.2927675.3415318.6281939.646471 1.0063171.9026108.3171119.2134436.6586799.3903311 1.0184889.5183829z"/></g></g><g><g><g><path d="m54.6916847 34.3599625c-.6674957.3240089-2.4525566 2.3314209-4.0377655 4.037796l3.8641548 4.0677299z" fill="#f26678"/></g></g><g><g><path d="m53.4028931 37.1155624v11.3347664l2.0123138 5.0020103h9.7504883v-17.5471992c0-1.3374405-1.0766754-2.4207649-2.4141121-2.4207649h-5.7175446c-2.0061607 0-3.6311454 1.6250267-3.6311454 3.6311874z" fill="#ff7581"/></g></g><g><g><path d="m53.4028931 46.2435226v2.2068062l1.9117432 5.0020103h9.851059v-16.5508155c-.3210144-.133709-.6620712-.2274208-1.0097733-.2941971l-1.3374405 1.2237282c-1.1502228 3.1563377-4.9752769 5.8980751-7.8641548 7.6167297-.5015374.3008919-1.0164643.5617028-1.5514336.7957382z" fill="#f26678"/></g></g><g><g><path d="m62.202446 44.0023308s-1.2202568 4.2506065-4.5002251 4.2506065c-3.2798347 0-14.2024879-.700489-14.2024879-.700489 0-1.8079758 1.355938-3.3284798 3.1521149-3.5346756l9.4108925-.8132401s.9840126-1.8838997 1.0423622-2.1529579c.0123558-.0570259.0230789-.1151314.032177-.1741867z" fill="#fdc7b4"/></g></g><g><g><path d="m60.082325 35.1899986-3.0342407 5.7583389c-.3449898.4403496 5.0118561 4.6377831 5.3568459 4.1974335 1.024807-1.1799812 2.6003494-4.2255363 3.1594772-6.5067978.4743271-1.719738.0567093-3.9048309-1.6539803-4.8327599-.7003975-.3799171-1.5063324-.3519325-2.1991196-.1037521-.6854477.2516976-1.2886123.7670899-1.6289825 1.4875374z" fill="#ff7581"/></g></g><g><g><g><path d="m57.1690559 41.4001236c.0655212.0097961.1338272-.0176735.173008-.0767136.0542488-.0805092.0323219-.1905518-.0485802-.2445107l-.395813-.2650185 1.9974022-3.5567474c.047596-.0849953.0173073-.1927986-.067688-.2403908-.0840034-.0495415-.1927452-.0176506-.2406807.0672951l-2.077282 3.6990204c-.0451775.080471-.0205536.1818428.0558739.2330437l.5315704.3557892c.0224954.0152245.0469323.0244599.0721894.0282326z" fill="#f26678"/></g></g></g><g><g><path d="m57.534 28.337h4.056v5.148h-4.056z" fill="#fdc7b4"/></g></g><g><g><path d="m57.5335236 28.3369789v3.7818069s1.7933044.9271622 4.0562592.5794754v-4.3612823z" fill="#efb5a3"/></g></g><g><g><path d="m61.5841026 26.1627102v2.4396076c0 1.9617386-1.5875435 3.5494385-3.5429802 3.5494385-1.9618568 0-3.5494347-1.5876999-3.5494347-3.5494385v-2.4396076c0-.9809475.400116-1.8649979 1.0390053-2.5103493.6389313-.6453533 1.5295219-1.0390873 2.5104294-1.0390873 1.9554367 0 3.5429802 1.587698 3.5429802 3.5494366z" fill="#fdc7b4"/></g></g><g><g><circle cx="61.546" cy="27.897" fill="#fdc7b4" r=".906"/></g></g><g><g><path d="m58.4712219 27.2411594c0 .1904163-.1163521.3437195-.2591324.3437195-.1480408 0-.264389-.1533031-.264389-.3437195 0-.1902885.1163483-.3436565.264389-.3436565.1427803 0 .2591324.153368.2591324.3436565z" fill="#062557"/></g></g><g><g><path d="m56.1386719 27.2411594c0 .1904163-.1163483.3437195-.2591286.3437195-.1480408 0-.2643929-.1533031-.2643929-.3437195 0-.1902885.1163521-.3436565.2643929-.3436565.1427803 0 .2591286.153368.2591286.3436565z" fill="#062557"/></g></g><g><g><path d="m58.4653969 29.3400841c.0008354.0195618.005825.0379238.005825.0576782 0 .7432652-.6025276 1.3457909-1.3457642 1.3457909-.7432671 0-1.3457909-.6025257-1.3457909-1.3457909 0-.0197544.0049858-.0381165.0058212-.0576782z" fill="#fff"/></g></g></g><g><g><path d="m62.8768578 26.4271164c-1.0639267 1.0639267-2.822937 1.026062-3.9294052-.0804062-1.1064949-1.1064968-1.1443329-2.8654785-.0804062-3.9294052 1.0686035-1.0686035 5.0784149 2.9412098 4.0098114 4.0098114z" fill="#21111b"/></g></g><g><g><path d="m58.0245743 21.280302c1.0089302 1.1162167.8824234 2.8710823-.2784233 3.9203548-1.1608772 1.0492992-3.1511269 1.7882404-4.1600571.6720238-1.0133667-1.1211223 3.4251175-5.713499 4.4384804-4.5923786z" fill="#21111b"/></g></g><g><g><path d="m61.2144241 28.446434-.6399345-1.5906982h.6399345z" fill="#21111b"/></g></g><g><g><g><g><g><g><path d="m27.8272514 68-.0381317-12.6193352h-.5684948c-3.7740402 0-4.0918121 3.2596245-4.0918121 4.8562088l-.3062859 7.7631264z" fill="#fddf8c"/></g></g><g><g><path d="m45.5216675 68v-7.7631264c0-1.5965843-.7680397-3.0057793-1.9533806-3.8947945 0-.0059433-.0060234-.0059433-.0060234-.0059433-.8104057-.5988235-1.8082466-.955471-2.8968048-.955471h-.5684967v12.6193352z" fill="#8ac80b"/></g></g><g><g><g><path d="m32.4162292 51.0327301v4.6227722l.1338273.0334244 5.0856552 1.2156792-.0222931-1.9573136.0222931-.3513145.0446205-.7193756.0390396-.6300659.0892067-1.4052582.1282768-.808548z" fill="#fdc7b4"/></g></g><g><g><path d="m34.7527313 52.2874184s1.4554291 1.3996735 2.9276009 1.5891838l.0390396-.6300659.0892067-1.4052582.1282768-.808548h-2.4480362z" fill="#efb5a3"/></g></g><g><g><path d="m44.2141953 68v-10.9466324c0-.0437088 0-.0936584-.0062408-.1373672-.1937103-.2124405-.4123611-.4061508-.6373253-.5748863 0-.0062447-.0062447-.0062447-.0062447-.0062447-.8123055-.5998611-1.8120003-.9560623-2.8991852-.9560623h-13.3962956c-1.0871849 0-1.3683472.3562012-2.1806145.9560623 0 0-.0062428 0-.0062428.0062447-.1000156.2124443-.1562099.4561043-.1562099.7122536v10.9466323z" fill="#fddf8c"/></g></g></g><g><g><path d="m40.4973946 45.672081v3.2619553c-.0065689.250927-.0330086.5018501-.0792351.7461662-.3895683 2.033844-2.1724472 3.5657578-4.3184967 3.5657578-2.4365883 0-4.4043369-1.9677467-4.4043369-4.3977699v-3.1761094c0-1.2149696.4952412-2.3111267 1.2875957-3.1101723.7990036-.7923546 2.3728752-1.7887383 3.5944557-1.7887383 2.4299813.0000001 3.9200173 2.4754983 3.9200173 4.8989106z" fill="#fdc7b4"/></g></g><g><g><path d="m36.7692108 45.7783051c2.9716034 0 4.3369255-2.3223267 4.3369255-4.3156471 0-1.9994812-2.8911285-3.3648567-5.8627319-3.3648567-2.9778709 0-5.7967663.4146767-5.3710728 4.1726723.2243633 1.9806517 3.9190121 3.5078315 6.8968792 3.5078315z" fill="#21111b"/></g></g><g><g><path d="m45.5216675 68v-7.7631264c0-1.2881775-.4959106-2.4492493-1.3123016-3.3201294-.1935616-.2116966-.4112816-.4052582-.6410789-.5746651 0-.0059433-.0060234-.0059433-.0060234-.0059433-.8104057-.5988235-1.8082466-.955471-2.8968048-.955471h-.5684968v12.6193352z" fill="#fddf8c"/></g></g><g><g><path d="m31.5570316 55.3806686h6.8632259c0-.4937744-.40028-.8940582-.8940544-.8940582h-5.0751151c-.4937745 0-.8940564.4002838-.8940564.8940582z" fill="#ddeaf7"/></g></g></g></g></g><g><g><g><path d="m40.4090118 68v-5.1607475c0-.1749802-.1374397-.3123474-.3124199-.3123474-.174942 0-.3124199.1373672-.3124199.3123474v5.1607475z" fill="#f2cf77"/></g></g><g><g><path d="m26.5563164 68v-5.1607475c0-.1749802-.1374397-.3123474-.3123817-.3123474-.1749401 0-.312418.1373672-.312418.3123474v5.1607475z" fill="#f2cf77"/></g></g></g></g><g><g><path d="m32.0084305 51.7942123c-1.5380764-1.5257454-2.9116993-5.424427-2.9116993-7.2594833 0-2.7148781 3.5325947-3.7615585 5.6044865-3.7615585s4.0185585 3.5560341 4.0185585 6.2709122c0 .8496933-.0851936 2.0055008-.3071213 3.0067062-.304821 1.3751945-2.4024849 2.6642303-3.9933281 2.5692558-.9329186-.0556984-1.9206085-.3134422-2.4108963-.8258324z" fill="#21111b"/></g></g><g><g><path d="m39.1109467 48.0577278c-.3689232 0-.7869759-.6636429-.9263802-1.4918518-.1475563-.8281364.0328255-1.4918518.4016953-1.4918518.360714 0 .77882.6637154.9263763 1.4918518.1394043.8282089-.0327721 1.4918518-.4016914 1.4918518z" fill="#fdc7b4"/></g></g><g><g><path d="m38.4537239 44.0499573.7615814 3.3179169c.4252014 0 .7615814-.3010788.7615814-.6691399v-2.648777c0-.3680611-.33638-.6692085-.7615814-.6692085-.4252395-.0000001-.7615814.3011474-.7615814.6692085z" fill="#21111b"/></g></g></g><g><g><g><g><path d="m46.3602638 13.6351433c0 3.9495525-2.3748894 7.3505707-5.7759094 8.8413715v4.0656719h-7.7184258v-4.0656719c-3.40098-1.4908009-5.7823315-4.891819-5.7823315-8.8413715.0000001-5.3241558 4.3174077-9.6351433 9.6415654-9.6351433s9.6351013 4.3109875 9.6351013 9.6351433z" fill="#fddf8c"/></g></g><g><g><g><path d="m36.22 19.55h1.277v6.237h-1.277z" fill="#fff"/></g></g></g><g><g><g><path d="m41.2547188 15.5856161c-.398262 2.0759668-2.2357292 3.6362505-4.3965416 3.6362505-2.161087 0-3.9985123-1.5602837-4.3965797-3.6362505h-1.2907429c.4125233 2.7865477 2.8282223 4.9130106 5.6873226 4.9130106 2.859024 0 5.2746048-2.1266212 5.6873627-4.9130106z" fill="#fff"/></g></g></g><g><g><g><g><path d="m36.6761169 15.4455252c-.8084373 0-1.1072197-.8810673-1.3472404-1.5891323-.0698242-.2057323-.1759644-.5190077-.2672958-.6962194-.1044273.0593824-.2780533.1776791-.5349083.4103756-.7640152.6921673-1.7400017 1.0732403-2.7482491 1.0732403h-.3888664c-.3525524 0-.6383972-.2858438-.6383972-.6383953s.2858448-.6383963.6383972-.6383963h.3888664c.6907654 0 1.3623581-.2637119 1.8910294-.7426653.6887398-.6239014 1.2029152-.8653259 1.6664391-.7808504.7016716.1273365.9560356.8774824 1.2021332 1.6028481.0378761.1119061.0869713.2563868.138092.3922949.0511208-.1359081.1002159-.2803888.138092-.3922949.2460976-.7253656.5004616-1.4755116 1.2019768-1.6028481.4630585-.0840073.9777031.1566381 1.6664391.7810068.5286713.478797 1.200264.7425089 1.8911858.7425089h.38871c.3525543 0 .6383972.2858448.6383972.6383963s-.2858429.6383953-.6383972.6383953h-.38871c-1.0084038 0-1.9843903-.381073-2.7484055-1.0730848-.256855-.2326965-.4303246-.3509932-.5347519-.410531-.0913315.1773672-.1974716.4904871-.2672958.6962194-.2400209.7080649-.5388032 1.5891322-1.3472406 1.5891322z" fill="#fff"/></g></g></g></g></g><g><g><circle cx="36.78" cy="29.937" fill="#b2beff" r="2.365"/></g></g><g><g><path d="m40.5813446 25.7262173h-7.715313v1.7483578c0 1.5823002 1.2827072 2.8650074 2.8650055 2.8650074h1.9852982c1.5823021 0 2.8650093-1.2827072 2.8650093-2.8650074z" fill="#a2b1f2"/></g></g><g><g><path d="m40.833107 26.5250492h-7.9499512c-.4293747 0-.7774506-.3480778-.7774506-.7774506v-.0000019c0-.4293728.3480759-.7774506.7774506-.7774506h7.9499512c.4293747 0 .7774506.3480778.7774506.7774506v.0000019c0 .4293728-.3480759.7774506-.7774506.7774506z" fill="#b2beff"/></g></g><g><g><path d="m40.833107 29.1262245h-7.9499512c-.4293747 0-.7774506-.3480759-.7774506-.7774487v-.0000018c0-.4293747.3480759-.7774506.7774506-.7774506h7.9499512c.4293747 0 .7774506.3480759.7774506.7774506v.0000019c0 .4293728-.3480759.7774486-.7774506.7774486z" fill="#b2beff"/></g></g></g><g><g><path d="m48.0334206 12.4546041 1.4199371-2.088994 1.937561 1.1941052 2.0123368-2.8381062-.7638169-.5416326-1.5046348 2.1219196-1.9521408-1.2032795-1.9236107 2.8294344z" fill="#fddf8c"/></g></g><g><g><path d="m25.6381931 12.4546041-1.4199352-2.088994-1.9375629 1.1941052-2.0123368-2.8381062.7638169-.5416326 1.5046348 2.1219196 1.9521408-1.2032795 1.9236126 2.8294344z" fill="#fddf8c"/></g></g><g opacity=".15"><g><path d="m43.6295204 7.9864302c.7455139 1.1233511.6564293 2.5063105-.2093124 3.080863-.8603249.5709591-2.1692772.1158142-2.9147949-1.0075369-.7495079-1.129364-.6604691-2.5123963.1998558-3.0833559.8657417-.574553 2.1747436-.1193342 2.9242515 1.0100298z" fill="#fff"/></g></g><g opacity=".15"><g><path d="m45.0447655 12.04673c.4340172.6539793.3821526 1.459095-.1218529 1.793581-.5008545.3323946-1.262886.0674238-1.6969032-.5865564-.4363403-.6574802-.3845062-1.4626379.1163483-1.7950325.5040092-.334486 1.2660674-.0694723 1.7024078.5880079z" fill="#fff"/></g></g></g></svg>