<svg height="512" viewBox="0 0 58 58" width="512" xmlns="http://www.w3.org/2000/svg"><g id="081---Car-Sold" fill="none"><path id="Shape" d="m20 23v-10h-4v10.66z" fill="#cf976a"/><path id="Shape" d="m42 23.66v-10.66h-4v10z" fill="#cf976a"/><path id="Shape" d="m54 36h1c1.6568542 0 3-1.3431458 3-3s-1.3431458-3-3-3h-52c-1.65685425 0-3 1.3431458-3 3s1.34314575 3 3 3z" fill="#802f34"/><path id="Shape" d="m51 35.07-1.19-4.78-1.69-5.77c-.0272012-.1128907-.0783572-.2186133-.15-.31-1.0736306-1.1652975-2.4636601-1.9923651-4-2.38-2.2024476-.661637-4.4624957-1.1136467-6.75-1.35-2.72952-.3059981-5.4734158-.4662256-8.22-.48-1.62 0-15.87.12-18.94 4.21-.07164277.0913867-.12279883.1971093-.15.31l-1.69 5.81-.62 2.45-.6 2.29c-.05668706.3134444.03934211.6351442.2585731.8662255.219231.2310813.53543489.3438974.8514269.3037745 0 0 2.35-.46 6-.92 4.9348708-.637439 9.9042126-.9714002 14.88-1 6.9950319.0228861 13.9747653.6552781 20.86 1.89h.18c.2861081-.0057585.5560407-.1338145.7414867-.3517613.1854459-.2179468.2686345-.5048992.2285133-.7882387z" fill="#2fa8cc"/><path id="Shape" d="m37.2 20.48c-10.25 1-24.8 3.84-29.6 12.3l.62-2.45 1.69-5.81c.02720117-.1128907.07835723-.2186133.15-.31 3.07-4.09 17.32-4.21 18.94-4.21 2.739911.0144844 5.4771117.1747108 8.2.48z" fill="#67b9cc"/><path id="Shape" d="m16 47.1v8.9c0 1.1045695-.8954305 2-2 2h-6c-1.1045695 0-2-.8954305-2-2v-9" fill="#464f5d"/><path id="Shape" d="m14 50v6c0 1.1-.54 2-1.2 2h-3.6c-.66 0-1.2-.9-1.2-2v-6.1" fill="#393f4a"/><path id="Shape" d="m51 36h-.2c-7.1944631-1.3009401-14.4889225-1.9701566-21.8-2-7.3110775.0298434-14.6055369.6990599-21.8 2-.34487803.0840191-.708449-.0210836-.95529919-.2761621-.24685018-.2550785-.33997924-.6218992-.24470081-.9638379l1.24-5 1.76-6.04c.03366345-.1154175.08786405-.2238187.16-.32 3.25-4.28 18.15-4.4 19.84-4.4s16.59.12 19.8 4.4c.072136.0961813.1263366.2045825.16.32l1.76 6 1.25 5c.088644.3038634.0281925.6317535-.1629841.8840277-.1911765.2522742-.4905026.3991422-.8070159.3959723zm-40.1-11.53-1.7 5.85-1.2 4.42c3.28-.55 11.77-.74 21-.74s17.72.19 21 .74l-1.21-4.46-1.69-5.81c-2.2-2.47-12.21-3.47-18.1-3.47s-15.9 1-18.1 3.47z" fill="#c03a2b"/><path id="Shape" d="m52 48v8c0 1.1045695-.8954305 2-2 2h-6c-1.1045695 0-2-.8954305-2-2v-7.9" fill="#464f5d"/><path id="Shape" d="m50 49.9v6.1c0 1.1-.54 2-1.2 2h-3.6c-.66 0-1.2-.9-1.2-2v-6" fill="#393f4a"/><rect id="Rectangle-path" fill="#e64c3c" height="16" rx="2" width="48" x="5"/><g fill="#fff"><path id="Shape" d="m15.5 9c-2.5 0-4.5-1.54-4.5-3.5s2-3.5 4.5-3.5 4.5 1.54 4.5 3.5c0 .55228475-.4477153 1-1 1s-1-.44771525-1-1c0-.71-1-1.5-2.5-1.5s-2.5.79-2.5 1.5 1 1.5 2.5 1.5c.5522847 0 1 .44771525 1 1s-.4477153 1-1 1z"/><path id="Shape" d="m15.5 14c-2.5 0-4.5-1.54-4.5-3.5 0-.55228475.4477153-1 1-1s1 .44771525 1 1c0 .71 1 1.5 2.5 1.5s2.5-.79 2.5-1.5-1-1.5-2.5-1.5c-.5522847 0-1-.44771525-1-1s.4477153-1 1-1c2.5 0 4.5 1.54 4.5 3.5s-2 3.5-4.5 3.5z"/><path id="Shape" d="m38 14h-5c-.5522847 0-1-.4477153-1-1v-10c0-.55228475.4477153-1 1-1s1 .44771525 1 1v9h4c.5522847 0 1 .4477153 1 1s-.4477153 1-1 1z"/></g><path id="Shape" d="m56 40v5c.000485 2.3763431-1.6716687 4.4247314-4 4.9-.328813.0689019-.6640542.102426-1 .1h-44c-.33594579.002426-.671187-.0310981-1-.1-2.32833127-.4752686-4.00048501-2.5236569-4-4.9v-5c0-1.5737865.74097079-3.0557281 2-4 .86341509-.6530436 1.91744177-1.0043858 3-1 7.2601914-1.3127603 14.6221009-1.9820248 22-2 7.3778991.0179752 14.7398086.6872397 22 2 1.0825582-.0043858 2.1365849.3469564 3 1 1.2590292.9442719 2 2.4262135 2 4z" fill="#e64c3c"/><circle id="Oval" cx="9.5" cy="42.5" fill="#f3d55b" r="3.5"/><circle id="Oval" cx="48.5" cy="42.5" fill="#f3d55b" r="3.5"/><path id="Shape" d="m29 39h8c1.1045695 0 2 .8954305 2 2v3c0 1.1045695-.8954305 2-2 2h-16c-1.1045695 0-2-.8954305-2-2v-3c0-1.1045695.8954305-2 2-2z" fill="#f3d55b"/><path id="Shape" d="m9.5 47c-2.48528137 0-4.5-2.0147186-4.5-4.5s2.01471863-4.5 4.5-4.5c2.4852814 0 4.5 2.0147186 4.5 4.5-.0054995 2.4829999-2.0170001 4.4945005-4.5 4.5zm0-7c-1.38071187 0-2.5 1.1192881-2.5 2.5s1.11928813 2.5 2.5 2.5c1.3807119 0 2.5-1.1192881 2.5-2.5s-1.1192881-2.5-2.5-2.5z" fill="#f29c1f"/><path id="Shape" d="m48.5 47c-2.4852814 0-4.5-2.0147186-4.5-4.5s2.0147186-4.5 4.5-4.5 4.5 2.0147186 4.5 4.5c-.0054995 2.4829999-2.0170001 4.4945005-4.5 4.5zm0-7c-1.3807119 0-2.5 1.1192881-2.5 2.5s1.1192881 2.5 2.5 2.5 2.5-1.1192881 2.5-2.5-1.1192881-2.5-2.5-2.5z" fill="#f29c1f"/><path id="Shape" d="m44 14h-3c-.5522847 0-1-.4477153-1-1v-10c0-.55228475.4477153-1 1-1h3c2.209139 0 4 1.790861 4 4v4c0 2.209139-1.790861 4-4 4zm-2-2h2c1.1045695 0 2-.8954305 2-2v-4c0-1.1045695-.8954305-2-2-2h-2z" fill="#fff"/><path id="Shape" d="m27 14h-2c-1.6568542 0-3-1.3431458-3-3v-6c0-1.65685425 1.3431458-3 3-3h2c1.6568542 0 3 1.34314575 3 3v6c0 1.6568542-1.3431458 3-3 3zm-2-10c-.5522847 0-1 .44771525-1 1v6c0 .5522847.4477153 1 1 1h2c.5522847 0 1-.4477153 1-1v-6c0-.55228475-.4477153-1-1-1z" fill="#fff"/></g></svg>