<svg id="Layer_1" enable-background="new 0 0 256 256" height="512" viewBox="0 0 256 256" width="512" xmlns="http://www.w3.org/2000/svg"><g><g><g><g><g><path d="m32.846 59.638-2.172-1.395c-.058.209-.113.418-.19.625l-.33.897c-.602 1.636-1.7 2.942-3.056 3.828l3.474 2.231z" fill="#2266d3"/><g><path d="m20.133 64.394-7.71-2.839c-3.361-1.237-5.449-4.604-5.063-8.165l.224-2.072c.279-2.576 2.596-4.436 5.171-4.151l11.263 1.246c5.039.558 8.218 5.697 6.466 10.455l-.33.897c-1.489 4.046-5.976 6.118-10.021 4.629z" fill="#377de2"/></g></g><g><path d="m202.258 59.766-.33-.897c-.076-.208-.132-.417-.19-.625l-2.172 1.395 2.273 6.186 3.474-2.231c-1.355-.886-2.452-2.192-3.055-3.828z" fill="#2266d3"/><g><path d="m212.28 64.394 7.71-2.839c3.361-1.237 5.449-4.604 5.063-8.165l-.224-2.072c-.279-2.576-2.596-4.436-5.171-4.151l-11.263 1.246c-5.039.558-8.218 5.697-6.466 10.455l.33.897c1.489 4.046 5.976 6.118 10.021 4.629z" fill="#377de2"/></g></g></g><path d="m116.206 78.445c0-5.523 4.477-10 10-10h76.596-173.192l-10.104 15.375c-2.738 4.166-4.196 9.042-4.196 14.028v34.807c0 10.581 8.577 19.158 19.158 19.158l81.739-.001v-73.367z" fill="#377de2"/><path d="m34.467 151.813c-5.555 0-10.542-2.378-14.041-6.155v16.804c0 3.891 3.154 7.045 7.045 7.045h21.136c3.891 0 7.045-3.154 7.045-7.045v-10.649z" fill="#414042"/><g><path d="m116.206 145.426-88.125.001c-3.652 0-7.053-1.04-9.958-2.814 3.365 5.51 9.415 9.2 16.344 9.2l81.739-.001z" fill="#2266d3"/></g><path d="m116.206 99.594h-31.091c-4.188 0-7.243 3.964-6.175 8.014l3.018 11.446c.739 2.804 3.275 4.758 6.175 4.758h28.073z" fill="#414042"/><path d="m116.206 78.445c0-5.523 4.477-10 10-10h68.718c-.001 0-.002 0-.003 0h-157.43c-.924 0-1.775.499-2.227 1.304l-3.48 6.2c-1.936 3.449-.304 7.81 3.421 9.14l26.554 9.484c1.379.492 2.832.744 4.296.744h50.152v-16.872z" fill="#2266d3"/><g><g><path d="m64.244 104.935c-5.034-4.97-16.525-12.909-38.791-13.3-1.076-.019-2.054.657-2.432 1.665-1.396 3.729-3.657 12.557 5.026 14.969 8.23 2.286 25.954 1.521 34.567.973 2.175-.139 3.18-2.777 1.63-4.307z" fill="#fff"/></g><g><path d="m64.244 104.935c-1.242-1.226-2.881-2.634-4.974-4.063.07 1.291-.849 2.579-2.35 2.674-8.613.548-26.337 1.314-34.567-.973-.141-.039-.254-.093-.389-.136.61 2.525 2.313 4.784 6.085 5.831 8.23 2.286 25.954 1.521 34.567.973 2.173-.138 3.178-2.776 1.628-4.306z" fill="#f1f2f2"/></g></g><g><path d="m163.917 10.1h-95.422c-10.482 0-19.851 6.539-23.466 16.378l-15.419 41.966h173.192l-15.419-41.967c-3.615-9.838-12.984-16.377-23.466-16.377z" fill="#377de2"/></g><g><path d="m39.146 58.191 11.768-31.486c1.461-3.908 5.195-6.499 9.367-6.499h111.851c4.172 0 7.906 2.591 9.367 6.499l11.768 31.485c.489 1.307-.478 2.7-1.873 2.7h-150.375c-1.395.002-2.362-1.391-1.873-2.699z" fill="#f1f2f2"/></g></g><path d="m116.206 130.766h-55.612c-1.905 0-3.71.85-4.923 2.319l-3.57 4.322c-1.376 1.666-.191 4.181 1.969 4.181h62.136z" fill="#414042"/><g><g><g><circle cx="37.78" cy="136.177" fill="#d1d3d4" r="7.404"/></g><g><circle cx="37.78" cy="136.177" fill="#fff" r="4.507"/></g></g></g></g><g><g><g><g><path d="m211.065 68.445h-84.859c-5.523 0-10 4.477-10 10v158.194c0 5.523 4.477 10 10 10h112.48c5.523 0 10-4.477 10-10v-130.586z" fill="#fcc4ae"/></g><g><path d="m122.207 146.442c-1.104 0-2-.896-2-2v-53c0-1.104.896-2 2-2s2 .896 2 2v53c0 1.105-.896 2-2 2zm0-61c-1.104 0-2-.896-2-2v-.151c0-1.104.896-2 2-2s2 .896 2 2v.151c0 1.105-.896 2-2 2z" fill="#ffd2c0"/></g><g><path d="m248.686 106.053-10 .002v120.584c0 5.523-4.477 10-10 10h-112.48c0 5.523 4.477 10 10 10h112.48c5.523 0 10-4.477 10-10z" fill="#f2ad97"/></g><g><path d="m248.686 106.053-5 .001v125.585c0 5.523-4.477 10-10 10h-112.48c-1.466 0-2.855-.323-4.11-.89 1.569 3.471 5.053 5.89 9.11 5.89h112.48c5.523 0 10-4.477 10-10z" fill="#e59076"/></g><g><path d="m211.065 96.058v-27.614l37.621 37.608-27.619.005c-5.523.002-10.002-4.476-10.002-9.999z" fill="#e59076"/></g></g></g><g><g><path d="m223.686 223.638h-82.479c-1.104 0-2-.896-2-2s.896-2 2-2h82.479c1.104 0 2 .896 2 2s-.895 2-2 2z" fill="#58595b"/></g><g><path d="m223.686 203.638h-82.479c-1.104 0-2-.896-2-2s.896-2 2-2h82.479c1.104 0 2 .896 2 2s-.895 2-2 2z" fill="#58595b"/></g><g><path d="m223.686 183.638h-82.479c-1.104 0-2-.896-2-2s.896-2 2-2h82.479c1.104 0 2 .896 2 2s-.895 2-2 2z" fill="#58595b"/></g><g><path d="m223.686 163.638h-82.479c-1.104 0-2-.896-2-2s.896-2 2-2h82.479c1.104 0 2 .896 2 2s-.895 2-2 2z" fill="#58595b"/></g></g><g><path d="m207.876 119.414v-6.819c0-1.049-.85-1.899-1.899-1.899h-4.589c-.688-3.388-2.024-6.54-3.869-9.326l3.249-3.249c.742-.742.742-1.944 0-2.686l-4.822-4.822c-.742-.742-1.944-.742-2.686 0l-3.249 3.25c-2.786-1.845-5.938-3.181-9.326-3.869v-4.589c0-1.049-.85-1.899-1.899-1.899h-6.819c-1.049 0-1.899.85-1.899 1.899v4.589c-3.389.688-6.54 2.024-9.326 3.869l-3.249-3.25c-.742-.742-1.944-.742-2.686 0l-4.822 4.822c-.742.742-.742 1.944 0 2.686l3.249 3.249c-1.845 2.786-3.181 5.938-3.869 9.326h-4.589c-1.049 0-1.899.85-1.899 1.899v6.819c0 1.049.85 1.899 1.899 1.899h4.589c.688 3.388 2.024 6.54 3.869 9.326l-3.249 3.249c-.742.742-.742 1.944 0 2.686l4.822 4.822c.742.742 1.944.742 2.686 0l3.249-3.249c2.786 1.845 5.938 3.181 9.326 3.869v4.589c0 1.049.85 1.899 1.899 1.899h6.819c1.049 0 1.899-.85 1.899-1.899v-4.589c3.389-.688 6.54-2.024 9.326-3.869l3.249 3.249c.742.742 1.944.742 2.686 0l4.822-4.822c.742-.742.742-1.944 0-2.686l-3.249-3.249c1.845-2.786 3.181-5.938 3.869-9.326h4.589c1.049.001 1.899-.85 1.899-1.899zm-32.5 10.591c-7.732 0-14-6.268-14-14s6.268-14 14-14 14 6.268 14 14-6.268 14-14 14z" fill="#58595b"/></g><g><g><path d="m205.977 110.696h-.101v6.718c0 1.049-.85 1.899-1.899 1.899h-4.589c-.688 3.388-2.024 6.54-3.869 9.326l2 2c1.845-2.786 3.181-5.938 3.869-9.326h4.589c1.049 0 1.899-.85 1.899-1.899v-6.819c0-1.049-.85-1.899-1.899-1.899z" fill="#414042"/></g><g><path d="m198.768 131.889c.742.742.742 1.944 0 2.686l-4.822 4.822c-.742.742-1.944.742-2.686 0l-3.249-3.249c-2.786 1.845-5.938 3.181-9.326 3.869v4.589c0 1.049-.85 1.899-1.899 1.899h-6.718v.101c0 1.049.85 1.899 1.899 1.899h6.819c1.049 0 1.899-.85 1.899-1.899v-4.589c3.389-.688 6.54-2.024 9.326-3.869l3.249 3.249c.742.742 1.944.742 2.686 0l4.822-4.822c.742-.742.742-1.944 0-2.686z" fill="#414042"/></g></g></g></g></svg>