<svg id="Icons" height="512" viewBox="0 0 60 60" width="512" xmlns="http://www.w3.org/2000/svg"><path d="m11 45v4a2 2 0 0 1 -2 2h-4a2 2 0 0 1 -2-2v-4z" fill="#151538"/><path d="m56 53h-26a4 4 0 0 1 -4-4v-34a4 4 0 0 1 4-4h7v2h-7a2 2 0 0 0 -2 2v34a2 2 0 0 0 2 2h26a2 2 0 0 0 2-2v-34a2 2 0 0 0 -2-2h-7v-2h7a4 4 0 0 1 4 4v34a4 4 0 0 1 -4 4z"/><path d="m27 26v20h-24a2.006 2.006 0 0 1 -2-2v-12.87a2 2 0 0 1 .97-1.71l4.03-2.42 1-1z" fill="#dd2641"/><path d="m3 23h1a2 2 0 0 1 2 2v2a0 0 0 0 1 0 0h-3a2 2 0 0 1 -2-2 2 2 0 0 1 2-2z" fill="#dd2641"/><rect fill="#f4bc2f" height="6" rx="2" width="4" x="5" y="31"/><path d="m27 36h-13a1 1 0 0 1 -1-1 3 3 0 0 1 3-3h11z" fill="#9e1838"/><path d="m49 12h7a3 3 0 0 1 3 3v34a3 3 0 0 1 -3 3h-26a3 3 0 0 1 -3-3v-34a3 3 0 0 1 3-3z" fill="#fff"/><path d="m27 15v12h-21l3.32-9.95a2.991 2.991 0 0 1 2.84-2.05z" fill="#333387"/><path d="m35 26a1 1 0 0 1 -.707-.293l-2-2a1 1 0 0 1 1.414-1.414l1.138 1.138 3.323-4.986a1 1 0 1 1 1.664 1.11l-4 6a1 1 0 0 1 -.732.445c-.035 0-.068 0-.1 0z" fill="#33c455"/><path d="m52 22h-9a1 1 0 0 1 0-2h9a1 1 0 0 1 0 2z" fill="#bbbace"/><path d="m48.818 26h-5.818a1 1 0 0 1 0-2h5.818a1 1 0 0 1 0 2z" fill="#bbbace"/><path d="m35 36a1 1 0 0 1 -.707-.293l-2-2a1 1 0 0 1 1.414-1.414l1.138 1.138 3.323-4.986a1 1 0 1 1 1.664 1.11l-4 6a1 1 0 0 1 -.733.44c-.034.005-.067.005-.099.005z" fill="#33c455"/><path d="m52 32h-9a1 1 0 0 1 0-2h9a1 1 0 0 1 0 2z" fill="#bbbace"/><path d="m48.818 36h-5.818a1 1 0 0 1 0-2h5.818a1 1 0 0 1 0 2z" fill="#bbbace"/><path d="m35 46a1 1 0 0 1 -.707-.293l-2-2a1 1 0 0 1 1.414-1.414l1.138 1.138 3.323-4.986a1 1 0 1 1 1.664 1.11l-4 6a1 1 0 0 1 -.732.445c-.035 0-.068 0-.1 0z" fill="#33c455"/><path d="m52 42h-9a1 1 0 0 1 0-2h9a1 1 0 0 1 0 2z" fill="#bbbace"/><path d="m48.818 46h-5.818a1 1 0 0 1 0-2h5.818a1 1 0 0 1 0 2z" fill="#bbbace"/><path d="m27 42h-12a1 1 0 0 1 0-2h12a1 1 0 0 1 0 2z" fill="#9e1838"/><path d="m8 42h-2a1 1 0 0 1 0-2h2a1 1 0 0 1 0 2z" fill="#f4bc2f"/><path d="m56 11h-26a4 4 0 0 0 -4 4v34a4 4 0 0 0 4 4h26a4 4 0 0 0 4-4v-34a4 4 0 0 0 -4-4zm2 38a2.006 2.006 0 0 1 -2 2h-26a2.006 2.006 0 0 1 -2-2v-34a2.006 2.006 0 0 1 2-2h26a2.006 2.006 0 0 1 2 2z" fill="#b27246"/><path d="m49 11v2a1 1 0 0 1 -1 1h-10a1 1 0 0 1 -1-1v-2a1 1 0 0 1 1-1h1.24a4.06 4.06 0 0 1 3.76-2 4.088 4.088 0 0 1 3.77 2h1.23a1 1 0 0 1 1 1z" fill="#e0dfe5"/></svg>