<svg id="Layer_1" height="512" viewBox="0 0 50 50" width="512" xmlns="http://www.w3.org/2000/svg"><g><g><path d="m44.1 46h-38.2c-2.7 0-4.9-2.2-4.9-4.8v-32.4c0-2.6 2.2-4.8 4.9-4.8h38.3c2.6 0 4.8 2.2 4.8 4.8v32.3c0 2.7-2.2 4.9-4.9 4.9z" fill="#f4f4f4"/></g><g><circle cx="5.9" cy="8.3" fill="#cccaca" r="1.5"/></g><g><circle cx="11.4" cy="8.3" fill="#cccaca" r="1.5"/></g><g><circle cx="16.8" cy="8.3" fill="#cccaca" r="1.5"/></g><g><path d="m44.1 6.8h-21.8c-.8 0-1.5.7-1.5 1.5s.7 1.5 1.5 1.5h21.8c.8 0 1.5-.7 1.5-1.5s-.7-1.5-1.5-1.5z" fill="#cccaca"/></g><g><path d="m5.6 26.7h3.6v3.6h-3.6z" fill="#ff8c83"/></g><g><path d="m11.4 23.1h3.6v7.2h-3.6z" fill="#abb734"/></g><g><path d="m17.2 25.1h3.6v5.2h-3.6z" fill="#ffb95c"/></g><g><path d="m23 20.7h3.6v9.6h-3.6z" fill="#fa4968"/></g><g><path d="m21.3 16.2h1v4.1h-1z" fill="#425060" transform="matrix(.543 .84 -.84 .543 25.258 -10.005)"/></g><g><path d="m9.7 18.1h1v4.5h-1z" fill="#425060" transform="matrix(.508 .862 -.862 .508 22.574 1.175)"/></g><g><path d="m14.4 18.8h3.4v1h-3.4z" fill="#425060" transform="matrix(.973 .233 -.233 .973 4.946 -3.208)"/></g><g><circle cx="24.7" cy="16.4" fill="#6eb0ff" r="1.7"/></g><g><circle cx="19" cy="20" fill="#6eb0ff" r="1.7"/></g><g><circle cx="13.2" cy="18.6" fill="#6eb0ff" r="1.7"/></g><g><circle cx="7.4" cy="22.1" fill="#6eb0ff" r="1.7"/></g><g><circle cx="32.8" cy="17.9" fill="#ff8c83" r="2.2"/></g><g><circle cx="32.8" cy="25" fill="#abb734" r="2.2"/></g><g><circle cx="32.8" cy="32.1" fill="#ffb95c" r="2.2"/></g><g><circle cx="32.8" cy="39.2" fill="#6eb0ff" r="2.2"/></g><g><path d="m37.5 17h6.9" fill="#6eb0ff"/><path d="m37.5 16.4h7v1h-7z" fill="#cccaca"/></g><g><path d="m37.5 18.8h5.1" fill="#6eb0ff"/><path d="m37.5 18.3h5.1v1h-5.1z" fill="#cccaca"/></g><g><path d="m37.5 24.1h6.9" fill="#6eb0ff"/><path d="m37.5 23.6h7v1h-7z" fill="#cccaca"/></g><g><path d="m37.5 25.9h5.1" fill="#6eb0ff"/><path d="m37.5 25.4h5.1v1h-5.1z" fill="#cccaca"/></g><g><path d="m37.5 31.2h6.9" fill="#6eb0ff"/><path d="m37.5 30.7h7v1h-7z" fill="#cccaca"/></g><g><path d="m37.5 33h5.1" fill="#6eb0ff"/><path d="m37.5 32.5h5.1v1h-5.1z" fill="#cccaca"/></g><g><path d="m37.5 38.3h6.9" fill="#6eb0ff"/><path d="m37.5 37.8h7v1h-7z" fill="#cccaca"/></g><g><path d="m37.5 40.2h5.1" fill="#6eb0ff"/><path d="m37.5 39.6h5.1v1h-5.1z" fill="#cccaca"/></g><g><g><path d="m9.7 38.4-2.3-3.4c-1.1.7-1.8 2-1.8 3.4 0 2.3 1.9 4.1 4.1 4.1 1.8 0 3.4-1.2 3.9-2.8z" fill="#6cd8d5"/></g><g><path d="m9.7 34.3c-.8 0-1.6.3-2.3.7l2.3 3.4 2.9-2.9c-.7-.8-1.7-1.2-2.9-1.2z" fill="#c5dfdc"/></g><g><path d="m9.7 38.4 3.9 1.3c.1-.4.2-.8.2-1.3 0-1.1-.5-2.2-1.2-2.9z" fill="#fecd04"/></g></g><g><g><path d="m24.9 38.4h-2.4c0 1-.8 1.7-1.7 1.7v2.4c2.2.1 4.1-1.8 4.1-4.1z" fill="#6cd8d5"/></g><g><path d="m20.7 40.1c-.9 0-1.7-.8-1.7-1.7h-2.4c0 2.3 1.8 4.1 4.1 4.1z" fill="#ff8c83"/></g><g><path d="m19 38.4c0-.9.8-1.7 1.7-1.7v-2.4c-2.3 0-4.1 1.9-4.1 4.1z" fill="#abb734"/></g><g><path d="m22.5 38.4h2.4c0-2.3-1.8-4.1-4.1-4.1v2.4c.9 0 1.7.8 1.7 1.7z" fill="#fa4968"/></g></g></g></svg>