<svg id="Capa_1" enable-background="new 0 0 510 510" height="512" viewBox="0 0 510 510" width="512" xmlns="http://www.w3.org/2000/svg"><g><path d="m30 225.132-10 73.667 10 76.333h45l97.188 124.206c10.206 13.005 29.538 14.157 41.21 2.38 9.016-9.102 10.495-23.151 3.78-33.921 9.816 10.947 26.525 12.177 37.822 2.972l10-80.31-10-71.536v-74.249l10-10.875-10-8.667z" fill="#ffdbcc"/><path d="m0 225.132h30v150h-30z" fill="#565686"/><path d="m171.33 299.172c15.578 31.141 55.638 40.768 83.67 19.75l10-38.359-10-35.886z" fill="#fdbba7"/><path d="m255 .132h-142.5l-45 60h-19.604c-26.411 0-47.896 21.486-47.896 47.895v12.105l30 29.999 108 10 117-10 10-50.999z" fill="#fc7267"/><path d="m508.928 150.132c-7.004-48.746-47.614-86.787-97.521-89.807l-60.194-60.193h-96.213v150l120 10z" fill="#e6225c"/><path d="m368.787 60.132h-98.787v-30h68.787z" fill="#fdf3f3"/><path d="m127.5 30.132h112.5v30h-135z" fill="#fdf3f3"/><path d="m30 150.132-13.75 10-16.25-10v-30h30z" fill="#fdd82e"/><path d="m0 150.132v30h255l10-15-10-15z" fill="#e6225c"/><path d="m510 165.132c0-5.092-.368-10.1-1.072-15h-253.928v30h255z" fill="#b0225c"/><circle cx="120" cy="172.632" fill="#565686" r="52.5"/><circle cx="120" cy="172.632" fill="#fdf3f3" r="22.5"/><path d="m269.333 243.966 15.667-18.834h-30v19.542z" fill="#fdbba7"/><circle cx="390" cy="172.632" fill="#565686" r="52.5"/><path d="m285.004 225.132c-3.192 2.08 9.546-6.219-30 19.544v74.246l82.54 100.74 67.46.47 45-30h30l10-87.333-10-77.667z" fill="#fda48a"/><circle cx="390" cy="172.632" fill="#fdf3f3" r="22.5"/><path d="m480 225.132h30v165h-30z" fill="#33a8d9"/><path d="m355.083 376.901-41.798-56.443-2.618-12.826-17.935-17.043-37.732 28.334v151.846c.76-.618 1.495-1.284 2.202-1.998 9.026-9.11 10.504-23.181 3.763-33.955l2.619 3.497c10.226 13.022 29.553 14.136 41.207 2.373 9.291-9.378 10.604-24.017 3.168-34.899-.085-.128-.211-.316 0 0l2.86 3.818c10.251 13.054 29.59 14.1 41.208 2.374v-.001c9.34-9.427 10.625-24.176 3.056-35.077z" fill="#fdbba7"/><g id="XMLID_38_"><g><path d="m382.5 290.462v30h-69.22l-5.5-7.43-15.05-22.44-.23.17v-.3z" fill="#eb907c"/></g></g></g></svg>