<svg id="Layer_1" enable-background="new 0 0 500 500" viewBox="0 0 500 500" xmlns="http://www.w3.org/2000/svg"><g clip-rule="evenodd" fill-rule="evenodd"><path d="m108.753 81.929.428 167.284h-13.52l-.429-167.284z" fill="#fa6e85"/><path d="m426.955 424.858h-90.615c-3.748 0-6.787-3.039-6.787-6.787v-96.855h13.574v90.068h83.828z" fill="#19cfba"/><path d="m426.955 395.282c12.586 0 22.789 10.203 22.789 22.789s-10.203 22.789-22.789 22.789-22.789-10.203-22.789-22.789 10.203-22.789 22.789-22.789z" fill="#19cfba"/><path d="m341.494 75.142c3.748 0 6.787 3.039 6.787 6.787s-3.039 6.787-6.787 6.787h-46.274l-59.657 107.648c-1.816 3.265-5.934 4.44-9.199 2.625-3.265-1.816-4.44-5.934-2.625-9.2l61.316-110.642c1.062-2.361 3.436-4.006 6.193-4.006h50.246z" fill="#19cfba"/><path d="m341.494 104.718c-12.586 0-22.789-10.203-22.789-22.789s10.203-22.789 22.789-22.789 22.789 10.203 22.789 22.789-10.203 22.789-22.789 22.789z" fill="#19cfba"/><ellipse cx="102.207" cy="81.929" fill="#fa6e85" rx="22.789" ry="22.789" transform="matrix(.139 -.99 .99 .139 6.894 171.784)"/><path d="m432.566 306.923h-389.395c-6.543 0-11.407-5.912-10.145-12.333 3.63-18.472 8.394-35.978 23.483-48.726 17.172-14.506 42.622-16.127 64.159-19.879 12.143-2.114 24.286-3.945 36.43-5.496 10.113-1.291 18.448-5.141 25.988-12.005 36.919-33.61 37.506-33.969 100.354-33.819 67.512.161 63.463-2.885 99.884 42.913 2.117 2.662 13.63 7.792 24.85 12.435 16.013 6.626 22.533 8.559 27.215 16.18 9.003 14.652 8.886 32.558 8.547 49.583-.122 6.184-5.186 11.147-11.37 11.147z" fill="#ffbf31"/><ellipse cx="133.969" cy="306.924" fill="#4187b5" rx="37.472" ry="37.472" transform="matrix(.139 -.99 .99 .139 -188.569 397.027)"/><ellipse cx="336.34" cy="306.924" fill="#4187b5" rx="37.472" ry="37.472" transform="matrix(.23 -.973 .973 .23 -39.649 563.749)"/><g fill="#fa6e85"><path d="m68.023 424.858c-3.748 0-6.787-3.039-6.787-6.787s3.039-6.787 6.787-6.787h104.277l58.823-106.144.397-46.647c.029-3.734 3.08-6.737 6.813-6.707 3.734.029 6.736 3.08 6.707 6.813l-.409 48.132c.035 1.176-.237 2.377-.85 3.48l-61.315 110.642c-1.062 2.361-3.436 4.006-6.193 4.006h-108.25z"/><ellipse cx="68.023" cy="418.071" rx="22.789" ry="22.789" transform="matrix(.707 -.707 .707 .707 -275.698 170.549)"/><path d="m336.012 221.604c-1.816 3.265-5.934 4.44-9.2 2.625-3.265-1.816-4.44-5.934-2.625-9.199l44.01-79.415c1.236-2.222 3.538-3.476 5.912-3.478v-.022h70.275c3.748 0 6.787 3.039 6.787 6.787s-3.039 6.787-6.787 6.787h-66.303z"/><path d="m444.385 161.691c-12.586 0-22.789-10.203-22.789-22.789s10.203-22.789 22.789-22.789 22.789 10.203 22.789 22.789c.001 12.586-10.202 22.789-22.789 22.789z"/></g></g></svg>