<svg id="Capa_1" enable-background="new 0 0 512 512" height="512" viewBox="0 0 512 512" width="512" xmlns="http://www.w3.org/2000/svg"><g><g><g><path d="m205.3 0 74.078 226.59-74.078 285.41h-190.3c-8.28 0-15-6.72-15-15v-482c0-8.28 6.72-15 15-15z" fill="#e6f2f2"/></g></g><path d="m413.23 133.58v363.42c0 8.28-6.72 15-15 15h-192.93v-113.344l22.202-36.809-22.202-36.09v-325.757h74.36c2.09 0 4.13.43 6 1.26l32.49 87.15 93.34 38.17c1.13 2.14 1.74 4.54 1.74 7z" fill="#b9d9d9"/><path d="m411.49 126.58h-110.83c-8.284 0-15-6.716-15-15v-110.32c1.7.74 3.27 1.79 4.61 3.13l118.57 118.58c1.07 1.07 1.96 2.29 2.65 3.61z" fill="#8fbfbf"/><g><path d="m358.335 212.067 20.808 38.437-20.808 43.614h-103.795l25.111-82.051z" fill="#e6f2f2"/><g><path d="m358.335 194.395 16.033 14.747-16.033 15.29h-70.674l-15.038 58.532c-1.642 6.909-7.8 11.564-14.608 11.564-1.141 0-2.303-.13-3.474-.41-8.07-1.912-13.066-10.002-11.154-18.072l17.782-70.086c1.612-6.778 7.659-11.564 14.618-11.564h82.548z" fill="#e62e6b"/></g><g><path d="m250.356 450.445c-8.294 0-15.018-6.724-15.018-15.018v-36.774c0-8.294 6.724-15.018 15.018-15.018s15.018 6.724 15.018 15.018v36.774c0 8.293-6.724 15.018-15.018 15.018z" fill="#4d628c"/></g><g><path d="m358.335 274.504 42.923 72.598-42.923 66.573h-138.017c-8.29 0-15.018-6.728-15.018-15.018v-72.9c0-28.265 22.998-51.253 51.263-51.253z" fill="#f66"/></g><circle cx="270.38" cy="343.585" fill="#ffe14d" r="14.948"/><path d="m358.335 212.067v82.051h104.425l-25.111-82.051z" fill="#b9d9d9"/><g><path d="m358.335 194.395v30.037h71.304l15.038 58.532c1.642 6.909 7.8 11.564 14.608 11.564 1.141 0 2.303-.13 3.474-.41 8.07-1.912 13.066-10.002 11.154-18.072l-17.782-70.086c-1.612-6.778-7.659-11.564-14.618-11.564h-83.178z" fill="#b32453"/></g><g><path d="m466.944 450.445c8.294 0 15.018-6.724 15.018-15.018v-36.774c0-8.294-6.724-15.018-15.018-15.018s-15.018 6.724-15.018 15.018v36.774c0 8.293 6.724 15.018 15.018 15.018z" fill="#283d66"/></g><g><path d="m358.335 274.504v139.171h138.647c8.29 0 15.018-6.728 15.018-15.018v-72.9c0-28.265-22.998-51.253-51.263-51.253z" fill="#e62e6b"/></g><circle cx="446.92" cy="343.585" fill="#fb3" r="14.948"/></g><g><g fill="#b9d9d9"><path d="m143.735 254h-82.17c-8.284 0-15 6.716-15 15s6.716 15 15 15h82.17c8.284 0 15-6.716 15-15s-6.715-15-15-15z"/><path d="m143.735 314h-82.17c-8.284 0-15 6.716-15 15s6.716 15 15 15h82.171c8.284 0 15-6.716 15-15s-6.716-15-15.001-15z"/><path d="m143.735 374h-82.17c-8.284 0-15 6.716-15 15s6.716 15 15 15h82.171c8.284 0 15-6.716 15-15s-6.716-15-15.001-15z"/></g><path d="m102.65 63.528 15.657 40.38-15.657 40.594c-22.357 0-40.487-18.121-40.487-40.487 0-22.358 18.13-40.487 40.487-40.487z" fill="#ffccbd"/><path d="m102.65 144.501 24.722 41.813-24.722 35.436h-57.908c-7.4 0-13.111-6.461-12.279-13.811 3.956-35.123 33.244-63.619 70.187-63.438z" fill="#9580ff"/><path d="m143.137 104.014c0 22.365-18.13 40.487-40.487 40.487v-80.973c22.357 0 40.487 18.129 40.487 40.486z" fill="#ffa68c"/><path d="m160.558 221.75h-57.908v-77.249c36.943-.181 66.231 28.315 70.186 63.437.833 7.351-4.878 13.812-12.278 13.812z" fill="#884dff"/></g></g></svg>