<svg id="Capa_1" enable-background="new 0 0 512 512" height="512" viewBox="0 0 512 512" width="512" xmlns="http://www.w3.org/2000/svg"><g><g><path d="m303.165 27.301h-199.306c-9.486 0-17.747 6.477-20.009 15.69l-17.979 73.214 135.945 10.534 139.338-10.534-17.979-73.214c-2.263-9.213-10.524-15.69-20.01-15.69z" fill="#f2f2f0"/><path d="m125.858 27.299-22.85 88.905-29.567 7.726-7.572-7.726 17.977-73.216c2.266-9.21 10.529-15.69 20.017-15.69h21.995z" fill="#e4e5e1"/><g><path d="m65.876 123.934c-.611 0-.006-7.728-.006-7.728l-7.504-1.843 17.98-73.214c3.118-12.702 14.432-21.574 27.512-21.574h199.305c13.08 0 24.394 8.871 27.512 21.574l17.979 73.214-7.503 1.843s-6.486 5.986-7.503 1.842l-17.979-73.214c-1.419-5.774-6.56-9.806-12.506-9.806h-199.303c-5.946 0-11.089 4.032-12.505 9.805l-17.981 73.215c-.866 3.525-4.024 5.885-7.498 5.886z" fill="#fec165"/></g><g><path d="m127.836 19.573-3.966 15.453h-20.006c-5.955 0-11.095 4.038-12.506 9.807l-17.988 73.216c-.865 3.523-4.018 5.882-7.489 5.882-.618 0-.01-7.726-.01-7.726l-7.5-1.844 17.977-73.215c3.121-12.702 14.433-21.572 27.516-21.572h23.972z" fill="#fea95c"/></g><path d="m394.71 229.746v-63.452c0-17.695-10.878-33.57-27.381-39.957l-26.176-10.131-3.547-2.192-4.402 2.192h-230.195l-38.755 3.338-19.801 6.794c-16.502 6.387-27.381 22.262-27.381 39.957v63.452l182.416 14.12z" fill="#ffd15b"/><path d="m103.009 116.205-43.299 27.578c-9.509 6.058-15.257 16.535-15.257 27.805v58.154l-15.612 11.41-16.53-11.41v-63.449c0-17.699 10.879-33.564 27.382-39.951l26.177-10.137 3.839-2.991 4.273 2.991z" fill="#fec165"/><path d="m116.214 198.148h-50.343c-11.831 0-21.423-9.591-21.423-21.423v-5.356c0-5.916 4.796-10.711 10.711-10.711h26.105c14.347 0 26.956 9.511 30.898 23.306z" fill="#f2f2f0"/><path d="m1.742 244.254-.003 25.811c0 5.916 4.733 10.711 10.572 10.711l32.142 2.117h94.791l64.268-8.97 64.269 8.97h128.676c5.839 0 10.572-4.796 10.572-10.711v-31.725c0-5.916-4.733-10.711-10.572-10.711h-128.677l-68.292 14.12-60.245-14.12h-94.79l-32.139 3.796c-5.839 0-10.572 4.796-10.572 10.712z" fill="#7e7d89"/><path d="m44.453 229.742v53.148h-33.883c-5.841 0-10.57-4.79-10.57-10.704v-31.73c0-5.913 4.729-10.714 10.57-10.714z" fill="#717182"/><path d="m139.244 229.746h128.537v53.147h-128.537z" fill="#f2f2f0"/><g fill="#ffd15b"><path d="m368.397 79.613h15.639c6.479 0 11.731 5.252 11.731 11.731 0 13.73-11.131 24.861-24.861 24.861h-37.702v-1.399c0-19.436 15.757-35.193 35.193-35.193z"/><path d="m38.514 79.327h-15.761c-6.53 0-11.823 5.293-11.823 11.823 0 13.838 11.218 25.056 25.056 25.056h37.997v-1.41c0-19.589-15.88-35.469-35.469-35.469z"/></g></g><g><path d="m476.526 403.523h-64.678l-10.998-21.623 10.998-19.482h74.98v30.803c0 5.689-4.612 10.302-10.302 10.302z" fill="#717182"/><path d="m408.136 115.796h-199.305c-9.486 0-17.747 6.477-20.009 15.69l-17.98 73.214 135.945 10.534 139.338-10.534-17.979-73.214c-2.263-9.213-10.523-15.69-20.01-15.69z" fill="#f2f2f0"/><path d="m230.83 115.794-22.85 88.906-29.567 7.726-7.572-7.726 17.977-73.216c2.266-9.21 10.529-15.69 20.017-15.69z" fill="#e4e5e1"/><g><path d="m170.848 212.429c-.611 0-.006-7.728-.006-7.728l-7.504-1.843 17.98-73.214c3.118-12.702 14.432-21.574 27.512-21.574h199.305c13.08 0 24.394 8.871 27.512 21.574l17.979 73.214-7.503 1.843s-6.486 5.986-7.503 1.842l-17.979-73.214c-1.419-5.774-6.56-9.806-12.506-9.806h-199.304c-5.946 0-11.089 4.032-12.505 9.805l-17.981 73.215c-.865 3.525-4.023 5.885-7.497 5.886z" fill="#0593fc"/></g><g><path d="m232.808 108.068-3.966 15.453h-20.006c-5.955 0-11.095 4.038-12.506 9.807l-17.987 73.216c-.865 3.523-4.018 5.882-7.489 5.882-.618 0-.01-7.726-.01-7.726l-7.5-1.844 17.977-73.215c3.121-12.702 14.433-21.572 27.516-21.572h23.971z" fill="#0182fc"/></g><path d="m499.682 318.241v-63.452c0-17.695-10.878-33.57-27.381-39.957l-26.176-10.132-3.547-2.192-4.402 2.192h-230.196l-38.755 3.338-19.801 6.794c-16.502 6.387-27.381 22.262-27.381 39.957v63.452l182.416 14.12z" fill="#26a6fe"/><path d="m207.98 204.7-43.299 27.578c-9.509 6.058-15.257 16.535-15.257 27.805v58.154l-15.612 11.41-16.53-11.41v-63.449c0-17.699 10.879-33.564 27.382-39.951l26.177-10.137 3.839-2.991 4.273 2.991z" fill="#0593fc"/><path d="m395.781 286.643h50.344c11.831 0 21.423-9.591 21.423-21.423v-5.356c0-5.916-4.796-10.711-10.711-10.711h-26.105c-14.347 0-26.956 9.511-30.898 23.306z" fill="#f2f2f0"/><path d="m106.713 332.749-.003 25.811c0 5.916 4.733 10.711 10.572 10.711l32.142 2.117h94.791l64.268-8.97 64.269 8.97h128.676c5.839 0 10.572-4.796 10.572-10.711v-31.725c0-5.916-4.733-10.711-10.572-10.711h-128.676l-68.292 14.12-60.245-14.12h-94.791l-32.139 3.796c-5.838 0-10.572 4.796-10.572 10.712z" fill="#7e7d89"/><path d="m149.424 318.237v53.148h-33.883c-5.841 0-10.57-4.79-10.57-10.704v-31.73c0-5.913 4.729-10.714 10.57-10.714z" fill="#717182"/><g fill="#26a6fe"><path d="m473.369 168.108h15.639c6.479 0 11.731 5.252 11.731 11.731 0 13.73-11.131 24.861-24.861 24.861h-37.702v-1.399c0-19.436 15.756-35.193 35.193-35.193z"/><path d="m139.056 167.822h-15.761c-6.53 0-11.823 5.293-11.823 11.823v5.119c0 11.011 8.926 19.937 19.937 19.937h43.116v-1.41c0-19.589-15.88-35.469-35.469-35.469z"/></g></g><g><path d="m388.695 492.427h-54.376c-5.69 0-10.302-4.612-10.302-10.302v-30.803h74.98v30.803c0 5.69-4.612 10.302-10.302 10.302z" fill="#717182"/><path d="m106.986 492.427h-54.376c-5.69 0-10.302-4.612-10.302-10.302v-29.305h74.98v29.305c0 5.69-4.613 10.302-10.302 10.302z" fill="#717182"/><path d="m320.305 204.7h-199.305c-9.486 0-17.747 6.477-20.009 15.69l-17.979 73.214 135.945 10.534 139.338-10.534-17.979-73.214c-2.264-9.212-10.524-15.69-20.011-15.69z" fill="#f2f2f0"/><path d="m142.999 204.699-22.85 88.905-29.567 7.726-7.572-7.726 17.977-73.215c2.266-9.21 10.529-15.69 20.017-15.69z" fill="#e4e5e1"/><g><path d="m83.017 301.333c-.611 0-.006-7.728-.006-7.728l-7.504-1.843 17.98-73.214c3.118-12.702 14.432-21.574 27.512-21.574h199.305c13.08 0 24.394 8.871 27.512 21.574l17.979 73.214-7.503 1.843s-6.486 5.986-7.503 1.842l-17.979-73.214c-1.419-5.774-6.56-9.806-12.506-9.806h-199.304c-5.946 0-11.089 4.032-12.505 9.805l-17.981 73.215c-.865 3.526-4.023 5.886-7.497 5.886z" fill="#6ed5a1"/></g><g><path d="m144.976 196.972-3.966 15.453h-20.006c-5.955 0-11.095 4.038-12.506 9.807l-17.988 73.216c-.865 3.523-4.018 5.882-7.489 5.882-.618 0-.01-7.726-.01-7.726l-7.5-1.844 17.977-73.215c3.122-12.702 14.433-21.572 27.516-21.572h23.972z" fill="#46cc8d"/></g><path d="m411.851 407.146v-63.452c0-17.695-10.878-33.57-27.381-39.957l-26.176-10.131-3.547-2.191-4.402 2.191h-230.196l-38.755 3.338-19.801 6.794c-16.502 6.387-27.381 22.262-27.381 39.957v63.452l182.416 14.12z" fill="#91deb6"/><path d="m120.149 293.604-43.299 27.578c-9.509 6.058-15.257 16.535-15.257 27.805v58.154l-15.612 11.41-16.53-11.41v-63.449c0-17.699 10.879-33.564 27.382-39.951l26.177-10.137 3.839-2.991 4.273 2.991z" fill="#6ed5a1"/><path d="m160.731 338.057h52.197l8.596 6.758 6.857-6.758h52.194c2.71 0 4.682 2.57 3.98 5.188l-4.402 16.425c-2.51 9.365-10.997 15.877-20.692 15.877h-31.079l-7.728-4.158-7.724 4.158h-31.083c-9.696 0-18.183-6.512-20.692-15.877l-4.402-16.425c-.704-2.618 1.268-5.188 3.978-5.188z" fill="#6ed5a1"/><path d="m133.355 375.547h-50.344c-11.831 0-21.423-9.591-21.423-21.423v-5.356c0-5.916 4.796-10.711 10.711-10.711h26.105c14.347 0 26.956 9.511 30.898 23.306z" fill="#f2f2f0"/><path d="m307.95 375.547h50.344c11.831 0 21.423-9.591 21.423-21.423v-5.356c0-5.916-4.796-10.711-10.711-10.711h-26.106c-14.347 0-26.956 9.511-30.898 23.306z" fill="#f2f2f0"/><g><path d="m212.928 338.057h15.453v37.489h-15.453z" fill="#46cc8d"/></g><path d="m18.882 421.653-.003 25.811c0 5.916 4.733 10.711 10.572 10.711l32.142 2.117h94.791l64.268-8.97 64.269 8.97h128.676c5.839 0 10.572-4.796 10.572-10.711v-31.725c0-5.916-4.733-10.711-10.572-10.711h-128.676l-68.292 14.12-60.245-14.12h-94.791l-32.139 3.796c-5.839.001-10.572 4.797-10.572 10.712z" fill="#7e7d89"/><path d="m61.593 407.141v53.148h-33.883c-5.841 0-10.57-4.79-10.57-10.704v-31.73c0-5.913 4.729-10.714 10.57-10.714z" fill="#717182"/><path d="m156.384 407.146h128.537v53.147h-128.537z" fill="#f2f2f0"/><g fill="#91deb6"><path d="m385.538 257.013h15.639c6.479 0 11.731 5.252 11.731 11.731 0 13.73-11.131 24.861-24.861 24.861h-37.702v-1.399c-.001-19.437 15.756-35.193 35.193-35.193z"/><path d="m55.654 256.726h-15.761c-6.53 0-11.823 5.293-11.823 11.823 0 13.838 11.218 25.056 25.056 25.056h37.997v-1.41c0-19.589-15.88-35.469-35.469-35.469z"/></g></g></g></svg>