<?xml version="1.0" encoding="iso-8859-1"?>
<!-- Generator: Adobe Illustrator 19.0.0, SVG Export Plug-In . SVG Version: 6.00 Build 0)  -->
<svg version="1.1" id="Capa_1" xmlns="http://www.w3.org/2000/svg" xmlns:xlink="http://www.w3.org/1999/xlink" x="0px" y="0px"
	 viewBox="0 0 512 512" style="enable-background:new 0 0 512 512;" xml:space="preserve">
<g>
	<polygon style="fill:#9DB6D1;" points="188.248,272.533 188.248,265.626 163.918,265.626 163.918,282.197 190.961,336.984 
		215.487,332.016 215.487,324.762 	"/>
	<polygon style="fill:#9DB6D1;" points="348.082,272.533 323.752,272.533 296.987,323.855 296.987,336.984 328.265,336.984 
		327.516,323.855 348.082,282.197 	"/>
	<polygon style="fill:#9DB6D1;" points="446.402,269.27 430.737,273.513 391.266,371.371 382.405,393.482 382.405,415.471 
		403.083,415.471 405.437,407.995 455.243,282.012 455.97,278.501 	"/>
	<polygon style="fill:#9DB6D1;" points="81.263,273.513 81.206,270.133 56.757,270.133 56.757,282.012 106.563,407.995 
		106.563,417.074 135.514,417.074 135.514,407.995 	"/>
	<polygon style="fill:#9DB6D1;" points="409.738,140.268 409.577,131.676 381.231,131.676 381.231,140.268 429.84,243.345 
		453.644,243.345 453.644,233.382 453.644,233.371 	"/>
</g>
<g>
	<polygon style="fill:#83A3BA;" points="404.757,371.371 444.228,273.513 449.359,272.123 446.402,269.27 430.737,273.513 
		391.266,371.371 382.405,393.482 382.405,415.471 395.896,415.471 395.896,393.482 	"/>
	<polygon style="fill:#83A3BA;" points="394.721,131.676 381.231,131.676 381.231,140.268 429.84,243.345 443.33,243.345 
		394.721,140.268 	"/>
</g>
<polygon style="fill:#9DB6D1;" points="309.106,140.268 308.981,127.931 281.032,127.931 281.032,140.268 324.793,241.839 
	324.793,251.634 349.392,233.774 349.392,233.763 "/>
<g>
	<polygon style="fill:#83A3BA;" points="339.707,272.533 323.752,272.533 296.987,323.855 296.987,336.984 312.943,336.984 
		312.943,323.855 	"/>
	<polygon style="fill:#83A3BA;" points="340.161,240.476 296.987,140.268 296.987,127.931 281.032,127.931 281.032,140.268 
		324.793,241.839 324.793,251.634 	"/>
</g>
<polygon style="fill:#9DB6D1;" points="129.858,134.604 102.262,134.604 102.262,140.268 58.356,233.371 58.356,233.382 
	58.356,239.379 82.16,243.345 130.769,140.268 130.769,134.604 "/>
<g>
	<polygon style="fill:#83A3BA;" points="121.631,417.074 121.631,408.848 71.826,282.864 71.826,270.986 81.221,270.986 
		81.206,270.133 56.757,270.133 56.757,282.012 106.563,407.995 106.563,417.074 	"/>
	<polygon style="fill:#83A3BA;" points="73.424,240.232 73.424,234.235 73.424,234.224 117.33,141.121 117.33,135.457 
		130.769,135.457 130.769,134.604 129.858,134.604 102.262,134.604 102.262,140.268 58.356,233.371 58.356,233.382 58.356,239.379 
		82.16,243.345 82.884,241.808 	"/>
</g>
<polygon style="fill:#9DB6D1;" points="202.894,132.893 202.894,140.268 162.608,233.763 162.608,233.774 162.608,242.253 
	187.207,241.839 230.968,140.268 230.968,132.893 "/>
<g>
	<polygon style="fill:#83A3BA;" points="178.433,282.197 178.433,265.626 163.918,265.626 163.918,282.197 190.961,336.984 
		204.156,334.312 	"/>
	<polygon style="fill:#83A3BA;" points="177.123,233.774 177.123,233.763 217.409,140.268 217.409,132.893 202.894,132.893 
		202.894,140.268 162.608,233.763 162.608,233.774 162.608,242.253 177.123,242.008 	"/>
</g>
<path style="fill:#FEE24C;" d="M429.273,407.995h-23.835h-6.962l-7.209-36.624l-4.012-20.37
	c-3.115-15.77-16.946-27.146-33.015-27.146h-26.723h-30.529h-71.805c-3.3,0-6.549,0.309-9.695,0.908
	c-9.396,1.753-17.946,6.044-24.526,12.222c-3.837,3.589-7.013,7.818-9.303,12.552l-28.27,58.459h-17.874h-28.951H82.727
	c-17.668,0-32.53,12.005-36.882,28.312c-0.835,3.146-1.279,6.446-1.279,9.85v13.81v26.847v18.018c0,2.89,1.711,5.372,4.174,6.507
	c0.145,0.067,0.294,0.129,0.445,0.187c0.793,0.302,1.65,0.474,2.55,0.474h62.976c0-0.144-0.01-0.289-0.01-0.433
	c0-7.685,1.876-14.933,5.187-21.321c0.607-1.173,1.258-2.321,1.961-3.432c8.22-13.016,22.732-21.659,39.265-21.659
	s31.045,8.643,39.265,21.659c0.702,1.112,1.353,2.26,1.961,3.432c3.311,6.387,5.187,13.636,5.187,21.321
	c0,0.144-0.01,0.289-0.01,0.433h96.971c0-0.144-0.01-0.289-0.01-0.433c0-7.685,1.876-14.933,5.187-21.321
	c0.607-1.173,1.258-2.321,1.961-3.432c8.22-13.016,22.732-21.659,39.265-21.659c16.533,0,31.045,8.643,39.265,21.659
	c0.702,1.112,1.353,2.26,1.961,3.432c3.311,6.387,5.187,13.636,5.187,21.321c0,0.144-0.01,0.289-0.01,0.433h62.976
	c0.899,0,1.756-0.172,2.55-0.474c0.151-0.058,0.299-0.12,0.445-0.187c2.462-1.135,4.174-3.617,4.174-6.507v-18.018v-38.161v-2.496
	C467.434,425.075,450.344,407.995,429.273,407.995z"/>
<path style="fill:#F9CC4E;" d="M62.1,485.535v-13.81c0-3.404,0.443-6.704,1.279-9.85c4.352-16.306,19.215-28.312,36.882-28.312
	h23.835h28.951h6.199c7.14,0,13.65-4.083,16.759-10.511l23.187-47.948c2.29-4.734,5.466-8.963,9.303-12.552
	c6.58-6.178,15.13-10.469,24.526-12.222c3.146-0.598,6.395-0.908,9.695-0.908h71.805h30.529h26.723
	c5.738,0,11.185,1.456,15.966,4.039l-0.485-2.461c-3.115-15.77-16.946-27.146-33.015-27.146h-26.723h-30.529h-71.805
	c-3.3,0-6.549,0.309-9.695,0.908c-9.396,1.753-17.946,6.044-24.526,12.222c-3.837,3.589-7.013,7.818-9.303,12.552l-28.27,58.459
	h-17.874h-28.951H82.727c-17.668,0-32.53,12.005-36.882,28.312c-0.835,3.146-1.279,6.446-1.279,9.85v13.81v26.847v18.018
	c0,2.89,1.711,5.372,4.174,6.507c0.145,0.067,0.294,0.129,0.445,0.187c0.793,0.302,1.65,0.474,2.55,0.474H62.1V485.535z"/>
<g>
	<path style="fill:#E2AE2B;" d="M407.428,512c-3.11-4.817-7.083-9.02-11.706-12.391c1.018,3.817,1.578,7.821,1.578,11.958
		c0,0.144-0.01,0.289-0.01,0.433H407.428z"/>
	<path style="fill:#E2AE2B;" d="M217.653,512c-3.11-4.817-7.083-9.02-11.706-12.391c1.018,3.817,1.578,7.821,1.578,11.958
		c0,0.144-0.01,0.289-0.01,0.433H217.653z"/>
</g>
<path style="fill:#32374F;" d="M453.644,233.382c-1.217-0.196-2.475-0.289-3.744-0.289c-8.251,0-15.564,4.043-20.06,10.252
	c-2.95,4.074-4.693,9.087-4.693,14.501c0,5.941,2.104,11.397,5.59,15.667c4.548,5.549,11.438,9.086,19.163,9.086
	c1.836,0,3.62-0.196,5.343-0.588c11.098-2.434,19.411-12.335,19.411-24.165C474.654,245.459,465.536,235.187,453.644,233.382z"/>
<g>
	<circle style="fill:#9DB6D1;" cx="449.9" cy="257.846" r="6.704"/>
	<path style="fill:#9DB6D1;" d="M436.087,3.627C435.77,1.542,433.969,0,431.859,0h-351.4c-2.246,0-4.112,1.741-4.267,3.981
		c-1.454,21.022,3.014,42.036,13.404,63.059v6.675h332.725V67.04h0.082C434.7,46.038,439.314,24.898,436.087,3.627z"/>
</g>
<path style="fill:#83A3BA;" d="M123.566,3.981c0.155-2.24,2.02-3.981,4.267-3.981H80.459c-2.246,0-4.112,1.741-4.267,3.981
	c-1.454,21.022,3.014,42.036,13.404,63.059v6.675h47.374V67.04C126.58,46.017,122.112,25.003,123.566,3.981z"/>
<path style="fill:#32374F;" d="M349.392,233.774c-1.836-0.454-3.754-0.681-5.724-0.681c-7.56,0-14.336,3.393-18.874,8.746
	c-3.661,4.322-5.879,9.912-5.879,16.007c0,5.497,1.795,10.572,4.837,14.687c4.497,6.106,11.747,10.066,19.916,10.066
	c1.506,0,2.981-0.134,4.414-0.402c11.562-2.073,20.339-12.191,20.339-24.351C368.421,246.15,360.304,236.342,349.392,233.774z"/>
<circle style="fill:#9DB6D1;" cx="343.668" cy="257.846" r="6.704"/>
<path style="fill:#32374F;" d="M187.207,241.839c-4.538-5.353-11.314-8.746-18.874-8.746c-1.97,0-3.888,0.227-5.724,0.681
	c-10.912,2.568-19.029,12.377-19.029,24.073c0,12.16,8.777,22.278,20.339,24.351c1.434,0.268,2.909,0.402,4.414,0.402
	c8.169,0,15.419-3.961,19.916-10.066c3.043-4.115,4.837-9.19,4.837-14.687C193.086,251.751,190.868,246.161,187.207,241.839z"/>
<circle style="fill:#9DB6D1;" cx="168.332" cy="257.846" r="6.704"/>
<g>
	<path style="fill:#F1C340;" d="M418.959,76.322v56.51c0,4.105-3.331,7.436-7.436,7.436h-1.784h-28.507h-3.311
		c-4.105,0-7.436-3.331-7.436-7.436v-56.51H418.959z"/>
	<path style="fill:#F1C340;" d="M318.914,76.322v56.51c0,4.105-3.331,7.436-7.436,7.436h-2.372h-28.074h-3.156
		c-4.105,0-7.436-3.331-7.436-7.436v-56.51H318.914z"/>
	<path style="fill:#F1C340;" d="M241.561,76.322v56.51c0,4.105-3.331,7.436-7.436,7.436h-3.156h-28.074h-2.372
		c-4.105,0-7.436-3.331-7.436-7.436v-56.51H241.561z"/>
	<path style="fill:#F1C340;" d="M141.516,76.322v56.51c0,4.105-3.331,7.436-7.436,7.436h-3.311h-28.507h-1.784
		c-4.105,0-7.436-3.331-7.436-7.436v-56.51H141.516z"/>
</g>
<g>
	<path style="fill:#E2AE2B;" d="M395.515,132.832v-56.51h-25.032v56.51c0,4.105,3.331,7.436,7.436,7.436h3.311h21.721
		C398.847,140.268,395.515,136.937,395.515,132.832z"/>
	<path style="fill:#E2AE2B;" d="M295.471,132.832v-56.51h-25.032v56.51c0,4.105,3.331,7.436,7.436,7.436h3.156h21.876
		C298.802,140.268,295.471,136.937,295.471,132.832z"/>
	<path style="fill:#E2AE2B;" d="M218.117,132.832v-56.51h-25.032v56.51c0,4.105,3.331,7.436,7.436,7.436h2.372h22.66
		C221.449,140.268,218.117,136.937,218.117,132.832z"/>
	<path style="fill:#E2AE2B;" d="M118.073,132.832v-56.51H93.041v56.51c0,4.105,3.331,7.436,7.436,7.436h1.784h23.247
		C121.404,140.268,118.073,136.937,118.073,132.832z"/>
</g>
<path style="fill:#32374F;" d="M82.16,243.345c-4.497-6.209-11.809-10.252-20.06-10.252c-1.269,0-2.527,0.093-3.744,0.289
	c-11.892,1.805-21.009,12.078-21.009,24.464c0,11.83,8.313,21.731,19.411,24.165c1.722,0.392,3.507,0.588,5.343,0.588
	c7.725,0,14.615-3.538,19.163-9.086c3.486-4.27,5.59-9.726,5.59-15.667C86.853,252.431,85.11,247.419,82.16,243.345z"/>
<circle style="fill:#9DB6D1;" cx="62.1" cy="257.846" r="6.704"/>
<path style="fill:#4FCCD6;" d="M467.434,448.652v38.161h-31.973v-29.384c0-4.848,3.93-8.777,8.777-8.777H467.434z"/>
<g>
	<path style="fill:#FE715A;" d="M467.434,486.814v18.018c0,3.961-3.208,7.168-7.168,7.168h-62.976c0-0.144,0.01-0.289,0.01-0.433
		c0-9.097-2.62-17.585-7.147-24.753h45.309H467.434z"/>
	<path style="fill:#FE715A;" d="M271.79,486.814h39.832c-4.528,7.168-7.147,15.656-7.147,24.753c0,0.144,0.01,0.289,0.01,0.433
		h-96.971c0-0.144,0.01-0.289,0.01-0.433c0-9.097-2.62-17.585-7.147-24.753H271.79z"/>
	<path style="fill:#FE715A;" d="M44.566,486.814h77.282c-4.528,7.168-7.147,15.656-7.147,24.753c0,0.144,0.01,0.289,0.01,0.433
		H51.734c-3.961,0-7.168-3.208-7.168-7.168V486.814z"/>
</g>
<path style="fill:#4FCCD6;" d="M86.853,447.951c0.103,6.632-5.25,12.047-11.861,12.047H44.597c-0.01,0-0.031-0.021-0.031-0.031
	v-13.81c0-3.404,0.443-6.704,1.279-9.85h0.01c0.01-0.021,0.021-0.031,0.041-0.031h28.672
	C81.118,436.276,86.75,441.402,86.853,447.951z"/>
<path style="fill:#33C1C4;" d="M361.954,355.982l9.853,50.004c0.25,1.264-0.719,2.442-2.008,2.442h-85.116v-58.789h69.557
	C357.983,349.639,361.232,352.311,361.954,355.982z"/>
<path style="fill:#4FCCD6;" d="M284.683,349.639v58.789H271.79h-86.704c-1.51,0-2.499-1.578-1.842-2.937l21.631-44.723
	c3.218-6.663,11.376-11.129,20.308-11.129H284.683z"/>
<path style="fill:#6C7D98;" d="M431.387,71.114c2.517,2.527,4.074,6.003,4.074,9.85c0,7.694-6.23,13.924-13.924,13.924h-2.578
	h-48.475h-51.569h-48.475h-28.879h-48.475h-51.569H93.041h-2.578c-3.847,0-7.323-1.557-9.85-4.074
	c-2.517-2.527-4.074-6.003-4.074-9.85c0-7.694,6.23-13.924,13.924-13.924h331.075C425.384,67.04,428.86,68.597,431.387,71.114z"/>
<path style="fill:#526882;" d="M335.417,80.964h-48.475h-28.879h-48.475h-51.569h-48.475h-2.578c-3.847,0-7.323-1.557-9.85-4.074
	c-2.517-2.527-4.074-6.003-4.074-9.85h-2.578c-7.694,0-13.924,6.23-13.924,13.924c0,3.847,1.557,7.323,4.074,9.85
	c2.527,2.517,6.003,4.074,9.85,4.074h2.578h48.475h51.569h48.475h28.879h48.475h51.569h48.475h2.578
	c7.694,0,13.924-6.23,13.924-13.924h-48.475H335.417z"/>
<g>
</g>
<g>
</g>
<g>
</g>
<g>
</g>
<g>
</g>
<g>
</g>
<g>
</g>
<g>
</g>
<g>
</g>
<g>
</g>
<g>
</g>
<g>
</g>
<g>
</g>
<g>
</g>
<g>
</g>
</svg>
