<svg id="Layer_1" height="512" viewBox="0 0 256 256" width="512" xmlns="http://www.w3.org/2000/svg"><g><g><g><g><path d="m191.211 243h-155.281c-5.523 0-10-4.477-10-10v-197.079c0-5.523 4.477-10 10-10h155.281c5.523 0 10 4.477 10 10v197.079c0 5.523-4.477 10-10 10z" fill="#7c3108"/></g></g><g><g><path d="m195.32 26.812c.567 1.255.89 2.643.89 4.109v197.079c0 5.523-4.477 10-10 10h-155.28c-1.466 0-2.855-.323-4.11-.89 1.569 3.471 5.053 5.89 9.11 5.89h155.281c5.523 0 10-4.477 10-10v-197.079c0-4.056-2.42-7.541-5.891-9.109z" fill="#6d2e03"/></g></g><g><g><path d="m177.053 228.843h-126.966c-5.523 0-10-4.477-10-10v-168.764c0-5.523 4.477-10 10-10h126.966c5.523 0 10 4.477 10 10v168.764c0 5.523-4.477 10-10 10z" fill="#f1f2f2"/></g></g><g><g><g><g><g><path d="m82.57 89.906h-20c-2.761 0-5-2.239-5-5v-20c0-2.761 2.239-5 5-5h20c2.761 0 5 2.239 5 5v20c0 2.761-2.238 5-5 5z" fill="#5a7a39"/></g></g><g><g><path d="m70.845 84.289c-.516 0-1.013-.199-1.387-.559l-8.152-7.847c-.795-.767-.82-2.032-.054-2.828s2.032-.82 2.828-.055l6.558 6.313 10.235-13.026c.682-.868 1.939-1.021 2.809-.337.868.682 1.019 1.939.337 2.808l-11.601 14.766c-.35.444-.871.721-1.435.76-.046.003-.092.005-.138.005z" fill="#fff"/></g></g></g><g><g><path d="m169.57 76.906h-72c-1.104 0-2-.896-2-2s.896-2 2-2h72c1.104 0 2 .896 2 2s-.895 2-2 2z" fill="#939598"/></g></g></g><g><g><g><g><path d="m82.57 129.906h-20c-2.761 0-5-2.239-5-5v-20c0-2.761 2.239-5 5-5h20c2.761 0 5 2.239 5 5v20c0 2.761-2.238 5-5 5z" fill="#5a7a39"/></g></g><g><g><path d="m70.845 124.289c-.516 0-1.013-.199-1.387-.559l-8.152-7.847c-.795-.767-.82-2.032-.054-2.828.766-.797 2.032-.82 2.828-.055l6.558 6.313 10.235-13.026c.682-.868 1.939-1.021 2.809-.337.868.682 1.019 1.939.337 2.808l-11.602 14.766c-.35.444-.871.721-1.435.76-.045.003-.091.005-.137.005z" fill="#fff"/></g></g></g><g><g><path d="m169.57 116.906h-72c-1.104 0-2-.896-2-2s.896-2 2-2h72c1.104 0 2 .896 2 2s-.895 2-2 2z" fill="#939598"/></g></g></g><g><g><g><g><path d="m82.57 169.906h-20c-2.761 0-5-2.239-5-5v-20c0-2.761 2.239-5 5-5h20c2.761 0 5 2.239 5 5v20c0 2.761-2.238 5-5 5z" fill="#5a7a39"/></g></g><g><g><path d="m70.845 164.289c-.516 0-1.013-.199-1.387-.559l-8.152-7.847c-.795-.767-.82-2.032-.054-2.828.766-.797 2.032-.82 2.828-.055l6.558 6.313 10.235-13.026c.682-.868 1.939-1.021 2.809-.337.868.682 1.019 1.939.337 2.808l-11.602 14.766c-.35.444-.871.721-1.435.76-.045.003-.091.005-.137.005z" fill="#fff"/></g></g></g><g><g><path d="m169.57 156.906h-72c-1.104 0-2-.896-2-2s.896-2 2-2h72c1.104 0 2 .896 2 2s-.895 2-2 2z" fill="#939598"/></g></g></g><g><g><g><g><path d="m82.57 209.906h-20c-2.761 0-5-2.239-5-5v-20c0-2.761 2.239-5 5-5h20c2.761 0 5 2.239 5 5v20c0 2.761-2.238 5-5 5z" fill="#5a7a39"/></g></g><g><g><path d="m70.845 204.289c-.516 0-1.013-.199-1.387-.559l-8.152-7.847c-.795-.767-.82-2.032-.054-2.828s2.032-.82 2.828-.055l6.558 6.313 10.235-13.026c.682-.868 1.939-1.021 2.809-.337.868.682 1.019 1.939.337 2.808l-11.602 14.766c-.35.444-.871.721-1.435.76-.045.003-.091.005-.137.005z" fill="#fff"/></g></g></g><g><g><path d="m169.57 196.906h-72c-1.104 0-2-.896-2-2s.896-2 2-2h72c1.104 0 2 .896 2 2s-.895 2-2 2z" fill="#939598"/></g></g></g></g><g><g><path d="m46.087 113.5c-1.104 0-2-.896-2-2v-51c0-1.104.896-2 2-2s2 .896 2 2v51c0 1.104-.896 2-2 2zm0-59c-1.104 0-2-.896-2-2v-1c0-1.104.896-2 2-2s2 .896 2 2v1c0 1.104-.896 2-2 2z" fill="#fff"/></g></g><g><g><path d="m177.053 40.079v168.764c0 5.523-4.477 10-10 10h-126.966c0 5.523 4.477 10 10 10h126.966c5.523 0 10-4.477 10-10v-168.764c0-5.523-4.477-10-10-10z" fill="#e6e7e8"/></g></g><g><g><path d="m181.163 40.969c.567 1.255.89 2.643.89 4.11v168.764c0 5.523-4.477 10-10 10h-126.966c-1.466 0-2.855-.323-4.11-.89 1.569 3.471 5.053 5.89 9.11 5.89h126.966c5.523 0 10-4.477 10-10v-168.764c0-4.057-2.419-7.541-5.89-9.11z" fill="#d1d3d4"/></g></g><g><g><path d="m155.031 18.674h-23.454c-1.234-8.853-8.814-15.674-18.007-15.674s-16.773 6.821-18.006 15.674h-23.455c-4.468 0-8.09 3.622-8.09 8.09v17.191c0 2.234 1.811 4.045 4.045 4.045h91.011c2.234 0 4.045-1.811 4.045-4.045v-17.191c.001-4.468-3.621-8.09-8.089-8.09zm-41.461 6.573c-3.351 0-6.067-2.716-6.067-6.067s2.717-6.067 6.067-6.067c3.351 0 6.067 2.717 6.067 6.067.001 3.351-2.716 6.067-6.067 6.067z" fill="#f79219"/></g></g><g><g><path d="m157.671 19.124c.286.828.45 1.714.45 2.64v17.191c0 2.234-1.811 4.045-4.045 4.045h-90.056v.955c0 2.234 1.811 4.045 4.045 4.045h91.011c2.234 0 4.045-1.811 4.045-4.045v-17.191c0-3.542-2.28-6.545-5.45-7.64z" fill="#ef7816"/></g></g></g><g><g><g><g><circle cx="187.57" cy="210.5" fill="#91b56b" r="42.5"/></g></g><g><g><circle cx="187.57" cy="210.5" fill="#648940" r="32.5"/></g></g><g><g><path d="m207.91 185.16c4.476 5.569 7.16 12.639 7.16 20.34 0 17.949-14.551 32.5-32.5 32.5-7.701 0-14.771-2.684-20.34-7.16 5.957 7.411 15.092 12.16 25.34 12.16 17.949 0 32.5-14.551 32.5-32.5 0-10.249-4.748-19.383-12.16-25.34z" fill="#5a7a39"/></g></g></g><g><g><path d="m183.575 227.827c-.98 0-1.963-.358-2.734-1.082l-12.523-11.739c-1.612-1.511-1.693-4.042-.183-5.653s4.042-1.694 5.653-.183l9.606 9.005 17.776-18.945c1.512-1.61 4.043-1.691 5.654-.18 1.61 1.512 1.691 4.043.18 5.654l-20.512 21.86c-.786.839-1.85 1.263-2.917 1.263z" fill="#fff"/></g></g></g></g></svg>