<svg id="Flat" viewBox="0 0 64 64" xmlns="http://www.w3.org/2000/svg"><path d="m7.75 21v13a2.252 2.252 0 0 0 2.25 2.25h2a5.75 5.75 0 0 1 0 11.5h-6a2.25 2.25 0 0 0 0 4.5h17a1.75 1.75 0 0 1 0 3.5h-17a5.75 5.75 0 0 1 0-11.5h6a2.25 2.25 0 0 0 0-4.5h-2a5.757 5.757 0 0 1 -5.75-5.75v-11.25z" fill="#f5465a"/><path d="m60.75 62v-56a5.757 5.757 0 0 0 -5.75-5.75h-28a5.757 5.757 0 0 0 -5.75 5.75v56z" fill="#ff5a6e"/><rect fill="#40beff" height="16.5" rx="1.75" width="25.5" x="28.25" y="7.25"/><path d="m52 30.75h-14a1.75 1.75 0 0 1 0-3.5h14a1.75 1.75 0 0 1 0 3.5z" fill="#f3f9ff"/><path d="m62 63.75h-60a1.75 1.75 0 0 1 0-3.5h60a1.75 1.75 0 0 1 0 3.5z" fill="#6e6870"/><g fill="#f3f9ff"><circle cx="52" cy="36" r="1.75"/><circle cx="45" cy="36" r="1.75"/><circle cx="38" cy="36" r="1.75"/></g><path d="m17.5 6.1a1.749 1.749 0 0 0 -2.4-.6l-10 6a1.748 1.748 0 0 0 -.85 1.5v9.75h5.75a4.756 4.756 0 0 0 4.75-4.75v-8.209l2.15-1.291a1.748 1.748 0 0 0 .6-2.4zm-6.25 11.9a1.252 1.252 0 0 1 -1.25 1.25h-2.25v-5.259l3.5-2.1z" fill="#6e6870"/><path d="m39.516 42.073-3.525 5.64a5.907 5.907 0 0 0 5.009 9.037 5.907 5.907 0 0 0 5.009-9.037l-3.525-5.64a1.75 1.75 0 0 0 -2.968 0z" fill="#ffe148"/></svg>