<svg id="Layer_3" height="512" viewBox="0 0 64 64" width="512" xmlns="http://www.w3.org/2000/svg" data-name="Layer 3"><path d="m51 53h-4v-8a7 7 0 0 1 7-7 7 7 0 0 1 7 7v8z" fill="#3648bb"/><path d="m58 52h3v-7a7 7 0 0 0 -7-7 6.968 6.968 0 0 0 -4.423 1.576 6.968 6.968 0 0 0 -1.577 4.424v4a4 4 0 0 0 4 4z" fill="#6d91cb"/><path d="m7.34 42.3.7-3.494a12.2 12.2 0 0 1 11.96-9.806 12.2 12.2 0 0 1 11.961 9.806l.7 3.494z" fill="#6d91cb"/><path d="m52 6h-40v16h7.25l.75 3 1.5-3h25.5l3 3v-3h2z" fill="#ef5735"/><path d="m30 20h22v-14h-37.862a15.993 15.993 0 0 0 15.862 14z" fill="#f58b8e"/><path d="m57 53h-6v-3a3 3 0 0 1 3-3 3 3 0 0 1 3 3z" fill="#273993"/><path d="m52 53v3a2 2 0 0 0 2 2 2 2 0 0 0 2-2v-3" fill="#333"/><path d="m59 27h-2a1 1 0 0 0 -1 1v7h2v-5h1a1 1 0 0 0 1-1v-1a1 1 0 0 0 -1-1z" fill="#808080"/><path d="m2 50h36v4h-36z" fill="#808080"/><path d="m4 54v1a3 3 0 0 0 3 3 3 3 0 0 0 3-3v-1" fill="#333"/><path d="m30 54v1a3 3 0 0 0 3 3 3 3 0 0 0 3-3v-1" fill="#333"/><path d="m10 41.081a4 4 0 1 1 8-.081h-2a2 2 0 0 0 -4 0z" fill="#808080"/><g fill="#fff"><path d="m18.041 11v3a1 1 0 0 0 1 1h2v1h-3v2h4a1 1 0 0 0 1-1v-3a1 1 0 0 0 -1-1h-2v-1h3v-2h-4a1 1 0 0 0 -1 1z"/><path d="m37.041 10h-2v7a1 1 0 0 0 1 1h3v-2h-2z"/><path d="m31.042 10h-4a1 1 0 0 0 -1 1v7h2v-2h2v2h2v-7a1 1 0 0 0 -1-1zm-3 4v-2h2v2z"/><path d="m46.041 12v-2h-3a1 1 0 0 0 -1 1v6a1 1 0 0 0 1 1h3v-2h-2v-1h1v-2h-1v-1z"/><path d="m20 29c-.352 0-.7.016-1.046.046l-11.204 11.204-.41 2.05h5.86l12.088-12.088a12.154 12.154 0 0 0 -5.288-1.212z"/><path d="m30.31 34.69c-.129-.2-.26-.405-.4-.6l-8.21 8.21h1z"/><path d="m28 32-10.3 10.3h2.5l9.05-9.05a12.292 12.292 0 0 0 -1.25-1.25z"/></g><path d="m29.03 33h-18.06a12.2 12.2 0 0 1 16.76-1.24 12.7 12.7 0 0 1 1.3 1.24z" fill="#769b42"/><path d="m3 50a9 9 0 0 1 9-9h16a9 9 0 0 1 9 9" fill="#afd485"/><path d="m30.24 41.28c-1.6 3.35-5.58 5.72-10.24 5.72s-8.64-2.37-10.24-5.72a9.225 9.225 0 0 1 2.24-.28h16a9.225 9.225 0 0 1 2.24.28z" fill="#93bc62"/><circle cx="8" cy="46" fill="#f6b94d" r="2"/><path d="m19 41h2v6h-2z" fill="#769b42"/><circle cx="32" cy="46" fill="#f6b94d" r="2"/><rect fill="#93bc62" height="3" rx="1.5" width="4" x="32" y="40"/><rect fill="#93bc62" height="3" rx="1.5" width="4" x="4" y="40"/><path d="m2 52h36v2h-36z" fill="#4d4d4d"/><path d="m45 34h18v2h-18z" fill="#3648bb"/><circle cx="54" cy="35" fill="#3648bb" r="3"/><circle cx="54" cy="35" fill="#6d91cb" r="2"/><path d="m53 48h2v-9.92a7.026 7.026 0 0 0 -1-.08 6.858 6.858 0 0 0 -1 .088z" fill="#273993"/></svg>