<svg height="512" viewBox="0 0 59 58" width="512" xmlns="http://www.w3.org/2000/svg"><g id="Page-1" fill="none" fill-rule="evenodd"><g id="023---Searching"><path id="Path" d="m20.435 37.116 3.975-14.886c.3460895-1.3127465 1.5323999-2.2281348 2.89-2.23h17.4c1.3576001.0018652 2.5439105.9172535 2.89 2.23l3.975 14.886z" fill="#2fa8cc"/><path id="Path" d="m46.07 20.33c-4.49.49-19.14 3.12-24.49 16.79h-1.15l3.98-14.89c.3460895-1.3127465 1.5323999-2.2281348 2.89-2.23h17.4c.4763408.0000843.9458653.1131814 1.37.33z" fill="#67b9cc"/><path id="Path" d="m56.25 30.25h-3c-1.0486182.001907-1.9165846.8156802-1.986 1.862l-2.707-10.138c-.4644098-1.7500099-2.0464216-2.9698448-3.857-2.974h-17.4c-1.8096347.0043652-3.3909278 1.2231419-3.856 2.972l-3.975 14.886c-.0990438.3474118-.0030122.7212339.2512123.9778941.2542246.2566603.6271141.3562519.9754544.2605251.3483404-.0957268.6179699-.3718878.7053333-.7224192l3.976-14.888c.2299136-.8740589 1.0192107-1.4839889 1.923-1.486h17.4c.9038998.00423 1.692609.6142089 1.924 1.488l3.976 14.886c.1163643.437573.5122193.7423608.965.743.0873773-.0010057.1743236-.0124195.259-.034.2564012-.0684473.4750803-.2360051.6078753-.4657705.132795-.2297653.1688142-.502893.1001247-.7592295l-.432-1.608h4.15c1.1045695 0 2-.8954305 2-2v-1c0-1.1045695-.8954305-2-2-2z" fill="#c03a2b"/><path id="Path" d="m24.5 37.5c-.4043959-.0000863-.7689341-.2437275-.923678-.6173454-.1547439-.373618-.0692299-.8036603.216678-1.0896546l9.5-9.5c.3923789-.3789722 1.0160848-.3735524 1.4018186.0121814s.3911536 1.0094397.0121814 1.4018186l-9.5 9.5c-.1874927.1875494-.4418052.2929434-.707.293z" fill="#3f5c6c"/><path id="Path" d="m33 38c-.4043959-.0000863-.7689341-.2437275-.923678-.6173454-.1547439-.373618-.0692299-.8036603.216678-1.0896546l10-10c.3923789-.3789722 1.0160848-.3735524 1.4018186.0121814s.3911536 1.0094397.0121814 1.4018186l-10 10c-.1874927.1875494-.4418052.2929434-.707.293z" fill="#3f5c6c"/><path id="Path" d="m19 51h7v5c0 1.1045695-.8954305 2-2 2h-3c-1.1045695 0-2-.8954305-2-2z" fill="#464f5d"/><path id="Path" d="m46 51h7v5c0 1.1045695-.8954305 2-2 2h-3c-1.1045695 0-2-.8954305-2-2z" fill="#464f5d"/><path id="Path" d="m21 35h30c2.209139 0 4 1.790861 4 4v11c0 1.1045695-.8954305 2-2 2h-34c-1.1045695 0-2-.8954305-2-2v-11c0-2.209139 1.790861-4 4-4z" fill="#e64c3c"/><path id="Path" d="m17 40h8c.3786657.0002022.7247365.2142706.894.553l1 2c.1548588.3099025.1382854.6778792-.0438055.9726057-.1820908.2947265-.5037544.4742093-.8501945.4743943h-9z" fill="#f0c419"/><path id="Path" d="m55 40h-8c-.1854298.0000307-.3671992.0516186-.525.149-.1578152.0964109-.285605.2349364-.369.4l-.5 1-.5 1c-.1567656.3102365-.1411856.6796229.0411472.9755568.1823329.2959339.5052584.4759565.8528528.4754432l9 .0000011z" fill="#f0c419"/><rect id="Rectangle" fill="#ecf0f1" height="4" rx="1" width="12" x="30" y="44"/><path id="Path" d="m38 41h-4c-.5522847 0-1-.4477153-1-1s.4477153-1 1-1h4c.5522847 0 1 .4477153 1 1s-.4477153 1-1 1z" fill="#bdc3c7"/><path id="Path" d="m12.41 31.6-4.14 9.41c-.67845474 1.4989187-2.43759202 2.1717083-3.94312748 1.5080661-1.50553546-.6636423-2.1956377-2.4160602-1.54687252-3.9280661l4.14-9.41z" fill="#e64c3c"/><path id="Path" d="m30.65 22.45c-3.0997984 7.028737-10.7525881 10.8677187-18.24 9.15-.980693-.227425-1.9381396-.545458-2.86-.95-.92204267-.4039955-1.80281618-.896291-2.63-1.47-6.95161908-4.794322-8.98051982-14.1656878-4.63439301-21.4059718 4.3461268-7.24028404 13.57079591-9.85646707 21.07088901-5.97585684 7.500093 3.88061023 10.6931316 12.92181804 7.293504 20.65182864z" fill="#d1d4d1"/><path id="Path" d="m16 28.008c-6.62962607-.0033138-12.00131353-5.3803739-11.99799982-12.01.00331371-6.62962607 5.38037375-12.00131361 12.00999982-11.998 6.6296261.00331381 12.0013135 5.38037393 11.9979998 12.01-.0033137 6.6296261-5.3803737 12.0013136-12.0099998 11.998z" fill="#67b9cc"/><g fill="#fff"><path id="Path" d="m9.053 20.971c-.36204722.0002593-.69595896-.195192-.873-.511-2.45410617-4.3158667-.95252459-9.8037738 3.357-12.269.3107169-.19065349.7005648-.19711776 1.0174318-.01687056.3168671.18024719.5105433.51864431.5054598.88315485s-.2081213.69737504-.5298916.86871571c-3.35589526 1.9206724-4.52206276 6.1964707-2.606 9.555.1739901.3095326.1707906.6881159-.00840607.9946636-.17919669.3065478-.5075124.4950799-.86259393.4953364z"/><circle id="Oval" cx="16" cy="8" r="1"/></g></g></g></svg>