<svg id="Layer_3" height="512" viewBox="0 0 64 64" width="512" xmlns="http://www.w3.org/2000/svg" data-name="Layer 3"><path d="m45.658 58a6 6 0 0 1 -5.658 4h-32a6 6 0 0 1 -6-6v-42a6 6 0 0 1 6-6h32a6 6 0 0 1 6 6v18z" fill="#2e77b8"/><path d="m29 58.812a3 3 0 0 1 0-5.659v-4.171a5.911 5.911 0 0 1 .812-3.005 3 3 0 0 1 .188-5.995h1.388l.2-3.064a6.475 6.475 0 0 1 6.412-5.918h8v-17a6 6 0 0 0 -6-6h-32a5.968 5.968 0 0 0 -3.119.881 5.968 5.968 0 0 0 -.881 3.119v42a6 6 0 0 0 6 6h19v-.018z" fill="#3688cb"/><path d="m37 59.982v.018h5a5.95 5.95 0 0 0 3.114-.891c.025-.041.046-.085.071-.127h-8.185z" fill="#3688cb"/><path d="m42 58h-34a2 2 0 0 1 -2-2v-42a2 2 0 0 1 2-2h32a2 2 0 0 1 2 2z" fill="#b3b3b3"/><path d="m29 53.153v-4.171a5.911 5.911 0 0 1 .812-3.005 3 3 0 0 1 .188-5.995h1.388l.2-3.064a6.475 6.475 0 0 1 6.412-5.918h4v-17a2 2 0 0 0 -2-2h-32v42a2 2 0 0 0 2 2h17v-.018a3.007 3.007 0 0 1 2-2.829z" fill="#e6e6e6"/><path d="m34 7h-20v5a3 3 0 0 0 3 3h14a3 3 0 0 0 3-3z" fill="#485a62"/><path d="m18 7v-3a2 2 0 0 1 2-2h8a2 2 0 0 1 2 2v3" fill="#283237"/><path d="m33 30v-4h-1.262a7.968 7.968 0 0 0 -.852-2.058l.892-.892-2.828-2.828-.892.892a7.968 7.968 0 0 0 -2.058-.852v-1.262h-4v1.262a7.968 7.968 0 0 0 -2.058.852l-.892-.892-2.828 2.828.892.892a7.968 7.968 0 0 0 -.852 2.058h-1.262v4h1.262a7.968 7.968 0 0 0 .852 2.058l-.892.892 2.828 2.828.892-.892a7.968 7.968 0 0 0 2.058.852v1.262h4v-1.262a7.968 7.968 0 0 0 2.058-.852l.892.892 2.828-2.828-.892-.892a7.968 7.968 0 0 0 .852-2.058z" fill="#eeab45"/><path d="m30.886 23.942.892-.892-2.828-2.828-.892.892a7.968 7.968 0 0 0 -2.058-.852v-1.262h-4v1.262a7.968 7.968 0 0 0 -2.058.852l-.892-.892-.05.05v8.728a4 4 0 0 0 4 4h8.728l.05-.05-.892-.892a7.968 7.968 0 0 0 .852-2.058h1.262v-4h-1.262a7.968 7.968 0 0 0 -.852-2.058z" fill="#f2c14e"/><circle cx="24" cy="28" fill="#e6e6e6" r="4"/><path d="m11 42h4v4h-4z" fill="#fff"/><path d="m11 50h4v4h-4z" fill="#fff"/><g fill="#b3b3b3"><path d="m20 41h5v2h-5z"/><path d="m18 45h7v2h-7z"/><path d="m20 49h5v2h-5z"/><path d="m18 53h7v2h-7z"/></g><path d="m23 25a3.977 3.977 0 0 0 -2.281.719 3.994 3.994 0 0 0 5.562 5.561 3.994 3.994 0 0 0 -3.281-6.28z" fill="#fff"/><path d="m30 57.983v2a2 2 0 0 0 2 2h2a2 2 0 0 0 2-2v-2" fill="#39474d"/><rect fill="#c33e37" height="4" rx="2" width="34" x="28" y="40.983"/><path d="m57.932 44.932-.517-7.949a5.433 5.433 0 0 0 -5.415-4.983h-14a5.433 5.433 0 0 0 -5.415 4.983l-.517 7.949z" fill="#419ade"/><path d="m35.517 36.983-.517 7.949h22.932l-.517-7.949a5.433 5.433 0 0 0 -5.415-4.983h-11.068a5.433 5.433 0 0 0 -5.415 4.983z" fill="#47a7ed"/><path d="m60 53.983v-5a5 5 0 0 0 -5-5h-20a5 5 0 0 0 -5 5v5z" fill="#c33e37"/><rect fill="#485a62" height="4" rx="2" width="34" x="28" y="53.983"/><path d="m60 53.983h-30a2 2 0 0 0 2 2h30a2 2 0 0 0 -2-2z" fill="#596e79"/><path d="m52 32h-14a5.432 5.432 0 0 0 -5.238 4h24.476a5.432 5.432 0 0 0 -5.238-4z" fill="#c33e37"/><path d="m35.693 36h21.545a5.432 5.432 0 0 0 -5.238-4h-11.068a5.434 5.434 0 0 0 -5.239 4z" fill="#e15240"/><path d="m51 46.983a4 4 0 1 1 4-4 4 4 0 0 1 -4 4zm0-6a2 2 0 1 0 2 2 2 2 0 0 0 -2-2z" fill="#3688cb"/><path d="m60 48.983a5 5 0 0 0 -5-5h-20a4.95 4.95 0 0 0 -2.375.625 4.947 4.947 0 0 0 -.625 2.375 5 5 0 0 0 5 5h23z" fill="#e15240"/><path d="m36 48.175a1.808 1.808 0 0 0 -1.1-1.662l-3.11-1.335a4.968 4.968 0 0 0 -1.79 3.805v1h4.192a1.808 1.808 0 0 0 1.808-1.808z" fill="#f2c14e"/><path d="m58.21 45.179-3.11 1.334a1.808 1.808 0 0 0 .712 3.47h4.188v-1a4.965 4.965 0 0 0 -1.79-3.804z" fill="#f8d858"/><path d="m34.9 46.513-2.619-1.122a4.768 4.768 0 0 0 -.281 1.592 4.956 4.956 0 0 0 1.023 3h1.169a1.808 1.808 0 0 0 .712-3.47z" fill="#f8d858"/><path d="m31 58.983a2 2 0 0 0 2 2h2a1.99 1.99 0 0 0 .82-.18 1.99 1.99 0 0 0 .18-.82v-2h-5z" fill="#283237"/><path d="m60 57.983v2a2 2 0 0 1 -2 2h-2a2 2 0 0 1 -2-2v-2" fill="#39474d"/><path d="m59 58.983a2 2 0 0 1 -2 2h-2a1.99 1.99 0 0 1 -.82-.18 1.99 1.99 0 0 1 -.18-.82v-2h5z" fill="#283237"/><path d="m52 53.983-1.106-2.211a3.234 3.234 0 0 0 -2.894-1.789h-6a3.234 3.234 0 0 0 -2.894 1.789l-1.106 2.211" fill="#39474d"/><path d="m52 53.983-1.106-2.211a2.982 2.982 0 0 0 -.171-.29 3.224 3.224 0 0 0 -1.723-.5h-6a3.234 3.234 0 0 0 -2.894 1.789l-.606 1.212z" fill="#485a62"/><path d="m34 12v-5h-18v5a3 3 0 0 0 3 3h12a3 3 0 0 0 3-3z" fill="#596e79"/><path d="m28 2h-6a2 2 0 0 0 -2 2v3h10v-3a2 2 0 0 0 -2-2z" fill="#39474d"/></svg>