<svg height="512" viewBox="0 0 59 58" width="512" xmlns="http://www.w3.org/2000/svg"><g id="Page-1" fill="none" fill-rule="evenodd"><g id="046---Signing-Paperwork" transform="translate(0 -1)"><path id="Path" d="m20.435 38.116 3.975-14.886c.3460895-1.3127465 1.5323999-2.2281348 2.89-2.23h17.4c1.3576001.0018652 2.5439105.9172535 2.89 2.23l3.975 14.886z" fill="#2fa8cc"/><path id="Path" d="m46.07 21.33c-4.49.49-19.14 3.12-24.49 16.79h-1.15l3.98-14.89c.3460895-1.3127465 1.5323999-2.2281348 2.89-2.23h17.4c.4763408.0000843.9458653.1131814 1.37.33z" fill="#67b9cc"/><path id="Path" d="m56.25 31.25h-3c-1.0486182.001907-1.9165846.8156802-1.986 1.862l-2.707-10.138c-.4644098-1.7500099-2.0464216-2.9698448-3.857-2.974h-17.4c-1.8096347.0043652-3.3909278 1.2231419-3.856 2.972l-3.975 14.886c-.0990438.3474118-.0030122.7212339.2512123.9778941.2542246.2566603.6271141.3562519.9754544.2605251.3483404-.0957268.6179699-.3718878.7053333-.7224192l3.976-14.888c.2299136-.8740589 1.0192107-1.4839889 1.923-1.486h17.4c.9038998.00423 1.692609.6142089 1.924 1.488l3.976 14.886c.1163643.437573.5122193.7423608.965.743.0873773-.0010057.1743236-.0124195.259-.034.2564012-.0684473.4750803-.2360051.6078753-.4657705.132795-.2297653.1688142-.502893.1001247-.7592295l-.432-1.608h4.15c1.1045695 0 2-.8954305 2-2v-1c0-1.1045695-.8954305-2-2-2z" fill="#c03a2b"/><path id="Path" d="m24.5 38.5c-.4043959-.0000863-.7689341-.2437275-.923678-.6173454-.1547439-.373618-.0692299-.8036603.216678-1.0896546l9.5-9.5c.3923789-.3789722 1.0160848-.3735524 1.4018186.0121814s.3911536 1.0094397.0121814 1.4018186l-9.5 9.5c-.1874927.1875494-.4418052.2929434-.707.293z" fill="#3f5c6c"/><path id="Path" d="m33 39c-.4043959-.0000863-.7689341-.2437275-.923678-.6173454-.1547439-.373618-.0692299-.8036603.216678-1.0896546l10-10c.3923789-.3789722 1.0160848-.3735524 1.4018186.0121814s.3911536 1.0094397.0121814 1.4018186l-10 10c-.1874927.1875494-.4418052.2929434-.707.293z" fill="#3f5c6c"/><path id="Path" d="m19 52h7v5c0 1.1045695-.8954305 2-2 2h-3c-1.1045695 0-2-.8954305-2-2z" fill="#464f5d"/><path id="Path" d="m46 52h7v5c0 1.1045695-.8954305 2-2 2h-3c-1.1045695 0-2-.8954305-2-2z" fill="#464f5d"/><path id="Path" d="m21 36h30c2.209139 0 4 1.790861 4 4v11c0 1.1045695-.8954305 2-2 2h-34c-1.1045695 0-2-.8954305-2-2v-11c0-2.209139 1.790861-4 4-4z" fill="#e64c3c"/><path id="Path" d="m17 41h8c.3786657.0002022.7247365.2142706.894.553l1 2c.1548588.3099025.1382854.6778792-.0438055.9726057-.1820908.2947265-.5037544.4742093-.8501945.4743943h-9z" fill="#f0c419"/><path id="Path" d="m55 41h-8c-.1854298.0000307-.3671992.0516186-.525.149-.1578152.0964109-.285605.2349364-.369.4l-.5 1-.5 1c-.1567656.3102365-.1411856.6796229.0411472.9755568.1823329.2959339.5052584.4759565.8528528.4754432l9 .0000011z" fill="#f0c419"/><rect id="Rectangle" fill="#ecf0f1" height="4" rx="1" width="12" x="30" y="45"/><path id="Path" d="m38 42h-4c-.5522847 0-1-.4477153-1-1s.4477153-1 1-1h4c.5522847 0 1 .4477153 1 1s-.4477153 1-1 1z" fill="#bdc3c7"/><path id="Path" d="m26 24.64v5.36c-.0032948 1.1032019-.8967981 1.9967052-2 2h-22c-1.10320187-.0032948-1.9967052-.8967981-2-2v-27c.0032948-1.10320187.89679813-1.9967052 2-2h22c1.1032019.0032948 1.9967052.89679813 2 2z" fill="#9fc9d3"/><path id="Path" d="m42.63 8.66-15.56 15.55-4.24-4.24 15.55-15.56z" fill="#f0c419"/><path id="Path" d="m27.07 24.21-7.07 2.83 2.83-7.07z" fill="#cbb292"/><path id="Path" d="m45.46 5.83-2.83 2.83-4.25-4.25 2.83-2.82c.3732815-.37902819.8830212-.5924538 1.415-.5924538s1.0417185.21342561 1.415.5924538l1.42 1.41c.3755541.37513651.5865733.8841815.5865733 1.415s-.2110192 1.03986349-.5865733 1.415z" fill="#ff5364"/><g fill="#285680"><path id="Path" d="m21 7h-16c-.55228475 0-1-.44771525-1-1s.44771525-1 1-1h16c.5522847 0 1 .44771525 1 1s-.4477153 1-1 1z"/><path id="Path" d="m21 11h-16c-.55228475 0-1-.4477153-1-1 0-.55228475.44771525-1 1-1h16c.5522847 0 1 .44771525 1 1 0 .5522847-.4477153 1-1 1z"/><path id="Path" d="m21 15h-16c-.55228475 0-1-.4477153-1-1s.44771525-1 1-1h16c.5522847 0 1 .4477153 1 1s-.4477153 1-1 1z"/><path id="Path" d="m21 19h-16c-.55228475 0-1-.4477153-1-1s.44771525-1 1-1h16c.5522847 0 1 .4477153 1 1s-.4477153 1-1 1z"/><path id="Path" d="m20 28.042h-.021l-1.079-.022c-.9062166-.0202458-1.7456106-.4811847-2.249-1.235-.1412758-.2237003-.3864363-.3604027-.651-.363-.2583592-.0011007-.4998191.1282797-.642.344-.5133633.771716-1.3791309 1.2350105-2.306 1.234h-1.1c-.9268691.0010105-1.7926367-.462284-2.306-1.234-.14292164-.2149152-.38390093-.3440609-.642-.3440609s-.49907836.1291457-.642.3440609c-.5141468.7728991-1.38171427 1.2363529-2.31 1.234h-1.052c-.55228475 0-1-.4477153-1-1s.44771525-1 1-1h1.052c.25813258.0001932.49918902-.128971.642-.344.51417633-.7707829 1.37945611-1.2337061 2.306-1.2337061s1.7918237.4629232 2.306 1.2337061c.142811.215029.3838674.3441932.642.344h1.1c.2581326.0001932.499189-.128971.642-.344.5141763-.7707829 1.3794561-1.2337061 2.306-1.2337061s1.7918237.4629232 2.306 1.2337061c.1394232.2203225.3793683.3567913.64.364l1.075.022c.5522847.005799.995299.4582153.9895 1.0105s-.4582153.995299-1.0105.9895z"/></g></g></g></svg>