<svg id="Layer_1" height="512" viewBox="0 0 64 64" width="512" xmlns="http://www.w3.org/2000/svg" data-name="Layer 1"><circle cx="52" cy="55" fill="#bf7c7c" r="8"/><circle cx="42" cy="38" fill="#bf7c7c" r="8"/><circle cx="12" cy="55" fill="#73bf86" r="8"/><circle cx="32" cy="55" fill="#73bf86" r="8"/><circle cx="22" cy="38" fill="#73bf86" r="8"/><path d="m44.75381 11.49736h-.8442a1.253 1.253 0 0 1 -1.18207-.90356 11.17428 11.17428 0 0 0 -.73409-1.76721 1.254 1.254 0 0 1 .19655-1.47731l.60033-.60029a13.0688 13.0688 0 0 0 -3.53929-3.53932l-.60032.60033a1.254 1.254 0 0 1 -1.47724.1966 11.17242 11.17242 0 0 0 -1.76724-.73409 1.25312 1.25312 0 0 1 -.9036-1.18211v-.84418a12.84183 12.84183 0 0 0 -5.00528 0v.84417a1.25312 1.25312 0 0 1 -.9036 1.18211 11.17242 11.17242 0 0 0 -1.76724.73409 1.254 1.254 0 0 1 -1.47724-.19659l-.60036-.60032a13.0688 13.0688 0 0 0 -3.53929 3.53932l.60033.60029a1.254 1.254 0 0 1 .19659 1.47731 11.17428 11.17428 0 0 0 -.73409 1.76721 1.253 1.253 0 0 1 -1.18207.90356h-.8442a12.84337 12.84337 0 0 0 0 5.00528h.8442a1.253 1.253 0 0 1 1.18207.90356 11.17428 11.17428 0 0 0 .73409 1.76721 1.254 1.254 0 0 1 -.19655 1.4773l-.60033.60029a13.0688 13.0688 0 0 0 3.53929 3.53932l.60036-.60032a1.254 1.254 0 0 1 1.47724-.1966 11.17242 11.17242 0 0 0 1.76724.73409 1.25312 1.25312 0 0 1 .9036 1.18211v.84417a12.84183 12.84183 0 0 0 5.00528 0v-.84417a1.25312 1.25312 0 0 1 .9036-1.18211 11.17242 11.17242 0 0 0 1.76724-.73409 1.254 1.254 0 0 1 1.47724.1966l.60036.60032a13.0688 13.0688 0 0 0 3.53925-3.53933l-.60037-.60028a1.254 1.254 0 0 1 -.19659-1.47731 11.17428 11.17428 0 0 0 .73409-1.76721 1.253 1.253 0 0 1 1.18207-.90356h.8442a12.84337 12.84337 0 0 0 0-5.00528z" fill="#f2d891"/><circle cx="32" cy="14" fill="#f2d891" r="7"/><path d="m44.75381 11.49736h-.8442a1.253 1.253 0 0 1 -1.18207-.90356 11.17428 11.17428 0 0 0 -.73409-1.76721 1.254 1.254 0 0 1 .19655-1.47731l.60033-.60029a13.0688 13.0688 0 0 0 -3.53929-3.53932l-.60032.60033a1.254 1.254 0 0 1 -1.47724.1966 11.17242 11.17242 0 0 0 -1.76724-.73409 1.25312 1.25312 0 0 1 -.9036-1.18211v-.84418a12.84183 12.84183 0 0 0 -5.00528 0v.84417a1.25312 1.25312 0 0 1 -.9036 1.18211 11.17242 11.17242 0 0 0 -1.76724.73409 1.254 1.254 0 0 1 -1.47724-.19659l-.60036-.60032a13.0688 13.0688 0 0 0 -3.53929 3.53932l.60033.60029a1.254 1.254 0 0 1 .19659 1.47731 11.17428 11.17428 0 0 0 -.73409 1.76721 1.253 1.253 0 0 1 -1.18207.90356h-.8442a12.84337 12.84337 0 0 0 0 5.00528h.8442a1.253 1.253 0 0 1 1.18207.90356 11.17428 11.17428 0 0 0 .73409 1.76721 1.254 1.254 0 0 1 -.19655 1.4773l-.60033.60029a13.0688 13.0688 0 0 0 3.53929 3.53932l.60036-.60032a1.254 1.254 0 0 1 1.47724-.1966 11.17242 11.17242 0 0 0 1.76724.73409 1.25312 1.25312 0 0 1 .9036 1.18211v.84417a12.84183 12.84183 0 0 0 5.00528 0v-.84417a1.25312 1.25312 0 0 1 .9036-1.18211 11.17242 11.17242 0 0 0 1.76724-.73409 1.254 1.254 0 0 1 1.47724.1966l.60036.60032a13.0688 13.0688 0 0 0 3.53925-3.53933l-.60037-.60028a1.254 1.254 0 0 1 -.19659-1.47731 11.17428 11.17428 0 0 0 .73409-1.76721 1.253 1.253 0 0 1 1.18207-.90356h.8442a12.84337 12.84337 0 0 0 0-5.00528z" fill="#7583a6"/><g fill="#cee0f2"><circle cx="32" cy="14" r="7"/><path d="m11.249 58.25a.74712.74712 0 0 1 -.44922-.1499l-2.5-1.875.9004-1.2002 1.89941 1.4253 3.30078-4.4004 1.19922.9004-3.75 5a.74727.74727 0 0 1 -.60059.2998z"/><path d="m31.249 58.25a.74712.74712 0 0 1 -.44922-.1499l-2.5-1.875.9004-1.2002 1.89941 1.4253 3.30078-4.4004 1.19922.9004-3.75 5a.74727.74727 0 0 1 -.60059.2998z"/><path d="m21.249 41.25a.74712.74712 0 0 1 -.44922-.1499l-2.5-1.875.9004-1.2002 1.89941 1.4253 3.30078-4.4004 1.19922.9004-3.75 5a.74727.74727 0 0 1 -.60059.2998z"/><path d="m55.53 52.53-1.06-1.06-2.47 2.469-2.47-2.469-1.06 1.06 2.469 2.47-2.469 2.47 1.06 1.06 2.47-2.469 2.47 2.469 1.06-1.06-2.469-2.47z"/><path d="m44.47 34.47-2.47 2.469-2.47-2.469-1.06 1.06 2.469 2.47-2.469 2.47 1.06 1.06 2.47-2.469 2.47 2.469 1.06-1.06-2.469-2.47 2.469-2.47z"/></g><path d="m31.499 16.75a.74712.74712 0 0 1 -.44922-.1499l-2.5-1.875.9004-1.2002 1.89941 1.4253 3.30078-4.4004 1.19922.9004-3.75 5a.74727.74727 0 0 1 -.60059.2998z" fill="#7c88a6"/><path d="m48 13.25h4v1.5h-4z" fill="#a3b1bf"/><path d="m12 13.25h4v1.5h-4z" fill="#a3b1bf"/><path d="m47.866 18.923h1.5v4h-1.5z" fill="#a3b1bf" transform="matrix(.385 -.923 .923 .385 10.603 57.751)"/><path d="m14.634 5.077h1.5v4h-1.5z" fill="#a3b1bf" transform="matrix(.385 -.923 .923 .385 2.935 18.556)"/><path d="m46.644 6.396h4v1.5h-4z" fill="#a3b1bf" transform="matrix(.924 -.381 .381 .924 .952 19.097)"/><path d="m13.356 20.103h4v1.5h-4z" fill="#a3b1bf" transform="matrix(.924 -.381 .381 .924 -6.794 7.435)"/></svg>