<svg id="Layer_1" height="512" viewBox="0 0 256 256" width="512" xmlns="http://www.w3.org/2000/svg"><g><g><path d="m128 173.708c-2.209 0-4-1.791-4-4v-20.979c0-2.209 1.791-4 4-4s4 1.791 4 4v20.979c0 2.209-1.791 4-4 4z" fill="#f79219"/></g><g><g><path d="m41.696 210.342h-21.857c-2.209 0-4-1.791-4-4v-98.774c0-2.209 1.791-4 4-4h10.248c2.209 0 4 1.791 4 4s-1.791 4-4 4h-6.248v90.774h17.857c2.209 0 4 1.791 4 4s-1.791 4-4 4z" fill="#f79219"/></g><g><path d="m236.161 210.342h-21.789c-2.209 0-4-1.791-4-4s1.791-4 4-4h17.789v-90.774h-7.22c-2.209 0-4-1.791-4-4s1.791-4 4-4h11.22c2.209 0 4 1.791 4 4v98.774c0 2.209-1.791 4-4 4z" fill="#f79219"/></g></g><g><g><g><g><g><circle cx="192.9" cy="206.342" fill="#58595b" r="26.097"/></g><g><circle cx="192.9" cy="206.342" fill="#e6e7e8" r="18.103"/></g><g><path d="m207.143 195.166c-.896-1.141-1.927-2.171-3.067-3.067l-9.007 9.007v-12.738c-.711-.085-1.435-.129-2.169-.129s-1.458.044-2.169.129v12.738l-9.007-9.007c-1.141.896-2.171 1.927-3.067 3.067l9.007 9.007h-12.738c-.085.711-.129 1.435-.129 2.169s.044 1.458.129 2.169h12.738l-9.007 9.007c.896 1.141 1.927 2.171 3.067 3.067l9.007-9.007v12.738c.711.085 1.435.129 2.169.129s1.458-.044 2.169-.129v-12.738l9.007 9.007c1.141-.896 2.171-1.927 3.067-3.067l-9.007-9.007h12.738c.085-.711.129-1.435.129-2.169s-.044-1.458-.129-2.169h-12.738z" fill="#ffa91a"/></g><g><circle cx="192.9" cy="206.342" fill="#f79219" r="7.25"/></g></g></g><g><g><path d="m63.636 179.708c-14.709 0-26.634 11.924-26.634 26.633s11.924 26.634 26.634 26.634 26.634-11.924 26.634-26.634c0-14.709-11.924-26.633-26.634-26.633zm0 45.109c-10.203 0-18.475-8.272-18.475-18.475s8.272-18.475 18.475-18.475 18.475 8.272 18.475 18.475-8.271 18.475-18.475 18.475z" fill="#8c3f0a"/></g><g><path d="m39.918 202.627h47.437v7.428h-47.437z" fill="#8c3f0a"/></g><g><path d="m50.807 213.516h25.659v7.428h-25.659z" fill="#8c3f0a" transform="matrix(0 1 -1 0 280.867 153.594)"/></g><g><path d="m68.773 213.696h-10.273c-3.095 0-5.603-2.509-5.603-5.603v-3.502c0-3.095 2.509-5.603 5.603-5.603h10.273c3.095 0 5.603 2.509 5.603 5.603v3.502c0 3.094-2.508 5.603-5.603 5.603z" fill="#f79219"/></g></g></g><g><g><path d="m153.533 214.006-6.644-5.906c.107-1.161.107-2.354 0-3.515l6.644-5.906c.686-.61.849-1.618.39-2.412l-4.236-7.336c-.459-.795-1.413-1.158-2.284-.868l-8.437 2.8c-.954-.677-1.973-1.268-3.046-1.762l-1.792-8.703c-.185-.899-.976-1.544-1.894-1.544h-8.471c-.917 0-1.709.645-1.894 1.544l-1.792 8.703c-1.073.494-2.092 1.085-3.046 1.762l-8.437-2.8c-.871-.289-1.825.073-2.284.868l-4.235 7.336c-.459.795-.296 1.802.39 2.412l6.644 5.906c-.107 1.161-.107 2.354 0 3.516l-6.644 5.906c-.686.61-.849 1.617-.39 2.412l4.235 7.337c.459.795 1.413 1.157 2.284.868l8.436-2.801c.954.677 1.973 1.268 3.046 1.762l1.792 8.703c.185.899.976 1.543 1.894 1.543h8.471c.918 0 1.709-.645 1.894-1.543l1.792-8.703c1.073-.494 2.092-1.085 3.046-1.762l8.436 2.801c.871.289 1.825-.074 2.284-.868l4.236-7.337c.461-.796.298-1.804-.388-2.413zm-25.533 2.747c-5.75 0-10.411-4.661-10.411-10.411s4.661-10.411 10.411-10.411 10.411 4.661 10.411 10.411-4.661 10.411-10.411 10.411z" fill="#f79219"/><g><g><path d="m128 187.372c-10.477 0-18.97 8.493-18.97 18.97s8.493 18.969 18.97 18.969 18.97-8.493 18.97-18.969c0-10.477-8.493-18.97-18.97-18.97zm0 29.381c-5.75 0-10.411-4.661-10.411-10.411s4.661-10.411 10.411-10.411 10.411 4.661 10.411 10.411-4.661 10.411-10.411 10.411z" fill="#ef7816"/></g></g><path d="m128 192.048c-7.894 0-14.293 6.4-14.293 14.294s6.399 14.293 14.293 14.293 14.294-6.4 14.294-14.293c0-7.894-6.4-14.294-14.294-14.294zm0 24.705c-5.75 0-10.411-4.661-10.411-10.411s4.661-10.411 10.411-10.411 10.411 4.661 10.411 10.411-4.661 10.411-10.411 10.411z" fill="#ffa91a"/></g></g></g><g><g><g><g><g><g><path d="m194.371 64.223.005.016c.333-.891 1.068-1.608 2.04-1.871l17.577-4.742c1.786-.482 3.584.736 3.798 2.574l1.187 10.183c.174 1.491-.77 2.884-2.22 3.275l-21.915 5.898c-1.67.45-3.427-.335-4.207-1.879-.457-.906-.517-1.961-.165-2.912z" fill="#d10028"/></g></g></g><g><g><g><path d="m60.737 64.223-.005.016c-.333-.891-1.068-1.608-2.04-1.871l-17.577-4.742c-1.786-.482-3.584.736-3.798 2.574l-1.187 10.183c-.174 1.491.77 2.884 2.22 3.275l21.915 5.898c1.67.45 3.427-.335 4.207-1.879.457-.906.517-1.961.165-2.912z" fill="#d10028"/></g></g></g></g><g><g><g><path d="m72.692 168.019h-23.164c-4.515 0-8.175-3.66-8.175-8.176v-39.21c0-4.515 3.66-8.176 8.175-8.176h23.164c4.515 0 8.176 3.66 8.176 8.176v39.21c0 4.515-3.661 8.176-8.176 8.176z" fill="#414042"/></g></g><g><g><path d="m205.58 168.019h-23.164c-4.515 0-8.176-3.66-8.176-8.176v-39.21c0-4.515 3.66-8.176 8.176-8.176h23.164c4.515 0 8.175 3.66 8.175 8.176v39.21c0 4.515-3.66 8.176-8.175 8.176z" fill="#414042"/></g></g></g><g><g><path d="m202.916 148.73h-150.724c-3.694 0-6.821-2.727-7.324-6.386l-6.239-45.38c-1.45-10.544 6.744-19.941 17.387-19.941h143.076c10.643 0 18.836 9.397 17.387 19.941l-6.239 45.38c-.503 3.659-3.63 6.386-7.324 6.386z" fill="#e63950"/></g></g><g><path d="m208.744 79.91c2.254 3.41 3.343 7.631 2.735 12.054l-6.239 45.38c-.503 3.659-3.63 6.386-7.324 6.386h-150.724c-.724 0-1.426-.105-2.091-.301.912 3.101 3.773 5.301 7.091 5.301h150.724c3.694 0 6.821-2.727 7.324-6.386l6.239-45.38c.961-6.99-2.316-13.476-7.735-17.054z" fill="#d10028"/></g><g><g><path d="m41.431 117.346 3.437 24.998c.503 3.659 3.63 6.386 7.324 6.386h150.724c3.694 0 6.821-2.727 7.324-6.386l3.437-24.998z" fill="#d10028"/></g></g><g><g><path d="m172.956 34.875h-90.804c-5.489 0-10.394 3.425-12.284 8.578l-12.318 33.57h140.008l-12.317-33.57c-1.891-5.153-6.796-8.578-12.285-8.578z" fill="#e63950"/></g></g><g><g><path d="m87.676 108.146h-33.257c-1.592 0-2.939-1.177-3.152-2.754l-.672-4.975c-.258-1.908 1.226-3.606 3.152-3.606h33.256c1.592 0 2.938 1.177 3.151 2.754l.672 4.975c.259 1.908-1.225 3.606-3.15 3.606z" fill="#f1f2f2"/></g></g><g><g><path d="m167.432 108.146h33.256c1.592 0 2.939-1.177 3.152-2.754l.672-4.975c.258-1.908-1.226-3.606-3.152-3.606h-33.256c-1.592 0-2.938 1.177-3.151 2.754l-.672 4.975c-.258 1.908 1.225 3.606 3.151 3.606z" fill="#f1f2f2"/></g></g><g><g><path d="m184.847 77.022h-114.587l9.625-28.336c1.027-3.021 3.4-4.982 6.029-4.982h83.281c2.629 0 5.001 1.961 6.029 4.982z" fill="#f1f2f2"/></g></g><g><path d="m175.223 48.686c-1.027-3.021-3.4-4.983-6.029-4.983h-2.267l7.92 23.319h-101.19l-3.397 10h114.587z" fill="#e6e7e8"/></g><g><path d="m175.223 48.686c-.885-2.604-2.77-4.42-4.957-4.873l9.581 28.209h-107.888l-1.698 5h114.587z" fill="#d1d3d4"/></g></g></g><g><path d="m44.57 98.15c-.99 0-1.84-.74-1.98-1.73-.08-.62-.13-1.24-.13-1.85 0-3.27 1.19-6.44 3.34-8.9 2.58-2.95 6.3-4.65 10.22-4.65h100.27c1.1 0 2 .9 2 2 0 1.11-.9 2-2 2h-100.27c-2.76 0-5.39 1.2-7.2 3.28-1.52 1.74-2.36 3.96-2.36 6.27 0 .42.03.86.09 1.3.08.53-.06 1.06-.38 1.48-.32.43-.79.71-1.32.78-.09.01-.18.02-.28.02zm119.72-13.13c-1.101 0-2-.89-2-2 0-1.1.899-2 2-2 1.109 0 2 .9 2 2 0 1.11-.891 2-2 2z" fill="#e8566f"/></g></g></svg>