<?xml version="1.0" encoding="iso-8859-1"?>
<!-- Generator: Adobe Illustrator 19.0.0, SVG Export Plug-In . SVG Version: 6.00 Build 0)  -->
<svg version="1.1" id="Capa_1" xmlns="http://www.w3.org/2000/svg" xmlns:xlink="http://www.w3.org/1999/xlink" x="0px" y="0px"
	 viewBox="0 0 512 512" style="enable-background:new 0 0 512 512;" xml:space="preserve">
<path style="fill:#CDD1D3;" d="M440.616,171.511c1.168-30.491-35.836-46.967-57.64-25.289
	c-22.124,21.997-5.044,59.568,25.857,57.742c7.253,14.908,26.987,18.217,38.707,6.563
	C459.409,198.725,455.975,178.586,440.616,171.511z"/>
<path style="fill:#B6B7B7;" d="M437.818,156.654c-9.443-21.633-37.896-27.281-54.842-10.432
	c-18.685,18.578-9.72,50.114,15.187,56.676C386.826,176.957,410.488,149.437,437.818,156.654z"/>
<g>
	<circle style="fill:#CDD1D3;" cx="470.335" cy="255.428" r="21.141"/>
	<path style="fill:#CDD1D3;" d="M359.789,51.923c0.101-15.725-11.377-29.532-27.382-31.896
		c-22.396-3.309-41.064,17.046-35.918,39.029c-13.387,5.033-23.716,16.985-25.954,32.137c-3.283,22.22,12.068,42.893,34.288,46.176
		c18.955,2.8,36.776-7.965,43.644-24.982c19.547,9.994,43.129-2.188,46.331-23.867C397.85,67.87,380.631,49.794,359.789,51.923z"/>
</g>
<path style="fill:#B6B7B7;" d="M318.54,76.772c4.963-3.551,8.134-9.014,8.665-15.093c1.283-14.692,12.311-26.345,26.422-28.813
	C337.28,10.435,302.23,18.157,296.393,44.87c-1.065,4.873-0.957,9.687,0.096,14.186c-13.387,5.033-23.716,16.985-25.954,32.137
	c-3.731,25.254,16.475,47.731,42.116,46.567C295.665,119.757,298.555,91.073,318.54,76.772z"/>
<path style="fill:#FFB103;" d="M432.054,325.682c-23.516-61.265-82.891-104.758-152.434-104.758
	c-69.296,0-128.5,43.184-152.186,104.106c-1.364,0.264-38.484-2.329-72.005,26.988c20.296,10.905,12.209,41.352-10.335,41.352
	c-3.914-0.337-10.324,1.294-17.746-3.339c-4.313,9.691-7.252,22.175-8.563,33.081c17.964,0,423.325,0,476.498,0v-25.291
	C495.283,361.027,467.611,330.404,432.054,325.682z"/>
<path style="fill:#49A8E2;" d="M177.558,330.549h204.079c7.111,0,11.69-7.672,8.178-13.856
	c-21.778-38.339-62.976-64.204-110.219-64.204c-47.161,0-88.3,25.775-110.106,64.005
	C165.916,322.759,170.345,330.549,177.558,330.549z"/>
<path style="fill:#209AC9;" d="M194.886,316.495c19.825-34.755,55.627-59.21,97.406-63.37c-4.176-0.416-8.41-0.635-12.696-0.635
	c-47.161,0-88.3,25.775-110.106,64.005c-3.573,6.265,0.856,14.055,8.068,14.055h25.396
	C195.741,330.549,191.312,322.759,194.886,316.495z"/>
<path style="fill:#DB700F;" d="M291.52,370.376h-25.544c-4.267,0-7.727-3.459-7.727-7.727c0-4.268,3.459-7.727,7.727-7.727h25.544
	c4.267,0,7.727,3.459,7.727,7.727C299.247,366.917,295.788,370.376,291.52,370.376z"/>
<path style="fill:#68BFEA;" d="M305.022,255.049v75.5h76.615c7.111,0,11.69-7.672,8.178-13.856
	C372.052,285.422,341.367,262.456,305.022,255.049z"/>
<g>
	<path style="fill:#E0930A;" d="M38.913,393.369c-4.24,0-8.196-1.237-11.564-3.339c-4.313,9.691-7.252,22.175-8.563,33.081H44.6
		c1.219-10.133,3.844-21.625,7.669-30.976C47.01,393.968,43.597,393.18,38.913,393.369z"/>
	<path style="fill:#E0930A;" d="M127.029,325.029c-27.341,0-52.41,10.205-71.599,26.988c6.298,3.384,10.772,9.749,11.52,17.175
		c8.018-10.876,14.294-17.175,14.294-17.175c12.211-10.68,26.806-18.691,42.85-23.108
		C127.045,328.097,126.993,325.133,127.029,325.029z"/>
</g>
<path style="fill:#FC671D;" d="M45.095,348.897h-6.181c-12.403,0-22.494,10.091-22.494,22.495c0,12.403,10.09,22.494,22.494,22.494
	h6.181c12.403,0,22.494-10.09,22.494-22.494C67.589,358.988,57.498,348.897,45.095,348.897z"/>
<path style="fill:#FF5206;" d="M54.212,350.834c-6.221-2.77-10.898-1.693-15.298-1.938c-12.403,0-22.494,10.091-22.494,22.495
	c0,12.403,10.09,22.494,22.494,22.494c4.433-0.247,9.044,0.847,15.298-1.938C36.404,384.018,36.405,358.763,54.212,350.834z"/>
<path style="fill:#AAE8F2;" d="M491.732,421.05c-21.343,0-451.517,0-471.465,0C9.12,421.05,0,430.171,0,441.318
	c0,11.147,9.12,20.268,20.268,20.268c69.07,0,432.55,0,471.465,0c11.147,0,20.268-9.12,20.268-20.268
	C512,430.171,502.88,421.05,491.732,421.05z"/>
<path style="fill:#91DDE5;" d="M25.686,441.318c0-11.147,9.12-20.268,20.268-20.268H20.268C9.12,421.05,0,430.171,0,441.318
	c0,11.147,9.12,20.268,20.268,20.268h25.686C34.806,461.585,25.686,452.465,25.686,441.318z"/>
<circle style="fill:#485760;" cx="394.192" cy="441.464" r="50.84"/>
<circle style="fill:#818587;" cx="394.192" cy="441.464" r="19.478"/>
<path style="fill:#404B51;" d="M369.11,441.461c0-23.628,16.119-43.487,37.961-49.19c-4.113-1.074-8.428-1.65-12.878-1.65
	c-28.078,0-50.84,22.762-50.84,50.84c0,33.24,31.455,57.614,63.717,49.19C385.23,484.948,369.11,465.088,369.11,441.461z"/>
<path style="fill:#717677;" d="M403.932,424.61c-12.85-7.444-29.216,1.769-29.216,16.851c0,15.085,16.371,24.292,29.216,16.851
	C390.969,450.803,390.942,432.134,403.932,424.61z"/>
<circle style="fill:#485760;" cx="130.574" cy="441.464" r="50.84"/>
<circle style="fill:#818587;" cx="130.574" cy="441.464" r="19.478"/>
<path style="fill:#404B51;" d="M105.488,441.461c0-23.628,16.12-43.487,37.961-49.19c-32.296-8.432-63.717,15.978-63.717,49.19
	c0,33.24,31.455,57.614,63.717,49.19C121.609,484.948,105.488,465.088,105.488,441.461z"/>
<path style="fill:#717677;" d="M140.31,424.61c-12.85-7.444-29.216,1.769-29.216,16.851c0,15.085,16.371,24.292,29.216,16.851
	C127.348,450.803,127.321,432.134,140.31,424.61z"/>
<g>
</g>
<g>
</g>
<g>
</g>
<g>
</g>
<g>
</g>
<g>
</g>
<g>
</g>
<g>
</g>
<g>
</g>
<g>
</g>
<g>
</g>
<g>
</g>
<g>
</g>
<g>
</g>
<g>
</g>
</svg>
